<svg xmlns="http://www.w3.org/2000/svg" xmlns:xlink="http://www.w3.org/1999/xlink" viewBox="0 0 600.01 600"><defs><style>.cls-1{isolation:isolate;}.cls-2{fill:url(#linear-gradient);}.cls-3{opacity:0.68;}.cls-4,.cls-81{fill:#fff;}.cls-4{opacity:0;}.cls-10,.cls-11,.cls-12,.cls-13,.cls-14,.cls-15,.cls-16,.cls-17,.cls-18,.cls-19,.cls-20,.cls-21,.cls-22,.cls-23,.cls-24,.cls-25,.cls-26,.cls-27,.cls-28,.cls-29,.cls-30,.cls-31,.cls-32,.cls-33,.cls-34,.cls-35,.cls-36,.cls-37,.cls-38,.cls-39,.cls-4,.cls-40,.cls-41,.cls-42,.cls-43,.cls-44,.cls-45,.cls-46,.cls-47,.cls-48,.cls-49,.cls-5,.cls-50,.cls-51,.cls-52,.cls-53,.cls-54,.cls-55,.cls-56,.cls-57,.cls-58,.cls-59,.cls-6,.cls-60,.cls-7,.cls-8,.cls-9{mix-blend-mode:screen;}.cls-5{fill:#fffdfb;opacity:0.02;}.cls-6{fill:#fffbf7;opacity:0.04;}.cls-7{fill:#fff9f3;opacity:0.05;}.cls-8{fill:#fef7ef;opacity:0.07;}.cls-9{fill:#fef5eb;opacity:0.09;}.cls-10{fill:#fef3e7;opacity:0.11;}.cls-11{fill:#fef1e3;opacity:0.13;}.cls-12{fill:#feefdf;opacity:0.14;}.cls-13{fill:#feeddb;opacity:0.16;}.cls-14{fill:#feecd7;opacity:0.18;}.cls-15{fill:#fdead3;opacity:0.2;}.cls-16{fill:#fde8cf;opacity:0.21;}.cls-17{fill:#fde6cb;opacity:0.23;}.cls-18{fill:#fde4c7;opacity:0.25;}.cls-19{fill:#fde2c3;opacity:0.27;}.cls-20{fill:#fde0bf;opacity:0.29;}.cls-21{fill:#fddebb;opacity:0.3;}.cls-22{fill:#fddcb7;opacity:0.32;}.cls-23{fill:#fcdab3;opacity:0.34;}.cls-24{fill:#fcd8af;opacity:0.36;}.cls-25{fill:#fcd6ab;opacity:0.38;}.cls-26{fill:#fcd4a7;opacity:0.39;}.cls-27{fill:#fcd2a2;opacity:0.41;}.cls-28{fill:#fcd09e;opacity:0.43;}.cls-29{fill:#fcce9a;opacity:0.45;}.cls-30{fill:#fbcc96;opacity:0.46;}.cls-31{fill:#fbca92;opacity:0.48;}.cls-32{fill:#fbc88e;opacity:0.5;}.cls-33{fill:#fbc78a;opacity:0.52;}.cls-34{fill:#fbc586;opacity:0.54;}.cls-35{fill:#fbc382;opacity:0.55;}.cls-36{fill:#fbc17e;opacity:0.57;}.cls-37{fill:#fabf7a;opacity:0.59;}.cls-38{fill:#fabd76;opacity:0.61;}.cls-39{fill:#fabb72;opacity:0.63;}.cls-40{fill:#fab96e;opacity:0.64;}.cls-41{fill:#fab76a;opacity:0.66;}.cls-42{fill:#fab566;opacity:0.68;}.cls-43{fill:#fab362;opacity:0.7;}.cls-44{fill:#f9b15e;opacity:0.71;}.cls-45{fill:#f9af5a;opacity:0.73;}.cls-46{fill:#f9ad56;opacity:0.75;}.cls-47{fill:#f9ab52;opacity:0.77;}.cls-48{fill:#f9a94e;opacity:0.79;}.cls-49{fill:#f9a74a;opacity:0.8;}.cls-50{fill:#f9a546;opacity:0.82;}.cls-51{fill:#f8a342;opacity:0.84;}.cls-52{fill:#f8a23e;opacity:0.86;}.cls-53{fill:#f8a03a;opacity:0.88;}.cls-54{fill:#f89e36;opacity:0.89;}.cls-55{fill:#f89c32;opacity:0.91;}.cls-56{fill:#f89a2e;opacity:0.93;}.cls-57{fill:#f8982a;opacity:0.95;}.cls-58{fill:#f89626;opacity:0.96;}.cls-59{fill:#f79422;opacity:0.98;}.cls-60{fill:#f7921e;}.cls-61{fill:url(#linear-gradient-2);}.cls-62,.cls-65,.cls-68,.cls-85{fill:#00a4e0;}.cls-62{opacity:0.45;mix-blend-mode:multiply;}.cls-63,.cls-66,.cls-75{fill:#4fc8e9;}.cls-63{opacity:0.69;}.cls-64{fill:#49b7e9;opacity:0.63;}.cls-66{opacity:0.88;}.cls-67,.cls-77,.cls-87{fill:#6acdea;}.cls-67,.cls-72{opacity:0.89;}.cls-68,.cls-77{opacity:0.72;}.cls-69,.cls-70,.cls-86{fill:#d0ecf3;}.cls-69{opacity:0.66;}.cls-71{fill:#b6daeb;}.cls-72{fill:#43b3dd;}.cls-73,.cls-84{fill:#49a9df;}.cls-74,.cls-78,.cls-79{fill:#eef8f5;}.cls-74{opacity:0.79;}.cls-76{fill:#6eceea;}.cls-79{opacity:0.67;}.cls-80{fill:#ebf5e6;}.cls-82{fill:#e4e8dc;}.cls-83{fill:#dbe0de;}.cls-84{opacity:0.71;}.cls-85{opacity:0.55;}.cls-86{opacity:0.64;}</style><linearGradient id="linear-gradient" x1="300" y1="185.46" x2="300" gradientUnits="userSpaceOnUse"><stop offset="0" stop-color="#bce6fb"/><stop offset="1" stop-color="#82c9f0"/></linearGradient><linearGradient id="linear-gradient-2" x1="300" y1="600" x2="300" y2="163.67" gradientUnits="userSpaceOnUse"><stop offset="0" stop-color="#82bce7"/><stop offset="1" stop-color="#00bbf2"/></linearGradient></defs><title>bg</title><g class="cls-1"><g id="Layer_1" data-name="Layer 1"><rect class="cls-2" width="600" height="185.46"/><g class="cls-3"><ellipse class="cls-4" cx="298.34" cy="132.25" rx="127.78" ry="95.7"/><ellipse class="cls-5" cx="298.34" cy="132.49" rx="126.44" ry="94.6"/><ellipse class="cls-6" cx="298.34" cy="132.74" rx="125.09" ry="93.49"/><ellipse class="cls-7" cx="298.34" cy="132.98" rx="123.74" ry="92.38"/><ellipse class="cls-8" cx="298.34" cy="133.23" rx="122.39" ry="91.27"/><ellipse class="cls-9" cx="298.34" cy="133.47" rx="121.05" ry="90.16"/><ellipse class="cls-10" cx="298.34" cy="133.71" rx="119.7" ry="89.05"/><ellipse class="cls-11" cx="298.34" cy="133.96" rx="118.35" ry="87.94"/><ellipse class="cls-12" cx="298.34" cy="134.2" rx="117" ry="86.83"/><ellipse class="cls-13" cx="298.34" cy="134.45" rx="115.66" ry="85.72"/><ellipse class="cls-14" cx="298.34" cy="134.69" rx="114.31" ry="84.61"/><ellipse class="cls-15" cx="298.34" cy="134.94" rx="112.96" ry="83.5"/><ellipse class="cls-16" cx="298.34" cy="135.18" rx="111.61" ry="82.39"/><ellipse class="cls-17" cx="298.34" cy="135.43" rx="110.27" ry="81.28"/><ellipse class="cls-18" cx="298.34" cy="135.67" rx="108.92" ry="80.17"/><ellipse class="cls-19" cx="298.34" cy="135.92" rx="107.57" ry="79.07"/><ellipse class="cls-20" cx="298.34" cy="136.16" rx="106.22" ry="77.96"/><ellipse class="cls-21" cx="298.34" cy="136.4" rx="104.88" ry="76.85"/><ellipse class="cls-22" cx="298.34" cy="136.65" rx="103.53" ry="75.74"/><ellipse class="cls-23" cx="298.34" cy="136.89" rx="102.18" ry="74.63"/><ellipse class="cls-24" cx="298.34" cy="137.14" rx="100.83" ry="73.52"/><ellipse class="cls-25" cx="298.34" cy="137.38" rx="99.49" ry="72.41"/><ellipse class="cls-26" cx="298.34" cy="137.63" rx="98.14" ry="71.3"/><ellipse class="cls-27" cx="298.34" cy="137.87" rx="96.79" ry="70.19"/><ellipse class="cls-28" cx="298.34" cy="138.12" rx="95.45" ry="69.08"/><ellipse class="cls-29" cx="298.34" cy="138.36" rx="94.1" ry="67.97"/><ellipse class="cls-30" cx="298.34" cy="138.6" rx="92.75" ry="66.86"/><ellipse class="cls-31" cx="298.34" cy="138.85" rx="91.4" ry="65.75"/><ellipse class="cls-32" cx="298.34" cy="139.09" rx="90.06" ry="64.64"/><ellipse class="cls-33" cx="298.34" cy="139.34" rx="88.71" ry="63.54"/><ellipse class="cls-34" cx="298.34" cy="139.58" rx="87.36" ry="62.43"/><ellipse class="cls-35" cx="298.34" cy="139.83" rx="86.01" ry="61.32"/><ellipse class="cls-36" cx="298.34" cy="140.07" rx="84.67" ry="60.21"/><ellipse class="cls-37" cx="298.34" cy="140.32" rx="83.32" ry="59.1"/><ellipse class="cls-38" cx="298.34" cy="140.56" rx="81.97" ry="57.99"/><ellipse class="cls-39" cx="298.34" cy="140.81" rx="80.62" ry="56.88"/><ellipse class="cls-40" cx="298.34" cy="141.05" rx="79.28" ry="55.77"/><ellipse class="cls-41" cx="298.34" cy="141.3" rx="77.93" ry="54.66"/><ellipse class="cls-42" cx="298.34" cy="141.54" rx="76.58" ry="53.55"/><ellipse class="cls-43" cx="298.34" cy="141.78" rx="75.23" ry="52.44"/><ellipse class="cls-44" cx="298.34" cy="142.03" rx="73.89" ry="51.33"/><ellipse class="cls-45" cx="298.34" cy="142.27" rx="72.54" ry="50.22"/><ellipse class="cls-46" cx="298.34" cy="142.52" rx="71.19" ry="49.12"/><ellipse class="cls-47" cx="298.34" cy="142.76" rx="69.85" ry="48.01"/><ellipse class="cls-48" cx="298.34" cy="143.01" rx="68.5" ry="46.9"/><ellipse class="cls-49" cx="298.34" cy="143.25" rx="67.15" ry="45.79"/><ellipse class="cls-50" cx="298.34" cy="143.5" rx="65.8" ry="44.68"/><ellipse class="cls-51" cx="298.34" cy="143.74" rx="64.46" ry="43.57"/><ellipse class="cls-52" cx="298.34" cy="143.99" rx="63.11" ry="42.46"/><ellipse class="cls-53" cx="298.34" cy="144.23" rx="61.76" ry="41.35"/><ellipse class="cls-54" cx="298.34" cy="144.47" rx="60.41" ry="40.24"/><ellipse class="cls-55" cx="298.34" cy="144.72" rx="59.07" ry="39.13"/><ellipse class="cls-56" cx="298.34" cy="144.96" rx="57.72" ry="38.02"/><ellipse class="cls-57" cx="298.34" cy="145.21" rx="56.37" ry="36.91"/><ellipse class="cls-58" cx="298.34" cy="145.45" rx="55.02" ry="35.8"/><ellipse class="cls-59" cx="298.34" cy="145.7" rx="53.68" ry="34.69"/><ellipse class="cls-60" cx="298.34" cy="145.94" rx="52.33" ry="33.59"/></g><rect class="cls-61" y="163.67" width="600" height="436.33"/><path class="cls-62" d="M0,164H600v14.13s-139.31-4.36-147.62-4.36-87.23,1.74-94.15,2.62-65.07,3.49-95.53,3.49-87.23-2.62-80.3-3.49-4.15-.87-19.38-2.62-33.23-.87-83.07-0.87S0,172,0,172v-8Z" transform="translate(0)"/><path class="cls-63" d="M600,204.46H418.15c-19.38,0-91.47,3.47-101.62,2.76s-75.61-2.76-106.07-3.47-45.23-2.15-84,.72-21.23,4.3-56.31,2.87-36,0-48.92,0S0,204.46,0,204.46v11.47s48,0.72,73.85.72,113.54-3.58,132.92-1.43,65.54,2.15,78.46,2.87,35.08,0,56.31,0,63.69-3.58,84-3.58,43.38,3.85,85.85,3.85,38.73,2.71,65.54,3.67c18.36,0.66,23.08-7.52,23.08-7.52v-10Z" transform="translate(0)"/><path class="cls-64" d="M1.92,179.07H183.18c19.32,0,91.18,2.78,101.3,2.2s75.36-2.2,105.73-2.78,45.09-1.72,83.73.57,21.16,3.44,56.13,2.29,35.88,0,48.77,0A87,87,0,0,0,600,179.07v9.18s-47.85.57-73.61,0.57-113.17-2.87-132.5-1.15-65.33,1.72-78.21,2.29-35,0-56.13,0-63.49-2.87-83.73-2.87-23.92,1.15-66.25,1.15-57.93-2.49-84.65-1.72c-18.31.53-23,.57-23,0.57v-8Z" transform="translate(0)"/><path class="cls-65" d="M0,187.26s138.33-1.19,186.28-1.19,217.63,0.59,237.92,0,53.49,2.37,59,2.37,20.29,0,48-.59,68.24,1.72,68.24,1.72v4.8s-73.77,1.19-92.22,1.19-101.44-3-101.44-3-38.73-1.19-66.4-1.19-22.13,3-38.73,3.56-64.55,1.78-97.75.59-66.4-2.37-86.68-2.37S0,194.37,0,194.37v-7.11Z" transform="translate(0)"/><path class="cls-65" d="M600,227.9s-138.46-1.19-186.46-1.19-217.84.59-238.15,0-53.54,2.37-59.08,2.37-20.31,0-48-.59S0,230.21,0,230.21V235s73.85,1.19,92.31,1.19,101.54-3,101.54-3,38.77-1.19,66.46-1.19,22.15,3,38.77,3.56,64.61,1.78,97.84.59,66.46-2.37,86.77-2.37S600,235,600,235V227.9Z" transform="translate(0)"/><path class="cls-66" d="M243.08,270.27c54.74-.14,118.61-7.74,156.33-5.86s51.53-1.62,68.09-4.31,35-1.35,58,0,26.77-.64,35.61.41C600,265.14,600,252,600,252s-7.36-.27-14.72-0.27-32.2,0-49.69.27-50.61-2.69-75.45-3.77-128.82-.54-174.82-0.54c0,0-16.56-2.15-24.84-2.15s-33.12.54-55.21,1.08S159.45,250.91,145,252c-12.33.93-26.76-3.09-39,.72s-13,7.17-6.5,8.35,9.94,1.61,21.41,3.22,44.74,2.64,59.27,2.2,36.32,1.9,38.24,2.34S236.84,270.29,243.08,270.27Z" transform="translate(0)"/><path class="cls-67" d="M121.48,341.84c42-1.38,102.67-6.88,121.33-1.38l18.67,5.5s3.39,1,37.24,5.42c38.37,5,30.08,4.13,79.42,7,52.8,3,17.11-4.13,82.44-1.38s34.22,12.39,60.67,8.26,52.89-11,62.22-11A97.51,97.51,0,0,1,600,355.6V390s-25.85,16.52-64.74,17.89-79.33-16.51-107.34-4.13-70,19.27-102.67,15.14-62.22,9.63-140,9.63S107.38,411.8,77.83,404.92c-15-3.5-77.83-5.86-77.83-5.86V360.5s1-1.14,25-3.53C54.58,354,121.48,341.84,121.48,341.84Z" transform="translate(0)"/><path class="cls-68" d="M47.1,270.28c6.9,0,102.13,0,160.09-1.38s81.43,4.13,113.17,6.88,9.66,4.13,53.82,2.75,53.83-2.75,89.71-6.88,60.72-5.51,81.43-5.51H600V289s-13.86,16.82-24.73,13.72c-29-8.26-84.67-8.28-105.37-5.53s-52.92-.77-94.33.61-80-5.51-109-6.88-52.44,0-98-1.38S78.84,284,48.48,281.29,1.56,274.41,5.7,271.65,47.1,270.28,47.1,270.28Z" transform="translate(0)"/><path class="cls-69" d="M281,235.08s17,0.44,31.4.44,14.45-.52,29.93-0.52,18.58,1,24.77,2.61,36.12,0,49.54,0,37.15-3.13,53.66-3.13,9.29-1.57,32,.52,38.56-2.52,46.82-1.48,32.73-4.13,31.85.06c-0.57,2.75-8.52,3.06-32.85,4.31-10.21.52-39.92,1.16-53.62,0.63s-17.38-1.89-30.73.07-28.82.89-58,2.13-21.06,2.13-34.42,1.24-21.47-1.65-19.36-2.19,5.36-.49-12.91-1.56-29.25-.69-42.95-0.51-39-2.3-39-2.3Z" transform="translate(0)"/><path class="cls-70" d="M445.21,296s9.76,0.63,32.07,1.25,1.39,1.25,37.65-1.87,43.23-5,64.15-5.62l20.92-.62v5.37s-13.95-1-36.25.88-57.17,7.5-57.17,7.5-30.68,1.25-39-.62l-8.37-1.87s-37.65-1.25-43.23-1.87S445.21,296,445.21,296Z" transform="translate(0)"/><path class="cls-71" d="M0,225.17c11.06,0,65.38.22,91.18-1s37.79-3.06,50.69-2.45,15.67,1.22,31.33,2.45,13.83,2.45,47.93,3.06,50.69,1.83,50.69,1.83S164,226.61,156.62,226.61s-24,.61-31.33.61S87.5,228.44,81,228.44s-28.57.13-40.55,0.37S0,231.75,0,231.75v-6.58Z" transform="translate(0)"/><path class="cls-70" d="M321.91,220.47l7.12,0c11.19,0,31.31-1,39.24-1.67,10.67-.89,21.08-0.47,28.9-0.47s4.74-.69,13.28,1.09,11,1.73,21.71,2,12.44,1.66,21,2,6.4,0.59,6.4.59-32-.89-35.56-0.89-14.94-2.37-19.91-2.08-23.11,0-27.74,0-13.16-.3-14.94,0S321.91,220.47,321.91,220.47Z" transform="translate(0)"/><path class="cls-72" d="M125.68,354.75c1.85,0.16,23.94-9.39,48.4-10.47s35.64-8.88,110.55,3.38,83.73,8.53,94.08,9.91,22.51,0.42,31.45,1,21.14-.61,26.73-1.17,22.64-3.46,29.21-.29c2.28,1.1,16.8,4.52,3.51,2.19-10.31-1.81-29,5.11-41.3,6.78-12.68,1.72-110.64-5.08-128-7.25-17.89-2.23-40.25-8.92-62.62-10s-58.7-.56-68.21,2.23-21.8,1.67-26.84,3.9-19.57,3.9-19.57,3.9Z" transform="translate(0)"/><path class="cls-73" d="M0,431V410.59s77.72,0.65,91,4.41,44,14,64,14,37-7,59-9,14,2,69,4,67,15,126,11,75-8,93-12,52-14,63-16,35-2,35-2v73s-98-1-126,2-129,8-144,9-20,4,9,8,11,13-59,8-95-9-137-10-55-1-86-1,2-12-19-13A375,375,0,0,1,.13,477.26Z" transform="translate(0)"/><path class="cls-70" d="M132.58,349.31c2.12,0,36.72-10.25,56.9-12.22s53.64-4.95,55.77-4,2.66,3,21.78,3,37.18,1,42,3-11.15,2.47.53,4.94-1.59,1.48,44.61,6.92,85.4,7,77.54,6.92c-8.55-.13-21.77,2-42.49.5S281.36,346,272.86,343.51s-17.76-2.7-32.63-3.2-20.84.23-33.58,1.71-26,0-38.19,3.43-39.81,6.79-41.41,7.28S132.58,349.31,132.58,349.31Z" transform="translate(0)"/><path class="cls-74" d="M0,265.38s110.68-1.63,140.54-1.13,42.16,1,63.24,1.49,22.84,1.49,56.22,1.49,65-1,65-1l-38.65,3.47a397.94,397.94,0,0,1-43.92.5c-26.35-1-80.81-2.48-94.87-3s-68.51-.5-91.35-0.5H0v-1.35Z" transform="translate(0)"/><path class="cls-65" d="M600,309.18s-62.57,8.26-130.66,6.42-121.46-10.09-153.66-11S212.63,300,188.7,300s-9.2,5.51-9.2,5.51,79.13,2.75,96.61,4.59,121.46,7.34,115,7.34-35.88,7.34-35.88,7.34-27.69,10.55,45,14.22,162-3.21,150.06-6.88-1.84-12.84,17.48-13.76,32.21-.92,32.21-0.92v-8.26Z" transform="translate(0)"/><path class="cls-75" d="M0,294s88-11.27,117-7c19.5,2.87,40.65,14.93,77.15,16.3s45.19,1.38,126.88,4.13,105.73-.19,144,2.57-116.19,21-144,21-78.75-5.31-105-7c-9.36-.6-37.49-1.43-37.49-1.43S113.07,333,87,333,0,322.5,0,322.5V294Z" transform="translate(0)"/><path class="cls-76" d="M228.11,200.91c-14.88.84-59.64,1.84-59.64,1.84s63.15,6.42,90.05,6.42,80.7-4.84,111.1-4.71,84.2,2.88,102.92,3.79,9.36,1.84,39.76,1.84,67.83,0,73.68-1.84,14-3.79,14-3.79-42.1-.79-62-2.63-240.91-.92-249.1-0.92-38.59-1.84-38.59-1.84S233.68,200.6,228.11,200.91Z" transform="translate(0)"/><path class="cls-77" d="M0.13,477.26c5.55,0,22.89-8,112.87-6.26s196,9.78,157.07,4.51S184.54,465,239,461.45s83.32-7,178.85,1.76,111.09,10.54,124.42,12.3-17.77,24.6,7.78,24.6a399.72,399.72,0,0,1,50,3.51v87.84s-12.22,17.57-52.21,1.75S465.59,544,432.26,542.27,329,519.43,317.84,521.18s-44.43,7-61.1,8.78-76.65-3.51-125.53-8.78S78.88,528,40,528,0.13,477.26.13,477.26Z" transform="translate(0)"/><path class="cls-73" d="M437,529c28,0,41,5,68,3s34-8,28-10-9-6,23-5,44,2,44,2v30s-100,7-92,7,16,9,20,9-41,8-71,4-47-12-78-10-35,3-22,7,58,15,5,6-69-12-110-12-71-7-61-2-18,5-69,3-68,5-62,8,22-4,6,3-2,8-21,7-45-4-45-4V515s9-2,34-1,90,13,70,14-14,9,37,11,64-7,83-7,45-6,73-6,34-5,28,0-1,9,32,11S437,529,437,529Z" transform="translate(0)"/><path class="cls-78" d="M273.65,364.89c0.93,0,27.89.31,41.22,0s47.11,1.24,55.48,1.24,33.47,0.62,43.08,1.86,17.36,2.79,23.55,3.1,13.33,1.24,17.67,1.24,12.71,0,14.57.31-5.89,4-7.75,4.34,0.19,1,4.34,1.55,11.78,2.17,21.39,2.17,10.88-.34,10.88-0.34l-1.89-3.69-22.32-.31s26.65,0.31,3.1-4.34-41.53-8.06-52.07-9.3-9.92,0-7.44.62,5.27,1.55,5.27,1.55-30.37-.93-38.12-1.24-22.93-1.86-29.13-2.79-16.74-2.79-19.22-3.1-10.23-.62-5,1.24,11.47,0.62,5.27,1.86-6.2,2.17-12.71,1.86-9.3-1.24-17.67-.62S273.65,364.89,273.65,364.89Z" transform="translate(0)"/><path class="cls-70" d="M0,186.17s150,0.11,160.81-.44,26.6-.55,48.17-0.55,38.82-.55,59,0,51,2.2,38.82,2.2-110.72.55-125.1,1.1-47.45.55-63.27,0-76.93,1.1-85.56,1.1S0,189.17,0,189.17v-3Z" transform="translate(0)"/><path class="cls-70" d="M297.27,188.54c3.28,0,112.44,1.87,129.36,1.87s26.74-1.5,64.41-.37,36,0.4,48,.4,29.11,0.45,41.66.08,19.31-.86,19.31-0.86v1.9s-109,1.1-119.34,1.1-87.33-1.5-104.25-1.5-76.41,0-85.15-.75-14.19-1.12-15.83-1.12S297.27,188.54,297.27,188.54Z" transform="translate(0)"/><path class="cls-78" d="M36.93,509.2s16.83,5.5,33.66,5.5,17.63-3.06,17.63-3.06,1.6-1.22,6.41,0-12,2.45,24,7.34,48.88,4.89,53.69,3.67-8.81-3.67,9.61,0,2.4,2.45,24.84,4.28,32.85,2.45,38.46,2.45,4.81-3.67-2.4-4.89S252.48,522,266.1,522s5.61,7.34,25.64.61,23.24-9.17,40.06-9.17,15.22-3.06,24,1.22-18.43,4.89-18.43,4.89-5.61-1.22,12,3.06,22.44,7.34,63.3,9.79-2.4,2.45,44.87,4.89,53.69,4.28,35.26,4.28-25.64.61-11.22,4.89,4.81,0,14.42,4.28-0.8,1.83-29.65-2.45-68.91-9.79-98.56-12.85-45.67-4.89-35.26-3.06,0.8,1.22-13.62.61-59.29-3.67-47.27,0,0,4.28-14.42,4.28-32.05,0-75.32-4.28-59.3-6.73-71.32-6.73-28.85,0-44.87-2.45S53,522,21.71,519s-15.22-5.5-4.81-4.89,24,8.57,10.42.61S36.93,509.2,36.93,509.2Z" transform="translate(0)"/><path class="cls-78" d="M475.2,425c6.36,0.16,7-.26,15.73-3.42s5.1-2.19,15-7.48,13.35-4.38,7.95-1.25-12.36,5.26-3.75,2.66,12.45-.36,16.56.13c4.26,0.51,17.1-5.89,17.1-1.6,0,2.51-26,7.15-34.33,8.6s-18.26,4.09-30.64,6-21.6.28-29.43,3.38-5,.5,1.53-2.34,5-3.86,12.93-5.11S475.2,425,475.2,425Z" transform="translate(0)"/><path class="cls-78" d="M470.59,362.86c-1.58,0-11.11-1.2-20.72-2.51L441,359.11c-11.66-1.67,8.75,3.33,20.83,5s15,0,22.5,1.67,6.67-1.25,5-1.25S470.59,362.86,470.59,362.86Z" transform="translate(0)"/><path class="cls-78" d="M255.63,338.28c9.16,0,16.25,0,22.5-2.5s13.75-5,18.75-5.83,28.33,0,30,0-7.5,1.67-13.33,1.67-15.41,0-19.58,1.67-11.66,2.08-12.91,2.92S267.71,339.12,264,340s-9.16,0-16.25-.42S255.63,338.28,255.63,338.28Z" transform="translate(0)"/><path class="cls-79" d="M352.11,564.79c24.84-1.37,42.78-1.38,74.53,2.75s-34.5,4.13-26.22,2.75-12.42,8.26,0,9.63,11,11-82.81,2.75-153.19,1.38-175.28,0S69.18,573,83,571.67s74.53,5.5,89.71,5.5,81.43,0,67.63-2.75,6.9-2.75,31.74-1.38,67.63,6.88,84.19,6.88,37.27-9.63,24.84-9.63S352.11,564.79,352.11,564.79Z" transform="translate(0)"/><path class="cls-80" d="M129.37,115a12.29,12.29,0,0,0-1.26.07,9.83,9.83,0,0,0-8.17-4.93,9.16,9.16,0,0,0-6.4,2.75,12.9,12.9,0,0,0-4.82-.93,12.44,12.44,0,0,0-9.09,3.83c-1.52-5.43-5.42-9.3-10-9.3-3.65,0-6.87,2.45-8.81,6.17-0.62-.06-1.25-0.1-1.9-0.1a20.26,20.26,0,0,0-4.89.6C71.94,99.43,59.19,88.86,43.75,88.86c-11.83,0-22.09,6.21-27.17,15.3A18.05,18.05,0,0,0,3.74,98.58,17.08,17.08,0,0,0,0,99v52.43a52.48,52.48,0,0,0,10.74-1.27c2.76,3.93,10.33,6.76,19.25,6.76a34.78,34.78,0,0,0,13.26-2.42,69.46,69.46,0,0,0,23.18,3.64,70.46,70.46,0,0,0,22.46-3.38,52.44,52.44,0,0,0,13,1.55c14.64,0,26.5-5.44,26.5-12.15a6,6,0,0,0-.59-2.55,12.22,12.22,0,0,0,1.61.12c7,0,12.74-6,12.74-13.37S136.41,115,129.37,115Z" transform="translate(0)"/><path class="cls-81" d="M16.72,109c5.13-9.08,15.47-15.3,27.4-15.3,15.56,0,28.43,10.57,30.53,24.29a20.6,20.6,0,0,1,4.93-.6c0.65,0,1.29,0,1.91.1,1.95-3.73,5.2-6.17,8.88-6.17,4.63,0,8.58,3.87,10.1,9.3a12.59,12.59,0,0,1,9.17-3.83,13.11,13.11,0,0,1,4.86.93A9.28,9.28,0,0,1,121,115a9.93,9.93,0,0,1,8.24,4.93,12.47,12.47,0,0,1,1.27-.07,12.81,12.81,0,0,1,11.6,7.65c-0.41-7-5.93-12.54-12.7-12.54a12.41,12.41,0,0,0-1.26.07,9.83,9.83,0,0,0-8.17-4.93,9.16,9.16,0,0,0-6.4,2.75,12.91,12.91,0,0,0-4.82-.93,12.43,12.43,0,0,0-9.09,3.83c-1.52-5.43-5.42-9.3-10-9.3-3.65,0-6.87,2.45-8.81,6.17-0.62-.06-1.25-0.1-1.9-0.1a20.26,20.26,0,0,0-4.89.6C71.94,99.42,59.19,88.85,43.75,88.85c-11.83,0-22.09,6.21-27.17,15.3A18.05,18.05,0,0,0,3.74,98.58,17,17,0,0,0,0,99v4.89a17.37,17.37,0,0,1,3.78-.42A18.28,18.28,0,0,1,16.72,109Z" transform="translate(0)"/><path class="cls-82" d="M127.91,142.83c-5.34,2.48-13.08,4-21.7,4A63.14,63.14,0,0,1,92,145.32a84.66,84.66,0,0,1-24.71,3.38,83.4,83.4,0,0,1-25.5-3.64,41.63,41.63,0,0,1-14.59,2.42c-9.82,0-18.15-2.83-21.18-6.76a59.11,59.11,0,0,1-6,.92v10.65A52.52,52.52,0,0,0,10.74,151C13.5,155,21.06,157.78,30,157.78a34.78,34.78,0,0,0,13.26-2.42A69.46,69.46,0,0,0,66.43,159a70.46,70.46,0,0,0,22.46-3.38,52.44,52.44,0,0,0,13,1.55c14.64,0,26.5-5.44,26.5-12.15A5.88,5.88,0,0,0,127.91,142.83Z" transform="translate(0)"/><path class="cls-80" d="M594.75,86.83c-0.78-.39-2.47,0-3.93.42-3.9-2.11-9.52-3.43-15.77-3.43A40,40,0,0,0,565.41,85c-1.61-4.16-7-7.23-13.38-7.23a18.59,18.59,0,0,0-6.25,1.06A27.12,27.12,0,0,0,536.12,77c-8,0-15,3.31-18.72,8.24a6.32,6.32,0,0,0-4-1.47c-2.53,0-4.77,1.63-6.19,4.15a26,26,0,0,0-8.7-1.44c-7.4,0-13.76,2.88-16.5,7-8.52,1.09-15,6.34-15,12.65a9.22,9.22,0,0,0,.17,1.72l-1.16.14a10.87,10.87,0,0,0-6.45-1.87c-4.49,0-8.12,2.12-8.12,4.74a2.88,2.88,0,0,0,.21,1c-7.18,3.29-11.71,8.12-11.71,13.51,0,9.91,15.31,17.94,34.19,17.94a57.71,57.71,0,0,0,19.3-3.13c2,0.37,4,.78,6.29,1.23,14.12,2.83,12.67,1.2,17.74.78a95.92,95.92,0,0,0,19,1.8,91.06,91.06,0,0,0,22.77-2.69l7.81-.08c19.49-.19,33-1.34,33-1.34V88.55A38.5,38.5,0,0,1,594.75,86.83Zm-79.57,17.7c0,0.17.06,0.33,0.09,0.5q-0.53-.15-1.09-0.28A6,6,0,0,0,515.18,104.53Z" transform="translate(0)"/><path class="cls-83" d="M577.07,124.54l-9.38.08a130.34,130.34,0,0,1-27.35,2.69,137.76,137.76,0,0,1-22.76-1.8c-6.1.41-4.34,2-21.31-.78-2.71-.45-5.21-0.86-7.56-1.23a82.11,82.11,0,0,1-23.18,3.13,79.88,79.88,0,0,1-25.17-3.77,9.73,9.73,0,0,0-.34,2.49c0,9.91,15.3,17.94,34.18,17.94a57.72,57.72,0,0,0,19.3-3.13c2,0.37,4,.78,6.29,1.23,14.12,2.82,12.66,1.2,17.74.78a96,96,0,0,0,18.95,1.8,91,91,0,0,0,22.77-2.69l7.81-.08c19.49-.19,33-1.34,33-1.34V124C593.71,124.26,585.91,124.46,577.07,124.54Z" transform="translate(0)"/><path class="cls-81" d="M451.14,117.38a2.79,2.79,0,0,1-.21-1c0-2.62,3.76-4.74,8.4-4.74a11.51,11.51,0,0,1,6.67,1.87l1.2-.14a8.83,8.83,0,0,1-.17-1.72c0-6.31,6.68-11.56,15.49-12.65,2.83-4.1,9.4-7,17.05-7a27.74,27.74,0,0,1,9,1.44,7.6,7.6,0,0,1,6.4-4.15,6.66,6.66,0,0,1,4.09,1.47c3.88-4.93,11.09-8.24,19.35-8.24a28.87,28.87,0,0,1,10,1.74,19.79,19.79,0,0,1,6.46-1.06c6.61,0,12.17,3.06,13.83,7.23a42.73,42.73,0,0,1,10-1.14c6.46,0,12.27,1.32,16.3,3.43,1.51-.45,3.26-0.81,4.07-0.42,0.27,0.13.61,0.27,1,.4V89.05a38.54,38.54,0,0,1-5.25-1.72c-0.79-.39-2.47,0-3.94.42-3.9-2.11-9.52-3.43-15.76-3.43a40,40,0,0,0-9.64,1.13c-1.61-4.16-7-7.23-13.37-7.23a18.58,18.58,0,0,0-6.25,1.06,27.11,27.11,0,0,0-9.65-1.74c-8,0-15,3.31-18.71,8.24a6.32,6.32,0,0,0-4-1.47c-2.53,0-4.77,1.63-6.19,4.15a26.05,26.05,0,0,0-8.7-1.44c-7.4,0-13.75,2.88-16.49,7-8.52,1.09-15,6.34-15,12.65a9.21,9.21,0,0,0,.17,1.72l-1.16.14a10.87,10.87,0,0,0-6.45-1.87c-4.49,0-8.12,2.12-8.12,4.74a2.88,2.88,0,0,0,.2,1C444.56,115.73,440,120.56,440,126c0,0.22,0,.45,0,0.67C441.81,123,445.75,119.77,451.14,117.38Z" transform="translate(0)"/><path class="cls-80" d="M370.45,77.43a14.74,14.74,0,0,0,.63-4.25A15.36,15.36,0,0,0,355.53,58a15.73,15.73,0,0,0-10.18,3.71c-4-6-12.16-10.17-21.54-10.17-12.24,0-22.35,7-24,16.16a19,19,0,0,0-3.88-.4c-0.51,0-1,0-1.5.06a8.26,8.26,0,0,0-7-4.1,8.58,8.58,0,0,0-7.94,6.18,10.86,10.86,0,0,0-7.21-2.55,12,12,0,0,0-3.82.62,8,8,0,0,0-5.07-1.83A8.13,8.13,0,0,0,256.92,69c-0.33,0-.66,0-1,0-5.58,0-10.1,4-10.1,8.89s4.52,8.89,10.1,8.89a11.39,11.39,0,0,0,1.27-.08,3.48,3.48,0,0,0-.47,1.69c0,4.46,9.41,8.08,21,8.08a49.21,49.21,0,0,0,10.28-1,65.82,65.82,0,0,0,17.81,2.25,64.8,64.8,0,0,0,18.38-2.42,32.29,32.29,0,0,0,10.51,1.61c7.08,0,13.08-1.88,15.27-4.49a49.81,49.81,0,0,0,9.38.86c11.83,0,21.42-3.8,21.42-8.49C380.79,81.62,376.65,78.92,370.45,77.43Z" transform="translate(0)"/><path class="cls-81" d="M254.63,74.23c0.35,0,.69,0,1,0a8.3,8.3,0,0,1,11.81-1.45,12.48,12.48,0,0,1,3.9-.62,11.25,11.25,0,0,1,7.37,2.55,8.75,8.75,0,0,1,8.12-6.18,8.48,8.48,0,0,1,7.14,4.1c0.5,0,1-.06,1.54-0.06a19.8,19.8,0,0,1,4,.4c1.69-9.13,12-16.16,24.55-16.16,9.59,0,17.91,4.13,22,10.17a16.31,16.31,0,0,1,10.41-3.71A16,16,0,0,1,371,72.4,15.37,15.37,0,0,0,355.53,58a15.73,15.73,0,0,0-10.18,3.71c-4-6-12.16-10.17-21.54-10.17-12.24,0-22.35,7-24,16.16a19,19,0,0,0-3.88-.4c-0.51,0-1,0-1.5.06a8.26,8.26,0,0,0-7-4.1,8.58,8.58,0,0,0-7.94,6.18,10.86,10.86,0,0,0-7.21-2.55,12,12,0,0,0-3.82.62,8,8,0,0,0-5.07-1.83A8.13,8.13,0,0,0,256.92,69c-0.33,0-.66,0-1,0-5.58,0-10.1,4-10.1,8.89,0,0.22,0,.43,0,0.65A10.77,10.77,0,0,1,254.63,74.23Z" transform="translate(0)"/><path class="cls-82" d="M364.08,86.84A60.17,60.17,0,0,1,353.75,86c-2.41,2.61-9,4.49-16.79,4.49a38.77,38.77,0,0,1-11.57-1.61,78,78,0,0,1-20.22,2.42A79.21,79.21,0,0,1,285.58,89a59.32,59.32,0,0,1-11.3,1c-6.83,0-13-1-17.2-2.69a3.37,3.37,0,0,0-.35,1.45c0,4.46,9.41,8.08,21,8.08a49.18,49.18,0,0,0,10.28-1,65.82,65.82,0,0,0,17.81,2.25,64.78,64.78,0,0,0,18.38-2.42,32.29,32.29,0,0,0,10.51,1.61c7.08,0,13.08-1.88,15.27-4.49a49.85,49.85,0,0,0,9.38.86c11.83,0,21.42-3.8,21.42-8.49a3.5,3.5,0,0,0-.11-0.83A51.18,51.18,0,0,1,364.08,86.84Z" transform="translate(0)"/><path class="cls-80" d="M179,62.33A12.71,12.71,0,0,0,179.4,59c0-6.52-4.86-11.8-10.86-11.8a10.33,10.33,0,0,0-7.11,2.89c-2.81-4.71-8.49-7.92-15-7.92-8.55,0-15.61,5.47-16.76,12.58a12,12,0,0,0-2.71-.31c-0.36,0-.71,0-1.05,0a5.7,5.7,0,0,0-4.88-3.2c-2.54,0-4.71,2-5.55,4.82a7.12,7.12,0,0,0-5-2,7.58,7.58,0,0,0-2.67.48,5.25,5.25,0,0,0-3.54-1.42,5.51,5.51,0,0,0-4.52,2.55c-0.23,0-.46,0-0.7,0a6.92,6.92,0,1,0,0,13.85,7.21,7.21,0,0,0,.89-0.06,3,3,0,0,0-.33,1.32c0,3.48,6.57,6.29,14.67,6.29a30.94,30.94,0,0,0,7.18-.81,41.48,41.48,0,0,0,12.44,1.75,40.88,40.88,0,0,0,12.83-1.88A20.41,20.41,0,0,0,154,77.43c4.94,0,9.13-1.46,10.66-3.5a31.32,31.32,0,0,0,6.55.67c8.26,0,15-3,15-6.61C186.17,65.59,183.28,63.49,179,62.33Z" transform="translate(0)"/><path class="cls-81" d="M98.07,59.84c0.24,0,.48,0,0.71,0a5.66,5.66,0,0,1,4.62-2.55A5.43,5.43,0,0,1,107,58.75a7.91,7.91,0,0,1,2.73-.48,7.37,7.37,0,0,1,5.15,2c0.86-2.81,3.07-4.82,5.67-4.82a5.84,5.84,0,0,1,5,3.2c0.35,0,.71,0,1.07,0a12.47,12.47,0,0,1,2.77.31c1.18-7.11,8.4-12.58,17.14-12.58,6.7,0,12.51,3.22,15.38,7.92a10.69,10.69,0,0,1,7.27-2.89,11.11,11.11,0,0,1,10.17,7.07c-0.28-6.24-5-11.21-10.84-11.21a10.33,10.33,0,0,0-7.11,2.89c-2.81-4.7-8.49-7.92-15-7.92-8.55,0-15.61,5.47-16.76,12.58a12,12,0,0,0-2.71-.31c-0.36,0-.71,0-1.05,0a5.7,5.7,0,0,0-4.88-3.2c-2.54,0-4.71,2-5.55,4.81a7.12,7.12,0,0,0-5-2,7.59,7.59,0,0,0-2.67.48,5.25,5.25,0,0,0-3.54-1.42,5.51,5.51,0,0,0-4.52,2.55c-0.23,0-.46,0-0.7,0a7,7,0,0,0-7.05,6.92c0,0.17,0,.34,0,0.5A7.27,7.27,0,0,1,98.07,59.84Z" transform="translate(0)"/><path class="cls-82" d="M174.5,69.66a37.78,37.78,0,0,1-7.21-.67c-1.68,2-6.29,3.5-11.73,3.5a24.48,24.48,0,0,1-8.08-1.25,49.15,49.15,0,0,1-14.12,1.88,49.88,49.88,0,0,1-13.68-1.75,37.3,37.3,0,0,1-7.89.8,31.46,31.46,0,0,1-12-2.09,2.88,2.88,0,0,0-.24,1.13c0,3.48,6.57,6.29,14.67,6.29a30.94,30.94,0,0,0,7.18-.8,41.49,41.49,0,0,0,12.44,1.75,40.9,40.9,0,0,0,12.83-1.88A20.43,20.43,0,0,0,154,77.82c4.94,0,9.13-1.46,10.66-3.5a31.33,31.33,0,0,0,6.55.67c8.26,0,15-3,15-6.61a3,3,0,0,0-.08-0.64A32.37,32.37,0,0,1,174.5,69.66Z" transform="translate(0)"/><path class="cls-70" d="M303.59,283.52c-3.09,0-9.49.66-5.41,1.65A123.15,123.15,0,0,0,314,287.82c7.5,0.88,10.37,1.21,17.21,2.32s5.3-.33-0.11-1.21-28-3.86-26.81-4.08S303.59,283.52,303.59,283.52Z" transform="translate(0)"/><path class="cls-70" d="M432.89,291.84c-2.92,0-11.25.21-16.87,0.21s-9.79,0-11.46.83-5.21.83-5.21,0.83,10.41-.21,12.5-0.42,8.33-.21,11.46-0.21,11.46,0.83,15.41.83-4-1.25-5.21-1.25S432.89,291.84,432.89,291.84Z" transform="translate(0)"/><path class="cls-70" d="M406.85,320.79c2.92-.83,7.29-2.08,6.25-1s-6,2.08-6,2.08Z" transform="translate(0)"/><path class="cls-70" d="M432.47,319.12c0.83,0.21-4,.83-4.58.83S432.47,319.12,432.47,319.12Z" transform="translate(0)"/><path class="cls-70" d="M401.64,323.91c1.25-.21,2.08.83,1.46,0.83A2.92,2.92,0,0,1,401.64,323.91Z" transform="translate(0)"/><path class="cls-70" d="M368.73,336.2c2.08,0,8.12-1.25,9.16,0s-0.21,1.25-2.08,1.25-5.41-.21-6.87-0.21S368.73,336.2,368.73,336.2Z" transform="translate(0)"/><path class="cls-70" d="M320,333.08c0.63,0,19.79-.42,23.33-0.42h10.62c2.08,0,1.46-1.87.62-1.87a18.77,18.77,0,0,0-2.71.42Z" transform="translate(0)"/><path class="cls-70" d="M177.47,405c3.4,0,26.08,4.52,24.95,4.52a97.12,97.12,0,0,1-9.72-1c-2.75-.49-4.37-1.13-8.58-1.62s-2.59.65-13.45-1.78-0.16-1.13,2.27-.81S177.47,405,177.47,405Z" transform="translate(0)"/><path class="cls-70" d="M229.18,334.4c0.35,0,0,1.32-1.76.88s-2.42-.77-1.87-0.88S228.41,334.4,229.18,334.4Z" transform="translate(0)"/><path class="cls-70" d="M235.45,337.59c1.33-.53,4.07.11,3.08,0.44a21.58,21.58,0,0,1-4.4.22C233.8,338.25,234.9,337.81,235.45,337.59Z" transform="translate(0)"/><path class="cls-70" d="M236.77,334.07c2.09-.11,2.64.55,1.76,0.55s-2.42.11-2.42,0.11Z" transform="translate(0)"/><path class="cls-70" d="M151.39,401.6s3.4-1.29,3.56-.65a1.39,1.39,0,0,1-1.3,1.45A4.41,4.41,0,0,1,151.39,401.6Z" transform="translate(0)"/><path class="cls-70" d="M176.18,403.05c0.66-.08.65,0.16,0.65,0.16l-2.27.48S173.42,403.38,176.18,403.05Z" transform="translate(0)"/><path class="cls-70" d="M275.47,331.46c1.68-.84,3.12.63,2.19,0.78s0.31,0.31-3,.16-4.22.31-3.28-.16S274.85,331.77,275.47,331.46Z" transform="translate(0)"/><path class="cls-70" d="M301.25,335.21c1.25-.16,1.09-0.94,0-0.94s-1.72.62-5,.94-4.06.31-6.56,0.63-5.16.63-1.41,0.63,10.62-.47,11.4-0.62A5.75,5.75,0,0,0,301.25,335.21Z" transform="translate(0)"/><path class="cls-70" d="M316.71,328s1.72-1.72,2.34-1.72,1.25,1.25.47,1.56A9.45,9.45,0,0,1,316.71,328Z" transform="translate(0)"/><path class="cls-70" d="M324.06,360.36s-2.34-.94-8.75-0.78-9.53,0-12.34.31-4.84,0-3.91-.16,13.59-.94,14.06-0.94c0.3,0,2.59-.46,4.15-0.79l1.47-.31S326.56,360.67,324.06,360.36Z" transform="translate(0)"/><path class="cls-84" d="M281,415.2c-19.46,2-32.77,6.14-63.49,0s-54.28-11.26-54.28-11.26a181.23,181.23,0,0,1,36.87-6.14c19.46-1,23.55-4.1,17.41-9.22s13.11-5.93,17.41-5.12c32.77,6.14,39.94-1,71.68,2s-2,2,53.25,7.17,86,2,121.86,3.07,87,13.31,32.77,9.22-73.73-3.07-73.73-3.07,29.7,8.19-10.24,5.12S281,415.2,281,415.2Z" transform="translate(0)"/><path class="cls-70" d="M325.15,355.68c1.72,0,1.41.94,0.47,0.94s-1.56-1.41-1.09-1.41A0.7,0.7,0,0,1,325.15,355.68Z" transform="translate(0)"/><path class="cls-78" d="M360.67,334c5.33-1.33,15.31-1.29,23.32-1.86s18.87-1.14,19.15.29-4.29,1.72-3.43,1.72,16.3,0,24-1.72,7.72-3.14,15.15-3.14,4.57,0.86,12.58,1.14,13.44-2,16.58-4,10.86-2,26.3-.86,0,2.57-5.43,3.14-17.16.29-17.44,1.71-7.15,3.72-11.44,2.86-15.44-2.29-16.87-2-10.58.57-9.15,1.72,3.43,2-2.86,3.14S416.58,339.86,410,339s-18.3-1.14-16.58-2-2.86-1.43-6.29-1.43-7.43-1.14-11.44,0a68.57,68.57,0,0,1-8,1.71S358.79,334.47,360.67,334Z" transform="translate(0)"/><path class="cls-85" d="M0,311s69,4,79,6-1,8-1,8-17-7,34-5,63-3,63-3-8-3,27-3,73,3,53,5-13,6-7,7-54,0-74,2a341.85,341.85,0,0,0-34,5s-30,7-79,1-61-4-61-4V311Z" transform="translate(0)"/><path class="cls-70" d="M0,307.47c1.51-.4,39.35,1.61,36.13,2s1.61,3.62,8.86,2.82,22.95,0,19.32-1.21-10.47-4-.4-3.62,11.67,2.82,10.06,3.22-2,.8,2.42,1.61,12.88,0.4,9.26,1.61-18.12,2.42,13.69,2.42,44.28-1.21,42.27-1.61,4.83,0.8,12.08-.81,12.08-6.44,25-6,11.68-1.21,26.57,1.61-14.09,4-28.58,4-21.34.4-14.9,1.61,4.83,2.42-8.86,3.62S123.49,322,107.39,322,76,317.13,70,316.33s-12.48,0-16.91-.4-27.78-3.62-33.41-4.43S0,311,0,311v-3.53Z" transform="translate(0)"/><path class="cls-70" d="M241,417c-8.67-.67-19.33-3.33-14-3.33s-5.33-2,22-2,65.33-4,48-3.33-26,6-32.67,6-18.67,0-15.33.67,2.67,2-.67,2.67A16.88,16.88,0,0,1,241,417Z" transform="translate(0)"/><path class="cls-70" d="M345,409c6.59-1.65,4.67-4.67,22-3.33s1.33,4.67,1.33,4.67-5.33-3.33-9.33-2-32,5.33-32,5.33S342.33,409.67,345,409Z" transform="translate(0)"/><path class="cls-86" d="M357,469.67c-14.67-2,52.67-4,42-2.67s-0.67,0,36,0,68.67,1.33,71.33,2.67-72,6-24,6.67,42,0,60,4S570.33,489,557,489s-59.33,2-68.67,2S423.67,477,413,477s-40.67-2.67-54.67,0S347,478.33,313,474.33s-44-8.67-57.33-8-37.33-2.67-37.33-2.67-14-14,33.33-10,62,6,56.67,6S357,469.67,357,469.67Z" transform="translate(0)"/><path class="cls-78" d="M0,346s6,4,23,4,26-1,26-1c7,1,20-1,17,1s23,3,30,2,0-2-7,1-29,4-33,4-18,1-18,1a37.41,37.41,0,0,1-17,2c-10-1-12-2.22-15-2-6,.43-6,0.08-6,0.08V346Z" transform="translate(0)"/><path class="cls-78" d="M93,344c1.4-.47,9.57-0.93,17.88-1.3,9.47-.42,19.12-0.7,19.12-0.7l-19,5-15,5Z" transform="translate(0)"/><path class="cls-78" d="M66,363c10,0,1-1,20-1s21-6,19,0-5,5,5,4-24,2-30,2-2,1-25,0-24-6-16-6S66,363,66,363Z" transform="translate(0)"/><path class="cls-78" d="M118,375s-18,0,20,5,45,4,38,5-19,3-31,1-19-4-30-4S118,375,118,375Z" transform="translate(0)"/><path class="cls-78" d="M365,428c14,0,13-2,26,1s40.88,1.44,31,3c-19,3-40,1-45,1s3,4,3,4-13-1-34-2,1-3,6-3h13v-4Z" transform="translate(0)"/><path class="cls-78" d="M516,524c-7-3-13-6-4-7s3-2,21-3,28-4,22-3-2,6,15,6,12,1,21,0l9-1v10s-8-4-25-4-24-8-33-4-27,1-21,2S516,524,516,524Z" transform="translate(0)"/><path class="cls-78" d="M489,569c15,2,24,6,54,4s29,0,36,1,21,1,21,1v16.46S598,588,569,585s-70-8-63-5-11,2-27,3-50,3-47,3-2-4,10-6,9-3,21-3,14-2,9-4S489,569,489,569Z" transform="translate(0)"/><path class="cls-78" d="M0,558c4,1,14,9,34,6s12-7,33-7,37-1,25,1-37,5-37,5-10,5-19,6-36,3-36,3V558Z" transform="translate(0)"/><path class="cls-78" d="M465.67,409c-9.33-1.33-13.33.67-9.33-1.33,2-1,6.83-1,11.42-.75s8.92,0.75,9.92.75C479.67,407.67,465.67,409,465.67,409Z" transform="translate(0)"/><path class="cls-78" d="M477.67,413.67c6,1.33,7.33,6-1.33,4s-11.33-.67-8.67-2S477.67,413.67,477.67,413.67Z" transform="translate(0)"/><path class="cls-78" d="M553,401c5.33,0,6.67-.67,18,0s20,6.67,8,4.67S561,403,555.67,403,553,401,553,401Z" transform="translate(0)"/><path class="cls-78" d="M507,364.33c8,0,11.33-2,15.33-1.33s4.53,1.13-1.07,2.23S507,364.33,507,364.33Z" transform="translate(0)"/><path class="cls-78" d="M387.67,348.33c6,1.33,18,3.33,11.33,2.67s-14.67-1.33-17.33-2S387.67,348.33,387.67,348.33Z" transform="translate(0)"/><path class="cls-78" d="M77.83,404.92c8.5,1.41,15.17,1.41,21.84,2.08S99,408.33,93,408.33s-19.33-2.67-19.33-2.67Z" transform="translate(0)"/><path class="cls-78" d="M155.67,514.33c-7.33-.67-15.33-3.33-10-2.67a64.06,64.06,0,0,0,8,.16c5.88-.11,13.41-0.35,20.67.51,11.33,1.33,12.67,4,2.67,2S155.67,514.33,155.67,514.33Z" transform="translate(0)"/><path class="cls-78" d="M219,519.67c-6-2.67-5.33-8.67-.67-6.67s5.33,3.33,10,3.33S219,519.67,219,519.67Z" transform="translate(0)"/><path class="cls-78" d="M84.33,502.33c-4,0-18,.67-18,0.67s1.33,1.33,5.33,2a101.68,101.68,0,0,0,12,.67Z" transform="translate(0)"/><path class="cls-78" d="M296.33,508.33c-4.67-1.33-11.33-4.67,0-4S305.67,503,321,505s22,2.67,22,2.67L307.67,507l4.67,2Z" transform="translate(0)"/><path class="cls-78" d="M405.67,525.67c-6.67-2-15.33-.67-6.67-2s3.33-2,12.67-1.33,12,1.33,6,2Z" transform="translate(0)"/><path class="cls-78" d="M491,528.33c-10.67-2-16-2-25.33-4s-9.33-4-4-4A61,61,0,0,1,473,521c4.67,0.67,0-2,16,.67s-5.33,3.33-5.33,3.33Z" transform="translate(0)"/><path class="cls-78" d="M533.67,504.33C529,503.67,521,501,528.33,501h11.33Z" transform="translate(0)"/><path class="cls-78" d="M308.33,561c-6.67.67-28.67,2-22.67,3.33s10.67,2.67,13.33,2-6,1.33,2.67-.67S308.33,561,308.33,561Z" transform="translate(0)"/><path class="cls-78" d="M116.33,566.33c-8,0-16-4.67-8-3.33,5.16,0.86,15.88,2,22.84,2.7,3.82,0.38,6.5.63,6.5,0.63H116.33Z" transform="translate(0)"/><path class="cls-87" d="M81.5,522.5c-4-1-19.5-4.5-24-5A96.5,96.5,0,0,0,73,518c9.5-.5,21.5.5,14.5,0.5S81.5,522.5,81.5,522.5Z" transform="translate(0)"/><path class="cls-87" d="M107,520.5c5.5,0.5,4,1,11,2s19.5,4,11.5,1-17.5-6-13-6-7-3-11.5-3.5S107,520.5,107,520.5Z" transform="translate(0)"/><path class="cls-87" d="M154.5,526.5s19,2,20.5,2,1.5-2,1.5-2h-22Z" transform="translate(0)"/><path class="cls-87" d="M201.5,531.5a81.81,81.81,0,0,1,13,1.5Z" transform="translate(0)"/><path class="cls-87" d="M229,533.5c-0.1-1.3-4.07-2.42-5-1.5-0.65.64,1,1.18,1.8,1.54C226.83,534,229.09,534.62,229,533.5Z" transform="translate(0)"/><path class="cls-87" d="M313,521c-2.33,0-7.67-1.33-8.67-1s-1,1.67,1,2a7.1,7.1,0,0,1,2,.33A7.7,7.7,0,0,0,313,521Z" transform="translate(0)"/><path class="cls-87" d="M328.33,515c-6-.33-7.67-1.67-6-0.33s1.33,2,5,2S337.67,516,340,516s-8-.67-8-0.67Z" transform="translate(0)"/><path class="cls-87" d="M359.33,529.67c-10.33-2.33-19.33-2.33-11-.67s26.67,4,37.33,5.67,3.33-.33-1-1.67-13.67-2.33-17.33-3A36.73,36.73,0,0,0,359.33,529.67Z" transform="translate(0)"/><path class="cls-87" d="M407.67,536c-1.67-.33-11-1.67-8-0.33s1.33,1,5,1.33S407.67,536,407.67,536Z" transform="translate(0)"/><path class="cls-87" d="M424.67,534.33c-4.33,0-6.33,2.33,1,2a138.86,138.86,0,0,1,15.33.33Z" transform="translate(0)"/><path class="cls-87" d="M382,577.91c-5.05,0-14.24.23-7.81,1.15s9.19,1.15,12.4.92,0.23-1.84-.69-1.84S382,577.91,382,577.91Z" transform="translate(0)"/><path class="cls-87" d="M328,581.58a126.71,126.71,0,0,0-13.78-.92c-2.07,0,2.3.69,11.25,1.61s8.73,0.23,13.55,1.15a72.64,72.64,0,0,0,14.7,1.38c5.74,0,9-1.38,3-1.38S328,581.58,328,581.58Z" transform="translate(0)"/><path class="cls-87" d="M383.39,583.42c-7.12-.23-13.09-0.46-6,0.46s8.5,1.61,13.78,1.61,2.07-2.07-.23-2.07h-7.58Z" transform="translate(0)"/><path class="cls-87" d="M256.16,576.07c-0.67,0-1.16,0-1.61-.06a15.48,15.48,0,0,0-5.28.52c-4.36.92-10.79,0.69-2.07,1.61s6,0.92,9.65.92S256.16,576.07,256.16,576.07Z" transform="translate(0)"/><path class="cls-87" d="M5,444c14,2,28,5,47,6s8,5,3,5-27-1,10,1,61,2,79,3,7-7,10-7,23,2,39,4,17,6-5,5-69,3-83,3-71-3-80-4-18-7-18-7l-7-2Z" transform="translate(0)"/><path class="cls-87" d="M528,446c-20,0-70-1-96,1s-54,3-34,5,24,3,31,2-7-1,16-1,17-2,29-2,21,5,45,5,45-3,41-4-20,3,4,1,36-7,36-7,1-2-21-1a337.73,337.73,0,0,0-39,4Z" transform="translate(0)"/><path class="cls-87" d="M12.42,280.09c-6.91,0-12.42-.44-12.42-0.44V272.6s45.44,1.88,61.56,2.74,24.57,0,20.73.86,17.66,2.59,17.66,2.59l39.15,0.43s-13.05-7.77,14.59-5.61,32.24,2.59,32.24,3.88,0,2.16,24.57,4.75,26.1,1.73,46.83,2.59-22.26,3.88-41.46,3-76.39-6.65-93.85-7.21-48.94-.56-64.29-1.43-23-.86-30.71-0.86A67.84,67.84,0,0,0,12.42,280.09Z" transform="translate(0)"/><path class="cls-78" d="M0,407s0-4.39,23-3c31,1.87,31,1,31,1s-15,4,2,5l17,1-3,4s-18,1-26-1-7-4-17-3-27,.19-27,0.19V407Z" transform="translate(0)"/><path class="cls-78" d="M104.28,418.76s40.09,0,35.47-3.08-3.32-5.55-1-6.32,18-2.14,34.16,2.48,20,10.76,37,12.3,33.93,2.31,54.74-.77,27-3.85,44.72-5.38,38.55-6.15,60.91-3.07S428.88,428,428.88,428s-46.26-7.69-61.68-6.92-56.28,1.54-67.85,3.08-55.52,5.38-67.85,6.92-22.91,1.79-43-5.9-44.94-13.32-41.08-11.79,0.77,7.69.77,7.69-15.42,3.84-26.22,3.84H88.86C75,424.91,104.28,418.76,104.28,418.76Z" transform="translate(0)"/></g></g></svg>