<svg id="Layer_1" data-name="Layer 1" xmlns="http://www.w3.org/2000/svg" xmlns:xlink="http://www.w3.org/1999/xlink" viewBox="0 0 400.32 280.75"><defs><style>.cls-1{fill:url(#linear-gradient);}.cls-2{fill:url(#linear-gradient-2);}.cls-3{fill:url(#linear-gradient-3);}.cls-4{fill:url(#linear-gradient-4);}.cls-5{fill:url(#linear-gradient-5);}.cls-6{fill:url(#radial-gradient);}.cls-7{fill:url(#radial-gradient-2);}.cls-8{fill:url(#radial-gradient-3);}.cls-9{fill:url(#radial-gradient-4);}.cls-10{fill:url(#radial-gradient-5);}.cls-11{fill:url(#radial-gradient-6);}.cls-12{fill:url(#radial-gradient-7);}.cls-13{fill:url(#radial-gradient-8);}.cls-14{fill:url(#radial-gradient-9);}.cls-15{fill:url(#radial-gradient-10);}.cls-16{fill:url(#radial-gradient-11);}.cls-17{fill:url(#radial-gradient-12);}.cls-18{fill:url(#radial-gradient-13);}.cls-19{fill:url(#radial-gradient-14);}.cls-20{fill:url(#radial-gradient-15);}.cls-21{fill:url(#linear-gradient-6);}.cls-22{fill:url(#linear-gradient-7);}.cls-23{fill:url(#linear-gradient-8);}.cls-24{fill:url(#linear-gradient-9);}.cls-25{fill:url(#linear-gradient-10);}.cls-26{fill:url(#linear-gradient-11);}.cls-27{fill:url(#linear-gradient-12);}.cls-28{fill:url(#linear-gradient-13);}.cls-29{fill:url(#linear-gradient-14);}.cls-30{fill:url(#linear-gradient-15);}.cls-31{fill:url(#linear-gradient-16);}.cls-32{fill:url(#linear-gradient-17);}.cls-33{fill:url(#linear-gradient-18);}.cls-34{fill:url(#linear-gradient-19);}.cls-35{fill:url(#linear-gradient-20);}.cls-36{fill:url(#radial-gradient-16);}.cls-37{fill:url(#radial-gradient-17);}.cls-38{fill:url(#radial-gradient-18);}.cls-39{fill:url(#radial-gradient-19);}.cls-40{fill:url(#radial-gradient-20);}.cls-41{fill:url(#radial-gradient-21);}.cls-42{fill:url(#radial-gradient-22);}.cls-43{fill:url(#radial-gradient-23);}.cls-44{fill:url(#radial-gradient-24);}.cls-45{fill:url(#radial-gradient-25);}.cls-46{fill:url(#radial-gradient-26);}.cls-47{fill:url(#radial-gradient-27);}.cls-48{fill:url(#radial-gradient-28);}.cls-49{fill:url(#radial-gradient-29);}.cls-50{fill:url(#radial-gradient-30);}.cls-51{fill:#c87100;}.cls-52{fill:url(#radial-gradient-31);}.cls-53{fill:url(#radial-gradient-32);}.cls-54{fill:url(#linear-gradient-21);}.cls-55{fill:url(#linear-gradient-22);}.cls-56{fill:url(#radial-gradient-33);}.cls-57{fill:url(#radial-gradient-34);}.cls-58{fill:url(#radial-gradient-35);}.cls-59{fill:url(#radial-gradient-36);}.cls-60{fill:url(#radial-gradient-37);}.cls-61{fill:url(#linear-gradient-23);}.cls-62{fill:url(#linear-gradient-24);}.cls-63{fill:url(#radial-gradient-38);}.cls-64{fill:url(#radial-gradient-39);}.cls-65{fill:url(#radial-gradient-40);}.cls-66{fill:url(#radial-gradient-41);}.cls-67{fill:url(#radial-gradient-42);}.cls-68{fill:url(#linear-gradient-25);}.cls-69{fill:url(#linear-gradient-26);}.cls-70{fill:url(#radial-gradient-43);}.cls-71{fill:url(#radial-gradient-44);}.cls-72{fill:url(#radial-gradient-45);}.cls-73{fill:url(#radial-gradient-46);}.cls-74{fill:url(#radial-gradient-47);}.cls-75{fill:url(#linear-gradient-27);}.cls-76{fill:url(#linear-gradient-28);}.cls-77{fill:url(#radial-gradient-48);}.cls-78{fill:url(#radial-gradient-49);}.cls-79{fill:url(#radial-gradient-50);}.cls-80{fill:url(#radial-gradient-51);}.cls-81{fill:url(#radial-gradient-52);}.cls-82{fill:url(#linear-gradient-29);}.cls-83{fill:url(#linear-gradient-30);}.cls-84{fill:url(#radial-gradient-53);}.cls-85{fill:url(#radial-gradient-54);}.cls-86{fill:url(#radial-gradient-55);}.cls-87{fill:url(#radial-gradient-56);}.cls-88{fill:url(#radial-gradient-57);}.cls-89{fill:url(#linear-gradient-31);}.cls-90{fill:url(#linear-gradient-32);}.cls-91{fill:url(#radial-gradient-58);}.cls-92{fill:url(#radial-gradient-59);}.cls-93{fill:url(#radial-gradient-60);}.cls-94{fill:url(#radial-gradient-61);}.cls-95{fill:url(#radial-gradient-62);}.cls-96{fill:url(#linear-gradient-33);}.cls-97{fill:url(#linear-gradient-34);}.cls-98{fill:url(#radial-gradient-63);}.cls-99{fill:url(#radial-gradient-64);}.cls-100{fill:url(#radial-gradient-65);}.cls-101{fill:url(#radial-gradient-66);}.cls-102{fill:url(#radial-gradient-67);}.cls-103{fill:url(#linear-gradient-35);}.cls-104{fill:url(#linear-gradient-36);}.cls-105{fill:url(#radial-gradient-68);}.cls-106{fill:url(#radial-gradient-69);}.cls-107{fill:url(#radial-gradient-70);}</style><linearGradient id="linear-gradient" x1="115.77" y1="449.47" x2="170.58" y2="470.22" gradientTransform="matrix(-1, 0, 0, 1, 724.95, 0)" gradientUnits="userSpaceOnUse"><stop offset="0" stop-color="#a14500"/><stop offset="0.47" stop-color="#ffb303"/><stop offset="0.99" stop-color="#c57000"/></linearGradient><linearGradient id="linear-gradient-2" x1="65.69" y1="457.49" x2="122.1" y2="457.49" xlink:href="#linear-gradient"/><linearGradient id="linear-gradient-3" x1="399.95" y1="449.47" x2="454.82" y2="470.25" gradientTransform="matrix(1, 0, 0, 1, 0, 0)" xlink:href="#linear-gradient"/><linearGradient id="linear-gradient-4" x1="349.86" y1="457.49" x2="406.28" y2="457.49" gradientTransform="matrix(1, 0, 0, 1, 0, 0)" xlink:href="#linear-gradient"/><linearGradient id="linear-gradient-5" x1="316.38" y1="480.41" x2="696.19" y2="480.41" gradientUnits="userSpaceOnUse"><stop offset="0" stop-color="#a14500"/><stop offset="0.47" stop-color="#ffb303"/><stop offset="0.99" stop-color="#a34900"/></linearGradient><radialGradient id="radial-gradient" cx="200.86" cy="98.05" r="15.48" gradientUnits="userSpaceOnUse"><stop offset="0" stop-color="#fffc6b"/><stop offset="0.81" stop-color="#c26c00"/><stop offset="0.99" stop-color="#d48000"/></radialGradient><radialGradient id="radial-gradient-2" cx="505.48" cy="408.86" r="15.7" gradientUnits="userSpaceOnUse"><stop offset="0.85" stop-color="#c26c00"/><stop offset="1" stop-color="#ffc729"/></radialGradient><radialGradient id="radial-gradient-3" cx="201" cy="93.01" r="23.74" gradientUnits="userSpaceOnUse"><stop offset="0" stop-color="#fff25f"/><stop offset="0.99" stop-color="#c26c00"/></radialGradient><radialGradient id="radial-gradient-4" cx="289.26" cy="88.61" r="16.77" xlink:href="#radial-gradient"/><radialGradient id="radial-gradient-5" cx="593.9" cy="399.42" r="17.01" xlink:href="#radial-gradient-2"/><radialGradient id="radial-gradient-6" cx="289.42" cy="83.15" r="25.72" xlink:href="#radial-gradient-3"/><radialGradient id="radial-gradient-7" cx="110.2" cy="88.61" r="16.77" xlink:href="#radial-gradient"/><radialGradient id="radial-gradient-8" cx="414.84" cy="399.42" r="17.01" xlink:href="#radial-gradient-2"/><radialGradient id="radial-gradient-9" cx="110.36" cy="83.15" r="25.72" xlink:href="#radial-gradient-3"/><radialGradient id="radial-gradient-10" cx="349.2" cy="77.56" r="18.05" xlink:href="#radial-gradient"/><radialGradient id="radial-gradient-11" cx="653.86" cy="388.37" r="18.3" xlink:href="#radial-gradient-2"/><radialGradient id="radial-gradient-12" cx="349.37" cy="71.69" r="27.68" xlink:href="#radial-gradient-3"/><radialGradient id="radial-gradient-13" cx="49.4" cy="77.56" r="18.05" xlink:href="#radial-gradient"/><radialGradient id="radial-gradient-14" cx="354.06" cy="388.37" r="18.3" xlink:href="#radial-gradient-2"/><radialGradient id="radial-gradient-15" cx="49.57" cy="71.69" r="27.68" xlink:href="#radial-gradient-3"/><linearGradient id="linear-gradient-6" x1="90.82" y1="425.93" x2="159.45" y2="451.91" gradientTransform="matrix(-1, 0, 0, 1, 724.95, 0)" gradientUnits="userSpaceOnUse"><stop offset="0" stop-color="#b96100"/><stop offset="0.47" stop-color="#ffd73c"/><stop offset="0.99" stop-color="#e19000"/></linearGradient><linearGradient id="linear-gradient-7" x1="30.09" y1="452.16" x2="99.49" y2="452.16" xlink:href="#linear-gradient-6"/><linearGradient id="linear-gradient-8" x1="375" y1="425.93" x2="443.69" y2="451.94" gradientTransform="matrix(1, 0, 0, 1, 0, 0)" xlink:href="#linear-gradient-6"/><linearGradient id="linear-gradient-9" x1="314.26" y1="452.16" x2="383.66" y2="452.16" gradientTransform="matrix(1, 0, 0, 1, 0, 0)" xlink:href="#linear-gradient-6"/><linearGradient id="linear-gradient-10" x1="3.99" y1="235.96" x2="397.92" y2="235.96" gradientUnits="userSpaceOnUse"><stop offset="0" stop-color="#943500"/><stop offset="0.47" stop-color="#f4a500"/><stop offset="0.99" stop-color="#a94f00"/></linearGradient><linearGradient id="linear-gradient-11" x1="3.99" y1="235.51" x2="397.92" y2="235.51" gradientUnits="userSpaceOnUse"><stop offset="0" stop-color="#b96100"/><stop offset="0.1" stop-color="#ffd73c"/><stop offset="0.99" stop-color="#bc6600"/></linearGradient><linearGradient id="linear-gradient-12" x1="9.12" y1="226.18" x2="392.79" y2="226.18" xlink:href="#linear-gradient-10"/><linearGradient id="linear-gradient-13" x1="382.31" y1="565.99" x2="316.14" y2="565.99" gradientUnits="userSpaceOnUse"><stop offset="0" stop-color="#ffc72a"/><stop offset="0.56" stop-color="#ffff87"/><stop offset="0.99" stop-color="#ffb50d"/></linearGradient><linearGradient id="linear-gradient-14" x1="145.37" y1="471.66" x2="775.4" y2="471.66" gradientUnits="userSpaceOnUse"><stop offset="0" stop-color="#b96100"/><stop offset="0.47" stop-color="#ffd73c"/><stop offset="0.99" stop-color="#bc6600"/></linearGradient><linearGradient id="linear-gradient-15" x1="197.62" y1="417.17" x2="467.9" y2="530.52" gradientUnits="userSpaceOnUse"><stop offset="0" stop-color="#ffff92"/><stop offset="0.99" stop-color="#ffb50d"/></linearGradient><linearGradient id="linear-gradient-16" x1="619.78" y1="427.42" x2="657.83" y2="427.42" gradientUnits="userSpaceOnUse"><stop offset="0" stop-color="#ffb50d"/><stop offset="0.51" stop-color="#ffff87"/><stop offset="0.99" stop-color="#ffb50d"/></linearGradient><linearGradient id="linear-gradient-17" x1="509.77" y1="428.26" x2="561.78" y2="428.26" xlink:href="#linear-gradient-16"/><linearGradient id="linear-gradient-18" x1="314.58" y1="435.94" x2="349.68" y2="435.94" xlink:href="#linear-gradient-16"/><linearGradient id="linear-gradient-19" x1="396.34" y1="429.6" x2="445.73" y2="429.6" xlink:href="#linear-gradient-16"/><linearGradient id="linear-gradient-20" x1="504.29" y1="477.78" x2="697.19" y2="477.78" gradientUnits="userSpaceOnUse"><stop offset="0" stop-color="#ffd73c"/><stop offset="0.99" stop-color="#de8b00"/></linearGradient><radialGradient id="radial-gradient-16" cx="16.78" cy="63.82" r="19.33" gradientUnits="userSpaceOnUse"><stop offset="0" stop-color="#ffff9f"/><stop offset="0.81" stop-color="#de8b00"/><stop offset="0.99" stop-color="#f1a100"/></radialGradient><radialGradient id="radial-gradient-17" cx="321.46" cy="374.63" r="19.61" gradientUnits="userSpaceOnUse"><stop offset="0.85" stop-color="#de8b00"/><stop offset="1" stop-color="#ffee5c"/></radialGradient><radialGradient id="radial-gradient-18" cx="16.96" cy="57.53" r="29.65" gradientUnits="userSpaceOnUse"><stop offset="0" stop-color="#ffff92"/><stop offset="0.99" stop-color="#de8b00"/></radialGradient><radialGradient id="radial-gradient-19" cx="200.48" cy="26.66" r="38.45" xlink:href="#radial-gradient-16"/><radialGradient id="radial-gradient-20" cx="505.43" cy="337.47" r="38.99" xlink:href="#radial-gradient-17"/><radialGradient id="radial-gradient-21" cx="200.84" cy="14.15" r="58.96" xlink:href="#radial-gradient-18"/><radialGradient id="radial-gradient-22" cx="89.5" cy="46.95" r="19.33" xlink:href="#radial-gradient-16"/><radialGradient id="radial-gradient-23" cx="394.18" cy="357.76" r="19.6" xlink:href="#radial-gradient-17"/><radialGradient id="radial-gradient-24" cx="89.68" cy="40.66" r="29.65" xlink:href="#radial-gradient-18"/><radialGradient id="radial-gradient-25" cx="37.01" cy="374.63" r="19.33" gradientTransform="matrix(-1, 0, 0, 1, 420.55, -310.81)" xlink:href="#radial-gradient-16"/><radialGradient id="radial-gradient-26" cx="37.28" cy="374.63" r="19.61" gradientTransform="matrix(-1, 0, 0, 1, 724.95, 0)" xlink:href="#radial-gradient-17"/><radialGradient id="radial-gradient-27" cx="37.19" cy="368.34" r="29.65" gradientTransform="matrix(-1, 0, 0, 1, 420.55, -310.81)" xlink:href="#radial-gradient-18"/><radialGradient id="radial-gradient-28" cx="109.73" cy="357.76" r="19.33" gradientTransform="matrix(-1, 0, 0, 1, 420.55, -310.81)" xlink:href="#radial-gradient-16"/><radialGradient id="radial-gradient-29" cx="110" cy="357.76" r="19.6" gradientTransform="matrix(-1, 0, 0, 1, 724.95, 0)" xlink:href="#radial-gradient-17"/><radialGradient id="radial-gradient-30" cx="109.91" cy="351.47" r="29.64" gradientTransform="matrix(-1, 0, 0, 1, 420.55, -310.81)" xlink:href="#radial-gradient-18"/><radialGradient id="radial-gradient-31" cx="501.17" cy="489.12" r="74.14" gradientUnits="userSpaceOnUse"><stop offset="0" stop-color="#ffff87"/><stop offset="0.52" stop-color="#ffc72a"/><stop offset="1" stop-color="#de8b00"/></radialGradient><radialGradient id="radial-gradient-32" cx="504.66" cy="437.57" r="130.35" gradientUnits="userSpaceOnUse"><stop offset="0.46" stop-color="#ffff87"/><stop offset="0.63" stop-color="#ffee5c"/><stop offset="0.72" stop-color="#ffc72a"/><stop offset="0.76" stop-color="#ffc72a"/><stop offset="1" stop-color="#f1a100"/></radialGradient><linearGradient id="linear-gradient-21" x1="505.06" y1="484.03" x2="505.06" y2="580.55" gradientUnits="userSpaceOnUse"><stop offset="0" stop-color="#ffc72a"/><stop offset="0.99" stop-color="#ffff92"/></linearGradient><linearGradient id="linear-gradient-22" x1="505.07" y1="485.19" x2="505.07" y2="578.67" gradientUnits="userSpaceOnUse"><stop offset="0" stop-color="#ab4b00"/><stop offset="0.99" stop-color="#f1a100"/></linearGradient><radialGradient id="radial-gradient-33" cx="200.47" cy="202.87" r="39.38" xlink:href="#radial-gradient-16"/><radialGradient id="radial-gradient-34" cx="505.44" cy="513.68" r="39.94" xlink:href="#radial-gradient-17"/><radialGradient id="radial-gradient-35" cx="200.85" cy="190.05" r="60.4" xlink:href="#radial-gradient-18"/><radialGradient id="radial-gradient-36" cx="504.28" cy="381.98" r="14.87" xlink:href="#radial-gradient-31"/><radialGradient id="radial-gradient-37" cx="200.58" cy="60.83" r="26.14" xlink:href="#radial-gradient-32"/><linearGradient id="linear-gradient-23" x1="200.66" y1="70.15" x2="200.66" y2="89.51" xlink:href="#linear-gradient-21"/><linearGradient id="linear-gradient-24" x1="200.66" y1="70.38" x2="200.66" y2="89.13" xlink:href="#linear-gradient-22"/><radialGradient id="radial-gradient-38" cx="200.62" cy="76.1" r="7.9" xlink:href="#radial-gradient-16"/><radialGradient id="radial-gradient-39" cx="505.14" cy="386.91" r="8.01" xlink:href="#radial-gradient-17"/><radialGradient id="radial-gradient-40" cx="200.7" cy="73.53" r="12.11" xlink:href="#radial-gradient-18"/><radialGradient id="radial-gradient-41" cx="503.97" cy="404.97" r="20.84" xlink:href="#radial-gradient-31"/><radialGradient id="radial-gradient-42" cx="504.95" cy="390.48" r="36.64" xlink:href="#radial-gradient-32"/><linearGradient id="linear-gradient-25" x1="505.06" y1="403.54" x2="505.06" y2="430.67" xlink:href="#linear-gradient-21"/><linearGradient id="linear-gradient-26" x1="505.06" y1="403.87" x2="505.06" y2="430.14" xlink:href="#linear-gradient-22"/><radialGradient id="radial-gradient-43" cx="200.61" cy="101.07" r="11.07" xlink:href="#radial-gradient-16"/><radialGradient id="radial-gradient-44" cx="505.17" cy="411.87" r="11.23" xlink:href="#radial-gradient-17"/><radialGradient id="radial-gradient-45" cx="200.71" cy="97.46" r="16.98" xlink:href="#radial-gradient-18"/><radialGradient id="radial-gradient-46" cx="398.95" cy="515.99" r="20.84" xlink:href="#radial-gradient-31"/><radialGradient id="radial-gradient-47" cx="399.94" cy="501.5" r="36.64" xlink:href="#radial-gradient-32"/><linearGradient id="linear-gradient-27" x1="400.05" y1="514.56" x2="400.05" y2="541.69" xlink:href="#linear-gradient-21"/><linearGradient id="linear-gradient-28" x1="400.05" y1="514.89" x2="400.05" y2="541.16" xlink:href="#linear-gradient-22"/><radialGradient id="radial-gradient-48" cx="95.59" cy="212.09" r="11.07" xlink:href="#radial-gradient-16"/><radialGradient id="radial-gradient-49" cx="400.15" cy="522.89" r="11.23" xlink:href="#radial-gradient-17"/><radialGradient id="radial-gradient-50" cx="95.7" cy="208.48" r="16.98" xlink:href="#radial-gradient-18"/><radialGradient id="radial-gradient-51" cx="607.29" cy="515.99" r="20.84" xlink:href="#radial-gradient-31"/><radialGradient id="radial-gradient-52" cx="608.27" cy="501.5" r="36.64" xlink:href="#radial-gradient-32"/><linearGradient id="linear-gradient-29" x1="608.38" y1="514.56" x2="608.38" y2="541.69" xlink:href="#linear-gradient-21"/><linearGradient id="linear-gradient-30" x1="608.38" y1="514.89" x2="608.38" y2="541.16" xlink:href="#linear-gradient-22"/><radialGradient id="radial-gradient-53" cx="303.92" cy="212.09" r="11.07" xlink:href="#radial-gradient-16"/><radialGradient id="radial-gradient-54" cx="608.49" cy="522.89" r="11.23" xlink:href="#radial-gradient-17"/><radialGradient id="radial-gradient-55" cx="304.03" cy="208.48" r="16.98" xlink:href="#radial-gradient-18"/><radialGradient id="radial-gradient-56" cx="503.28" cy="436.59" r="34.06" xlink:href="#radial-gradient-31"/><radialGradient id="radial-gradient-57" cx="504.88" cy="412.91" r="59.88" xlink:href="#radial-gradient-32"/><linearGradient id="linear-gradient-31" x1="505.07" y1="434.26" x2="505.07" y2="478.59" xlink:href="#linear-gradient-21"/><linearGradient id="linear-gradient-32" x1="505.06" y1="434.79" x2="505.06" y2="477.73" xlink:href="#linear-gradient-22"/><radialGradient id="radial-gradient-58" cx="200.57" cy="137.06" r="18.09" xlink:href="#radial-gradient-16"/><radialGradient id="radial-gradient-59" cx="505.24" cy="447.87" r="18.35" xlink:href="#radial-gradient-17"/><radialGradient id="radial-gradient-60" cx="200.75" cy="131.18" r="27.75" xlink:href="#radial-gradient-18"/><radialGradient id="radial-gradient-61" cx="433.71" cy="512.78" r="34.06" xlink:href="#radial-gradient-31"/><radialGradient id="radial-gradient-62" cx="435.31" cy="489.1" r="59.88" xlink:href="#radial-gradient-32"/><linearGradient id="linear-gradient-33" x1="435.5" y1="510.45" x2="435.5" y2="554.79" xlink:href="#linear-gradient-21"/><linearGradient id="linear-gradient-34" x1="435.5" y1="510.98" x2="435.5" y2="553.92" xlink:href="#linear-gradient-22"/><radialGradient id="radial-gradient-63" cx="131.01" cy="213.26" r="18.09" xlink:href="#radial-gradient-16"/><radialGradient id="radial-gradient-64" cx="435.67" cy="524.07" r="18.35" xlink:href="#radial-gradient-17"/><radialGradient id="radial-gradient-65" cx="131.18" cy="207.37" r="27.75" xlink:href="#radial-gradient-18"/><radialGradient id="radial-gradient-66" cx="570.81" cy="512.78" r="34.06" xlink:href="#radial-gradient-31"/><radialGradient id="radial-gradient-67" cx="572.42" cy="489.1" r="59.88" xlink:href="#radial-gradient-32"/><linearGradient id="linear-gradient-35" x1="572.6" y1="510.45" x2="572.6" y2="554.79" xlink:href="#linear-gradient-21"/><linearGradient id="linear-gradient-36" x1="572.6" y1="510.98" x2="572.6" y2="553.92" xlink:href="#linear-gradient-22"/><radialGradient id="radial-gradient-68" cx="268.11" cy="213.26" r="18.09" xlink:href="#radial-gradient-16"/><radialGradient id="radial-gradient-69" cx="572.77" cy="524.07" r="18.35" xlink:href="#radial-gradient-17"/><radialGradient id="radial-gradient-70" cx="268.28" cy="207.37" r="27.75" xlink:href="#radial-gradient-18"/></defs><title>crown</title><path class="cls-1" d="M594.45,402.42h-7.36s-1.77,97.82-37.16,96.36c-19.65-.81-31.24-45.57-31.24-45.57s22,70,24.52,69.59S586,515,587.09,513,594.45,402.42,594.45,402.42Z" transform="translate(-304.4 -310.81)"/><path class="cls-2" d="M649.3,395.8s-3.41,79.9-19.81,90.61S602.85,472,602.85,472l28.92,48.88L655.9,460l3.36-65.83Z" transform="translate(-304.4 -310.81)"/><path class="cls-3" d="M414.68,402.42H422s-2.75,93.31,37.73,94.93c16.31,0.65,31.48-44.13,31.48-44.13s-22.85,70-25.34,69.59S423.15,515,422,513,414.68,402.42,414.68,402.42Z" transform="translate(-304.4 -310.81)"/><path class="cls-4" d="M359.83,395.8s3.42,79.9,19.81,90.61S406.28,472,406.28,472l-28.92,48.88L353.23,460l-3.36-65.83Z" transform="translate(-304.4 -310.81)"/><path class="cls-5" d="M660.29,394.13h-2.59s-3.19,98.17-26.42,101.33C607.67,498.67,600,405.91,600,405.91h-8.73S591,491,554.91,498.62c-31.53,6.67-44.38-83.74-44.38-83.74H499s-12.86,90.41-44.38,83.74c-36.05-7.63-36.32-92.72-36.32-92.72h-8.73s-7.71,92.77-31.32,89.55C355,492.3,351.86,394.13,351.86,394.13h-2.59S338.52,505.72,317,519.76c-9.76,6.36,102.11,46.94,188.24,46.94s191-29.61,191-47.47C671,514.6,660.29,394.13,660.29,394.13Z" transform="translate(-304.4 -310.81)"/><circle class="cls-6" cx="200.93" cy="100.82" r="13.51"/><path class="cls-7" d="M505.34,422.73a13.52,13.52,0,0,1-12.12-7.56,12.63,12.63,0,0,0,24.25,0A13.52,13.52,0,0,1,505.34,422.73Z" transform="translate(-304.4 -310.81)"/><ellipse class="cls-8" cx="200.93" cy="96.44" rx="9.86" ry="8.25"/><circle class="cls-9" cx="289.34" cy="91.61" r="14.63"/><path class="cls-10" d="M593.75,414.45a14.65,14.65,0,0,1-13.13-8.19,13.68,13.68,0,0,0,26.27,0A14.65,14.65,0,0,1,593.75,414.45Z" transform="translate(-304.4 -310.81)"/><ellipse class="cls-11" cx="289.34" cy="86.87" rx="10.68" ry="8.94"/><circle class="cls-12" cx="110.28" cy="91.61" r="14.63"/><path class="cls-13" d="M414.68,414.45a14.65,14.65,0,0,1-13.14-8.19,13.68,13.68,0,0,0,26.27,0A14.65,14.65,0,0,1,414.68,414.45Z" transform="translate(-304.4 -310.81)"/><ellipse class="cls-14" cx="110.28" cy="86.87" rx="10.68" ry="8.94"/><circle class="cls-15" cx="349.28" cy="80.79" r="15.75"/><path class="cls-16" d="M653.69,404.54a15.77,15.77,0,0,1-14.13-8.81,14.72,14.72,0,0,0,28.27,0A15.77,15.77,0,0,1,653.69,404.54Z" transform="translate(-304.4 -310.81)"/><ellipse class="cls-17" cx="349.28" cy="75.69" rx="11.49" ry="9.62"/><circle class="cls-18" cx="49.49" cy="80.79" r="15.75"/><path class="cls-19" d="M353.89,404.54a15.77,15.77,0,0,1-14.13-8.81,14.72,14.72,0,0,0,28.27,0A15.77,15.77,0,0,1,353.89,404.54Z" transform="translate(-304.4 -310.81)"/><ellipse class="cls-20" cx="49.49" cy="75.69" rx="11.49" ry="9.62"/><path class="cls-21" d="M615.13,365.56h-9.05S603.9,490.86,560.36,489c-24.17-1-38.43-58.36-38.43-58.36s27.1,89.62,30.17,89.13,52.61-10,54-12.51S615.13,365.56,615.13,365.56Z" transform="translate(-304.4 -310.81)"/><path class="cls-22" d="M682.61,389.2s-4.2,70.22-24.37,83.95-32.77-18.49-32.77-18.49L661,517.27l29.69-78,4.14-52.2Z" transform="translate(-304.4 -310.81)"/><path class="cls-23" d="M394,365.56H403s-3.39,119.53,46.42,121.59c20.06,0.83,38.73-56.52,38.73-56.52S460.09,520.25,457,519.76s-52.61-10-54-12.51S394,365.56,394,365.56Z" transform="translate(-304.4 -310.81)"/><path class="cls-24" d="M326.52,389.2s4.2,70.22,24.37,83.95,32.77-18.49,32.77-18.49l-35.57,62.61-29.69-78-4.14-52.2Z" transform="translate(-304.4 -310.81)"/><ellipse class="cls-25" cx="200.96" cy="235.96" rx="196.96" ry="44.8"/><ellipse class="cls-26" cx="200.96" cy="235.51" rx="196.96" ry="41.88"/><ellipse class="cls-27" cx="200.96" cy="226.18" rx="191.83" ry="41.88"/><path class="cls-28" d="M392.89,574.81c-1.07-1.84-3.67-3.16-6.21-3.65-6.26-1.21-12.59-2.18-18.85-3.44A209.46,209.46,0,0,1,336.59,559a94.21,94.21,0,0,1-12.84-5.76c-3.1-1.71-.84,2.61-0.3,3.4,6.38,9.33,28.63,14.67,44.9,18.1,2.11,0.44,20.08,4.1,24.14,4.34C394.76,579.24,393.6,576,392.89,574.81Z" transform="translate(-304.4 -310.81)"/><path class="cls-29" d="M696.12,387.05h-3.19s-3.92,93.63-32.5,97.68C631.4,488.85,621.91,370,621.91,370H611.17s-0.32,109-44.67,118.76c-38.78,8.54-54.6-121.44-54.6-121.44H497.75s-15.82,130-54.6,121.44C398.8,479,398.48,370,398.48,370H387.73s-9.48,118.83-38.52,114.71c-28.57-4.05-32.5-97.68-32.5-97.68h-3.19v147.5c0,22.88,85.89,41.43,191.83,41.43S697.2,557.43,697.2,534.55C697.2,533.07,696.12,387.05,696.12,387.05Z" transform="translate(-304.4 -310.81)"/><path class="cls-30" d="M313.65,387.05v147.5c0,22.88,85.89,41.43,191.83,41.43,2.31,0,4.62,0,6.91,0-91.65,0-158.83-7.2-178.82-55.94C310.32,463.27,313.65,387.05,313.65,387.05Z" transform="translate(-304.4 -310.81)"/><path class="cls-31" d="M657.83,484.77c-27-3.06-35.92-114.75-35.92-114.75h-2.12S629.16,487.52,657.83,484.77Z" transform="translate(-304.4 -310.81)"/><path class="cls-32" d="M561.78,489.13c-35.35-2.39-49.89-121.78-49.89-121.78h-2.12S524.88,491.51,561.78,489.13Z" transform="translate(-304.4 -310.81)"/><path class="cls-33" d="M347.08,484.73a10.32,10.32,0,0,0,2.6,0l-0.48,0c-28.57-4.05-32.5-97.68-32.5-97.68h-2.12S318.5,480.68,347.08,484.73Z" transform="translate(-304.4 -310.81)"/><path class="cls-34" d="M441,488.78a16.52,16.52,0,0,0,4.71.35,16.89,16.89,0,0,1-2.58-.35C398.79,479,398.47,370,398.47,370h-2.12S396.67,479,441,488.78Z" transform="translate(-304.4 -310.81)"/><path class="cls-35" d="M696.11,387.05h0C694.05,518.29,708,568.57,504.29,576c0.35,0,.71,0,1.06,0,105.95,0,191.83-18.55,191.83-41.43C697.19,533.07,696.11,387.05,696.11,387.05Z" transform="translate(-304.4 -310.81)"/><circle class="cls-36" cx="16.87" cy="67.29" r="16.87"/><path class="cls-37" d="M321.27,392a16.89,16.89,0,0,1-15.14-9.44,15.77,15.77,0,0,0,30.28,0A16.89,16.89,0,0,1,321.27,392Z" transform="translate(-304.4 -310.81)"/><ellipse class="cls-38" cx="16.87" cy="61.82" rx="12.31" ry="10.3"/><circle class="cls-39" cx="200.66" cy="33.55" r="33.55"/><path class="cls-40" d="M505.07,371.93A33.58,33.58,0,0,1,475,353.15a31.37,31.37,0,0,0,60.22,0A33.58,33.58,0,0,1,505.07,371.93Z" transform="translate(-304.4 -310.81)"/><ellipse class="cls-41" cx="200.66" cy="22.67" rx="24.48" ry="20.49"/><circle class="cls-42" cx="89.59" cy="50.42" r="16.87"/><path class="cls-43" d="M394,375.09a16.89,16.89,0,0,1-15.14-9.44,15.77,15.77,0,0,0,30.28,0A16.89,16.89,0,0,1,394,375.09Z" transform="translate(-304.4 -310.81)"/><ellipse class="cls-44" cx="89.59" cy="44.95" rx="12.31" ry="10.3"/><circle class="cls-45" cx="383.45" cy="67.29" r="16.87"/><path class="cls-46" d="M687.85,392A16.89,16.89,0,0,0,703,382.52a15.77,15.77,0,0,1-30.28,0A16.89,16.89,0,0,0,687.85,392Z" transform="translate(-304.4 -310.81)"/><ellipse class="cls-47" cx="383.45" cy="61.82" rx="12.31" ry="10.3"/><circle class="cls-48" cx="310.73" cy="50.42" r="16.87"/><path class="cls-49" d="M615.13,375.09a16.89,16.89,0,0,0,15.14-9.44,15.77,15.77,0,0,1-30.28,0A16.89,16.89,0,0,0,615.13,375.09Z" transform="translate(-304.4 -310.81)"/><ellipse class="cls-50" cx="310.73" cy="44.95" rx="12.31" ry="10.3"/><path class="cls-51" d="M505.07,568.87a44,44,0,1,1,44-44A44,44,0,0,1,505.07,568.87Z" transform="translate(-304.4 -310.81)"/><path class="cls-52" d="M505.07,564.72a44,44,0,1,1,44-44A44,44,0,0,1,505.07,564.72Z" transform="translate(-304.4 -310.81)"/><path class="cls-53" d="M505.07,563.35a42.61,42.61,0,1,1,42.61-42.62A42.66,42.66,0,0,1,505.07,563.35Z" transform="translate(-304.4 -310.81)"/><path class="cls-54" d="M505.07,557.64a36.9,36.9,0,1,1,36.9-36.9A36.94,36.94,0,0,1,505.07,557.64Z" transform="translate(-304.4 -310.81)"/><path class="cls-55" d="M505.07,556.47a35.74,35.74,0,1,1,35.74-35.74A35.78,35.78,0,0,1,505.07,556.47Z" transform="translate(-304.4 -310.81)"/><circle class="cls-56" cx="200.66" cy="209.93" r="34.37"/><path class="cls-57" d="M505.07,549a34.4,34.4,0,0,1-30.84-19.23,32.13,32.13,0,0,0,61.69,0A34.4,34.4,0,0,1,505.07,549Z" transform="translate(-304.4 -310.81)"/><ellipse class="cls-58" cx="200.66" cy="198.78" rx="25.08" ry="20.99"/><circle class="cls-51" cx="200.66" cy="78.34" r="8.82"/><path class="cls-59" d="M505.06,397.14a8.82,8.82,0,1,1,8.82-8.82A8.83,8.83,0,0,1,505.06,397.14Z" transform="translate(-304.4 -310.81)"/><circle class="cls-60" cx="200.66" cy="77.51" r="8.55"/><circle class="cls-61" cx="200.66" cy="77.51" r="7.4"/><circle class="cls-62" cx="200.66" cy="77.51" r="7.17"/><circle class="cls-63" cx="200.66" cy="77.51" r="6.89"/><path class="cls-64" d="M505.06,394a6.9,6.9,0,0,1-6.19-3.86,6.44,6.44,0,0,0,12.37,0A6.9,6.9,0,0,1,505.06,394Z" transform="translate(-304.4 -310.81)"/><ellipse class="cls-65" cx="200.66" cy="75.28" rx="5.03" ry="4.21"/><path class="cls-51" d="M505.06,427.39A12.37,12.37,0,1,1,517.43,415,12.38,12.38,0,0,1,505.06,427.39Z" transform="translate(-304.4 -310.81)"/><path class="cls-66" d="M505.06,426.22a12.37,12.37,0,1,1,12.36-12.37A12.38,12.38,0,0,1,505.06,426.22Z" transform="translate(-304.4 -310.81)"/><path class="cls-67" d="M505.06,425.84a12,12,0,1,1,12-12A12,12,0,0,1,505.06,425.84Z" transform="translate(-304.4 -310.81)"/><path class="cls-68" d="M505.06,424.23a10.37,10.37,0,1,1,10.37-10.37A10.38,10.38,0,0,1,505.06,424.23Z" transform="translate(-304.4 -310.81)"/><path class="cls-69" d="M505.06,423.91a10,10,0,1,1,10-10A10.06,10.06,0,0,1,505.06,423.91Z" transform="translate(-304.4 -310.81)"/><circle class="cls-70" cx="200.66" cy="103.05" r="9.66"/><path class="cls-71" d="M505.06,421.79a9.67,9.67,0,0,1-8.67-5.4,9,9,0,0,0,17.34,0A9.67,9.67,0,0,1,505.06,421.79Z" transform="translate(-304.4 -310.81)"/><ellipse class="cls-72" cx="200.66" cy="99.92" rx="7.05" ry="5.9"/><path class="cls-51" d="M400,538.41A12.37,12.37,0,1,1,412.41,526,12.38,12.38,0,0,1,400,538.41Z" transform="translate(-304.4 -310.81)"/><path class="cls-73" d="M400,537.24a12.37,12.37,0,1,1,12.37-12.37A12.38,12.38,0,0,1,400,537.24Z" transform="translate(-304.4 -310.81)"/><path class="cls-74" d="M400,536.86a12,12,0,1,1,12-12A12,12,0,0,1,400,536.86Z" transform="translate(-304.4 -310.81)"/><path class="cls-75" d="M400,535.25a10.37,10.37,0,1,1,10.37-10.37A10.38,10.38,0,0,1,400,535.25Z" transform="translate(-304.4 -310.81)"/><path class="cls-76" d="M400,534.93a10,10,0,1,1,10-10A10.06,10.06,0,0,1,400,534.93Z" transform="translate(-304.4 -310.81)"/><circle class="cls-77" cx="95.64" cy="214.07" r="9.66"/><path class="cls-78" d="M400,532.82a9.67,9.67,0,0,1-8.67-5.4,9,9,0,0,0,17.34,0A9.67,9.67,0,0,1,400,532.82Z" transform="translate(-304.4 -310.81)"/><ellipse class="cls-79" cx="95.64" cy="210.94" rx="7.05" ry="5.9"/><path class="cls-51" d="M608.38,538.41A12.37,12.37,0,1,1,620.75,526,12.38,12.38,0,0,1,608.38,538.41Z" transform="translate(-304.4 -310.81)"/><path class="cls-80" d="M608.38,537.24a12.37,12.37,0,1,1,12.36-12.37A12.38,12.38,0,0,1,608.38,537.24Z" transform="translate(-304.4 -310.81)"/><path class="cls-81" d="M608.38,536.86a12,12,0,1,1,12-12A12,12,0,0,1,608.38,536.86Z" transform="translate(-304.4 -310.81)"/><path class="cls-82" d="M608.38,535.25a10.37,10.37,0,1,1,10.37-10.37A10.38,10.38,0,0,1,608.38,535.25Z" transform="translate(-304.4 -310.81)"/><path class="cls-83" d="M608.38,534.93a10,10,0,1,1,10-10A10.06,10.06,0,0,1,608.38,534.93Z" transform="translate(-304.4 -310.81)"/><circle class="cls-84" cx="303.98" cy="214.07" r="9.66"/><path class="cls-85" d="M608.38,532.82a9.67,9.67,0,0,1-8.67-5.4,9,9,0,0,0,17.34,0A9.67,9.67,0,0,1,608.38,532.82Z" transform="translate(-304.4 -310.81)"/><ellipse class="cls-86" cx="303.98" cy="210.94" rx="7.05" ry="5.9"/><path class="cls-51" d="M505.07,473.23A20.21,20.21,0,1,1,525.27,453,20.23,20.23,0,0,1,505.07,473.23Z" transform="translate(-304.4 -310.81)"/><path class="cls-87" d="M505.07,471.32a20.21,20.21,0,1,1,20.21-20.21A20.23,20.23,0,0,1,505.07,471.32Z" transform="translate(-304.4 -310.81)"/><path class="cls-88" d="M505.07,470.69a19.58,19.58,0,1,1,19.58-19.58A19.6,19.6,0,0,1,505.07,470.69Z" transform="translate(-304.4 -310.81)"/><path class="cls-89" d="M505.07,468.07a17,17,0,1,1,17-17A17,17,0,0,1,505.07,468.07Z" transform="translate(-304.4 -310.81)"/><path class="cls-90" d="M505.07,467.53a16.42,16.42,0,1,1,16.42-16.42A16.44,16.44,0,0,1,505.07,467.53Z" transform="translate(-304.4 -310.81)"/><circle class="cls-91" cx="200.66" cy="140.31" r="15.79"/><path class="cls-92" d="M505.07,464.09a15.81,15.81,0,0,1-14.17-8.83,14.76,14.76,0,0,0,28.34,0A15.8,15.8,0,0,1,505.07,464.09Z" transform="translate(-304.4 -310.81)"/><ellipse class="cls-93" cx="200.66" cy="135.19" rx="11.52" ry="9.64"/><path class="cls-51" d="M435.5,549.42a20.21,20.21,0,1,1,20.21-20.21A20.23,20.23,0,0,1,435.5,549.42Z" transform="translate(-304.4 -310.81)"/><path class="cls-94" d="M435.5,547.52a20.21,20.21,0,1,1,20.21-20.21A20.23,20.23,0,0,1,435.5,547.52Z" transform="translate(-304.4 -310.81)"/><path class="cls-95" d="M435.5,546.89a19.58,19.58,0,1,1,19.58-19.58A19.6,19.6,0,0,1,435.5,546.89Z" transform="translate(-304.4 -310.81)"/><path class="cls-96" d="M435.5,544.26a17,17,0,1,1,17-17A17,17,0,0,1,435.5,544.26Z" transform="translate(-304.4 -310.81)"/><path class="cls-97" d="M435.5,543.73a16.42,16.42,0,1,1,16.42-16.42A16.44,16.44,0,0,1,435.5,543.73Z" transform="translate(-304.4 -310.81)"/><circle class="cls-98" cx="131.09" cy="216.5" r="15.79"/><path class="cls-99" d="M435.5,540.28a15.81,15.81,0,0,1-14.17-8.83,14.76,14.76,0,0,0,28.34,0A15.8,15.8,0,0,1,435.5,540.28Z" transform="translate(-304.4 -310.81)"/><ellipse class="cls-100" cx="131.09" cy="211.38" rx="11.52" ry="9.64"/><path class="cls-51" d="M572.6,549.42a20.21,20.21,0,1,1,20.21-20.21A20.23,20.23,0,0,1,572.6,549.42Z" transform="translate(-304.4 -310.81)"/><path class="cls-101" d="M572.6,547.52a20.21,20.21,0,1,1,20.21-20.21A20.23,20.23,0,0,1,572.6,547.52Z" transform="translate(-304.4 -310.81)"/><path class="cls-102" d="M572.6,546.89a19.58,19.58,0,1,1,19.58-19.58A19.6,19.6,0,0,1,572.6,546.89Z" transform="translate(-304.4 -310.81)"/><path class="cls-103" d="M572.6,544.26a17,17,0,1,1,17-17A17,17,0,0,1,572.6,544.26Z" transform="translate(-304.4 -310.81)"/><path class="cls-104" d="M572.6,543.73A16.42,16.42,0,1,1,589,527.31,16.44,16.44,0,0,1,572.6,543.73Z" transform="translate(-304.4 -310.81)"/><circle class="cls-105" cx="268.2" cy="216.5" r="15.79"/><path class="cls-106" d="M572.6,540.28a15.81,15.81,0,0,1-14.17-8.83,14.76,14.76,0,0,0,28.34,0A15.81,15.81,0,0,1,572.6,540.28Z" transform="translate(-304.4 -310.81)"/><ellipse class="cls-107" cx="268.2" cy="211.38" rx="11.52" ry="9.64"/></svg>