<svg id="Layer_1" data-name="Layer 1" xmlns="http://www.w3.org/2000/svg" viewBox="0 0 282.04 271.43">
  <defs>
    <style>.cls-1{fill:#fff;}.cls-2{fill:#5f3b21;}.cls-3{fill:#896a44;}.cls-4{fill:#1d2023;}.cls-5{opacity:0.3;}.cls-6{fill:#e3b829;}.cls-7{fill:#231f20;}.cls-8{fill:#f89724;}.cls-9{opacity:0.2;}.cls-10{opacity:0.1;}</style>
  </defs>
  <title>pgold</title>
  <path class="cls-2" d="M203.58,284.21s-8.61-4.29,51.67-4.94c61.21-.66,88.87.49,109.92,2,23.37,1.65,54.3,25.34,62.53,55.95-24.68,4.94-161.91,2-161.91,2Z" transform="translate(-164.98 -260.28)"/>
  <path d="M347.73,341.21c-40.67,0-81.57-.87-82-0.88h-0.42L202.9,285.16a1.72,1.72,0,0,1-.87-1.84c0.32-1.39,1.06-4.63,53.19-5.19,11.71-.13,22.69-0.19,32.63-0.19,41.07,0,62.16,1.1,77.38,2.17,11.92,0.84,25.63,7.18,37.61,17.39,12.85,10.95,22.06,24.94,26,39.41l0.32,1.19-1.21.24C418.36,340.24,391.39,341.21,347.73,341.21ZM266.22,338c4.45,0.09,43.08.87,81.5,0.87,41.75,0,68.14-.88,78.51-2.61-8.67-29.89-38.95-52.32-61.16-53.89-15.18-1.07-36.22-2.16-77.22-2.16-9.93,0-20.9.06-32.61,0.19-39.09.42-48.31,2.41-50.48,3.3Z" transform="translate(-164.98 -260.28)"/><polygon class="cls-2" points="267.3 226.93 96.72 252.44 96.27 134.29 267.3 134.29 267.3 226.93"/>
  <path d="M260.55,514.07l-0.46-120.65H433.44v94.79Zm1.86-118.34,0.44,115.66,168.28-25.17V395.73H262.41Z" transform="translate(-164.98 -260.28)"/>
  <polygon class="cls-2" points="96.19 251.33 33 203.28 33 114.43 96.52 139.11 96.19 251.33"/>
  <path d="M262.32,513.94l-65.49-49.8V373l65.83,25.58ZM199.14,463L260,509.29l0.32-109.11-61.2-23.78V463Z" transform="translate(-164.98 -260.28)"/><polygon class="cls-3" points="83.6 231.12 39.34 197.46 39.34 129.49 83.83 152.51 83.6 231.12"/><path d="M249.73,493.72l-46.56-35.41V387.88L250,412.09Zm-44.25-36.55,42,31.9,0.22-75.58-42.18-21.82v65.5Z" transform="translate(-164.98 -260.28)"/><path class="cls-4" d="M427.15,336.54l-158.41-1.64L198,373.55l0.06,0.18,161.86,0.66,67.35-37.08S427.15,336.57,427.15,336.54Z" transform="translate(-164.98 -260.28)"/><path d="M360.19,375.54h-0.3l-162.69-.66L196.56,373l71.88-39.27h0.3l159.37,1.65,0.16,0.95,0.05,0.4,0.05,0.39,0.12,0.79-0.7.4Zm-158-3,157.46,0.64,64.6-35.57L269,336.05Z" transform="translate(-164.98 -260.28)"/><path class="cls-4" d="M431.77,394.42l-71.67-20.26-161.57.55,0,0.1,63.64,31.82,169.6-11.48C431.76,395.09,431.77,394.48,431.77,394.42Z" transform="translate(-164.98 -260.28)"/><path d="M261.92,407.81l-0.28-.14-64.42-32.21,0.37-1.89L360.27,373l0.16,0L433,393.57l-0.1,1v0.33c0,0.18,0,.35,0,0.38l-0.08,1-1,.07Zm-58.75-32,59.22,29.61,164.75-11.15-67.19-19Z" transform="translate(-164.98 -260.28)"/><path class="cls-2" d="M198.31,374.71s-39.79-59.25-3-86.55c38.17-28.3,73.72,47.72,73.72,47.72Z" transform="translate(-164.98 -260.28)"/><path d="M197.94,376.23l-0.59-.88A137.07,137.07,0,0,1,181.91,342c-3.15-10.75-4.09-20.49-2.78-29a38.34,38.34,0,0,1,15.53-25.79c5.85-4.34,12-6.54,18.34-6.54,13.16,0,26.79,9.24,40.51,27.48a174.08,174.08,0,0,1,16.6,27.22l0.46,1ZM213,283c-5.81,0-11.52,2-17,6.09-14.84,11-18.85,28.59-11.91,52.26a134.93,134.93,0,0,0,14.57,31.83l68.85-37.79C264,328.15,240.47,283,213,283Z" transform="translate(-164.98 -260.28)"/><path class="cls-3" d="M203.69,357.68s-27.17-40.46-2-59.11C227.74,279.25,252,331.16,252,331.16Z" transform="translate(-164.98 -260.28)"/><path d="M203.32,359.2l-0.59-.88a92.12,92.12,0,0,1-10.59-22.88c-4.92-16.79-1.87-29.86,8.84-37.8a21.21,21.21,0,0,1,12.74-4.54c21.52,0,38.62,36,39.33,37.56l0.46,1Zm10.4-63.78a19,19,0,0,0-11.37,4.08c-10,7.41-12.69,19.29-8,35.29a91.73,91.73,0,0,0,9.72,21.36l46.41-25.47C247.6,324.91,231.91,295.42,213.72,295.42Z" transform="translate(-164.98 -260.28)"/><polygon points="196.28 139.95 193.97 139.95 193.97 114.16 174.44 76.65 176.49 75.59 196.28 113.59 196.28 139.95"/><polygon class="cls-3" points="116.13 162.55 254.27 151.72 254.27 218.41 116.27 234.87 116.13 162.55"/><path d="M280.1,496.45L280,421.76l140.45-11v69Zm2.16-72.55,0.14,69.95,135.69-16.18V413.25Z" transform="translate(-164.98 -260.28)"/><path class="cls-3" d="M234.49,279.79s23.38,0.58,44.17,43.88H410s-12.7-32.33-57.74-43C288.76,278.05,234.49,279.79,234.49,279.79Z" transform="translate(-164.98 -260.28)"/><path d="M411.7,324.82H277.93l-0.31-.65c-20.25-42.18-42.93-43.22-43.16-43.23v-2.31c0.18,0,18-.57,44.8-0.57,25.25,0,49.83.48,73.07,1.43l0.22,0c23.54,5.58,38.19,17.14,46.33,25.85,8.85,9.47,12.08,17.53,12.21,17.87Zm-132.32-2.31H408.21a66.53,66.53,0,0,0-11.11-15.64c-7.91-8.43-22.13-19.62-45-25.07-23.17-.95-47.69-1.43-72.87-1.43-16.18,0-29.11.21-36.82,0.37a43.73,43.73,0,0,1,7,3.78C257.16,289.62,268.62,300.35,279.38,322.51Z" transform="translate(-164.98 -260.28)"/><line class="cls-3" x1="117.14" y1="176.55" x2="254.27" y2="163.27"/><rect x="281.8" y="429.5" width="137.77" height="1.39" transform="translate(-204.8 -224.5) rotate(-5.53)"/><line class="cls-3" x1="118.05" y1="190.93" x2="255.13" y2="175.33"/><rect x="282.59" y="442.72" width="137.96" height="1.39" transform="translate(-212.82 -217.73) rotate(-6.49)"/><line class="cls-3" x1="117.3" y1="205.93" x2="254.82" y2="189.75"/><rect x="281.81" y="457.43" width="138.47" height="1.39" transform="translate(-216.12 -216.11) rotate(-6.71)"/><line class="cls-3" x1="117.29" y1="219.55" x2="253.76" y2="203.71"/><rect x="281.81" y="471.22" width="137.39" height="1.39" transform="translate(-217.03 -216.74) rotate(-6.62)"/><line class="cls-3" x1="39.18" y1="141.79" x2="83.74" y2="165.72"/><rect x="225.75" y="388.75" width="1.39" height="50.58" transform="translate(-410.44 157.33) rotate(-61.76)"/><line class="cls-3" x1="39.18" y1="157.74" x2="83.74" y2="181.68"/><rect x="225.75" y="404.7" width="1.39" height="50.59" transform="translate(-424.5 165.73) rotate(-61.76)"/><line class="cls-3" x1="39.57" y1="170.98" x2="83.35" y2="197.25"/><rect x="225.75" y="418.87" width="1.39" height="51.06" transform="translate(-436.11 149.64) rotate(-59.04)"/><line class="cls-3" x1="39.18" y1="185.77" x2="84.13" y2="213.79"/><rect x="225.94" y="433.58" width="1.39" height="52.97" transform="translate(-448.65 148.73) rotate(-58.06)"/><line class="cls-3" x1="106.53" y1="50.02" x2="236.57" y2="50.93"/><rect x="335.84" y="245.74" width="1.39" height="130.04" transform="translate(-141.55 384.82) rotate(-89.6)"/><line class="cls-3" x1="96.12" y1="36.51" x2="225.09" y2="37.41"/><rect x="324.89" y="232.76" width="1.39" height="128.97" transform="translate(-138.93 360.44) rotate(-89.6)"/><line class="cls-3" x1="86.38" y1="26.09" x2="208.03" y2="27"/><rect x="311.49" y="226" width="1.39" height="121.66" transform="translate(-141.96 336.58) rotate(-89.57)"/><line class="cls-3" x1="32.81" y1="86.24" x2="80.88" y2="59.66"/><rect x="194.36" y="332.54" width="54.93" height="1.39" transform="translate(-298.56 -111.29) rotate(-28.95)"/><line class="cls-3" x1="27.71" y1="72.06" x2="71.35" y2="47.7"/><rect x="189.52" y="319.47" width="49.98" height="1.39" transform="translate(-293.88 -115.02) rotate(-29.19)"/><line class="cls-3" x1="26.83" y1="55.89" x2="59.61" y2="38.17"/><rect x="189.56" y="306.62" width="37.27" height="1.39" transform="translate(-286.1 -124.25) rotate(-28.4)"/><polygon class="cls-3" points="210.17 151.56 178.5 154.56 178.5 144.78 210.06 142.34 210.17 151.56"/><path d="M342.33,416.11V404l33.85-2.62,0.14,11.52Zm2.31-10v7.44L374,410.79l-0.08-6.93Z" transform="translate(-164.98 -260.28)"/><g class="cls-5"><polygon points="259.92 77.63 177.85 81.67 35.6 113.55 103.75 74.61 259.92 77.63"/></g><path class="cls-6" d="M232.65,391.49l29.51,15.15,147.47-10.32s-3.28-7.91-33-11S260.05,378,242.88,381.26s-17.37,6.56-17.37,6.56Z" transform="translate(-164.98 -260.28)"/><path class="cls-7" d="M262,407.57l-37.41-19.21,0-.6c0.06-.94,1.52-4.25,18.12-7.41,4.18-.8,12.55-1.2,24.89-1.2,32.49,0,86.27,2.87,109.13,5.24,29.92,3.11,33.62,11.22,33.76,11.57l0.49,1.19Zm-35.09-20.09,35.47,18.21,145.47-10.18c-2.31-2.21-9.68-7-31.29-9.28C353.71,383.86,300,381,267.59,381c-12.22,0-20.48.39-24.54,1.17C231.61,384.35,228,386.51,226.87,387.48Z" transform="translate(-164.98 -260.28)"/><rect class="cls-3" x="180.14" y="66.11" width="27.84" height="6.67"/><path d="M373.89,334H344.2v-8.51h29.69V334ZM346,332.14h26v-4.82H346v4.82Z" transform="translate(-164.98 -260.28)"/><rect class="cls-3" x="186.14" y="69.67" width="16.59" height="16.44"/><path d="M368.63,347.32H350.2V329h18.44v18.29ZM352,345.47h14.74v-14.6H352v14.6Z" transform="translate(-164.98 -260.28)"/><path d="M363.37,336.11a3.5,3.5,0,1,0-4.95,3.19l-0.87,4.6h4.62l-0.87-4.6A3.5,3.5,0,0,0,363.37,336.11Z" transform="translate(-164.98 -260.28)"/><ellipse class="cls-6" cx="90.25" cy="126.76" rx="7.53" ry="4.63"/><path class="cls-8" d="M255.23,392.6c-4.74,0-8.45-2.44-8.45-5.56s3.71-5.56,8.45-5.56,8.45,2.44,8.45,5.56S260,392.6,255.23,392.6Zm0-9.26c-3.58,0-6.6,1.7-6.6,3.71s3,3.71,6.6,3.71,6.6-1.7,6.6-3.71S258.81,383.34,255.23,383.34Z" transform="translate(-164.98 -260.28)"/><ellipse class="cls-6" cx="98.74" cy="131.78" rx="7.53" ry="4.63"/><path class="cls-8" d="M263.72,397.62c-4.74,0-8.45-2.44-8.45-5.56s3.71-5.56,8.45-5.56,8.45,2.44,8.45,5.56S268.46,397.62,263.72,397.62Zm0-9.26c-3.58,0-6.6,1.7-6.6,3.71s3,3.71,6.6,3.71,6.6-1.7,6.6-3.71S267.3,388.36,263.72,388.36Z" transform="translate(-164.98 -260.28)"/><ellipse class="cls-6" cx="102.98" cy="124.45" rx="7.53" ry="4.63"/><path class="cls-8" d="M268,390.29c-4.74,0-8.45-2.44-8.45-5.56s3.71-5.56,8.45-5.56,8.45,2.44,8.45,5.56S272.7,390.29,268,390.29Zm0-9.26c-3.58,0-6.6,1.7-6.6,3.71s3,3.71,6.6,3.71,6.6-1.7,6.6-3.71S271.54,381,268,381Z" transform="translate(-164.98 -260.28)"/><ellipse class="cls-6" cx="109.93" cy="131.2" rx="7.53" ry="4.63"/><path class="cls-8" d="M274.91,397c-4.74,0-8.45-2.44-8.45-5.56s3.71-5.56,8.45-5.56,8.45,2.44,8.45,5.56S279.65,397,274.91,397Zm0-9.26c-3.58,0-6.6,1.7-6.6,3.71s3,3.71,6.6,3.71,6.6-1.7,6.6-3.71S278.49,387.78,274.91,387.78Z" transform="translate(-164.98 -260.28)"/><ellipse class="cls-6" cx="116.69" cy="123.48" rx="7.53" ry="4.63"/><path class="cls-8" d="M281.67,389.32c-4.74,0-8.45-2.44-8.45-5.56s3.71-5.56,8.45-5.56,8.45,2.44,8.45,5.56S286.41,389.32,281.67,389.32Zm0-9.26c-3.58,0-6.6,1.7-6.6,3.71s3,3.71,6.6,3.71,6.6-1.7,6.6-3.71S285.25,380.06,281.67,380.06Z" transform="translate(-164.98 -260.28)"/><ellipse class="cls-6" cx="119.78" cy="131.78" rx="7.53" ry="4.63"/><path class="cls-8" d="M284.76,397.62c-4.74,0-8.45-2.44-8.45-5.56s3.71-5.56,8.45-5.56,8.45,2.44,8.45,5.56S289.49,397.62,284.76,397.62Zm0-9.26c-3.58,0-6.6,1.7-6.6,3.71s3,3.71,6.6,3.71,6.6-1.7,6.6-3.71S288.34,388.36,284.76,388.36Z" transform="translate(-164.98 -260.28)"/><ellipse class="cls-6" cx="130.78" cy="135.26" rx="7.53" ry="4.63"/><path class="cls-8" d="M295.76,401.1c-4.74,0-8.45-2.44-8.45-5.56S291,390,295.76,390s8.45,2.44,8.45,5.56S300.5,401.1,295.76,401.1Zm0-9.26c-3.58,0-6.6,1.7-6.6,3.71s3,3.71,6.6,3.71,6.6-1.7,6.6-3.71S299.34,391.83,295.76,391.83Z" transform="translate(-164.98 -260.28)"/><ellipse class="cls-6" cx="141.39" cy="134.29" rx="7.53" ry="4.63"/><path class="cls-8" d="M306.37,400.13c-4.74,0-8.45-2.44-8.45-5.56s3.71-5.56,8.45-5.56,8.45,2.44,8.45,5.56S311.11,400.13,306.37,400.13Zm0-9.26c-3.58,0-6.6,1.7-6.6,3.71s3,3.71,6.6,3.71,6.6-1.7,6.6-3.71S310,390.87,306.37,390.87Z" transform="translate(-164.98 -260.28)"/><ellipse class="cls-6" cx="157.6" cy="133.13" rx="7.53" ry="4.63"/><path class="cls-8" d="M322.58,399c-4.74,0-8.45-2.44-8.45-5.56s3.71-5.56,8.45-5.56,8.45,2.44,8.45,5.56S327.32,399,322.58,399Zm0-9.26c-3.58,0-6.6,1.7-6.6,3.71s3,3.71,6.6,3.71,6.6-1.7,6.6-3.71S326.16,389.71,322.58,389.71Z" transform="translate(-164.98 -260.28)"/><ellipse class="cls-6" cx="146.99" cy="128.5" rx="7.53" ry="4.63"/><path class="cls-8" d="M312,394.34c-4.74,0-8.45-2.44-8.45-5.56s3.71-5.56,8.45-5.56,8.45,2.44,8.45,5.56S316.71,394.34,312,394.34Zm0-9.26c-3.58,0-6.6,1.7-6.6,3.71s3,3.71,6.6,3.71,6.6-1.7,6.6-3.71S315.55,385.08,312,385.08Z" transform="translate(-164.98 -260.28)"/><ellipse class="cls-6" cx="163.78" cy="126.96" rx="7.53" ry="4.63"/><path class="cls-8" d="M328.76,392.8c-4.74,0-8.45-2.44-8.45-5.56s3.71-5.56,8.45-5.56,8.45,2.44,8.45,5.56S333.5,392.8,328.76,392.8Zm0-9.26c-3.58,0-6.6,1.7-6.6,3.71s3,3.71,6.6,3.71,6.6-1.7,6.6-3.71S332.34,383.53,328.76,383.53Z" transform="translate(-164.98 -260.28)"/><ellipse class="cls-6" cx="173.24" cy="134.48" rx="7.53" ry="4.63"/><path class="cls-8" d="M338.22,400.32c-4.74,0-8.45-2.44-8.45-5.56s3.71-5.56,8.45-5.56,8.45,2.44,8.45,5.56S343,400.32,338.22,400.32Zm0-9.26c-3.58,0-6.6,1.7-6.6,3.71s3,3.71,6.6,3.71,6.6-1.7,6.6-3.71S341.8,391.06,338.22,391.06Z" transform="translate(-164.98 -260.28)"/><ellipse class="cls-6" cx="179.22" cy="130.62" rx="7.53" ry="4.63"/><path class="cls-8" d="M344.2,396.46c-4.74,0-8.45-2.44-8.45-5.56s3.71-5.56,8.45-5.56,8.45,2.44,8.45,5.56S348.94,396.46,344.2,396.46Zm0-9.26c-3.58,0-6.6,1.7-6.6,3.71s3,3.71,6.6,3.71,6.6-1.7,6.6-3.71S347.78,387.2,344.2,387.2Z" transform="translate(-164.98 -260.28)"/><ellipse class="cls-6" cx="191.38" cy="125.41" rx="7.53" ry="4.63"/><path class="cls-8" d="M356.36,391.25c-4.74,0-8.45-2.44-8.45-5.56s3.71-5.56,8.45-5.56,8.45,2.44,8.45,5.56S361.1,391.25,356.36,391.25Zm0-9.26c-3.58,0-6.6,1.7-6.6,3.71s3,3.71,6.6,3.71,6.6-1.7,6.6-3.71S359.94,382,356.36,382Z" transform="translate(-164.98 -260.28)"/><ellipse class="cls-6" cx="190.8" cy="132.36" rx="7.53" ry="4.63"/><path class="cls-8" d="M355.78,398.2c-4.74,0-8.45-2.44-8.45-5.56s3.71-5.56,8.45-5.56,8.45,2.44,8.45,5.56S360.52,398.2,355.78,398.2Zm0-9.26c-3.58,0-6.6,1.7-6.6,3.71s3,3.71,6.6,3.71,6.6-1.7,6.6-3.71S359.36,388.94,355.78,388.94Z" transform="translate(-164.98 -260.28)"/><ellipse class="cls-6" cx="206.43" cy="132.36" rx="7.53" ry="4.63"/><path class="cls-8" d="M371.41,398.2c-4.74,0-8.45-2.44-8.45-5.56s3.71-5.56,8.45-5.56,8.45,2.44,8.45,5.56S376.15,398.2,371.41,398.2Zm0-9.26c-3.58,0-6.6,1.7-6.6,3.71s3,3.71,6.6,3.71,6.6-1.7,6.6-3.71S375,388.94,371.41,388.94Z" transform="translate(-164.98 -260.28)"/><ellipse class="cls-6" cx="201.99" cy="126.96" rx="7.53" ry="4.63"/><path class="cls-8" d="M367,392.8c-4.74,0-8.45-2.44-8.45-5.56s3.71-5.56,8.45-5.56,8.45,2.44,8.45,5.56S371.71,392.8,367,392.8Zm0-9.26c-3.58,0-6.6,1.7-6.6,3.71s3,3.71,6.6,3.71,6.6-1.7,6.6-3.71S370.55,383.53,367,383.53Z" transform="translate(-164.98 -260.28)"/><ellipse class="cls-6" cx="219.36" cy="130.05" rx="7.53" ry="4.63"/><path class="cls-8" d="M384.34,395.88c-4.74,0-8.45-2.44-8.45-5.56s3.71-5.56,8.45-5.56,8.45,2.44,8.45,5.56S389.08,395.88,384.34,395.88Zm0-9.26c-3.58,0-6.6,1.7-6.6,3.71s3,3.71,6.6,3.71,6.6-1.7,6.6-3.71S387.92,386.62,384.34,386.62Z" transform="translate(-164.98 -260.28)"/><ellipse class="cls-6" cx="168.6" cy="116.15" rx="7.53" ry="4.63"/><path class="cls-8" d="M333.58,382c-4.74,0-8.45-2.44-8.45-5.56s3.71-5.56,8.45-5.56,8.45,2.44,8.45,5.56S338.32,382,333.58,382Zm0-9.26c-3.58,0-6.6,1.7-6.6,3.71s3,3.71,6.6,3.71,6.6-1.7,6.6-3.71S337.16,372.73,333.58,372.73Z" transform="translate(-164.98 -260.28)"/><ellipse class="cls-6" cx="168.02" cy="123.1" rx="7.53" ry="4.63"/><path class="cls-8" d="M333,388.94c-4.74,0-8.45-2.44-8.45-5.56s3.71-5.56,8.45-5.56,8.45,2.44,8.45,5.56S337.74,388.94,333,388.94Zm0-9.26c-3.58,0-6.6,1.7-6.6,3.71s3,3.71,6.6,3.71,6.6-1.7,6.6-3.71S336.59,379.67,333,379.67Z" transform="translate(-164.98 -260.28)"/><ellipse class="cls-6" cx="196.59" cy="120.78" rx="7.53" ry="4.63"/><path class="cls-8" d="M361.57,386.62c-4.74,0-8.45-2.44-8.45-5.56s3.71-5.56,8.45-5.56,8.45,2.44,8.45,5.56S366.31,386.62,361.57,386.62Zm0-9.26c-3.58,0-6.6,1.7-6.6,3.71s3,3.71,6.6,3.71,6.6-1.7,6.6-3.71S365.15,377.36,361.57,377.36Z" transform="translate(-164.98 -260.28)"/><ellipse class="cls-6" cx="130.39" cy="119.24" rx="7.53" ry="4.63"/><path class="cls-8" d="M295.37,385.08c-4.74,0-8.45-2.44-8.45-5.56s3.71-5.56,8.45-5.56,8.45,2.44,8.45,5.56S300.11,385.08,295.37,385.08Zm0-9.26c-3.58,0-6.6,1.7-6.6,3.71s3,3.71,6.6,3.71,6.6-1.7,6.6-3.71S299,375.81,295.37,375.81Z" transform="translate(-164.98 -260.28)"/><ellipse class="cls-6" cx="129.81" cy="126.19" rx="7.53" ry="4.63"/><path class="cls-8" d="M294.79,392c-4.74,0-8.45-2.44-8.45-5.56s3.71-5.56,8.45-5.56,8.45,2.44,8.45,5.56S299.53,392,294.79,392Zm0-9.26c-3.58,0-6.6,1.7-6.6,3.71s3,3.71,6.6,3.71,6.6-1.7,6.6-3.71S298.37,382.76,294.79,382.76Z" transform="translate(-164.98 -260.28)"/><ellipse class="cls-6" cx="158.37" cy="123.87" rx="7.53" ry="4.63"/><path class="cls-8" d="M323.36,389.71c-4.74,0-8.45-2.44-8.45-5.56s3.71-5.56,8.45-5.56,8.45,2.44,8.45,5.56S328.09,389.71,323.36,389.71Zm0-9.26c-3.58,0-6.6,1.7-6.6,3.71s3,3.71,6.6,3.71,6.6-1.7,6.6-3.71S326.93,380.44,323.36,380.44Z" transform="translate(-164.98 -260.28)"/><ellipse class="cls-6" cx="140.23" cy="118.47" rx="7.53" ry="4.63"/><path class="cls-8" d="M305.21,384.31c-4.74,0-8.45-2.44-8.45-5.56s3.71-5.56,8.45-5.56,8.45,2.44,8.45,5.56S310,384.31,305.21,384.31Zm0-9.26c-3.58,0-6.6,1.7-6.6,3.71s3,3.71,6.6,3.71,6.6-1.7,6.6-3.71S308.79,375,305.21,375Z" transform="translate(-164.98 -260.28)"/><ellipse class="cls-6" cx="140.81" cy="126.57" rx="7.53" ry="4.63"/><path class="cls-8" d="M305.79,392.41c-4.74,0-8.45-2.44-8.45-5.56s3.71-5.56,8.45-5.56,8.45,2.44,8.45,5.56S310.53,392.41,305.79,392.41Zm0-9.26c-3.58,0-6.6,1.7-6.6,3.71s3,3.71,6.6,3.71,6.6-1.7,6.6-3.71S309.37,383.15,305.79,383.15Z" transform="translate(-164.98 -260.28)"/><ellipse class="cls-6" cx="153.36" cy="115.76" rx="7.53" ry="4.63"/><path class="cls-8" d="M318.34,381.6c-4.74,0-8.45-2.44-8.45-5.56s3.71-5.56,8.45-5.56,8.45,2.44,8.45,5.56S323.08,381.6,318.34,381.6Zm0-9.26c-3.58,0-6.6,1.7-6.6,3.71s3,3.71,6.6,3.71,6.6-1.7,6.6-3.71S321.92,372.34,318.34,372.34Z" transform="translate(-164.98 -260.28)"/><ellipse class="cls-6" cx="150.85" cy="121.55" rx="7.53" ry="4.63"/><path class="cls-8" d="M315.83,387.39c-4.74,0-8.45-2.44-8.45-5.56s3.71-5.56,8.45-5.56,8.45,2.44,8.45,5.56S320.57,387.39,315.83,387.39Zm0-9.26c-3.58,0-6.6,1.7-6.6,3.71s3,3.71,6.6,3.71,6.6-1.7,6.6-3.71S319.41,378.13,315.83,378.13Z" transform="translate(-164.98 -260.28)"/><ellipse class="cls-6" cx="177.1" cy="116.15" rx="7.53" ry="4.63"/><path class="cls-8" d="M342.08,382c-4.74,0-8.45-2.44-8.45-5.56s3.71-5.56,8.45-5.56,8.45,2.44,8.45,5.56S346.82,382,342.08,382Zm0-9.26c-3.58,0-6.6,1.7-6.6,3.71s3,3.71,6.6,3.71,6.6-1.7,6.6-3.71S345.66,372.73,342.08,372.73Z" transform="translate(-164.98 -260.28)"/><ellipse class="cls-6" cx="179.6" cy="123.48" rx="7.53" ry="4.63"/><path class="cls-8" d="M344.59,389.32c-4.74,0-8.45-2.44-8.45-5.56s3.71-5.56,8.45-5.56,8.45,2.44,8.45,5.56S349.32,389.32,344.59,389.32Zm0-9.26c-3.58,0-6.6,1.7-6.6,3.71s3,3.71,6.6,3.71,6.6-1.7,6.6-3.71S348.17,380.06,344.59,380.06Z" transform="translate(-164.98 -260.28)"/><ellipse class="cls-6" cx="185.78" cy="116.73" rx="7.53" ry="4.63"/><path class="cls-8" d="M350.76,382.57c-4.74,0-8.45-2.44-8.45-5.56s3.71-5.56,8.45-5.56,8.45,2.44,8.45,5.56S355.5,382.57,350.76,382.57Zm0-9.26c-3.58,0-6.6,1.7-6.6,3.71s3,3.71,6.6,3.71,6.6-1.7,6.6-3.71S354.34,373.3,350.76,373.3Z" transform="translate(-164.98 -260.28)"/><ellipse class="cls-6" cx="209.52" cy="123.1" rx="7.53" ry="4.63"/><path class="cls-8" d="M374.5,388.94c-4.74,0-8.45-2.44-8.45-5.56s3.71-5.56,8.45-5.56,8.45,2.44,8.45,5.56S379.24,388.94,374.5,388.94Zm0-9.26c-3.58,0-6.6,1.7-6.6,3.71s3,3.71,6.6,3.71,6.6-1.7,6.6-3.71S378.08,379.67,374.5,379.67Z" transform="translate(-164.98 -260.28)"/><ellipse class="cls-6" cx="232.29" cy="130.05" rx="7.53" ry="4.63"/><path class="cls-8" d="M397.27,395.88c-4.74,0-8.45-2.44-8.45-5.56s3.71-5.56,8.45-5.56,8.45,2.44,8.45,5.56S402,395.88,397.27,395.88Zm0-9.26c-3.58,0-6.6,1.7-6.6,3.71s3,3.71,6.6,3.71,6.6-1.7,6.6-3.71S400.85,386.62,397.27,386.62Z" transform="translate(-164.98 -260.28)"/><ellipse class="cls-6" cx="116.88" cy="136.22" rx="7.53" ry="4.63"/><path class="cls-8" d="M281.86,402.06c-4.74,0-8.45-2.44-8.45-5.56s3.71-5.56,8.45-5.56,8.45,2.44,8.45,5.56S286.6,402.06,281.86,402.06Zm0-9.26c-3.58,0-6.6,1.7-6.6,3.71s3,3.71,6.6,3.71,6.6-1.7,6.6-3.71S285.44,392.8,281.86,392.8Z" transform="translate(-164.98 -260.28)"/><ellipse class="cls-6" cx="102.02" cy="138.92" rx="7.53" ry="4.63"/><path class="cls-8" d="M267,404.76c-4.74,0-8.45-2.44-8.45-5.56s3.71-5.56,8.45-5.56,8.45,2.44,8.45,5.56S271.74,404.76,267,404.76Zm0-9.26c-3.58,0-6.6,1.7-6.6,3.71s3,3.71,6.6,3.71,6.6-1.7,6.6-3.71S270.58,395.5,267,395.5Z" transform="translate(-164.98 -260.28)"/><ellipse class="cls-6" cx="89.67" cy="133.13" rx="7.53" ry="4.63"/><path class="cls-8" d="M254.65,399c-4.74,0-8.45-2.44-8.45-5.56s3.71-5.56,8.45-5.56,8.45,2.44,8.45,5.56S259.39,399,254.65,399Zm0-9.26c-3.58,0-6.6,1.7-6.6,3.71s3,3.71,6.6,3.71,6.6-1.7,6.6-3.71S258.23,389.71,254.65,389.71Z" transform="translate(-164.98 -260.28)"/><ellipse class="cls-6" cx="81.37" cy="129.66" rx="7.53" ry="4.63"/><path class="cls-8" d="M246.35,395.5c-4.74,0-8.45-2.44-8.45-5.56s3.71-5.56,8.45-5.56,8.45,2.44,8.45,5.56S251.09,395.5,246.35,395.5Zm0-9.26c-3.58,0-6.6,1.7-6.6,3.71s3,3.71,6.6,3.71,6.6-1.7,6.6-3.71S249.93,386.23,246.35,386.23Z" transform="translate(-164.98 -260.28)"/><ellipse class="cls-6" cx="92.95" cy="118.66" rx="7.53" ry="4.63"/><path class="cls-8" d="M257.93,384.5c-4.74,0-8.45-2.44-8.45-5.56s3.71-5.56,8.45-5.56,8.45,2.44,8.45,5.56S262.67,384.5,257.93,384.5Zm0-9.26c-3.58,0-6.6,1.7-6.6,3.71s3,3.71,6.6,3.71,6.6-1.7,6.6-3.71S261.51,375.23,257.93,375.23Z" transform="translate(-164.98 -260.28)"/><ellipse class="cls-6" cx="105.88" cy="116.54" rx="7.53" ry="4.63"/><path class="cls-8" d="M270.86,382.37c-4.74,0-8.45-2.44-8.45-5.56s3.71-5.56,8.45-5.56,8.45,2.44,8.45,5.56S275.6,382.37,270.86,382.37Zm0-9.26c-3.58,0-6.6,1.7-6.6,3.71s3,3.71,6.6,3.71,6.6-1.7,6.6-3.71S274.44,373.11,270.86,373.11Z" transform="translate(-164.98 -260.28)"/><ellipse class="cls-6" cx="122.67" cy="116.92" rx="7.53" ry="4.63"/><path class="cls-8" d="M287.65,382.76c-4.74,0-8.45-2.44-8.45-5.56s3.71-5.56,8.45-5.56,8.45,2.44,8.45,5.56S292.39,382.76,287.65,382.76Zm0-9.26c-3.58,0-6.6,1.7-6.6,3.71s3,3.71,6.6,3.71,6.6-1.7,6.6-3.71S291.23,373.5,287.65,373.5Z" transform="translate(-164.98 -260.28)"/><ellipse class="cls-6" cx="135.41" cy="110.94" rx="7.53" ry="4.63"/><path class="cls-8" d="M300.39,376.78c-4.74,0-8.45-2.44-8.45-5.56s3.71-5.56,8.45-5.56,8.45,2.44,8.45,5.56S305.13,376.78,300.39,376.78Zm0-9.26c-3.58,0-6.6,1.7-6.6,3.71s3,3.71,6.6,3.71,6.6-1.7,6.6-3.71S304,367.51,300.39,367.51Z" transform="translate(-164.98 -260.28)"/><ellipse class="cls-6" cx="150.65" cy="110.94" rx="7.53" ry="4.63"/><path class="cls-8" d="M315.64,376.78c-4.74,0-8.45-2.44-8.45-5.56s3.71-5.56,8.45-5.56,8.45,2.44,8.45,5.56S320.37,376.78,315.64,376.78Zm0-9.26c-3.58,0-6.6,1.7-6.6,3.71s3,3.71,6.6,3.71,6.6-1.7,6.6-3.71S319.22,367.51,315.64,367.51Z" transform="translate(-164.98 -260.28)"/><ellipse class="cls-6" cx="166.29" cy="109.59" rx="7.53" ry="4.63"/><path class="cls-8" d="M331.27,375.43c-4.74,0-8.45-2.44-8.45-5.56s3.71-5.56,8.45-5.56,8.45,2.44,8.45,5.56S336,375.43,331.27,375.43Zm0-9.26c-3.58,0-6.6,1.7-6.6,3.71s3,3.71,6.6,3.71,6.6-1.7,6.6-3.71S334.85,366.16,331.27,366.16Z" transform="translate(-164.98 -260.28)"/><ellipse class="cls-6" cx="177.87" cy="113.06" rx="7.53" ry="4.63"/><path class="cls-8" d="M342.85,378.9c-4.74,0-8.45-2.44-8.45-5.56s3.71-5.56,8.45-5.56,8.45,2.44,8.45,5.56S347.59,378.9,342.85,378.9Zm0-9.26c-3.58,0-6.6,1.7-6.6,3.71s3,3.71,6.6,3.71,6.6-1.7,6.6-3.71S346.43,369.64,342.85,369.64Z" transform="translate(-164.98 -260.28)"/><ellipse class="cls-6" cx="138.11" cy="117.5" rx="7.53" ry="4.63"/><path class="cls-8" d="M303.09,383.34c-4.74,0-8.45-2.44-8.45-5.56s3.71-5.56,8.45-5.56,8.45,2.44,8.45,5.56S307.83,383.34,303.09,383.34Zm0-9.26c-3.58,0-6.6,1.7-6.6,3.71s3,3.71,6.6,3.71,6.6-1.7,6.6-3.71S306.67,374.08,303.09,374.08Z" transform="translate(-164.98 -260.28)"/><polygon class="cls-1" points="183.45 112.73 187.54 116.26 183.77 112.03 186.57 111.78 186.46 111.77 186.52 111.77 183.8 111.58 187.48 107.46 183.46 110.82 183.18 105.72 183.15 106.06 183.13 105.71 182.66 110.92 178.85 107.52 182.23 111.57 179.67 111.74 179.76 111.75 179.72 111.76 182.28 112.04 178.74 116.16 182.69 112.63 183.09 118.03 183.12 117.66 183.14 118.05 183.45 112.73"/><polygon class="cls-1" points="215.94 122.06 220.04 125.58 216.27 121.36 219.06 121.1 218.96 121.1 219.01 121.09 216.3 120.9 219.98 116.79 215.96 120.14 215.67 115.04 215.64 115.39 215.62 115.03 215.15 120.25 211.34 116.84 214.73 120.89 212.16 121.07 212.25 121.08 212.21 121.08 214.78 121.36 211.24 125.48 215.18 121.96 215.59 127.36 215.61 126.98 215.64 127.37 215.94 122.06"/><polygon class="cls-1" points="156.98 110.85 161.07 114.37 157.31 110.15 160.1 109.89 159.99 109.89 160.05 109.88 157.33 109.69 161.01 105.58 156.99 108.94 156.71 103.83 156.68 104.18 156.66 103.82 156.19 109.04 152.38 105.63 155.77 109.69 153.2 109.86 153.29 109.87 153.25 109.87 155.82 110.15 152.28 114.27 156.22 110.75 156.63 116.15 156.65 115.77 156.68 116.16 156.98 110.85"/><polygon class="cls-1" points="128.72 116.97 132.82 120.5 129.05 116.27 131.84 116.02 131.74 116.01 131.79 116 129.08 115.82 132.76 111.7 128.74 115.06 128.45 109.96 128.42 110.3 128.4 109.94 127.93 115.16 124.12 111.76 127.51 115.81 124.94 115.98 125.03 115.99 124.99 116 127.56 116.28 124.02 120.39 127.96 116.87 128.37 122.27 128.39 121.89 128.42 122.28 128.72 116.97"/><polygon class="cls-1" points="166.55 127.87 168.85 129.85 166.73 127.47 168.3 127.33 168.24 127.33 168.27 127.32 166.75 127.22 168.82 124.9 166.56 126.79 166.4 123.92 166.38 124.12 166.37 123.92 166.1 126.85 163.96 124.93 165.87 127.21 164.42 127.31 164.47 127.32 164.45 127.32 165.9 127.48 163.9 129.79 166.12 127.81 166.35 130.85 166.36 130.63 166.38 130.85 166.55 127.87"/><polygon class="cls-1" points="171.98 107.4 174.28 109.38 172.16 107.01 173.73 106.86 173.67 106.86 173.71 106.86 172.18 106.75 174.25 104.44 171.99 106.33 171.83 103.46 171.81 103.65 171.8 103.45 171.54 106.38 169.39 104.47 171.3 106.75 169.85 106.84 169.91 106.85 169.88 106.85 171.33 107.01 169.34 109.33 171.55 107.34 171.78 110.38 171.79 110.17 171.81 110.39 171.98 107.4"/><polygon class="cls-1" points="195.51 129.52 197.81 131.5 195.7 129.13 197.27 128.98 197.21 128.98 197.24 128.97 195.71 128.87 197.78 126.55 195.52 128.44 195.36 125.57 195.34 125.77 195.33 125.57 195.07 128.5 192.93 126.58 194.83 128.86 193.39 128.96 193.44 128.97 193.41 128.97 194.86 129.13 192.87 131.44 195.09 129.46 195.31 132.5 195.32 132.29 195.34 132.5 195.51 129.52"/><polygon class="cls-1" points="238.07 127.72 240.38 129.7 238.26 127.33 239.83 127.18 239.77 127.18 239.8 127.17 238.27 127.07 240.34 124.75 238.08 126.64 237.92 123.77 237.9 123.97 237.89 123.77 237.63 126.7 235.49 124.78 237.39 127.06 235.95 127.16 236 127.17 235.98 127.17 237.42 127.33 235.43 129.64 237.65 127.66 237.88 130.7 237.89 130.49 237.9 130.71 238.07 127.72"/><polygon class="cls-1" points="108.94 114.33 113.04 117.86 109.27 113.64 112.06 113.38 111.95 113.37 112.01 113.37 109.3 113.18 112.98 109.06 108.96 112.42 108.67 107.32 108.64 107.66 108.62 107.31 108.15 112.53 104.34 109.12 107.73 113.17 105.16 113.34 105.25 113.36 105.21 113.36 107.78 113.64 104.24 117.76 108.18 114.23 108.59 119.63 108.61 119.26 108.64 119.65 108.94 114.33"/><g class="cls-9"><polygon points="96.95 147.4 266.6 226.76 96.72 252.44 96.95 147.4"/></g><g class="cls-5"><polygon points="33.69 116.34 95.42 250.91 33 203.28 33.69 116.34"/></g><g class="cls-10"><path class="cls-1" d="M298.84,410c47.43-4,128.88-10.86,128.88-10.86v74.22Z" transform="translate(-164.98 -260.28)"/></g><g class="cls-9"><polygon class="cls-1" points="207.62 145.52 260.39 141.22 260.39 195.17 255.9 145.71 207.62 145.52"/></g><g class="cls-10"><path class="cls-1" d="M370.9,285.11s34.29,9.48,49.64,45.12H275.69S353.76,276.54,370.9,285.11Z" transform="translate(-164.98 -260.28)"/></g><g class="cls-9"><path class="cls-1" d="M398,303.42c13.56,11.89,18.55,24.74,18.55,24.74H372.33s29.72-3.6,32.11-6.42C408.49,317,398,303.42,398,303.42Z" transform="translate(-164.98 -260.28)"/></g><g class="cls-5"><path d="M186.4,296.31s-7.2,72.26,82.67,39.57c-71,39.17-69.72,39.17-69.72,39.17S166.58,331.46,186.4,296.31Z" transform="translate(-164.98 -260.28)"/></g></svg>
