<svg id="Layer_1" data-name="Layer 1" xmlns="http://www.w3.org/2000/svg" viewBox="0 0 596.54 902.57"><defs><style>.cls-1{fill:#efbb78;}.cls-2{fill:#ce8f51;}.cls-3{fill:#f4f4f4;}.cls-4{fill:#417c96;}.cls-5{fill:#cecece;}.cls-6{fill:#245360;}.cls-7{fill:#995d30;}.cls-8{fill:#ffe443;}.cls-9{fill:#ab3600;}.cls-10{fill:#a61200;}.cls-11{fill:#ffd19f;}.cls-12{fill:#792600;}.cls-13{fill:#790700;}.cls-14{fill:#d61200;}.cls-15{fill:#fff;}.cls-16{fill:#c1a736;}.cls-17{fill:#dd4600;}</style></defs><title>pirate2</title><path class="cls-1" d="M577,488.79c-3.4-13.7-15.93-30.36-11.81-44.15,5.18-17.35-.11-35.91-3.49-53.11l-0.21-1-0.53-.42a167.86,167.86,0,0,0-17.3-11.94c-17.05-10.45-31.5-17.88-45.46-23.39a297.54,297.54,0,0,0-92.63-20.21c-8.15-.46-16.15-0.69-23.78-0.69a320.82,320.82,0,0,0-46,3.15c-32.2,4.7-62.18,16-86.69,32.73-7.31,5-14.71,10.62-20.71,17.17-5.32,5.81-5,14.42-6.3,21.8-2.28,12.83-6.77,31.41,3.68,41.86-0.59-.51-1.34-1-2-1.47,2.32,1.94-14.87,32.86-16.21,37.59-4.45,15.7-2.54,33.53,5.37,50.2,1,2.08,2,4.14,3,6.13,6.49,12.82,10.84,27.59,10.08,42.34a8.43,8.43,0,0,0,2.77-.87c13.57-5.63,33-2.48,38.07,13.29-0.59-1.83-11.59-1.73-13.17-1.48a17.56,17.56,0,0,0-10.2,5.37c-9.08,9.9-13.39,30.29-3.05,40.92a13.61,13.61,0,0,0,10.13,4.18c13.5,0,22.83-8.86,31.84-17.38,2.92-2.77,5.69-5.38,8.59-7.71,6.1-4.9,31.08-20,40.54-20,2.06,0,8,2.18,9.8,1.16C339,604.25,352,619.7,353.46,621c9.8,8.18,22.83,11.06,35.22,12.35l0.18,0,0.18,0c11.55-1,27.63-4.28,38.69-13.93a31.27,31.27,0,0,0,10.38-19.24c-0.43,3,40.73,3.43,45.36,5.65,19.77,9.52,32.48,36.72,57.67,32.26,21.43-3.79,16.4-31.84,5.46-43.63-4.08-4.39-8.85-6.72-13.8-6.72-4.39,0-8.12,2.52-12.19,3.47a29.32,29.32,0,0,1,6.3-8.06A43.16,43.16,0,0,1,537,576c7.51-3.43,16-3.13,23.81-.95-4-1.1,12.11-36.48,13.62-40.06C581.19,519.15,580.71,503.82,577,488.79Z" transform="translate(-168.3 -158.72)"/><path class="cls-1" d="M536,696.14c-1.33.07-2.67,0.1-4,.1a69.59,69.59,0,0,1-34.42-8.64,54.44,54.44,0,0,1-5.87-4l-0.64-.48-0.79.12c-30.09,4.59-71.77,3.37-91.32-24.22a49.12,49.12,0,0,1-5.56-10.36,14.38,14.38,0,0,0-2-4c0.7,0.88-5.83,13.16-6.63,14.46a33.3,33.3,0,0,1-10.5,10.67c-10.31,6.72-24.62,10.61-39.27,10.67h-0.79l-0.55.56c-17.84,18.18-44.88,29-72.34,29-7.81,0-15.81.14-23.37-1.87,1,7.26,3.56,14.55,4.55,22a188.28,188.28,0,0,1,.19,45c-4.26,39.34,28.43,59.88,64.46,59.88,1.43,0,2.87,0,4.28-.11,12.5-.61,24.13-5.41,35.38-10.06,3.93-1.62,8-3.3,12-4.75a94.9,94.9,0,0,1,32-5.7,79.14,79.14,0,0,1,13.48,1.13c32.93,5.71,59.78,24.35,94.44,14.3,11.65-3.38,27.06-9.87,34.35-21.62,4.5-6.46,6.26-14,5.37-23.26-2.8-28.8-5.75-60.33,7.31-87.26l1.67-3.45-3.75.77A50.8,50.8,0,0,1,536,696.14Z" transform="translate(-168.3 -158.72)"/><path class="cls-2" d="M580.93,490.35L562.31,452l4.62-16.65-0.45-28.84c0.58-14.69-20.88-27.31-20.88-27.31-22.29-10-60.29,15.36-90.72,36.91s-42.81-13-42.81-13c10,90.42,64.79,32.65,64.79,32.65,33.19-25,53.27-15.45,53.27-15.45,16.76,7.72,17.48,7.72,17.48,7.72C557.29,450.71,549,462,549,462c-15.39,11.44-15.19,21.85-15.19,21.85,15.19-21.85,13.68-7.16,13.67-7.15-0.08.75,9.53,9.1,10.59,10.79a41.4,41.4,0,0,1,5.24,15.09c2.53,14.91-3.34,25.86-8.09,39.58-0.23.66-.77,2.06-1.48,3.91,2.31-9.95,3-22.75,1.16-39.23,0,0-15.37,64.61-48.81,56,0,0-26.55,1.21-58.53-35.92C463,541,498,564.51,517.88,511.08c0,0-17.84,34.09-50.52,17L430.7,490.35s-7.72-32.89-13.85-17.07l2.09,33.6a228,228,0,0,0,3.77,31.34s1-29.81,17.14-19.15a91.68,91.68,0,0,0,7.71,7.85,88.18,88.18,0,0,0,17.87,31.58C454.63,551.47,446,551,446,551l11.55,16.86c11.55,38.18-24.3,8.18-24.3,8.18,7.48,29.82-42.92,36.31-42.92,36.31-44.34,1.42-48.89-36.7-48.89-36.7-6.66,24-18.36,12.47-18.36,12.47-6.37-29.48,10.86-38.83,10.86-38.83-2.3-3.21-4.89-4.91-7.67-5.44a33.23,33.23,0,0,0,3.67-3.34c5.59-6.13,11.5-26.84,11.5-26.84-10,16-34,36.6-34,36.6-64.61,35.25-79.69-46.63-79.69-46.63a119.31,119.31,0,0,0,.85,29.38A92.6,92.6,0,0,0,221.46,522c-9.42-23,6.33-45.27,6.33-45.27,9.47,11.06,26.07,5.23,26.07,5.23-32.61-8-16.47-47.75-16.47-47.75a14.83,14.83,0,0,1-5.69-3.35c4.55-3.11,11-7.3,11.6-7.59,12.36-6.65,26.23-12.15,40.48-9.16,12.32,2.59,21.08,11.85,30.72,19.23,5.35,4.1,11.2,8.66,17.28,11.61,11,5.33,23.37,4.81,32-4.9,7.5-8.45,10.77-22.81,12.8-33.6,0,0-23.78,41.45-43.1,13.75s-18.36-24.8-18.36-24.8S279.81,365.15,246,393l2.39-4.52c-15.14,5.34,1.43-16.84,1.43-16.84-16.38,5.15-29.9,27.6-29.9,27.6-11.65,36.74,3,52.3,3,52.3-35.4,43.44-14.47,80.53-14.47,80.53,12.27,23.71,14.19,56,14.19,56l19.71-3.26a86,86,0,0,0-2.83-25.23c18.05,23,49.72,16.41,49.72,16.41h0c-7.62,11.55-12.92,21.75-12.92,21.75,18.13-17.81,19.75-12.93,19.75-12.93l-2.3,18.39c-4.39,5.63-15.45,17.17-15.45,17.17-23.07,26.8-32.78,7.6-32.78,7.6-4-28.88,24.24-26.42,24.24-26.42L263.66,597C236.49,580.44,222,623.64,222,623.64L238,707l-2.73-1.88,4,17.16,4.16,39.4-5.81,31.43c3.42,24.32,32.14,33.92,32.14,33.92,34.42,25,82-3,82-3,40.33-14.68,82.45,1.15,82.45,1.15,44.85,25.11,90.25-3.09,90.25-3.09,28.34-18.76,16.83-38.49,16.83-38.49l-4.82-18.13-0.09-19.29c0.49-25.26,6.51-39.78,6.51-39.78l4.65-11.36L557.24,623c1.7-35-24.43-35.28-24.43-35.28-27.21,5.84-20.82,18-20.82,18,8.7-11.24,26.6-2.44,26.6-2.44,12.42,14.24,4.12,24.77,4.12,24.77-13.2,24.4-56.68-25.21-56.68-25.21-5.95-20.12,6.22-11.81,6.22-11.81a89.69,89.69,0,0,0-13.71-21.13,61.58,61.58,0,0,0,32.37,10.18s26.35,4,38.75-22c-2.38,8.1-3.76,16.41.26,17.6l11.58,3.41c-1.08-12.56,14.12-40.89,14.12-40.89C589.31,512.08,580.93,490.35,580.93,490.35ZM486.64,695.1c3.63,6.88,11.05,11.07,19.25,13.62-0.48,3.28-2.07,8.54-7.26,4.39,2.36,2.2,8.44,9.2,3.14,19.06,0,0,6.33,9.23,12.32,4.32a98.24,98.24,0,0,0,2.68,31.4c3.21,7.88,5.16,21.45,1.47,29.45-11.83,25.63-61.87,14-81.84,7.68-13.68-4.32-25.88-14-40.55-14.93C379,789,361.5,793.63,346.72,801.56c-9.56,5.13-18.43,12.06-29.42,13.82-12.08,1.93-27.29-.17-38.33-5.49-16.18-7.81-19.88-25.68-20.74-42.15-0.37-7.07-3.52-14.47-4.25-20.79-2.21-19.22,6.15-24.63,6.15-24.63h0c1.07,0,2.16,0,3.26-.08-1.22,10.69-1.25,31.4,17.06,30.71,0,0-12.71-22.17,15.21-36.9,0,0-.67-0.43-1.85-1,23.69-8.83,45-22.53,45-22.53,34,3.58,53-20.89,53-20.89C416.48,703.41,486.64,695.1,486.64,695.1Z" transform="translate(-168.3 -158.72)"/><path class="cls-2" d="M370.22,439.31l-14.34,15.36s-1.73,9.34-14.44,7.92l-35.16-22.52-30-14s-16.78-4.65-34,25.23c0,0,8.88-5.58,22,21.1l12,19.88s37.95,43.49,84.84-36.06Z" transform="translate(-168.3 -158.72)"/><path class="cls-2" d="M280.62,363.85c2.6,0,114.09-31.46,214,8.83l29.24-3.22v-4.72S436,318.56,341.44,333.89c0,0-47.56,7.74-70.11,22.45C271.33,356.34,263.76,363.81,280.62,363.85Z" transform="translate(-168.3 -158.72)"/><path class="cls-2" d="M261.47,512a45.14,45.14,0,0,0,9.45,15.69c9.86,10.68,27.19,13.7,40.31,6.82,14.26-7.47,25.83-21.44,33.54-35.24,4.18-7.49,6.66-16.58,11.11-23.75-25.52,41.06-52.24,48.36-52.24,48.36-29.79,5.5-42.79-37.19-42.8-37.21,1,3.32-1.4,9.74-1.34,13.44A38.74,38.74,0,0,0,261.47,512Z" transform="translate(-168.3 -158.72)"/><path class="cls-2" d="M498.63,713.11c-0.52-.48-0.86-0.74-0.86-0.74C498.07,712.65,498.35,712.89,498.63,713.11Z" transform="translate(-168.3 -158.72)"/><path class="cls-2" d="M296.69,360.06s56.05,7.71,98.69,38.73c0,0,16.81,27.67,16.4,29S432.12,507,486,506.69c0,0,42.25,4.58,67.53-31.15l1.69-25-46-14.89-58.92-38-28.29-4.18-58.26-29.66-57.52-12.12S286.13,354.54,296.69,360.06Z" transform="translate(-168.3 -158.72)"/><path class="cls-2" d="M426.25,452.09s5.65,58.9,66,52.06c0,0,15.34,4.29,21.18-22.54,0,0,13.15-42.57,29-30.31,0,0-23.82-44.2-51.48-17.08C491,434.22,440.69,489.45,426.25,452.09Z" transform="translate(-168.3 -158.72)"/><path class="cls-3" d="M441.34,465.51l0.19,0,0.17,0.07a6.62,6.62,0,0,0,2.65.52c2.33,0,5.11-1,8.26-3.09l1.93-1.26,0.85,2.14A25.18,25.18,0,1,0,497,437.31l-1.79-1.88,2.35-1.12c4.74-2.26,11-4.86,17.37-4.86,0.57,0,1.15,0,1.7.06,4.46,0.33,9.12,2.18,13.88,5.49l2.37,1.65-2.46,1.51a34.47,34.47,0,0,0-5.7,4.46,89.52,89.52,0,0,0-12.28,15.25c-2.07,3.08-4,6.31-6,9.45-1.44,2.36-2.92,4.79-4.45,7.17-0.67,1-1.34,2.12-2,3.21-2.55,4.13-5.19,8.4-8.7,11.74a3.42,3.42,0,0,1-1.13.69l-0.15.06-0.15,0a36.45,36.45,0,0,1-8.9,1.11c-13.6,0-27.28-8.39-42-23.63l-5.73-4.58,7,2.13C440.64,465.35,441,465.44,441.34,465.51Z" transform="translate(-168.3 -158.72)"/><path class="cls-4" d="M473.09,449.73c5.81-3.86,11.52-7.6,17.52-10.92l1.14-.63,1,0.84A21.62,21.62,0,1,1,458,461.6l-0.38-1.29,1.09-.78C462.82,456.64,467.24,453.61,473.09,449.73Z" transform="translate(-168.3 -158.72)"/><path class="cls-5" d="M520.87,446.68s-19.07-8.16-60.62,25c0,0-10.21,2.19-2.57,13.85,0,0-17.62-11.65-21.14-21.14,0,0,11.85.13,21.15-6.18s22.81-20,22.81-20,37.66-22.37,50.37,0Z" transform="translate(-168.3 -158.72)"/><path class="cls-6" d="M500.44,448.26s-23.59,9.22-38.72,22.78l-7.06-10.66,15.88-12.12,9.95-10.09,8.65-4.3S500.93,433,500.44,448.26Z" transform="translate(-168.3 -158.72)"/><path class="cls-3" d="M345.42,465.09l-0.19,0-0.17.07a6.61,6.61,0,0,1-2.65.52c-2.34,0-5.12-1-8.26-3.09l-1.93-1.26-0.85,2.14a25.18,25.18,0,1,1-41.63-26.63l1.79-1.88-2.35-1.12c-4.74-2.26-11-4.86-17.37-4.86-0.57,0-1.15,0-1.7.06-4.45.33-9.12,2.18-13.88,5.49l-2.37,1.65,2.46,1.51a34.6,34.6,0,0,1,5.69,4.46,89.64,89.64,0,0,1,12.28,15.25c2.07,3.08,4,6.31,6,9.45,1.44,2.36,2.92,4.79,4.45,7.17,0.67,1,1.34,2.12,2,3.21,2.55,4.13,5.19,8.4,8.7,11.74a3.36,3.36,0,0,0,1.13.7l0.14,0.06,0.15,0a36.45,36.45,0,0,0,8.9,1.11c13.6,0,27.28-8.39,42-23.63l5.72-4.58-7,2.13C346.13,464.93,345.77,465,345.42,465.09Z" transform="translate(-168.3 -158.72)"/><path class="cls-4" d="M313.68,449.31c-5.81-3.86-11.52-7.6-17.52-10.92l-1.14-.63-1,.84a21.62,21.62,0,1,0,34.69,22.59l0.38-1.29-1.09-.78C324,456.22,319.53,453.19,313.68,449.31Z" transform="translate(-168.3 -158.72)"/><path class="cls-5" d="M265.9,446.26s19.06-8.16,60.62,25c0,0,10.21,2.19,2.57,13.85,0,0,17.62-11.65,21.14-21.14,0,0-11.85.13-21.15-6.18s-22.81-20-22.81-20-37.66-22.37-50.37,0Z" transform="translate(-168.3 -158.72)"/><path class="cls-6" d="M286.33,447.84s23.59,9.22,38.72,22.78L332.12,460l-15.88-12.12-9.95-10.09-8.65-4.3S285.84,432.56,286.33,447.84Z" transform="translate(-168.3 -158.72)"/><path class="cls-2" d="M213.89,426.53c-1.91-8.66-5.15-16-18.45-16a17.16,17.16,0,0,0-8.46,2.32c-5.92,3.32-9.16,10.23-9.64,20.53-0.36,7.73.63,16,3.22,26.69a150.6,150.6,0,0,0,6.66,20.68c8.66,21.73-5.68,45.41,2,67.79a4.07,4.07,0,0,0,1.3,2.34c0.92,0.75,9.65-12.5,15.82-4.58,3.37,4.33-1.53,11.42-2.52,15.69,5,0.89,9.83-2.47,13.43-5.61-4.06-10.29-10.51-19.19-13.84-29.85a67.62,67.62,0,0,1,4.21-50.84c5-9.71,9.49-18.24,13.67-26.06l0.61-1.15-0.86-1C216.16,442,215.49,433.79,213.89,426.53Z" transform="translate(-168.3 -158.72)"/><path class="cls-2" d="M609.45,444.77c-0.06-1,.09,1.44,0,0a95.47,95.47,0,0,0-3-19.62c-1.53-5.54-4.54-11.89-10.52-13.65-9.83-2.89-23.73,4.52-24.67,15-0.41,4.63-.57,9.35-2,13.82-2.29,7.09-4.34,7-1.07,14.06,2.94,6.31,6.54,12.39,9.75,18.57,8,15.39,11.16,31.78,7.28,48.89a84,84,0,0,1-9.73,23.9,86.85,86.85,0,0,0-6.71,13.16c-1.88,5,19.35,5.35,22.5,2.73,5.68-4.73,8.13-12.08,9.19-19.16a93.13,93.13,0,0,0,.26-24.18c-1-8.4-3.39-16.61-3.14-25.13,0.23-7.81,3.63-14.39,6.22-21.59s5-14.76,5.68-22.47A28.74,28.74,0,0,0,609.45,444.77Z" transform="translate(-168.3 -158.72)"/><path class="cls-7" d="M193.36,410.53s19.54-1.19,13.85,33.2l10.18,11.81,5.26-6-6.78-29.37S202.31,404,193.36,410.53Z" transform="translate(-168.3 -158.72)"/><path class="cls-7" d="M595,410.53s-19.54-1.19-13.85,33.2L571,455.55l-5.26-6,6.78-29.37S586,404,595,410.53Z" transform="translate(-168.3 -158.72)"/><path class="cls-7" d="M217.38,455.55s-25.21-41-17.07,17.8c0,0,20.87-36.89-7,35.58-1.31,3.41,2.56,20.25-10.27,19.19,0,0,7.69,56.62,33.93,26.92l-14.47-44.92s-5.46-13.23,14-51.84Z" transform="translate(-168.3 -158.72)"/><path class="cls-7" d="M568.3,457.59s25.21-41,17.07,17.8c0,0-20.44-29.67,7,35.58,1.42,3.37-2.56,20.25,10.27,19.19,0,0-7.69,56.62-33.93,26.92l14.47-44.92s5.46-13.23-14-51.84Z" transform="translate(-168.3 -158.72)"/><path class="cls-2" d="M351.57,534.56s4.09-25.1,17.29-42.27c0,0-6.31-22.64-5.06-41,0,0-14.9,7.55-12.74,41.64C351.06,492.92,339.06,509.42,351.57,534.56Z" transform="translate(-168.3 -158.72)"/><path class="cls-8" d="M222.18,587.45c0.85-2.89-.58-9.19-0.82-12.15,0.18,2.16-4.12,7.79-5.24,9.72-2,3.51-4.44,7-7.89,9.27-8.36,5.53-15.18-.87-15.84-9.83a38.86,38.86,0,0,1,3.09-18.37c1.27-2.84,15.22-20.2,3.19-19.28-6.87.53-11.3,14.13-13,19.44a47.84,47.84,0,0,0-2.45,18.22c0.56,7.54,4.14,15.44,10.84,19.34,10.21,5.94,14.15-4.45,20.91-10.27,2-1.72,6.24-3.49,7.13-5.8C222.11,587.64,222.15,587.55,222.18,587.45Z" transform="translate(-168.3 -158.72)"/><path class="cls-9" d="M603,706a191,191,0,0,0-8.26-38.75l-0.12-.36s0-.09,0-0.13c0-.26-0.06-0.49-0.08-0.7-0.41-3.63-3.2-8.18-4.56-11.6,2.54,6.42-13.85,23.84-18.33,27.69l0,0c-7.21,6.18-18,8.54-22.92,16.2-12.31,19.22-10.35,50.44-7.89,71.93,3.26,28.52-2,49.85-30.22,62.09-34.1,14.66-63.8.57-97-7.75-23.12-5.8-46.3-1.18-68.07,7.35-7.82,3.06-15.91,6.22-24.24,8.12a58.24,58.24,0,0,1-12.9,1.36c-18.08,0-36.92-5.26-51.56-16-16.32-12-20.51-29.48-17.6-49,0.52-3.49,1.06-7.09,1.36-10.58,1.61-18.46.84-34.41-2.36-48.75-3.33-14.91-15.4-12.7-25.79-21.17-6.45-5.26-10.36-12-14.93-18.76-5.51,13.91-7.84,29.8-9.92,44.55a277.75,277.75,0,0,0-2.46,54.08,217.83,217.83,0,0,0,11.35,59,173.65,173.65,0,0,0,10.38,24.63c0.81,1.53,12.77,19.08,12.7,19.2,3.06-4.8,3.52-11.32,5.7-16.65,0.94-2.29,10.2-13.42,10.13-14,2.23,16.5,2.18,32.89,5.88,49.28,2.49,11,5.67,22,10.7,32.2a53,53,0,0,0,8,12.18c2.71,3.05,6.21,5.66,8.53,8.8-0.13-1.3-.31-2.58-0.48-3.87-1.49-11.29-1-25.17,9.75-27.14a11.58,11.58,0,0,1,2.08-.18,28.71,28.71,0,0,1,5.41.71l0.19,0c0,0.29-.07.63-0.1,1a87,87,0,0,0,.34,15.3c2.2,21.27,9.8,50,23.63,66.73a7,7,0,0,0,1.43-3.08,79.07,79.07,0,0,1,5.12-12.72c4.48-8.6,9.31-13,14.77-13.57,0.37,0,.75-0.06,1.12-0.06,4.49,0,8.75,3,11.12,7.74,2.79,5.62,3.39,12.25,4,18.66,0.1,1.06.19,2.11,0.29,3.16,0.37,3.61.94,7.49,1.85,12.55,2,11,8.55,33.16,22.08,35-0.75-.1,2.52-24.42,2.86-26.2,1.64-8.7,4.43-14.83,8.79-19.27,6.45-6.59,15.88-8.79,24.2-4.42a21.68,21.68,0,0,1,9,9.24c2.23,4.25.77,8.28,6.89,8.57,5.29,0.25,11.55-6.46,14.76-9.9,8.87-9.5,14.18-21.85,18.26-34,2.43-7.25,4.84-19.71,14.48-20.37l0.57,0c15.54,0,12.64,24.71,14.8,34.21a7,7,0,0,0,2.83-2.13c24.27-23.87,30.4-56.86,33-89.48,4.26,14,8.83,27.85,10.91,42.26-0.44-3.08,9.32-15.26,11-18.95a129.24,129.24,0,0,0,7.51-22.87c1.23-5.24,2.2-10.61,3.13-15.8l0-.15c5,7.08,12.52,15.87,11.67,25.13a31.4,31.4,0,0,0,1.8-3.83,521,521,0,0,0,27.33-87.36C603.95,774.42,606.65,738.61,603,706Z" transform="translate(-168.3 -158.72)"/><path class="cls-9" d="M387.36,640c-10.89-1.17-21.67-4.2-30.78-10.42a37.68,37.68,0,0,1-14.81-21.88l-0.3-1.2-1.22-.2a30.64,30.64,0,0,0-5-.44c-4.46,0-7.71,1.59-11.76,3s-7.49,1.14-11.6,2.16c-22.95,5.68-31.43,33.78-54.48,39.37a26.82,26.82,0,0,1-6.23.77c-16.17,0-21.74-14.83-20.5-28.42,0.63-7,2.83-13.54,7.34-18.93,4.37-5.23,12-7.62,15.86-12.57,1.09-1.4-12.67-3.11-13.42-3.05a36.15,36.15,0,0,0-16.5,5.91c-12.48,8-21.54,23-24.86,41.21-3.14,17.18-.71,33.22,6.83,45.17,8.28,13.11,23.24,22,42.14,24.9a92.85,92.85,0,0,0,14,1,106.17,106.17,0,0,0,37.64-7.13,97.64,97.64,0,0,0,22.3-12,81.05,81.05,0,0,0,9.27-7.82c0.15-.15.36-0.39,0.6-0.67s0.48-.57.69-0.77h0a12.25,12.25,0,0,1,1.24.1c0.44,0,.81.09,1.15,0.09h0.17c24.33,0,52.63-9.95,54.68-38C389,640.2,388.17,640.12,387.36,640Z" transform="translate(-168.3 -158.72)"/><path class="cls-9" d="M583.48,604.23A41.36,41.36,0,0,0,560,581.85,28.76,28.76,0,0,0,549.86,580a32.49,32.49,0,0,0-11.05,2l-4.91,1.78,4.91,1.78c12.13,4.39,21.94,20.71,21.42,35.65-0.69,19.92-23,26.48-38.83,18.57-7.22-3.6-13.11-9.71-18.31-15.1A87,87,0,0,0,486,610.75a69.65,69.65,0,0,0-16.89-7.47l-1.19-.35-0.79,1a13.74,13.74,0,0,1-10,4.48,9.2,9.2,0,0,1-3.63-.69c-4.65-2-10.22-3.61-15.25-3,0,0-3.81,11.92-4.78,13.5a39.39,39.39,0,0,1-11.84,11.64c-8.25,5.47-19.39,7.48-28.55,10.52,1.42,12,10.43,23.54,20.45,29.85,12.54,7.9,28.53,11.6,50.31,11.67h0.56c8.51,0,20.87-3.92,28.88-1.45,5.82,1.8,10.32,6.5,16,8.69,6.65,2.54,14.3,3.32,21.36,3.32,22.78,0,44.84-15.48,53-36.66C590.16,638.75,590.11,619,583.48,604.23Z" transform="translate(-168.3 -158.72)"/><path class="cls-10" d="M326.56,222.15h2c29.33,0.19,61.41,4.48,95.34,12.75a498.43,498.43,0,0,1,51.74,15.8c10.07,3.64,20.48,7.4,30.25,12.08,31.31,15,61.92,34.3,84.31,61.25a7.86,7.86,0,0,0,2.6,2.46s1.17-21.31,1-23.21a105.46,105.46,0,0,0-4.59-25.38c-5.41-16.73-22.93-46.79-22.93-46.79-8.05-21.53-28.57-34.95-44.37-42.41-14.29-6.75-31.06-12.07-51.26-16.25a365.12,365.12,0,0,0-73.6-8c-26.58,0-51.54,3.57-74.17,10.61-25.3,7.87-47.39,20.09-65.64,36.32a173,173,0,0,0-24.54,27.28l2.39,2.79C259.79,228.64,290.56,222.15,326.56,222.15Z" transform="translate(-168.3 -158.72)"/><path class="cls-10" d="M610.77,378.61c-0.56-15.56-7.34-31.31-20.13-46.82-9.68-11.73-22-22.63-38.71-34.29-46.91-32.71-104.17-50.89-160.1-60.59-50.47-8.76-107.65-11.8-154.63,12.22a118.44,118.44,0,0,0-35.16,27c-12.81,14.52-21.65,30.15-25.55,45.21-2.26,8.71-2.55,16.61-.87,23.48a15.68,15.68,0,0,0,4.24,8s5.84,1.53-.35,13.87c-6.9,13.79-6.47,33.15,1.78,46.32-1-1.67,13.52-3.62,15.45-3.24,7.25,1.4,12.63,7.05,17.57,12.09-2.25-2.29,2.3-14.67,3.55-17.34,11.23-24.17,39.15-42.21,62.22-53.27a202.73,202.73,0,0,1,46.12-15.59c14.92-3.12,30.13-4.16,41.72-4.71,5.5-.26,11-0.4,16.43-0.4A297.76,297.76,0,0,1,451.78,338a251.67,251.67,0,0,1,89.69,40.8c7.35,5.26,14.09,10.38,20.41,16.85,8.11,8.3,6.3,16.74,8.59,26.9a6.19,6.19,0,0,0,2.64-1.95c7.42-7.25,18.54-13.72,28.38-6.76C607.48,403.1,611.22,391,610.77,378.61Z" transform="translate(-168.3 -158.72)"/><path class="cls-10" d="M709.75,584.53a55.87,55.87,0,0,1-29.94-13.66c-11.13-9.74-20.24-23.63-27.08-41.29a170.83,170.83,0,0,1-6.29-21.92c-1.36-5.66-2.76-11.52-4.6-17.19-4.91-15.17-11.63-32.33-24.23-44.64-0.59-.58-1.26-1.19-2-1.88a6.27,6.27,0,0,0-2.68-1.79c-1.54,6.36-1.35,12.88-3.11,19.27a201.66,201.66,0,0,1-6.87,19.82c-10.21,25.86,14,64.91-17.61,81.84a20.4,20.4,0,0,0,3.5,5.16c11.13,13.34,23.33,22.89,36.27,28.37a80.73,80.73,0,0,0,31.68,6.22c17.77,0,36.33-5.11,53.67-14.79l5-2.81Z" transform="translate(-168.3 -158.72)"/><path class="cls-10" d="M742.67,441.48a52.9,52.9,0,0,1-27.12,7.07,59.78,59.78,0,0,1-18.45-2.89,95.78,95.78,0,0,1-44.48-29.71c-1.87-2.26-3.71-4.59-5.66-7-9.41-11.91-19.13-24.22-32.88-29l-2.27-.78-0.23,2.39a69,69,0,0,1-9.66,28.51l-0.7,1.19,0.92,1c5.58,6.22,7.75,17.06,8.89,24.68l0.13,0.88,0.76,0.46a45.26,45.26,0,0,1,4.22,2.85c6.49,5,12.35,12.06,17.92,21.72,6.59,11.43,11.79,24.52,16.38,41.19l0.28,1,1,0.3a78.89,78.89,0,0,0,21.93,3.37,57.44,57.44,0,0,0,26-6.08c12.73-6.4,24-17.81,33.59-33.9a160.24,160.24,0,0,0,12.08-25l1.92-5.06Z" transform="translate(-168.3 -158.72)"/><path class="cls-9" d="M366.05,416.17c-7,0-17.2-6.65-21.05-9.15-7.81-5.07-15.71-12-24.89-21.69l-0.09-.1-0.11-.09c-12.44-9.87-27-20.4-42.41-20.4a33.33,33.33,0,0,0-17.13,4.79c-7.69,4.33-13.08,10.45-19.33,18l-3.79,4.59,5.74-1.56,3.36-.89c-1.94,3.16-3.87,6.42-5.57,9.8a54.29,54.29,0,0,0-4.93,12.65l-1,4.85,4-2.93a101.57,101.57,0,0,1,13.93-8.66c8.28-4.23,17.13-8.36,26.33-8.36a30.08,30.08,0,0,1,7.51.95c12.7,3.27,22.77,12.6,32.52,21.63l1.2,1.11c2.8,2.59,6.52,6,10.51,9.24,5.82,4.77,12.13,9.43,19.62,9.43l1,0a18.54,18.54,0,0,0,4.82-1.07l0.11,0,0.11,0c7.12-3.36,9.41-10,12.92-16.39,0.89-1.64,1.15-7.21,1.15-7.21A6,6,0,0,1,366.05,416.17Z" transform="translate(-168.3 -158.72)"/><path class="cls-9" d="M559.14,415.09c-6.14-12.52-13.61-23.79-24.67-32.54-7.91-6.25-16.76-9.85-24.29-9.87H510c-25.06,0-50.29,17.54-68.8,33-7.43,6.21-17.14,13.94-25.14,4-2.28,1.42-2.71,1-2.53,3.52,0.13,1.77,2.23,4.56,3.1,6.1a35.14,35.14,0,0,0,9.08,10.8c19.49,14.77,43.42-4.27,61.11-13a109,109,0,0,1,20.63-8.17,40.8,40.8,0,0,1,10.26-1.34A45.56,45.56,0,0,1,536.59,412c2.77,1.27,11.51,4.64,12.95,7.4L547,413.78a12.78,12.78,0,0,1-1.19-3.21C550.12,410.82,555.06,413.48,559.14,415.09Z" transform="translate(-168.3 -158.72)"/><path class="cls-2" d="M363.81,363.85c-0.4-1.07,18.55,17.7,53-3.79,0,0,10.49,9.78-21.47,17.79C395.38,377.85,373.86,390.46,363.81,363.85Z" transform="translate(-168.3 -158.72)"/><path class="cls-2" d="M373.55,356.34s9.15,17.34,31.83,0C405.38,356.34,384.29,360.18,373.55,356.34Z" transform="translate(-168.3 -158.72)"/><path class="cls-2" d="M291.7,743.53s26.33,40,110.63-4.21h9.73s54.87,33.45,79.37-7.14c0,0-11.46,45.09-68.74,29.56-38.27-10.38-76.07,29.51-114.74,8.54C297.9,764.8,293,754.75,291.7,743.53Z" transform="translate(-168.3 -158.72)"/><path class="cls-2" d="M358.83,786.82s59.26-28,56.9,0C415.73,786.82,395.54,777.49,358.83,786.82Z" transform="translate(-168.3 -158.72)"/><ellipse class="cls-11" cx="217.66" cy="418.25" rx="34.12" ry="23.74"/><path class="cls-11" d="M383.25,438.38a39.86,39.86,0,0,0-8.35,28.36c0.19,1.73,7,16,7.58,14.87,0,0-10.42,20.13-11.41,27.13s-8.7,36-10.17,40.14-16.69,31.25,2.91,36,30.87,0,30.87,0l12.7-7.93,7.73-12.34s-8.4-26.72-9.07-29.48-3.83-26.41-3.83-26.41v-32c0-10.05,3.74-19.84,3.34-30.27-0.21-5.44,0-12.16-5.82-14.72C393.37,429,387.55,432.94,383.25,438.38Z" transform="translate(-168.3 -158.72)"/><path class="cls-11" d="M293.71,727.58c-0.18,5.17,4.23,10.3,8.75,13.62,8.39,6.15,17.53,6.58,27.64,5.92,16.19-1,32.91-5.62,47.87-11.88,8.82-3.69,19.38-9.31,29.09-9.65,15.15-.52,27.93,11.17,42.6,13.65,15.53,2.63,30.55-1.78,41.79-13.06,2.87-2.88-2.9-6.49-4.6-7.53-22.74-13.83-45.06,3.2-45.06,3.2s-39.24-14.4-57.28-16c-17.62-1.54-38-1.9-55.4,2.24-9.59,2.28-24.6,5.83-31.92,12.57A9.68,9.68,0,0,0,293.71,727.58Z" transform="translate(-168.3 -158.72)"/><path class="cls-11" d="M273.7,780.83a13,13,0,0,0,.13,3.52c2.27,13.73,17.87,22.34,30.8,20.89,8-.9,17.52-2.9,24.34-7.4,5.35-3.54,11.39-14,.13-14.18-10.76-.21-22.16-9.43-32.77-11.82C287.88,769.95,274.74,771.3,273.7,780.83Z" transform="translate(-168.3 -158.72)"/><path class="cls-11" d="M432,775.74a6.06,6.06,0,0,0-2,3.81c-0.91,6.15,9.75,13.58,14.35,15.82,18.26,8.91,51.56,23.09,62.18-3.47a30.77,30.77,0,0,0-.62-24.09c-4.64-10.7-14.26-4-21.5.07a52.4,52.4,0,0,1-28.71,7C450.54,774.6,437.16,771.19,432,775.74Z" transform="translate(-168.3 -158.72)"/><path class="cls-11" d="M250.52,499.91c3.38,7.47,5.37,20,7.41,23.74,6.93,12.82,19.12,19.9,33.77,19.07-5.31.3-10.46,3.45-16.25,3.47-13.41,0-22.56-7.23-30.16-17.67-4.76-6.54-17.19-31.6-1-34.35C246.84,493.74,248.85,496.21,250.52,499.91Z" transform="translate(-168.3 -158.72)"/><path class="cls-11" d="M464.49,504.29s26.18,25.5,52.58,2.55C517.07,506.85,492.23,545.7,464.49,504.29Z" transform="translate(-168.3 -158.72)"/><path class="cls-11" d="M490.61,548.88c7.87,2.64,23-8,27.6-13.09,6.56-7.36,7.46-16.3,9.4-25.48,2.52-11.89,16.65-20.76,19.87-3.62C547.48,506.69,539.86,565.37,490.61,548.88Z" transform="translate(-168.3 -158.72)"/><path class="cls-11" d="M329.1,376.9s38.46,45.08,47.45,22.39l-5.48-8-17.63-7.65S328.75,362,329.1,376.9Z" transform="translate(-168.3 -158.72)"/><path class="cls-11" d="M416.85,385.33s1.66,14.53,16.41,4.87L460,372.68S439.63,357.49,416.85,385.33Z" transform="translate(-168.3 -158.72)"/><path class="cls-12" d="M238.9,406.47c0.49-.92,16.24-21.67,37.41-21.14,0,0-5.16-3.9-16.8-4.1,5.69,0.1,12.41-4.41,18.94-4.22,35.33,1.07,43.24,42.95,74.6,48.59,6.28,1.13,16.27-2,17.73-9.54,0,0-8.79,45.57-47.7,9.35,0,0-45-58-88.26-8.47Z" transform="translate(-168.3 -158.72)"/><path class="cls-12" d="M415.25,411c1.31,5.11,14,9.46,18.12,10.27,19,3.77,30.89-9.95,43.89-21,13.91-11.88,31.95-18.32,49.83-11.66l-11.31,6.89s25.18-13.25,39.47,14.77l-12.78-2,4.51,5.57s-25.88-22.74-69.26,7.81C477.71,421.59,428.29,461.86,415.25,411Z" transform="translate(-168.3 -158.72)"/><path class="cls-12" d="M197.5,641.1s-3.07,48.47,44.46,43.81c0,0-15.88-4.66-23.14-12.65,0,0,60.64,25.68,94.29-17.79,0,0,24.25-21.39,2-21.45,0,0,10.21-28.39-14.35-12.55,0,0,8.36-18.18,38-14.72,0,0,2.89,28.56,48.56,31.89l8.06,0.31-5.94,7.93s-2.73,29.59-54.34,34.65c0,0-48.19,43.56-99.85,24.64C235.25,705.16,184.76,689.88,197.5,641.1Z" transform="translate(-168.3 -158.72)"/><path class="cls-12" d="M395.38,652.93s24,42.86,96.24,26.77c0,0,70.36,46.15,99-38.59v-13S563.52,696,506.1,660.15l-32.76-19s-29.9-19.42,11-11.48c0,0-21.7-22,2.28-20.36,0,0-9.87-9.33-20.72-8.62s-1.71,2.34-1.71,2.34-7,6.35-24.51,2.26l-17.63,21.07-29.34,11.47Z" transform="translate(-168.3 -158.72)"/><path class="cls-12" d="M183.09,771.11S214.89,704.82,222,776c0,0,19.75-15.13,3,55.12,0,0,19-17,18.44,29,0,0-.64,16.65,4.39,24.64,0,0,1.33-17.19,12.29-29.06,0,0,3.53,26.22-3.27,45,0,0,19.86-10.19,23.58-28.74,0,0,12.58.12-1.15,33.4,0,0,14.24,6.67,25.27-16,0,0,13.48,2.66,10.53,42,0,0,15-10.65,18.36-37.28,1.4-11.17,14.12-10.26,16,0,2.12,11.87-4.66,27.62-10.64,37.3,0,0,22.66-15.32,30-38S366,938,402.34,954c0,0-25.59-52,4.38-77.93,0,0,18.05-2,15.35,37.3,0,0,20.27-29.76,17.78-45.19,0,0,14.59,29.87,7.71,63.17a152.31,152.31,0,0,0,9.11-17.78c3-6.92,2.81-16.54,7.51-22.6,6.54-8.44,12.74,2.34,14.46,9.74,0,0-4.71-20.25,5-24.64,0,0,11.24,4.66,14.1,16-0.33-1.31,2.79-7.32,3.19-8.85,1.84-7-.66-24.41,8.41-27.45s11.8,26.53,11.38,33.14c0.13-2.08,10.07-7.5,9.59-26.83-0.13-5.57-2.64-54.84,24.9-6.87,0,0,9.77-25.75-2-49.8,0,0-8.67-18.58,2-13.25,0.79,0.4,3.4-29.51,3.31-31.3-0.79-16.17.85-38.76,21.67-41.49C598,717,603.45,739.3,604.59,753c0,0,10.6-84.8-16.1-96.68,0,0-9,17.09-39.9,38.83,0,0-15.34,24.8-11.45,72.79,0,0,13.56,41.89-25.14,61.56,0,0-31,13.2-66.85,1.14L417,821.43s-44.54-11-64.37,7.86c0,0-33.14,16-68.44,7.66,0,0-40.28-14-45.79-40l4.12-31.07s0-45.77-5.13-61l-37.73-29.19S184,717.26,183.09,771.11Z" transform="translate(-168.3 -158.72)"/><path class="cls-13" d="M594.69,332.65c14.8-61.87-27-93.83-27-93.83C565.45,207,533.59,195,533.59,195c23,31.55-9.72,25-9.72,25-22-5.38-66.9-5.14-66.9-5.14,123.52,2.8,111.34,92.45,111.34,92.45,55.69,47.3,7.31,81.25,7.31,81.25-22.93-61.27-163.83-70.17-163.83-70.17C227,307.47,207.21,385.85,207.21,385.85c-23.33-34.77,19.15-62.43,19.15-62.43a159.66,159.66,0,0,0-17.25,7.23c-1.18-3.08-22.46-62.31,66.4-98,0,0-20-26.64,46-57.28,0,0-68,19.33-91.5,74.28,0,0-81,59-49.78,102.7-24,29.6-1.42,61.83-1.42,61.83,17.15-18.95,31.77,1.45,31.77,1.45l6.19,4.57c-5.5-46.23,69.61-71.48,69.61-71.48,145.37-53.1,252.41,28.16,252.41,28.16,38.95,18.94,27.95,43.31,27.95,43.31,22.83-20.84,37-5.39,37-5.39C626.33,359.62,594.69,332.65,594.69,332.65Z" transform="translate(-168.3 -158.72)"/><path class="cls-14" d="M229.07,307.59s184.44-57.65,339.23,34c0,0-26.47-79.57-199.44-98.88C368.86,242.66,216.72,234,229.07,307.59Z" transform="translate(-168.3 -158.72)"/><path class="cls-14" d="M544.25,273.3S501.43,238.66,438.42,230C438.42,230,547.77,219.7,544.25,273.3Z" transform="translate(-168.3 -158.72)"/><path class="cls-14" d="M418.94,221.89S335.2,198,291.7,215.35c0,0,43.4-63.27,209.42-24C501.12,191.38,395.19,180.47,418.94,221.89Z" transform="translate(-168.3 -158.72)"/><path class="cls-13" d="M688.17,602.85c-2.07.56-6.77-.68-8.88-0.91-7.45-.84-14.69-2.91-21.91-4.86-11.21-3-23.27-6.76-32.58-13.93-14.5-11.16-20.88-33.31-17.24-50.89,1.1-5.33,5.23-10.14,11.05-9.44,6.55,0.79,10.52,7.74,14,12.57,1,1.43,4.84,5.91,4.09,7.91s-4.74,1-6.23-.09c0,0,27,19.6,20.12-.77l-12.72-27.22s-20-32.29,3.65-22.55l9.74,11.75s49.88,27.78,87.85-37.4c-1.6,2.74-6.29,4.37-8.84,5.89-7.18,4.28-14.13,9.21-21.84,12.49-15.87,6.76-39.06,11.29-51.41-3.84-8.78-10.76-1.51-20.41,12.17-16.57-6.19-6.6-14.06-13.95-19-21.27l-11-14.72S622.14,406,647,408.9c0,0-14-25.35-35.48-29.47-0.54-.1-1.08-0.19-1.63-0.27l-7,32.84s10.37,29.13,8.67,39.28l-13.84,41L603,513.72s8.07,37.2-16.72,51.29C586.28,565,612.62,623.35,688.17,602.85Z" transform="translate(-168.3 -158.72)"/><path class="cls-14" d="M618.85,561.36c-1.68-1,25.31,34.63,75.26,27.31,0,0-34.3-13-37.63-27.31C656.48,561.36,645.82,577,618.85,561.36Z" transform="translate(-168.3 -158.72)"/><path class="cls-14" d="M656.15,435.41s24,37.76,47.62,33.57a25.37,25.37,0,0,1-22,12.63s36.63,6.49,53.62-28.48C735.41,453.13,701.77,475,656.15,435.41Z" transform="translate(-168.3 -158.72)"/><circle class="cls-15" cx="316.09" cy="305.83" r="4.59"/><path class="cls-16" d="M195.44,583.34s1.14,22.38-12.35,7.69l13.49,14.69,10.66,0.9,10.15-13.29,7.17-5.17-2.65-9.75-5.18,1.89S199.72,612.36,195.44,583.34Z" transform="translate(-168.3 -158.72)"/><path d="M355.82,408.31a105.94,105.94,0,0,1-14.92-12.25c-4.6-4.44-9-9-13.28-13.78a92.87,92.87,0,0,0-15.48-13.43c-10.54-7.47-22.95-13.6-36.21-12.34-11.09,1.05-19.37,7.23-27.13,14.54-2.34,2.2-4,5.36-5.74,8.06-3,4.7-7,12.23-9.68,17.07,3.21-1.63,7.6-3.28,11.29-5.57a33.8,33.8,0,0,0-7.13,9c-2,3.54-5.13,11.15-5.89,15.15-0.44,2.55-1.41,5.85-1.25,8.41,4.66-3,10.57-6.79,15.48-9.38a163.28,163.28,0,0,1,20.48-8.73c8.53-3.1,16.59-3,24.89,1.16,11.87,5.91,21,15.9,31.39,23.85,9.46,7.2,22,16.15,34.29,10.18,10.78-5.26,12.6-18.33,16.63-28.4C367.69,415.15,360.83,411.57,355.82,408.31Zm-0.21,26.8a16.79,16.79,0,0,1-4.34,1c-7.4.43-13.89-4.53-19.31-9-3.58-2.94-7-6-10.42-9.17-10.1-9.34-20.83-19.65-34.53-23.18-12.61-3.25-24.13,1.92-35.17,7.56a103.57,103.57,0,0,0-14.19,8.82A52.86,52.86,0,0,1,242.41,399c2.37-4.71,5.15-9.11,7.92-13.59-2.64.61-5.27,1.3-7.89,2,5.53-6.68,11.08-13.21,18.8-17.55,20.69-12.23,41.35,2.67,57.45,15.44,7.53,8,16,16,25.23,22,6.51,4.23,21.57,13.7,27.9,7.3C367.24,422.1,363.95,431.17,355.6,435.11Z" transform="translate(-168.3 -158.72)"/><path d="M561.49,417.64a86.44,86.44,0,0,0-7.28-20.51c-7.36-13.89-19.15-26.52-34.39-31.49-11-3.39-22.92-1-33.38,3-12.4,4.73-23.93,12.24-34.38,20.37-6.57,5.12-12.23,11-18.09,16.88-3.11,3.12-8.25,7.52-12.85,5.82-3.83-1.18-7.48-4.91-9.06-8.67l-0.29-.75c0.94,13.46,5.51,27.93,18.33,34.51,9.37,4.8,21,4,30.4-.24,13.67-6.12,26.88-13.15,40.43-19.51,8.66-4.07,19.18-7.37,28.57-4.82A136.26,136.26,0,0,1,553.28,421a48.91,48.91,0,0,0-4.33-9.88C553.09,413.4,557.56,414.92,561.49,417.64ZM507,405.73c-10.52,2.73-20.39,8.11-30.13,12.82-7.08,3.42-14.91,7.67-21.6,10.77-9,4.17-20.34,4-28.39-2.07-6-4.59-9.43-11.05-12.25-17.82a15.41,15.41,0,0,0,5.49,4.9,12.42,12.42,0,0,0,10.19-.13c5.63-2.32,10.06-6.86,14.76-10.61,3.24-2.52,6.44-5.08,9.87-7.35,16.26-10.74,35.05-23.09,55.21-23,8,0,16.58,4.29,23.12,9.46a80.48,80.48,0,0,1,22,27.51,112.08,112.08,0,0,0-12-3.86,10.12,10.12,0,0,0-1.18-.32c1,2.42,2,4.82,3.13,7.2C533.54,406,521.1,402.06,507,405.73Z" transform="translate(-168.3 -158.72)"/><path d="M368.89,370.71c5.38,7.22,15,6.48,22.85,5.06s15.46-4.23,23.37-5.06a42.17,42.17,0,0,1-25.39,12.79C381.79,384.4,368.19,381.17,368.89,370.71Z" transform="translate(-168.3 -158.72)"/><path d="M376.47,360.07c8.35,4,17-.26,25.74,0-2.93,4.45-8.63,7.19-13.83,7.53C383.47,367.92,377.19,365.64,376.47,360.07Z" transform="translate(-168.3 -158.72)"/><circle cx="139.17" cy="296.43" r="11.41"/><path d="M489.44,584.9l-0.08-.08A0.18,0.18,0,0,0,489.44,584.9Z" transform="translate(-168.3 -158.72)"/><path d="M280.85,481.25c3.37,4.9,6.11,11.32,11.47,14.47,6.64,4.1,17.18,2.87,24.19.5,14-4.71,25.84-16.84,32.58-29.91,5.07-2.3,8.68-7.61,9.46-14.22-2.66,3.09-5.27,6.61-9,8.42-4.45,2.15-9.11.33-13.05-2.07a69,69,0,0,1-7.93-5.75c-0.9-.86-1.82-1.71-2.77-2.55-10-8.88-20.86-17.06-33.12-22.61-9-4.06-19.65-6.47-28.95-2.19-10.09,4.64-18,15.6-21.36,26a108.38,108.38,0,0,1,11-11.45l0.29,0.21c6.51,5,10.91,12.95,14.92,20S276.16,474.57,280.85,481.25Zm14.81-41.79c6,3.32,11.7,7.07,17.39,10.85,4.81,3.19,9.58,6.42,14.27,9.77A19.74,19.74,0,1,1,295.66,439.46Zm-31.94,1.67a36.76,36.76,0,0,0-6-4.7c4-2.81,8.4-4.81,12.95-5.15,6.19-.46,12.5,1.93,18.12,4.62a27.06,27.06,0,1,0,44.76,28.63c4,2.63,8.65,4.45,12.68,2.73q0.62-.13,1.22-0.31C334.5,480.35,317,493.13,297.7,488.28a2.77,2.77,0,0,1-.55-0.3c-4.29-4.07-7.27-9.68-10.46-14.64-3.54-5.5-6.77-11.21-10.42-16.64A90.51,90.51,0,0,0,263.72,441.13Z" transform="translate(-168.3 -158.72)"/><path d="M237.37,434.22c-1,0-3.18,3.68-3.68,4.44a34.47,34.47,0,0,0-3.43,6.73,32.5,32.5,0,0,0-2.12,12.1c0.12,8.5,5.45,16.66,14.2,18-4.63-5.54-7.55-10.9-7.55-18.33C234.78,449.46,236.45,441.89,237.37,434.22Z" transform="translate(-168.3 -158.72)"/><path d="M545.76,425.6c6.42,7.52,10.69,18.5,8.68,28.44a18.6,18.6,0,0,1-2.76,7c-2.18,3.16-6.82,5.81-8.56,8.4-3.88,5.44-6,11.76-9.54,17.38,0.34-7,1.05-14.88,5-20.91,2.43-3.54,7.24-7,8.68-10.54C550.7,445.65,547.72,435.34,545.76,425.6Z" transform="translate(-168.3 -158.72)"/><path d="M409.53,770.77c-5.78-3-12.86-2.75-19.1-1.65C380,771,368.36,775.88,360.9,783.66c9.9-.42,19.68-3.05,29.35-5,5.24-1.05,10.81-2.32,16.19-1.86,4.49,0.38,6.92,2.9,8.67,6.86C417,778.4,414.32,773.27,409.53,770.77Z" transform="translate(-168.3 -158.72)"/><path d="M509.43,700.4c-0.05,5.26-.58,10.39-1,15.61a45.37,45.37,0,0,0-31.83-13,66.19,66.19,0,0,0-33.45,9.68l-2.27-1c-23.42-10.4-48.94-16.46-74.61-16.54A145.53,145.53,0,0,0,314,704.56c-14.46,5.49-29.08,13.38-40.57,24.05A103.52,103.52,0,0,0,271.65,714c-5.81,4.57-8.08,13.39-7,20.43s6,14.4,13.71,14.61A53.28,53.28,0,0,1,274.06,735c2.2-1.68,4.24-3.64,6.5-5.25a139.42,139.42,0,0,1,45.33-20.8c25.34-6.63,51.9-6.05,77.31-.13a197.22,197.22,0,0,1,34.1,11.15l4.48,1.92c2.19,0.93,2.2,1,4.14-.37a62.43,62.43,0,0,1,20.29-8.93c8.36-2.1,17.31-2.26,25.46.8a39.29,39.29,0,0,1,11.52,6.86c1.26,1.07,2.52,2.9,4,3.93-0.54,3.49-1.06,6.89-1.09,6.89,2.6,0,5.84-3,7.42-4.77a18,18,0,0,0,4.21-9.44,17.28,17.28,0,0,0-2-10.71C514.71,704.32,511.9,700.4,509.43,700.4Z" transform="translate(-168.3 -158.72)"/><path d="M478.66,744c-6.18,3.57-13.69,4.95-20.74,5.3-8.33.6-16.87-.74-24.95-2.71-4.84-1.18-11.3-3.41-14.8-5.85-5-3.54-13.31-8.11-19.1-3.68-14.4,6.56-29,12.27-44.58,15.54-19.58,4.12-44,5-61.53-6.24l0.17,0.17c7.11,7.47,18.33,11.36,28.18,13.45s20.08,2.06,30.16,1.15c10.95-1.14,21.56-4,32-7.48,6.94-2.54,15.24-5,21.37-9.34a1.78,1.78,0,0,1-.44.37c3-1,6.71,2.17,9.11,3.71a37.9,37.9,0,0,0,9.45,4.14,84.8,84.8,0,0,0,23.67,3.71c18.27,0.37,37.28-6.1,44.86-24.07A40.55,40.55,0,0,1,478.66,744Z" transform="translate(-168.3 -158.72)"/><path d="M369.46,481.77c-2.92-5.65-3-13.37-2.82-19.59,0.22-7.55,2.54-15.32,3.58-22.87-5.05,6.89-9.61,15.67-10.91,24.22-1.09,6.93-1.75,18.46,3.21,24.84-9.26,13.31-12.9,30-11,46.19,3.71-9.32,6.32-19,10.63-28.06,3.68-7.77,8.8-14.15,14.34-20.64C374.22,484.86,370.7,484.17,369.46,481.77Z" transform="translate(-168.3 -158.72)"/><path d="M416.85,473.28c0.19,9.15-1.61,17.75-2.64,26.8-1,8.73-.85,20.19,7.16,25.82-0.87-9.48,1.51-18.31,2.43-27.69C424.64,489.64,424,479.19,416.85,473.28Z" transform="translate(-168.3 -158.72)"/><path d="M336.24,498.58c-7.26,7.84-15.53,15.9-25.41,20.33-11.07,5-21.93,2.67-30.71-5.52-7-6.54-12.2-14.95-16.46-23.46,3.88,21.39,22.3,44.7,46.25,36.5,11.83-4,21.35-13.46,29-23.06a143.59,143.59,0,0,0,17-27.84C349.39,483.26,343.23,491.3,336.24,498.58Z" transform="translate(-168.3 -158.72)"/><path d="M469.92,533.16c8.46,4.49,18.76,7,27.94,3.1a25.84,25.84,0,0,0,10.39-8.18,30.35,30.35,0,0,0,3.55-5.93c0.12-.26,1.51-4.24,1.62-4.24-0.6,0-2.73,2.74-3.15,3.16a45,45,0,0,1-4.37,3.76,26.13,26.13,0,0,1-10.86,5c-8.64,1.67-17.4-2.68-24.52-7.12-13.63-8.49-25.14-20-37.26-30.46,3.17,7.91,8.37,15.26,13.83,21.73C453.51,521.6,461.1,528.48,469.92,533.16Z" transform="translate(-168.3 -158.72)"/><path d="M509.27,560.11c-12.33.54-24.43-5.72-34.55-12.14-9.1-5.77-17.48-12.49-26-19,13.89,18.74,35.7,39.95,60.85,39.13,26.79-.77,42.66-30.51,44-54.45C546.19,532.93,533.14,559.51,509.27,560.11Z" transform="translate(-168.3 -158.72)"/><path d="M718,500.24c13.26-10.6,23-25.08,30.32-40.26,8-16.74,12.11-34.3,16.57-52.18l-13.5,18.67c-7.69,10.64-20.92,16.29-33.83,16.61a78,78,0,0,1-34.82-9.83,105.5,105.5,0,0,1-22.48-17.16c-4-4-7.46-8.65-11.16-12.94-5.49-6.35-11.28-12.57-18.18-17.41a45.76,45.76,0,0,0-15.69-7.29c0.24-15.72-5.5-30.63-14.83-44.34a131.58,131.58,0,0,0,2-33.66c-1.19-14.16-4.47-28-11.58-40.4a80,80,0,0,0-15.88-19.58q-0.38-2.07-.93-4.11a71.6,71.6,0,0,0-19.36-32.69C542.63,192.28,528.09,185.12,513,179c-18.89-7.61-38.79-12.15-58.81-15.57a329.14,329.14,0,0,0-57.39-4.73c-33.94.26-69.31,6-99.9,21.32-19.76,9.92-38,22.64-52.66,39.33a193.28,193.28,0,0,0-21.59,29.74,120.36,120.36,0,0,0-27,24.9c-10.51,13.21-19.51,28.71-23.2,45.32-1.86,8.35-2.31,17.37.25,25.63a18.31,18.31,0,0,0,5.55,9,57.33,57.33,0,0,0-5.55,9.15C165,379,168,397.75,177.47,412.3c-7.66,8.86-8.19,23.94-7,35.17a135.39,135.39,0,0,0,5.24,25.1c1.54,5.07,3.89,9.9,5.12,15.06,1.6,8.06-.45,16.3-1.6,24.27a91.83,91.83,0,0,0-.06,25.27c0.85,6.36,2.56,13.11,5.78,18.66-5,9.68-7.3,20.94-5.77,31.53,1.6,11.07,9.36,21.65,20.53,22.6A81.4,81.4,0,0,0,191,638.52c-1.35,11.64-.47,23.76,3.65,34.72l-0.19.55A281.32,281.32,0,0,0,184,717.26c-5.76,35.61-5.33,72.59,4.3,107.5a195.18,195.18,0,0,0,19.53,46.56c5.24,9,11.4,17.3,17.53,25.67,0.08-11.46-.39-24.52,4.92-34.89,1.23,21.38,5.37,43.25,13.51,62.84,4.64,11.17,11,22,20.11,30.11,4.54,4,9.84,7.12,14.89,10.43-1.8-7.42-9.83-36.92-.21-40.18-0.2,9.3,1.34,18.83,3.35,27.8a181.11,181.11,0,0,0,11.5,34.2c5.18,11.62,11.78,22.43,18.3,33.32l6.14-21.06a71.59,71.59,0,0,1,5.75-12.45c1.64-2.69,4.51-7.27,8.16-7.2,3.3,0.08,4.85,3.51,5.74,6.23,1.66,5.12,2,10.61,2.45,15.93a141.15,141.15,0,0,0,3.74,22.22c2.7,10.39,7.51,20.45,15.86,27.47,5.57,4.68,12.13,7.08,18.84,9.55,0.11-6.89.26-13.77,0.81-20.65,0.66-8.23,1.14-17.57,4.77-25.18,3.87-8.11,14.4-14.73,22.37-7.57,5.59,5,5.46,12.83,5.57,19.73,5.63-.42,10.56-1.18,15.74-3.78,7.53-3.71,13.89-9.77,19-16.38,9.26-12.07,14.85-26.25,19.22-40.7,0.82-1.56,3.82-6.78,5.4-5.59,3.28,2.32,4.64,8.23,5.68,12a68.39,68.39,0,0,1,.12,20.59L474.92,1006c3.33-2.52,6.7-5,10-7.55a105.65,105.65,0,0,0,20.47-21.94,120.89,120.89,0,0,0,19.13-41.88c0.77,6.14,1.21,12.35,1.61,18.58,2.53-2.07,5.18-4,7.58-6.26,6.25-5.74,10.83-13.48,14.49-21.06a128.68,128.68,0,0,0,8.67-24.39c2.9,10.8,2.58,23.14,3.27,33.64,12.27-26.82,23.12-54,31.47-82.34C601.84,818,609.1,782,610.43,745.74c1-26.46-1.33-53.67-9.49-79a6.91,6.91,0,0,1-.46-1.1,6.68,6.68,0,0,1-.89-1.8,6.45,6.45,0,0,1-1-3.62v-0.32q-2.3-6.2-5.11-12.21a80.49,80.49,0,0,0,1.81-10.79c0.88-9,1.13-17.83-.87-26.23a43.65,43.65,0,0,0-5.5-13.24c-5.75-9.18-13.86-17.62-23.7-22.14,0-.21.06-0.42,0.1-0.63a75.11,75.11,0,0,1,3.5-13.07c4.22,3.55,9.51,6.24,14.68,6.27a122.5,122.5,0,0,0,9.71,12.35c11.51,12.75,25.93,22.84,42.54,27.64,17,4.92,35.17,4,52.1-.79,14.89-4.17,29.9-11,42.24-20.44l15-11.43c-15.54,2.68-31.21,6.89-46.36,0-11.9-5.39-21.07-15.64-28-26.5-5.46-8.6-10.85-18.62-13.31-28.59q-1.07-4.62-2.24-9.24a80,80,0,0,0,15.8,3.43A64.35,64.35,0,0,0,718,500.24Zm-458-285.83c18.79-16.7,41-28.48,65-35.93,47.31-14.71,98.73-12.5,146.83-2.54,17.31,3.58,34.83,8.54,50.84,16.11,18.38,8.68,36.2,22.08,43.41,41.36a92.65,92.65,0,0,0-9.64-5.84c-15.54-8.17-32.93-12.36-50.32-14.05-17.85-1.74-36.64-1.38-54.25,2.29l-0.28.06A240.05,240.05,0,0,1,509,219.69c17.9,3.4,35.73,9.3,50.76,19.83a78.63,78.63,0,0,1,27.09,33.72c4.4,10.17,6,21.44,6.6,32.43a132.12,132.12,0,0,1-.42,18.79c-22.57-27.17-58-48.86-85-61.75-9.82-4.7-20.19-8.45-30.41-12.15a503.47,503.47,0,0,0-51.93-15.86c-31.16-7.6-63.65-12.6-95.78-12.8s-65.51,4.55-94.32,19.49A170.54,170.54,0,0,1,259.93,214.4ZM181.67,365.78c9.39-18.74,28.25-30.49,44.69-42.36-16.38,4.74-33.21,13.25-44.72,26.29a14.07,14.07,0,0,1-3.71-7.08c-1.81-7.42-1-15.24.86-22.56,4.27-16.49,13.95-31.76,25.14-44.43a117.07,117.07,0,0,1,34.6-26.54C270.1,233,307,229.65,342,231.43a447.9,447.9,0,0,1,97,16.27c15.07,4.2,29.93,9.11,44.59,14.57,7.21,2.69,14.46,5.3,21.45,8.56a310.55,310.55,0,0,1,46.32,26.51c14,9.77,27.43,20.73,38.34,33.95,10.67,12.94,19.08,28.61,19.7,45.69,0.41,11.35-2.73,22.17-7.89,32a14.92,14.92,0,0,0-7.55-2.51c-8-.47-15.57,2.83-21.77,8.53-0.07-1.26-.16-2.52-0.26-3.78,2.49-7-3.72-15.42-8.18-20-6.2-6.35-13.47-11.25-20.67-16.41a252.44,252.44,0,0,0-90.35-40.44c-27.62-6.43-56.09-8.47-84.38-7.11-14,.67-28.25,1.87-42,4.75-16.09,3.36-31.73,8-46.55,15.07-27.69,13.27-60.91,35.4-66.84,62.21l1.6-2.13q-0.62,3.48-1,7c-6.83-6.64-14.64-11.11-25.22-8.46a21.36,21.36,0,0,0-6,2.48C176.46,394.64,174.63,379.84,181.67,365.78Zm-0.16,93.51c-2.05-8.51-3.58-17.38-3.17-26.17,0.32-7,2.05-15.26,8.67-19,9.69-5.44,18.32.76,25.86,7.69-0.05,1.33-.09,2.65-0.08,4,0,7,.87,16.82,5.91,22.59l-1.17,2.2c-0.33-.56-0.66-1.12-1-1.67-2.82-4.53-7.84-11.36-14.07-10-6.81,1.46-7.09,11-6.81,16.45a50.75,50.75,0,0,0,3.17,15.27c1-4,1.49-8.21,2.11-12.32,0.38-2.53.77-5.06,1.35-7.56,0.32-1.39.71-3.62,1.81-4.7,1.56,0,4.27,3.19,5.15,4.09,1.79,1.84,3.48,3.77,5.16,5.7l0.22,0.25q-4.84,9.17-9.6,18.39a69.2,69.2,0,0,0-4.34,52.27q0.46,1.48,1,2.93a9.66,9.66,0,0,1-2.91,1c-1.8.31-2.73-27.72-3-30.47a52.42,52.42,0,0,0-5.06,16.42c-0.85,5.65-1.54,13.37,2.18,18.23,3.2,4.18,7.57,3.32,11.26.95a112.78,112.78,0,0,0,6,11.87,75.61,75.61,0,0,1,3.92,7.74c-3,2.34-6.34,4.21-9.86,4.64q1.17-1.75,2.5-3.39c2.15-2.61,3.09-5.49,2-8.84-2.59-8.3-12.13-8.28-17.09-2.3q-0.81,1-1.57,2c-2.34-6.86-2.82-14.44-2.77-21.57,0.06-8.64,2-16.9,3-25.44,0.8-7.1.48-14.17-2.19-20.86A149.89,149.89,0,0,1,181.52,459.29Zm32.56,103.92c0.8-.55,1.56-1.13,2.32-1.73q0.95,2.79,1.67,5.64a36.35,36.35,0,0,1-2.11,8.26,35.14,35.14,0,0,1-7.67,11.92c-1.6,1.53-4.21,3.88-6.63,3.87-2.12,0-3-2.38-3.49-4.11-1.83-6.27-.26-13.77,2.19-19.71h0C205.31,568,210.08,565.93,214.08,563.21ZM185.53,583.8a46.38,46.38,0,0,1,2.37-17.51,51.73,51.73,0,0,1,4.79-10.62c1.39-2.34,3.89-7.29,6.82-7.86,1.57-.3,2.81,1.14,3,2.59s-1.72,3-2.55,4.17a48,48,0,0,0-5.41,9.36,42.88,42.88,0,0,0-3.6,20.13c0.42,5.6,2.91,13.06,9.45,13.72,5.89,0.6,11.5-4,14.93-8.32a48.42,48.42,0,0,0,5-7.81q0.17,2.6.19,5.23a54.41,54.41,0,0,0-12,10.15,64.48,64.48,0,0,0-4.72,6.09C193,604.93,186.29,594,185.53,583.8Zm15.39,51c2.79-15.28,10.58-31.37,24-40,6.33-4,15-6.94,22.56-5.15a18.64,18.64,0,0,1,2.52.81c-5.68,1.58-10.39,5.52-13.75,10.29-7.62,10.82-10.36,27.06-4.75,39.33,4.8,10.49,15.73,13.81,26.3,11.25,13.63-3.3,22.75-14.57,32.44-23.82A89.81,89.81,0,0,1,312.39,612a14.64,14.64,0,0,0,10-1.05c5.37-3.9,11.36-4.66,17.3-3.71-6.42,2.86-12.55,7.4-16.9,10.63-12.27,9.11-23,20-35.14,29.32-11.79,9.06-26.07,18.37-41.52,18.15-13.22-.13-23.52-8.47-31.22-18.49,6.7,10.11,15.79,18.74,28.18,20.79,14.38,2.38,28.79-4,40.89-11.13,12.78-7.57,24.09-17.23,36.35-25.57a138.3,138.3,0,0,1,17.53-10.46,46.43,46.43,0,0,1,6.37-2.64q0.81,1.41,1.73,2.75a71.29,71.29,0,0,0-14.52,12.09c-9.23,8.06-15.54,20.31-24.92,28.86-10,9.08-22.11,14-35.17,16.74,8.43-.85,16.73-2.48,24.53-5.89A77.44,77.44,0,0,0,319.2,655.9c6.5-6.45,12.28-13.45,19.72-18.89,4.54-3.31,9.52-6.43,14.94-8,0.54,0.42,1.1.83,1.66,1.22,1.55,1.05,3.12,2,4.72,2.88-2.41,3.26-4.75,6.58-7.16,9.85-5.31,7.18-11.29,14.85-19.62,18.64,14.63-2.83,25-15,36.46-24.29,0.91,0.3,1.82.6,2.74,0.86a41.56,41.56,0,0,1-5.23,16.76c5.62-3.76,9.84-9.11,13.33-14.89,2.11,0.38,4.24.68,6.4,0.93l0.56,0.05a33.15,33.15,0,0,1-8,18.73c-10.82,12-29.27,15.7-44.76,15.67-0.72,0-2.45-.36-3.15-0.09a10.24,10.24,0,0,0-1.87,1.88,78.7,78.7,0,0,1-9.06,7.64A95.88,95.88,0,0,1,299,696.63c-16,6.14-33.71,8.56-50.68,6-16.11-2.5-31.88-9.87-40.82-24C199.37,665.72,198.24,649.42,200.91,634.75ZM536.33,785.67c0.77,7.95-.41,15.32-5.07,22C524.41,818.74,509.92,825,498,828.5c-11.74,3.41-25.73,5.25-37.52,2.72a141.7,141.7,0,0,1-20.56-6.12c-11.76-4.25-23.16-8.81-35.52-11-15.27-2.65-31.94-.59-46.43,4.66-15.28,5.54-30.27,13.89-46.8,14.69-16.89.82-35.2-3.36-49.54-12.46-8.87-5.62-16.73-13.93-18.41-24.66a32.85,32.85,0,0,1-.38-6.94,11.08,11.08,0,0,0,.46-2.41c0.12-1.43.17-2.86,0.17-4.29,0.47-3.57,1.07-7.13,1.32-10.6,1-13.95,1.28-27.9-.58-41.8a122,122,0,0,0-4.32-20.29c0.69,0.16,1.39.32,2.08,0.46,32.22,6.45,69.7-4.13,92.86-27.74,13.8-.06,28.72-3.44,40.29-11a38.6,38.6,0,0,0,16.31-22.06,51.27,51.27,0,0,0,5.78,10.76c9.67,13.65,25.79,20.74,41.73,24a148.55,148.55,0,0,0,51.41,1,56.12,56.12,0,0,0,6.07,4.13c11.94,6.79,25.78,9.46,39.44,8.79a51.52,51.52,0,0,0,8-1,82.37,82.37,0,0,0-4.06,10.33C531.6,732.64,533.09,760.52,536.33,785.67ZM590,658.6c0.41,1.05.82,2.1,1.21,3.16a6.58,6.58,0,0,1,1.59,4.32,3.23,3.23,0,0,1,0,.38c0,0.16,0,.32,0,0.47H593a188.88,188.88,0,0,1,8.17,38.37c4,36.35-.3,73.31-8.23,108.86a519.25,519.25,0,0,1-27.23,87,53.21,53.21,0,0,0-3.46-10.52c-2.36-5.38-6-10-9.32-14.81-1.25,6.77-2.38,13.58-3.95,20.28a129.67,129.67,0,0,1-7.73,23.28,89.52,89.52,0,0,1-7.64,13.89,119.45,119.45,0,0,0-6.13-26l-7.67-21c-0.6,13.83-.45,28-3.17,41.61-4.07,20.35-14.32,41.35-29.5,56.29a53,53,0,0,0-2.7-18c-2.2-6.28-6.3-15.11-14.3-14.56-6.19.43-10.4,6.43-13,11.48a27.67,27.67,0,0,0-1.37,4.46c-0.87,2.88-1.87,5.72-2.92,8.53a100.6,100.6,0,0,1-9.45,19.56c-5.35,8.29-13.05,17.95-22.89,21.29-1.32-7.94-5.29-15.45-12.79-19.19-9-4.45-19.58-1.62-26.4,5.32-5.45,5.55-7.91,12.8-9.32,20.27a165.22,165.22,0,0,0-2.56,24.19c-11.27-7-16.31-19.92-18.66-33-0.74-4.1-1.41-8.26-1.83-12.41-0.75-7.51-1-15.58-4.45-22.47-2.67-5.38-7.92-9.36-14.12-8.71-7.82.76-12.93,8.2-16.25,14.57a81.12,81.12,0,0,0-5.24,13c-10.86-19.63-19.06-40.79-21.38-63.27a85.46,85.46,0,0,1-.33-15c0.17-2.32.7-2.59-1.6-3a21.67,21.67,0,0,0-8.19-.53C265.21,919,264.55,933.85,266.16,946c-12.84-13.08-19.14-32.73-23-50-4-17.61-5.43-35.46-5.78-53.47-4.92,4.58-10,8.83-13.22,14.88a54.32,54.32,0,0,0-5.48,17.5q-0.93-1.41-1.84-2.84c-18.45-29.13-27.87-63-29.77-97.24a292,292,0,0,1,11-94.15q1.19,2.15,2.57,4.21c8,11.74,20.21,19.49,33.59,23.61q1.29,4,2.22,8.15,1,4.48,1.65,9c-0.7,9.45-4.48,19.36-7.59,27.41-5.19,13.17-12.18,25.87-15.59,39.68,6-13.86,16.65-27,24.59-40.84-0.11,4.31-.36,8.61-0.74,12.88-0.51,5.8-1.65,11.82-2.37,17.81-3.75,11.66-7.35,23.43-8.83,35.46a139,139,0,0,1,9-18.06,39.44,39.44,0,0,0,7.79,16.12,41.28,41.28,0,0,0,6.26,6.83c-3.37,8.57-2.9,17.31-2.39,26.42,2.93-7.25,5.59-14.58,11.29-20.07a83.36,83.36,0,0,0,12.75,6l-0.6-.08c0.11,13.78-5.15,27.2-6.87,40.8,5.69-12.61,14.35-24,18.77-37.15,2.76,0.72,5.62,1.38,8.52,1.92,1.75,16.08-2.24,33.22-6.57,48.56,8.58-14.34,16.85-30.36,19.76-47a65.8,65.8,0,0,0,13.35-.72A85.87,85.87,0,0,0,315.77,861c-0.7,13.5.44,27,1.7,40.43,1.11-12.2,2.3-24.42,4.91-36.4,2-9.32,4.69-21.2,12.28-27.78,6.09-2.14,12.06-4.61,18.1-6.9,4,27.65,3.37,57.26-7.85,83.06,16.14-25.65,21-57.48,20.84-87.45l1.48-.42a84.75,84.75,0,0,1,10.21-2.06c3.36,19.09,3,38.84,4.31,58.11,1.41,20.24,2.75,42.77,13.68,60.47-9-19.09-7.68-42.13-6.71-62.69,0.89-18.81,3.17-37.86,2.08-56.72a94.4,94.4,0,0,1,12.59,1A145.79,145.79,0,0,1,418,864c2.86,14.56,4.18,29.3,5.34,44.08,1.17-15.64,2.4-31.43,1.32-47.11a162.15,162.15,0,0,0-5.91-33.61l1,0.34c5.85,2,11.69,4.35,17.58,6.48a109,109,0,0,1,5.62,11.92c3.38,8.49,5.13,17.77,6.43,26.78,2.18,15.18,2.59,30.55,3.3,45.85,1.54-16.11,3.24-32.19,3.24-48.4a121.46,121.46,0,0,0-4.08-31.54,88,88,0,0,0,9.67,2h0.12c0,21.21,6.9,41.34,17,60-5.67-19.32-8.46-39.54-4-59.28,3-.08,6.06-0.3,9.09-0.68,0.9,14.55,8.1,27.31,14.2,40.64C496,867.1,492,852.14,497,838.15a104.05,104.05,0,0,0,14-4.82c4.85,14,10.76,27.67,11.55,42.74,3.69-16.33,1-32.6.31-49.07a56.1,56.1,0,0,0,15.78-15.29,138,138,0,0,1,8.79,17.73,151.94,151.94,0,0,0-5.32-24.18,41.51,41.51,0,0,0,2.32-20c-0.67-6.1-1.66-12.13-2.2-18.25q-0.31-3.42-.52-6.85c5.37,10.36,10.57,20.79,13.49,32-1.21-13.67-5.92-26.85-9.91-39.9-1.29-4.23-2.65-8.54-3.86-12.89a138.17,138.17,0,0,1,2-18.61,87.42,87.42,0,0,1,6-20.32,53.44,53.44,0,0,1,2.76-5.51,68.61,68.61,0,0,0,20.66-12.27A62.68,62.68,0,0,0,590,658.6Zm-8.14-4.39c-6.88,17.92-21.79,28.7-39.53,34.49l-1.24.2c-14,2-29.73.06-42-7.52-1.79-1.11-3.45-2.36-5.14-3.61-1.9-1.39-2.75-.85-5.1-0.48a162.19,162.19,0,0,1-25,1.8C447,679,429,676.83,414.52,667.71c-10.26-6.46-16.47-16.07-19.43-27.15,0.61-.11,1.21-0.22,1.82-0.35a50.83,50.83,0,0,0,7.48,8.44c6.16,5.57,13.44,9.59,21,13-8.19-6.78-15.17-14.45-19.18-23.77,2.22-.65,4.44-1.38,6.61-2.25a67.72,67.72,0,0,0,14.5,9.64c9.52,4.63,19.67,7.2,30,9.05A122.29,122.29,0,0,1,433,641a71.3,71.3,0,0,1-10.55-10.31l0.23-.14c0.72-.48,1.43-1,2.12-1.49,5.7,5,13,8,21,9.56,7.42,1.46,15,2.8,22.12,5.3A91.53,91.53,0,0,1,484,651.8c12.42,7.26,25.72,14.13,40.18,16,14.13,1.81,26.41-2.89,35.74-13.5-9.84,9.51-21.91,13.24-35.46,10.32S499,654.2,487.81,646.41a105.43,105.43,0,0,0-13.52-8.51,121.13,121.13,0,0,0-20-7.31c-7.73-2.26-15.66-4.41-21.11-9.66a32.75,32.75,0,0,0,3.77-6.19c6.48,2.51,13.36,3.71,20.08,5.37a143.81,143.81,0,0,1,21.85,7.08c5.67,2.41,11.93,5.39,15.72,10.44-2.85-5.49-8.34-9.42-13.4-12.71a143.2,143.2,0,0,0-20-10.6c-6.45-2.86-13.21-5.12-19.37-8.61l-0.13-.08a37.75,37.75,0,0,1,11,2.86c5.14,2.19,12.34-.14,15.8-4.33A67.55,67.55,0,0,1,485,611.43a85.19,85.19,0,0,1,16.75,13.64c5.64,5.85,11.47,11.81,18.83,15.48a35.08,35.08,0,0,0,24.7,2.34c28.55-8.14,17-51.79-5.81-60a28.15,28.15,0,0,1,19.91-.18C587.76,593.36,591.39,629.32,581.84,654.21ZM566.72,546.08a79.74,79.74,0,0,0-7.42,23.68c-0.15,1.08-.28,2.19-0.39,3.3a35.59,35.59,0,0,0-9.27-1.18c-12.6,0-18.46,4.81-27.45,13-5,4.52-8,10.92-10.2,13.4,0,0,12-6.09,14.59-7.14,16.74-6.82,28.57,16.61,27.55,30.18-0.61,8-5.65,13.8-13.62,15.21A29.51,29.51,0,0,1,517.79,631c-11.72-8.44-20.46-20.16-33.8-26.58a72.83,72.83,0,0,0-12.89-4.75c2-5.39,1.42-11.79.08-17.24-2.85-11.58-10.66-26-22.2-31.47a38,38,0,0,1,8.39,4.52c11.95,8.19,21.59,19.36,32,29.32-0.62-.83-4-8.57-4.41-9.33a93.8,93.8,0,0,0-7.57-11.39c-5.38-6.95-11.84-13.49-19.61-17.73-7.53-4.12-17.09-5.64-24.19.23a21,21,0,0,0-3.62,3.88c-1.17-3.54-3.69-6.73-7.27-7.26,1.52,4.52,1.35,9,1.19,13.64-0.18,4.12-1.41,8.19-1.19,12.34a15.93,15.93,0,0,0,7.19-9.4,14.69,14.69,0,0,1,6.6-4.53c9.31-2.82,17.42,10.51,20.88,17.13,3.81,7.29,12.38,28.93-2.31,29a33.53,33.53,0,0,0-15.31-1.14,44.74,44.74,0,0,0-4.27-15.37c0.67,6.8,1.4,13.27-.5,19.91a27,27,0,0,1-8.77,13.48c-10,8.73-24.75,12.36-37.65,13.51-12-1.26-23.51-3.81-33.3-11.21s-14.81-20.73-15-32.74c0,0.11-.06.21-0.09,0.3a34.7,34.7,0,0,0-1.25,13.09c-6.82-1.83-14-1.41-20.56,2.49-2.3,0-4.4,0-6.32-1.54-2.79-2.8-1.28-8.93-.48-12.21,1.34-5.21,3-10.44,4.71-15.52,2.2-6.42,4.5-13.16,8.71-18.56,1.89-2.42,4.39-4.56,7.62-4.41,5,0.22,9.5,5.38,12.32,9.05-1.76-8.2-6.09-17.66-15-20a18.56,18.56,0,0,0-11.83.82,144.27,144.27,0,0,0,15.83-18.14c-8.56,6.52-16.93,13.24-26,19-10.12,6.42-22.23,12.67-34.55,12.14-23.87-.6-36.92-27.18-44.28-46.46,1.36,23.93,17.23,53.68,44,54.44,9.53,0.31,18.58-2.55,26.91-7.23A108.36,108.36,0,0,0,286.1,575c-4,7.17-7.66,14.87-9.79,22.82,9.93-12.51,18.87-25.87,29.77-37.59,5.43-5.83,13.77-14.88,22.62-13.79a11.66,11.66,0,0,1,1.72.3l-0.66,0c-5.71.55-10.15,4.7-13.39,9.19-5.9,8.17-9.53,17.86-12.46,27.43-2.9,7.61-4.67,18.16,1.34,24.73a10.9,10.9,0,0,0,1.49,1.33,99.37,99.37,0,0,0-17.23,11.16c-12,9.64-22.33,24.63-39.26,24.68-10.3,0-14.14-10.63-13.89-19.6,0.22-7.88,2.8-16.44,8.21-22.34,6.62-7.21,17.11-5.36,25.19-1.71C266.43,587,253.29,582.1,251,581.38c-7.68-2.39-15.78-1.32-23.21,1.76a80,80,0,0,0-3.32-24.06c-2.39-8.1-6.56-15.07-10.14-22.61-7.22-15.23-9.9-32.47-5.26-48.88,2.15-7.59,6-14.76,9.27-21.91q3-6.6,5.87-13.23a15.47,15.47,0,0,1,5.5,9.51c1.12-3.9-.11-7.92-2.17-11.28-1.24-2-3.21-3.35-4.29-5.44a22.59,22.59,0,0,1-2-8.78c-0.65-9,.84-18.18,2.41-27q0.74-4.18,1.59-8.34a39.63,39.63,0,0,0,.72-8,127.53,127.53,0,0,1,23.9-21.44c25.51-17.4,55.46-28,85.9-32.42,22.91-3.34,46.36-3.74,69.46-2.44a296,296,0,0,1,92,20.08c15.83,6.25,30.68,14.37,45.17,23.25a141.47,141.47,0,0,1,17.42,13.29c0.33,1.58.66,3.16,1,4.74,2.32,12.16,4.68,24.94,4,37.37-0.29,5.34-1.18,9.75-4.82,13.7-3.27,3.49-5.18,8.61-4.13,13.33a14.93,14.93,0,0,1,5.38-9.82q4.66,10.74,9.5,21.39a99.79,99.79,0,0,1,6,15c4.42,16.16,1.57,33.36-5.5,48.33C569.77,540.44,568.17,543.21,566.72,546.08Zm4.57,9.52c0.17-.37.33-0.74,0.5-1.1,2.26-4.8,5.35-9.14,7.66-13.91,0.65-1.27,1.25-2.57,1.83-3.87,3.73,2.53,8.31,3.62,11.57-.65,4-5.19,3-13.52,1.94-19.49a62.23,62.23,0,0,0-2.53-9.74c-0.23-.65-1.87-5.92-2.51-5.92-0.55,5.56-.58,11.16-0.76,16.74a80.71,80.71,0,0,1-.63,9.33,34.82,34.82,0,0,1-1.35,4.84c-0.65.44-1.93-.13-3.35-1.09a79.08,79.08,0,0,0,3.53-13.87,68,68,0,0,0-6.93-42.18q-4.65-9-9.41-18l0.21-.24c1.86-2.15,3.74-4.3,5.75-6.31,0.8-.79,3.17-3.51,4.55-3.49,2.58,2.72,4,24.57,5.27,24.57,0.62,0,1.92-6.46,2.06-7.11a52.46,52.46,0,0,0,1.15-9c0.18-5.25-.34-14.17-6.85-15.56s-11.72,6.07-14.55,10.82c-0.18.3-.35,0.62-0.52,0.92l-1.52-2.8c0.15-.2.3-0.39,0.44-0.59a25.28,25.28,0,0,0,3.42-7.64,64.39,64.39,0,0,0,2.07-16.92c0-.71,0-1.42,0-2.13,1.68-1.25,3.41-2.45,5.18-3.55,4.79-3,11.22-6.38,17-4.67s8.46,8.8,9.68,14.12a74,74,0,0,1,1.58,8.8c0.25,1.89.18,3.91,0.79,5.73-0.12,1.56.34,4.9,0.15,7a64.73,64.73,0,0,1-1.89,10.29,142.24,142.24,0,0,1-4.41,13.7c-1.11,2.93-2.37,5.8-3.47,8.73-2.23,5.92-2.48,12.34-1.83,18.58,0.5,4.84,1.53,9.57,2.32,14.36a93.25,93.25,0,0,1,1.07,18.4c-0.26,7.15-1.08,15.21-4.68,21.56a13.52,13.52,0,0,1-9.35,6.66C579.8,561.69,575.34,558.79,571.29,555.6ZM680,573.93a57.58,57.58,0,0,0,31,14.11c-25.33,14.13-56.72,19.92-83.7,8.48-14.13-6-25.81-16.16-35.56-27.84-0.57-.69-1.12-1.39-1.67-2.09,8.47-3.46,13.32-12.94,15.32-21.39,2.51-10.55,2-23.68.42-34.39-1.29-9-3.09-18.18.22-26.9,14.53,11.6,24.36,28.38,32.23,45.1q3.29,7.1,6.2,14.37c0.79,2,2.2,4.41,1.86,6.62-0.3,2-8.66-2.45-9.63-3-4.58-2.57-8.88-5.57-13.27-8.45,5.44,5.93,12.14,13.46,20,16.07,4.16,1.38,7.89-.73,8.29-5.23,0.21-2.43-.49-4.65-1.12-6.95-4.23-15.25-10.19-30.26-18.84-43.57A92.92,92.92,0,0,0,615,479.25c-1.79-1.55-3.66-3-5.58-4.38,1.34-3.74,2.64-7.64,3.65-11.31,1.33-4.82,2.75-10.87,2.73-16.56,0.67,0.59,1.34,1.2,2,1.81,12,11.7,18.69,28.22,23.75,43.87,4.19,12.94,6,26.52,10.92,39.21C658.44,547.49,667.29,562.8,680,573.93ZM653.7,505.19c-4-14.46-9.07-28.64-16.56-41.64-4.8-8.33-10.71-16.39-18.41-22.27a47.33,47.33,0,0,0-4.39-3c-0.82-5.43-2.11-12.36-4.67-18.37a29.28,29.28,0,0,1,16.78,5.61c7.87,5.76,13.61,14.13,19.54,21.74,10.41,13.36,26.86,33.4,45.94,23.33-9.71.39-17.16-3.2-23.79-10.23-6.91-7.33-12.34-15.92-18.67-23.73s-14-15.77-23.85-19.16a26.54,26.54,0,0,0-17.09,0,26.7,26.7,0,0,0-3.36-5.11,70.3,70.3,0,0,0,9.74-29c16,5.52,26.8,22.28,37.69,35.42A97.31,97.31,0,0,0,698,449.08c15.28,5,33.28,3.89,47.11-4.35a158.61,158.61,0,0,1-11.94,24.69c-8,13.43-18.66,26.06-32.81,33.18C685,510.28,669,509.65,653.7,505.19Z" transform="translate(-168.3 -158.72)"/><path class="cls-17" d="M195.49,805.14a133.51,133.51,0,0,1-.38-22.55c0.39-7.08.13-15.38,5.35-20.86,4.44-4.66,12,2,11.55,8.44-0.65,9.48-1.68,18.93-2.21,28.41-0.28,5-.83,9.56,1.28,14.26,2.42,5.4,5.82,10.17,6.72,16.13,0.76,5.05.34,10.13,0.12,15.21-0.06,1.45-1.3,10.25.07,11.5-12.33-11.23-19.08-29.83-21.8-45.75Q195.76,807.53,195.49,805.14Z" transform="translate(-168.3 -158.72)"/><path class="cls-17" d="M305.79,980l0,0c-1.66-11-4.85-21.81-6.66-32.81-1.46-8.9-1.77-19,.89-27.75,1.1-3.6,4.06-9.16,7.47-4.12,3,4.42-.32,15.63.24,20.77,1.35,12.43,15.76,2,21.26-2.86-3.26,2.91-.65,12.15,2.57,14,5.17,3,15.64-1.25,19.45-5.26,4.44-4.67,12-17.1,12-17.1s4.22,19.5,2.78,24.41,6.91,12.06,9.8,15.17c5,5.36,11.7,4.65,18.34,5.46,7.86,1,15,4.28,22.24,7.42,0.56,0.24,2.45-12.44,2.27-13.87-0.42-3.32-1.86-6.61-3-9.71-2.51-6.61-6.66-14.1-6.66-21.33,0-8,1.33-18.45,2.66-19.88s5.41,7.89,7.15,13.66,7.5,13.76,8.84,12.88c4.29-2.81,1.25-10.09,4.67-13.2,5.42-4.93,8.13,5.13,9.6,8.59,0.79,1.88,5,11.76,6.6,11.69,0,0,10.33-.42,13.38-7.08s6.88-21.76,8.52-22.2,9.18,5.77,8.52,10.21,10.28-6.21,12.8-8.44S502,903.59,502,903.59l4.14-14.21s-2.36,27.09-2.81,29.3-3.11,24-5.33,27.08-7.14,16-7.15,16c2.16-5.66-3.76-19.64-8.63-22.24-7.84-4.19-15.81,1.91-21.22,7.21-5,4.87-14.6,14.19-16.73,20.8,0,0-8.89,27.53-16,32.86,0,0,6.22-19.54-.44-22.2s1.33,6.65-9.32,9.77c-16.43,4.8-31.92-10-45.74,4.88-5.77,6.21-12.39,16.35-10.66,33.3-0.08-.8-2-2.66-2.45-3.37a43,43,0,0,1-4.82-11.47,78.31,78.31,0,0,1-3-21.1C352,978.08,354,964.84,338.64,961,324.37,957.43,313.56,969.95,305.79,980Z" transform="translate(-168.3 -158.72)"/><path class="cls-17" d="M588.51,738.16c-16.2-6.52-14.74,35.48-14.82,42-0.23,18.58-1.53,37.11-3,55.63-0.67,8.45,2.22,19.19-2.87,26.65-6.9,10.13-17.09,2.82-22.63-4.86-13.1-18.14-3.85,40.43-3.85,40.43s-7.76-47,23.72-18.86c0,0,25-32.75,21.22-67.89-1.57-14.84,3.26-26.63,6.94-40.6,2.38-9,7.31-26.56-3.73-32.1C589.15,738.44,588.83,738.29,588.51,738.16Z" transform="translate(-168.3 -158.72)"/><path class="cls-17" d="M229.07,597.83c1.47-1.07-28.76,44.79,18.76,59.78,0,0-34.24,4.75-35.19-29.55C212.64,628.06,213.09,609.46,229.07,597.83Z" transform="translate(-168.3 -158.72)"/><path class="cls-17" d="M512,648.86s22.1,16.56,45.33,0a43.49,43.49,0,0,0,17.36-29.31c1.61-13.9-5.85-20.81-14.78-29.88,7,7.11,8,23.61,5.83,32.61-2.79,11.72-11.6,19.85-22.09,25C543.64,647.31,526.68,654.09,512,648.86Z" transform="translate(-168.3 -158.72)"/><circle class="cls-15" cx="142.58" cy="305.83" r="4.59"/><path d="M569.52,438.21a711.8,711.8,0,0,1-84-26c-8.83-3.35-17.56-6.91-26.25-10.59-13.94-6-27.74-12.48-41.06-19.79-6.49-3.56-13.24-6.6-20-9.72q-22.32-10.37-45.2-19.47c-11.82-4.68-23.81-9.07-36-12.84-1.36,2.11-31.62,12.24-29.15,12.8,34.81,8,68.45,21.75,100.62,37.06,22,10.46,43.34,22.06,65.74,31.62a656.27,656.27,0,0,0,69.49,25.16c13.38,4,26.85,7.71,40.42,11a10.12,10.12,0,0,0,12.29-7C577.91,445.37,574.82,439.49,569.52,438.21Z" transform="translate(-168.3 -158.72)"/><path d="M492.61,503.69a62.11,62.11,0,0,1-20.14-3.42,69.2,69.2,0,0,1-42-41.3c-7-19-13.2-39.43-20.1-66.22l3-.78c6.87,26.69,13,47,20,65.92a66,66,0,0,0,40.07,39.41,56.69,56.69,0,0,0,49.24-5.52c15.35-9.7,27.71-28.15,18.55-45.75l2.79-1.45c10.07,19.36-3.14,39.42-19.67,49.86A59.62,59.62,0,0,1,492.61,503.69Z" transform="translate(-168.3 -158.72)"/><path d="M492.76,500.73a60.76,60.76,0,0,1-19.69-3.34,67.83,67.83,0,0,1-41.16-40.48c-5.77-15.67-11-32.35-16.47-52.51l-1.09-4,3.66,2c1.74,0.95,3.62,1.94,6.09,3.21,36.34,18.78,77,34.34,120.71,46.25l1.15,0.31,0.15,1.18c2.15,16.58-10.65,31-22.27,38.37A58.66,58.66,0,0,1,492.76,500.73Z" transform="translate(-168.3 -158.72)"/></svg>