<svg id="Layer_1" data-name="Layer 1" xmlns="http://www.w3.org/2000/svg" viewBox="0 0 416.33 515.24"><defs><style>.cls-1{fill:#614c3d;}.cls-2{fill:#4a3831;}.cls-3{fill:#e7a555;}.cls-4{fill:#d26e1a;}.cls-5{fill:#f0b273;}.cls-6{fill:#ffeb00;}.cls-7{fill:#e3f3f4;}.cls-8{fill:#c60020;}.cls-9{fill:#d0dede;}.cls-10{fill:#0073bd;}.cls-11{fill:#980a25;}.cls-12{fill:#fff;}.cls-13{fill:#1a171b;}</style></defs><title>pirate6</title><path class="cls-1" d="M185,358.86c0.21,0-10.19,21.72-11.07,23-12.7,18.17-31.6,29.73-38.82,51.7-7.31,22.26-5.68,46.6.35,68.93,0,0,1.21-35.26,22.17-32.39,0,0-44.59,65,15.8,120,0,0-17.19-41.64,6.33-59.15,0,0-.47,75.36,37.52,99.42,0,0-10.11-22.94,13.44-40.94,0,0,13.55-3.13,9.05,40.94,0,0-3.34,37.06,22.58,59.06,0,0-3.83-30,17-48,0,0,22.12,6,5,63,0,0,52.77-14,52.83-79,0,0,36.06,1,20.55,51,0,0,59.2-52.16,26.33-100,0,0,28.19-17.56,29.18,41.72-0.14-8.29,13.24-23,14.62-32.21,3.1-20.61,5.8-38.43-12.85-51.88,7,5,10.3,2.38,16.12,9.17,9.6,11.19,12.35,27.74,25.18,36.21-2.74-14.65,0-31.25,5.91-44.78,6.16-14-2.5-25.95-9.39-37.57,6.63-4.19,17.53.28,20.39,7.58,0,0,.18-49-23.92-61,0,0,17.91,1.63,33.91,22.42-1.33-1.73-.26-10.4-0.49-12.61a93.89,93.89,0,0,0-8-29.14c-13.74-30.18-59.57-39.78-59.21-77.63Z" transform="translate(-70.16 -192.78)"/><path class="cls-2" d="M171.89,389.46a63.09,63.09,0,0,1-3.87,8.87c-4.5,8.3-12.89,11.6-18.72,18.69a28.1,28.1,0,0,0-5,8.5c-0.42,1.22-.87,10.37-1.13,10.54,0,0,16.41-10.74,23.64-5.79,0,0-20,15.84-24.9,38.5,3.22-14.82,23.62-20.87,36.5-18.67,5.92,1-12.77,30.62-14,33.2A91.7,91.7,0,0,0,156,534.68s7.82-25.69,28.93-30c-2.61.55,0.86,13.55,1.32,15s1.8,6.95,3.24,7.7c3.14,1.65,6.65-3.27,9.41-1.9,5.76,2.87-3.25,13.9-4.72,17.08a39.54,39.54,0,0,0-3.46,21c1.41,14.27,9,27.33,15.33,39.87a64.65,64.65,0,0,1-4-22.13c0-5.89,4.2-12.73,4-17.87,0,0,.54,16.77,2.37,32.05,0,0,8.75-14.72,23.29-17.39,0,0,25.73-.69,18.76,40.67-2.09,12.41-2.16,26.77,2.12,38.73,0.21-7,2-14.84,6.37-20.43,7.28-9.41,14.52-17.84,11-30.77,3,7.08,6.12,14.34,10.77,20.52,12.43,16.53,26,26.72,22.67,50,0,0,29-27.79,20.82-81.33,0,0,12.06,16.67,15.72,18,0,0-5.72-14.88-2.5-30,0,0,24.19,24.67,26.84,36,0,0,4.56,15.33,2.94,28.66,0.48-4,8.05-11.14,9.51-15.86,2.54-8.2,2.1-16.93-.2-25.12-0.43-1.54-7.51-19.74-9-19,3.62-1.83,10.92-3.59,11,2.76,0,0,.26.23,0.27,0.28,0.54-5.42-3.73-14.12-2.16-19,6.73-21.1,47,3.3,42.34,14.66,5.34-12.95,1.68-28.37-6.44-39.2-5.12-6.83-21.18-27.49-3.6-27.38,19.71,0.13,40.63,14,40.63,35.24,0-9.42,3.85-18.69,3.34-28.46-0.34-6.64-1.55-12.77-5.53-18.15-14.61-19.79,3-23.74,19.87-16.15,0,0-3.74-19.93-4.65-21.87a38,38,0,0,0-14.18-16.62c-3.82-2.47-18.33-8.21-18.75-13.68-1.25-16.46,33.53,1.06,38.2,6.47,7.82-16.36-14.69-31.22-24.3-41L427.3,385.3l-11.12-22.47-19.56-7.74-104.4-24.27-86.15-1.52-20.34,4.91c-2.21,13-.52,25.6-4.55,38.18C179.46,377.79,173.82,384.08,171.89,389.46Z" transform="translate(-70.16 -192.78)"/><path class="cls-3" d="M409.57,367.56c-11.33-8.06-9.57-22.07-9.57-22.07,4-7.7-1.2-12.56-1.2-12.56,12.25-10.84,8-18.88,8-18.88l-5.25-7.18c11.8-26.06,0-48.1,0-48.1-26.12-56.62-79.76-63.08-99.31-63.48H298c-19.55.4-73.19,6.86-99.31,63.48,0,0-11.8,22,0,48.1l-5.25,7.18s-4.3,8,8,18.88c0,0-5.19,4.86-1.2,12.56,0,0,1.76,14-9.57,22.07,0,0-21.27,13.55,0,33.88,0,0,17.42,22.58,12.17,49.29,0,0,8.36,44.84,38.52,71.81l0,0.23,0.77,0.41c14.17,12.39,33.07,20.8,58,19,25,1.83,43.87-6.59,58-19l0.77-.41,0-.23c30.16-27,38.52-71.81,38.52-71.81-5.25-26.71,12.17-49.29,12.17-49.29C430.84,381.11,409.57,367.56,409.57,367.56Z" transform="translate(-70.16 -192.78)"/><path class="cls-4" d="M411.57,367.56l-2.25-1.84-12.09-15.79,4.07-14.54,2-15.39-1-9.69s5.67-55.88-102.5-56.61V253.4C190.7,253.84,196.41,310,196.41,310l-1,9.69L204,333.06l-2.6,16.58L193.74,366l2.51,2c-18.5,11.35-13.11,21.8-13.11,21.8,23.36,29.28,18.3,62.47,18.3,62.47l33.71-.18h17.44l2.2-13.57L269,436.06c15.68,23,30.15,11.89,30.15,11.89v-0.78l0.44,1.08S314,459.4,329.71,436.36l14.17,2.39,2.2,13.57h17.44l33.71,0.18s-5.06-33.19,18.3-62.47C415.52,390,430.06,378.92,411.57,367.56ZM389.08,411.7c-5,.88-11.64,1.6-17.46.73,0,0,2.1,3.6,15.73,4.49a54.5,54.5,0,0,0-2,13.44s3.84,15.79-11.08,12.59l-24.1-2.17s15-26.45-2-38.55a20.47,20.47,0,0,0-11.56-3.67c-10.88-.28-11.86-11.52-11.07-20.3,0,0,3.43-32.19-19.43-31.46,0,0,18.9,5.16,15.1,24.9-1.75,9.12-7.45,23.48,4.69,30.53,6.48,3.77,21.33,5.81,21.33,14.56,0,19.28-17.75,6.56-20,9.34a21.76,21.76,0,0,1-2.29,2.44c2.39-22.21-12.82-26.33-12.84-26.34,1.57,0.42,4.39,7,5.14,8.53,4.41,8.84,1.17,17.09-7.31,22.25a24,24,0,0,1-10.89,3.16v-0.11h-6c-9.13-1-17.85-6.15-18.38-16.43-0.1-2,.79-15.35,3.72-16.23-14,4.2-12.54,16.41-10.41,23.37-4-.07-7.74,4.46-10.87,3.24-5.48-2.13-8.1-6.2-7.62-15.61,0.43-8.47,12.24-10.34,12.24-10.34,3.5-2,11.33.67,11.33,0.67,12.79-8.22,6.33-33.33,6.33-33.33-3.8-19.74,13.1-24.9,13.1-24.9C270.73,352,273.07,378,273.07,378c2.29,11-5.79,21.09-5.79,21.09-12.73-2.14-19.9,5-19.9,5-17,12.1-5.16,39-5.16,39l-17.87-.43c-14.93,3.2-11.08-12.59-11.08-12.59a54.38,54.38,0,0,0-6.07-23.94,51.17,51.17,0,0,0-4.85-7.7c-1.67-2.15-5.36-4.7-6.08-7.31-1.21-4.41,1.92-11.35,4.26-15,0.23-.36,5.09-6.39,5.55-5.86,8.8,10.21,21.48,6.18,21.48,6.18-9.61-7.34-8.27-13.62-8.27-13.62h2.12c11.63,0,12.8-2.82,10.85-5.75,32.12,23,47.15-11,47.15-11,16.16-4.26,12.81-21,12.81-21-12.06,6.58-19.15-7-19.15-7l-28.29-21.28L230.73,293l-9.32-3.83C232,278.13,248.55,273,262.87,269c32.76-9.12,64.12-5.64,95.2,8.06,6.85,3,13.92,6.91,19.19,12.35l-9.32,3.83-14.05,3.83-28.29,21.28s-7.08,13.54-19.15,7c0,0-3.35,16.78,12.81,21,0,0,15,34,47.15,11-1.94,2.94-.78,5.75,10.85,5.75h2.12s1.35,6.28-8.27,13.62c0,0,12.68,4,21.48-6.18,0.41-.47,4.92,4.95,5.15,5.28,2.64,3.84,5.16,9.71,4.64,14.46-0.35,3.29-4,5.76-5.95,8.31A53.61,53.61,0,0,0,389.08,411.7Z" transform="translate(-70.16 -192.78)"/><path class="cls-4" d="M355.41,466.12l-15.12,1.67-6.67,16.67a17.33,17.33,0,0,1,1.45,2.19l-18.23-10.91-15.06-6.52-4.41-3.09L273.07,484a17.37,17.37,0,0,0-5.83-.16l0.37-5.09-14.67-9H237.46s-15.6,1.33-16.06,1.67-10.29,6-10.29,6,14,39.11,48.41,54.54c0,0-19.34-9.2-24.38-31.83,0,0,5.13,7,20.8-2,0,0,1.58,20,23.46,12.33,0,0,21.33-7.67,37.44.33,0,0,23.44,10.33,28.44-9.33,0,0,5.33,2.56,18,1.82,0,0,6.3,6.42-10,20.93,0,0,23.58-17.1,29.12-35.26l-15.17-11.83Zm-31.17,37.15s-20.84-13-40.82-2.87c0,0-19.2,6-17.29-7.21,0,0,13.51,3.26,26.5-9.07,0,0,8.91-4.33,12.79,0,0,0,13.29,13.07,31.63,9C337,497.15,334.34,501.41,324.23,503.27Z" transform="translate(-70.16 -192.78)"/><path class="cls-5" d="M306.18,361.26c-0.37-7-6.26-7.91-9-6.63-3,1.37-5.45,6-6.66,11.52-2.29,10.32-.65,21.81-3.57,31.94-1.25,4.33-3.55,8.27-4.38,12.73-2.79,15.05,11.37,24.28,24,15.34,10.76-7.6,1.4-20.77,2.83-30.94C311,383.7,306.78,372.65,306.18,361.26Z" transform="translate(-70.16 -192.78)"/><path class="cls-5" d="M265.51,372.49l-0.09,0c-8.73-1.82-20.74-2-27.56,4.78-4,3.91-3.9,6.43-9.78,7.19-1.92.25-21.92-3.94-21.55-4.79C202,389.95,226.37,399,226.37,399c9.29,0.92,19.73.69,27.93-4.34C257.17,392.85,270.56,373.53,265.51,372.49Z" transform="translate(-70.16 -192.78)"/><path class="cls-5" d="M391.25,379.55c0.38,0.85-19.63,5-21.55,4.79-5.88-.75-5.82-3.27-9.78-7.19-6.82-6.74-18.83-6.59-27.56-4.78l-0.09,0c-5,1,8.34,20.36,11.22,22.12,8.19,5,18.64,5.27,27.93,4.34C371.42,398.87,395.82,389.85,391.25,379.55Z" transform="translate(-70.16 -192.78)"/><path class="cls-5" d="M346,511.78c-4.13,2.18-8.6,5.09-13,7-15,6.49-24.63-9.06-40.33-4.57-4.84,1.38-8.39,5.44-13.36,6.51a16.83,16.83,0,0,1-13.11-2.61c-3-2.19-4.7-6.45-8.45-7.57a3.93,3.93,0,0,0-1-.17c-3.65-.13-6.87,3.75-5.07,7.12,1.89,3.54,6.06,6.7,9.47,8.29,10,4.67,21.83,11.28,31.52,1.32,7.15-7.35,10.3.77,16.54,3.62,10.21,4.66,23.57,1,33-3.8,3.78-1.93,17.65-8.1,11.7-14.07A7.28,7.28,0,0,0,346,511.78Z" transform="translate(-70.16 -192.78)"/><path class="cls-5" d="M277.61,280.61c5.45,3.13,6.74,10.06,11.62,13.88,6.09,4.77,13.34,3.65,19.75-.07,5-2.89,6.75-8.57,10.43-12.66,4.88-5.43,11.62-6.32,18.66-5.44-19.15-2.4-39.41-7.89-58.59-4.45a56.89,56.89,0,0,0-14.18,4.46C266.68,275.68,275.85,279.6,277.61,280.61Z" transform="translate(-70.16 -192.78)"/><path class="cls-4" d="M313.82,270.58c-11.35,4.06-29.41,0-29.41,0C303,285.71,313.82,270.58,313.82,270.58Z" transform="translate(-70.16 -192.78)"/><path class="cls-4" d="M198.7,306.87s-4.91-20.14-18.94-6.15c-13.16,13.13-2.76,25.64,3.87,37.92,3.39,6.28-.44,14.43,2.73,20.28,1.84,3.4,8.32,6.21,10.91,1.14l3.55-7,0.61-5.8-0.61-6.63,0.61-6.26-6.55-9.19,1.52-7Z" transform="translate(-70.16 -192.78)"/><path class="cls-6" d="M192.22,353c-2.06-2.08-6.63-2.72-8.82-2.6-13.28.72-25.93,17.67-17.11,29.87,4.4,6.09,13.71,6.15,19.45,2.65,0,0,1.7-11.55,12.69-17.31-1.59-.86-3.13-1.86-4.67-2.81,1.78,1.12-8.92,10.42-9.84,11-4.54,2.73-14.52,3.22-12.14-5.12,2.74-9.61,20-6,21.4-12.38A3.36,3.36,0,0,0,192.22,353Z" transform="translate(-70.16 -192.78)"/><path class="cls-7" d="M274.74,336.4c-12-10.45-33.4-32.57-49.67-13.67-2.88,3.34,2.73,16.31,4.46,19.1C239.81,358.46,269.15,356.71,274.74,336.4Z" transform="translate(-70.16 -192.78)"/><path class="cls-7" d="M324.23,336.58c12-10.45,33.4-32.57,49.67-13.67,2.88,3.34-2.73,16.31-4.46,19.1C359.16,358.64,329.82,356.89,324.23,336.58Z" transform="translate(-70.16 -192.78)"/><path class="cls-8" d="M402.06,260.18c-12.84-32.21-43.75-56.83-77.83-62.61-25.52-4.33-52.75-.23-76.31,10.27-17.68,7.88-34.8,21.06-45.73,37.11-3.35,4.92-9.07,18.59-10.3,32.44a73.07,73.07,0,0,1,4.36-23.69s-7.45-3.24-12.37.67c-6.09-11.57-30.12-20.38-39.53-20.17-13.91.31-25,7.43-34.82,16.53s-22.83,18.81-34.76,6.76c7.64,22.85,26.28,41.94,49.85,34.13-1.06,1.79-2,3.62-3,5.44-3.07,6.09-10.32,46.82-21.38,44.15,7.83,1.89,17.23,2.3,24.93-.24,18.2-6,25.83-33.07,48.22-30.3A21.53,21.53,0,0,0,184,296.6c3.06-1.73,7.53-2,12.59,5,0,0,22.46-52.88,103.13-48.21,0,0,86.07-4.25,104.7,45.54-0.51-1.37,2.64-9.1,2.79-11C408,278.52,405.5,268.82,402.06,260.18Z" transform="translate(-70.16 -192.78)"/><path class="cls-4" d="M402,307.87s4.91-20.14,18.94-6.15c13.16,13.13,2.76,25.64-3.87,37.92-3.39,6.28.44,14.43-2.73,20.28-1.84,3.4-8.32,6.21-10.91,1.14l-3.55-7-0.61-5.8,0.61-6.63-0.61-6.26,6.55-9.19-1.52-7Z" transform="translate(-70.16 -192.78)"/><path class="cls-9" d="M225.36,331.78s4.43-13.32,38.68,5.93c0,0,10.37,6.88-2.94,13.56,0,0,14.1-6.92,13.65-16.87,0,0-5.68-3.72-13.65-12.59,0,0-25.23-14.31-36,.92C225.07,322.73,224.27,328.53,225.36,331.78Z" transform="translate(-70.16 -192.78)"/><path class="cls-9" d="M333,348.89s-6.51-5.4,7-11.19c0,0,25-18.32,31.66-7.91,0,0,7.73-4.75,0-11.56,0,0-14.89-14.64-30.36,3.9,0,0-10.66,14.36-19,12.26C322.23,334.4,327.31,346.4,333,348.89Z" transform="translate(-70.16 -192.78)"/><circle class="cls-10" cx="180.35" cy="139.76" r="13.53"/><circle class="cls-10" cx="280.61" cy="139" r="13.53"/><path class="cls-11" d="M172.6,280.73s-5.17,6.66-3.92,13.17c-3.78-9.12,9.6-20.45,9.6-20.45l-0.69-.31,2.18-3.89c-1-11.7,4.68-12.71,4.68-12.71l-3.28-4.91c-22.1-26.32-52.9-1.2-52.9-1.2,6-1.79,17.44-1,23.58-.45-13.15-.33-24.58,9.47-24.58,9.47-17,15.5-26.14,11.13-26.14,11.13,7.92,8.63,22.14,5.88,22.14,5.88C99.41,292.05,79,267.57,79,267.57c15.22,33.12,44.59,25.84,44.59,25.84,16.06-32.44,40.32-26,49.78-21.89-16.72-5.2-33.42,3-33.42,3,24.68,0.05,12.32,9.71,12.32,9.71-24.9,3.23-20,32.88-20,32.88,6-19,15.5-20.63,15.5-20.63,16.5-7,15.46,4.81,15.46,4.81-16.53.55-20.86,14.45-20.86,14.45-13.91,30.27-36.91,23.6-36.91,23.6,23.18,11.37,40.11-14.51,40.11-14.51,13.29-22.64,28.24-14,28.24-14l3.73-7.84,0.78,0.32s8.83-14.76,18.29-1.71l-4.46-12.08S176.28,293.41,172.6,280.73Z" transform="translate(-70.16 -192.78)"/><path class="cls-11" d="M195.26,259.89l0.67-2.84c-23.35.1-11,29.4-11,29.4-0.71-13.67,6.2-18.68,8.23-19.85a52,52,0,0,0-1,5.64s-3.07,20.49,6.28,25.85c0,0,23.14-24.31,33.31-31.53,0,0-16.83-14.69,4.56-21,0,0-15.72-5.31,5.58-11.61,0,0-19.6-12.94,26.51-33.32C268.4,200.57,210.29,220.44,195.26,259.89Z" transform="translate(-70.16 -192.78)"/><path class="cls-11" d="M396.62,252.43c-14.67-39-67.6-53.54-67.6-53.54,55.1,24.56,35.28,37.7,35.28,37.7-25.58-6.24-42.33-2.45-42.33-2.45,78.69,7.19,47.83,33.43,47.83,33.43,8.62,1,33.8,29.26,33.8,29.26C414.42,264.71,396.62,252.43,396.62,252.43Z" transform="translate(-70.16 -192.78)"/><circle class="cls-12" cx="108.2" cy="163.8" r="3.48"/><path class="cls-1" d="M296.1,451.12s16.67,30.28-43.52,40.28c0,0,10.72-8.13,10.6-17.07,0,0-13.45,23.4-41.78,18.07,0,0,11-3,15-14.33,0,0-22.67,22.67-49.33,4.67,0,0,10.84.66,13.75-2.67-2.91,3.33-19.94-5.57-22.22-7.08-23-15.25-21.18-63,12.41-63-15.82,0-19.14,25.48-11.08,34.73,9.39,10.77,27.45,8.91,38.26,1.63a83.06,83.06,0,0,1,49.5-13.65S272.19,451.69,296.1,451.12Z" transform="translate(-70.16 -192.78)"/><path class="cls-1" d="M301.86,451.12s-16.67,30.28,43.52,40.28c0,0-10.72-8.13-10.6-17.07,0,0,13.45,23.4,41.78,18.07,0,0-11-3-15-14.33,0,0,22.67,22.67,49.33,4.67,0,0-10.84.66-13.75-2.67,2.91,3.33,19.94-5.57,22.22-7.08,23-15.25,21.18-63-12.41-63,15.82,0,19.14,25.48,11.08,34.73-9.39,10.77-27.45,8.91-38.26,1.63a83.06,83.06,0,0,0-49.5-13.65S325.77,451.69,301.86,451.12Z" transform="translate(-70.16 -192.78)"/><path class="cls-2" d="M178.6,472.95c2.29,1.51,19.31,10.41,22.22,7.08-2.91,3.33-13.75,2.67-13.75,2.67,16,10.82,34.29,7.64,48.76-3.83-1.43,6.37-8.44,11.7-14.46,13.48,16.59,3.23,32.23-4.24,41.7-17.75,0.27,6.79-5.37,12.77-10.36,16.67,12.39-1.54,31.31-6.82,40.13-16.14,5-5.26,9.07-14.22,3.2-20.24s-16.17-7.93-22.85-13.81c-11.58-10.2-21-8.54-35.4-4.2,7-1,17.45-2.94,23.42,1.88,3.25,2.63,4.18,7,7.09,9.8,4.11,4,12,2.79,15.43,7.17,4.08,5.26-4,13.83-8.64,15.83,0.25-.11-2.8-5.72-3.12-6-2.3-2-4.95-2-7.88-1.54-6.49.94-11.88,5-17.24,8.45,0.73-.47-3.9-6.74-4.6-7.11-4.68-2.44-11.43,2.81-15.13,5.12-2.54,1.59-5,3.71-7.79,4.82-2.16.85-4.79,1.12-7,1.67,1.48-5.36-12-3.82-15.1-4.39-10.26-1.91-18.06-6.74-23.83-15.38,0,0-6.82-10.22-4.48-27.16,0,0,2.94-17,18.49-19.57,0,0,.67-0.15,1.51-0.4C157.36,411.94,156.05,458,178.6,472.95Z" transform="translate(-70.16 -192.78)"/><path class="cls-2" d="M419.36,472.95c-2.29,1.51-19.31,10.41-22.22,7.08,2.91,3.33,13.75,2.67,13.75,2.67-16,10.82-34.29,7.64-48.76-3.83,1.43,6.37,8.44,11.71,14.47,13.48-16.22,1.73-33.28-2.93-41.82-18.1,0,6.85,5.4,13.19,10.65,17.11-16.58-4.07-52.09-10.87-45-36.12a20.77,20.77,0,0,1,1.35-4.14c11.75-.5,24.15-7.15,26.88-20.29,10.16-.46,22.13,2.83,31.75,6.14-5.7.12-11.73-1.67-17.36-.81-7.6,1.16-10.13,9.12-16.21,13.12-6.36,4.18-16.44,6.49-11.29,16.36,5.36,10.27,9-1.12,15.12-2.26,6.56-1.22,9.83,7.47,14,10.73,9.78,7.64,6.8-5.53,12-8.81,4.15-2.61,9.45,3,12.35,5.3,3.17,2.5,9.63,7.42,14,7,2.93-.28,4.1-3.49,6.66-4.51,3.18-1.26,6.73.29,10-.28,9.79-1.7,20-6.38,24.74-15.59,0,0,6.82-10.22,4.48-27.16,0,0-2.94-17-18.49-19.57,0,0-.67-0.15-1.51-0.4C440.6,411.94,441.91,458,419.36,472.95Z" transform="translate(-70.16 -192.78)"/><path class="cls-13" d="M231.36,303.36c10.42,0.95,22.19,1.72,31.25,7.47,4.18,2.66,10.32,12.34,15.84,11.22,10-2,13.78-17.33,13.78-17.33-8.8,6-13.15-11.37-18-15-2.24-1.67-4.9-2.33-7.14-3.68,3.33,2,1.66,6,1.66,6a53.93,53.93,0,0,0-26-11.33c-15.57,0-27.38,14-27.38,14,5.67-2.67,9.32,0,9.32,0-14.34,6-18.66,19.94-18.66,19.94C212.6,307.31,221.36,302.45,231.36,303.36Z" transform="translate(-70.16 -192.78)"/><path class="cls-13" d="M372.49,294.73s3.66-2.67,9.32,0c-6.58-3.09-12.07-8.22-19.23-10.07a32.46,32.46,0,0,0-7-1c1.85-1.9,5.33-2.6,5.33-2.6-17.17-2-28,5.3-31.56,8.65a3.25,3.25,0,0,0-.71.72l-0.23.27a12.24,12.24,0,0,1,1-4.07c-6.07,2.36-9.12,7-12.51,12.21-1.48,2.29-9,10.8-11.54,6.67,1.13,5.49,4.51,12,9.45,14.93,8.23,4.93,13.55-4.81,19.07-9,9-6.85,21.29-7.1,32.07-8.08,10-.91,18.76,4,25.29,11.31C391.15,314.66,386.84,300.73,372.49,294.73Z" transform="translate(-70.16 -192.78)"/><circle class="cls-13" cx="180.35" cy="140.04" r="7.25"/><circle class="cls-13" cx="280.61" cy="139.29" r="7.25"/><path class="cls-13" d="M282.54,410.81s17.38-6.62,29.27,0C311.81,410.81,301.38,392.24,282.54,410.81Z" transform="translate(-70.16 -192.78)"/><path class="cls-13" d="M486.36,449.1c-0.78-10.11-4.91-20-9.81-28.77-6.62-11.83-17.9-20-28.29-28.35C431.68,378.71,408.64,359.12,422,336c6.33-10.93,13.51-23.32.72-36.08-3.77-3.77-7.43-5.68-10.87-5.68a9,9,0,0,0-3.89.88c0.38-1.8.67-3.56,0.87-5.28a10.23,10.23,0,0,0,.38-1.82,47.43,47.43,0,0,0,0-6.51,57.15,57.15,0,0,0-5.52-23.88c-26.43-57.21-79.79-64.42-101.5-64.87l0,1.08h-0.07l0-1.08-2,0-2,0,0,1.19H298L298,192.8c-14.66.3-43.75,3.69-69.24,23.47a107,107,0,0,0-28.2,27.55,49.94,49.94,0,0,0-4,7.83,19.71,19.71,0,0,0-6.55-1.22,12.57,12.57,0,0,0-5.44,1.17c-7.84-11.38-30.17-19.4-39.84-19.4h-0.38c-16.24.36-28.4,9.91-36.13,17.06-6.34,5.87-13.83,11.87-21.23,11.87-3.87,0-7.39-1.65-10.75-5l-6-6.1,1.72,10.14c7.57,22.65,24.71,35.29,42.13,35.29a34.25,34.25,0,0,0,6.62-.67c-0.25.47-.5,0.94-0.74,1.42a44.45,44.45,0,0,0-3.29,10.47c-4,19.67-18.77,38.52-18.77,38.52s9.91,0.6,14.23.6a69.85,69.85,0,0,0,16.8-2.89c8-2.66,13-9.06,18.83-15.25,3.49-3.73,6.7-7.91,10.8-11a20.09,20.09,0,0,1,6.26-3.32c1-.31,4.09-1.29,5-0.92,2,0.8,1.22,4.37,1.55,6.26,1,5.87,4.46,11.36,7.4,16.43,0.91,1.58,1.86,3.21,2.72,4.79,1.3,2.4,1.28,5.34,1.17,8.47l-0.29.74c-7.42.83-14.89,6.34-18.42,13.74-3.06,6.42-2.63,13.12,1.18,18.4a12.47,12.47,0,0,0,1.22,1.42,82.79,82.79,0,0,1-7.93,9.74c-16.54,17.54-28.31,40.14-31.24,64.19-1.28,10.52,0,19.73,1.5,30.25,0.73,5.25,1.23,9,3,14a29,29,0,0,0,4.09,7.35c0-.5,3.42-33.07,17.46-35.53a109.61,109.61,0,0,0-12.74,36.49C137,530.8,136.74,562.8,168.75,592L180,599.49l-4.26-10.32c-0.15-.37-14.12-34.88,1.63-52.64,0.7,18.19-.76,69.59,35.57,95l9.94,5.39-3.31-7.51c-0.09-.21-8.89-20.92,12-37.45a3.87,3.87,0,0,1,2.18,1.37c2.44,2.7,6.13,11.07,3.5,36.87-0.14,1.57-5.15,38.61,21.45,61.19l6.9,4.16-0.8-6.38c0-.28-3.25-27.72,15-44.72,3.9,2.4,14.84,13.83,1.17,59.31L280.73,708l4.32-1.15c0.56-.15,13.92-3.79,27.41-15.66,12.09-10.64,26.43-30.13,27.24-62.92,3.63,0.69,10.37,2.77,14.81,9,5.91,8.31,5.21,19.24-.11,36.41l-1.63,10.5,8.67-5.88a138.22,138.22,0,0,0,26-32.71c13.91-24.74,13.69-48.23,1.33-68.12,1.35-.5,2.18,0,4.18,0,11,0,17.38,14.81,17.82,41.69,0,0,10.85-11.73,14.3-17.65a56.37,56.37,0,0,0,6.26-15c4.28-18,.9-33.94-7.66-46.31,2.06,1.27,3,2.74,4.61,4.65,3.68,4.29,6.29,10.38,9,15.77,4.15,8.1,9.44,16.48,17.65,21.9l4.92,2.25-0.09-5.8c-2.49-13.28-1.34-29.47,4.74-43.31s-1.2-26.06-7.66-36.74l-0.41-.68c0.73-.18,1.51.73,2.34,0.73,5,0,9.46,2.41,11.11,6.61l5.14,10.57,0.68-11.33c0.1-1.74,1.86-35.33-15.92-54.45,7,3.4,16.91,11.94,23.42,20.39-0.67-.87,1.82-7.53,2.07-8.65A43.82,43.82,0,0,0,486.36,449.1ZM403.38,332c4.2-4.52,5.88-8.57,6.4-11.77,2.27-1.74,5.22-2.25,6,5.84,0,0,5.42-11.71-2.48-12.63a9,9,0,0,0-3.78,1,8,8,0,0,0-.56-1.5l-4.12-5.67c1-2.93,3.42-7.92,7-7.92,2,0,4.57,1.46,7.34,4.22,10.06,10,4.7,19.31-1.52,30-3.88,6.71-4.25,11.79-4.45,19.45-0.05,2-1.3,7.37-3.38,8.16-3.73,1.41-6-6.94-6.8-9.45,3.08-3,7.12-9.1,5.73-19.71a14.24,14.24,0,0,1-5.8,13c1.66-3.18,1.76-7-.71-11.71C402.28,333.22,402.72,332.75,403.38,332Zm-4.64-25-0.11.25,2.15,2.94c1.81,3.85,2.7,10-1.63,18.87-2.19.73-5.38-.9-9.55-10,0,0,0,13.63,7.75,16a6.39,6.39,0,0,1,.52.71c1.26,4.82.3,15.53-28.06,23.31,0,0,15.14-1.39,25.33-6.94,0.84,1.84,2.86,9.44-15,19.28,0,0,14-2,18.9-12.23,3.23,7.25,12,12.14,14,20.44a20,20,0,0,1-.89,11.37c-2.41,6.27-9.41,16.25-29.71,21.46,0,0,8.3.92,19.77-3.76-4.1,7.83-8.9,20.24-8.2,34.53-0.25,3-.21,5.36.28,6.68a34.33,34.33,0,0,1-13.38-5.16,82.74,82.74,0,0,0-36-13.33c3.76-8.4,9.95-28.33-15.83-28.33,0,0,16,6.67,10,21.33,0,0-2.95-4.28-11.17-2a0.67,0.67,0,0,0-.25.16,47.37,47.37,0,0,0-7.91-14.21c10,15,.33,27.66.33,27.66-8.6,7.68-24.08,10.71-34.7,6.62-12.7-4.88-17.44-19-12.95-31.39,1.34-3.69,3.12-5.54,6-7.9,8-9.33,4-25.33,4-25.33-4-28.67,15.33-32,15.33-32-30,0-21,38-21,38,2,7.33-3,13.72-3,13.72-1.31,1.72-2.46,3.39-3.47,5-14.79-8.77-25.2,8.61-25.2,8.61-4.43,8.85-1.51,16.81,1,21.17a81.91,81.91,0,0,0-28.94,12.16,33.1,33.1,0,0,1-9.17,4.19q-0.09-.77-0.21-1.56a94.75,94.75,0,0,0-2.09-15.93,66.63,66.63,0,0,0-1.68-7.85c-1.16-5-2.22-8.9-2.51-9.57l-0.09-.2c5.13,5.81,10.61,16.25,10.61,16.25A40.59,40.59,0,0,0,199,403.74c-6.25-5.81-12.65-12.65-10.9-22,1.68-9,10.83-13.62,14.37-21.59,4.88,10.21,18.9,12.23,18.9,12.23-18.69-5.93-15.81-16.91-14.95-19.25,10.19,5.53,25.28,6.92,25.28,6.92-37.67-10.33-27-25.84-27-25.84l-0.37-.63,0.76-.71-2.06-1.82-0.25-.23c-9-17.41,1.92-24.77,1.92-24.77a34,34,0,0,0-3.3,1.3l0.14-.19-0.6-1.33c-0.31-.69-0.61-1.38-0.88-2.07a71.45,71.45,0,0,1,17.33-22c12.1-10.27,26.84-16.7,42.21-20.26A162.08,162.08,0,0,1,283,258a206,206,0,0,1,45.8,1A155.59,155.59,0,0,1,357,265.66c18.16,6.21,36.15,16.94,44.31,34.92-0.59,1.73-1.26,3.49-2.07,5.26l-0.06.12c-0.75-.31-1.53-0.62-2.37-0.9A10.83,10.83,0,0,1,398.74,306.92Zm4.91,177.6a33.78,33.78,0,0,1-14.1,3.15c-15.32,0-26.47-10.92-26.58-11l-6.23-6.23,2.93,8.31a24.68,24.68,0,0,0,9.8,12.44l-1.14,0c-21.23,0-31.72-17.68-31.82-17.86L332.87,467l-0.09,7.3c-0.07,5.4,3.24,10.4,6.31,13.87-18.87-4-31.08-10.81-35.49-19.82a18,18,0,0,1-1.85-8.7c0.09-1.87.08-4.25,1.08-5.91,2.12-3.54,7-3.27,9.42-.94a22.54,22.54,0,0,0,5,3.79c2.16,1.18,6.33,1.31,8,2.64,0,0-7.44-5.82-7.75-11.45a29.31,29.31,0,0,0,4.45-2.93s-3.51,4.18,42.7,14.37c0,0-31.88-7.53-38.29-19.26a16.85,16.85,0,0,0,2.34-6c2.13,0.34,4.51.72,4.85,0.72A80.21,80.21,0,0,1,378.64,448a38.33,38.33,0,0,0,20.92,6.3c8.23,0,15.32-2.94,20-8.27,5.33-6.12,6.3-18.52,2.16-27.63a22.65,22.65,0,0,0-1.74-3.16c5.28,3.05,9.18,8.17,11.24,15,4,13.31.27,32.3-12.93,41-2.34,1.55-22.62,10.07-22.62,10.07C397.06,483,399.75,484.06,403.65,484.52ZM179.71,471.31c-13.2-8.74-16.94-27.73-12.93-41,2.05-6.82,5.95-11.93,11.23-15a22.71,22.71,0,0,0-1.73,3.15c-4.15,9.11-3.18,21.51,2.16,27.63,4.65,5.33,11.74,8.27,20,8.27a38.33,38.33,0,0,0,20.92-6.3,80.21,80.21,0,0,1,45.06-13.37h1a25.64,25.64,0,0,0,4,6.54c-4.56,3.28-16.9,10.09-41.93,11.29,0,0,20.82,3.07,45.86-7.57a29.12,29.12,0,0,0,5.6,3.34c-1.55,3.08-8.06,13.27-26.42,13.53,0,0,18.24,1.36,29.85-12.18,3.3,1.11,6.85,1.09,10.1,2.06,5.86,1.76,3.69,12.86,1.83,16.67-4.41,9-16.61,15.8-35.48,19.82,3.07-3.47,6.37-8.47,6.31-13.87l-0.09-7.3-3.64,6.33c-0.1.18-10.51,17.85-31.82,17.86-0.35,0-.76,0-1.14,0a24.68,24.68,0,0,0,9.8-12.44l2.93-8.31L235,476.65c-0.11.11-11.21,11-26.58,11a33.75,33.75,0,0,1-14.1-3.16c3.9-.46,6.59-1.51,8-3.14C202.33,481.38,182,472.86,179.71,471.31Zm13.09-52c-1.18,5.12-7.92,7.95-14.08,9.88a25.44,25.44,0,0,1,2.19-9.14c1.21-2.67,2.76-5.7,5.85-7.17C190.68,413.29,193.83,414.91,192.8,419.35Zm5.6,31c-5,0-11-2.2-16-7.9a14.28,14.28,0,0,1-2.66-4.82c2.32-.43,4.79-0.87,7.6-1.5C196.58,434.05,198.77,441.41,198.4,450.34Zm53.34-25.61c0-20,10.45-17.9,15.24-15.87a39.16,39.16,0,0,0-3.73,13.88C258.2,422.17,251.74,424.73,251.74,424.73Zm50.33,48.85c5.66,7.95,16.67,13.88,32.8,17.74a6.77,6.77,0,0,1,.05,1.53c-0.56,5.95-5.78,6.84-8.85,6.84a16.64,16.64,0,0,1-1.87-.11c-11.26-1.27-21.81-7.6-33.35-4.25-5.75,1.67-11.95,5.43-18.1,4.75-7.26-.81-5.48-7.13-1.59-11,11.77-3.78,20-9,24.71-15.5h6.2Zm-73.9,12.82a22.4,22.4,0,0,1-7.29,4.06l-0.75.2-0.38-.72A45.38,45.38,0,0,0,228.17,486.4Zm1.47,8.79a40.31,40.31,0,0,0,25.91-9.29,36.36,36.36,0,0,1-4.17,3.91L245,494.69l8-1.32c3.69-.61,7.15-1.33,10.42-2.11a9.47,9.47,0,0,0-1,4.1c0.08,12.92,18.23,8.68,25.31,6.26,3.83-1.3,7.44-2.54,10.28-2.54h0.19c11.25,0.12,39.76,15.5,41.76-5.76,0-.3,0-0.6,0-0.89,1.66,0.33,3.36.65,5.11,0.94l8,1.32-6.41-4.88a36.45,36.45,0,0,1-4.17-3.91,40.29,40.29,0,0,0,25.91,9.29,46.53,46.53,0,0,0,8.6-.83l1.24-.23c-1,.2-4.59,7.43-5.32,8.5-1.92,2.82-4,5.56-6.15,8.18-9.32,11.2-21.09,20.21-34.92,25-11.6,4.05-33.55,6.82-33.55-11.65,0,11.62-12.36,16.31-21.78,14.13a77,77,0,0,1-32.73-17l-0.71-.63a105.92,105.92,0,0,1-20.7-26.11A46,46,0,0,0,229.64,495.19Zm147.45-4.72a22.4,22.4,0,0,1-7.29-4.06,44.67,44.67,0,0,0,10.38,4.09l-0.39.73Zm43.07-57.15c-4.72-5.29-8.17-11.95-6-16.29a12.42,12.42,0,0,1,.88-1.47,16.74,16.74,0,0,1,3,4.54A27.17,27.17,0,0,1,420.16,433.32Zm-0.31,2.39a16.25,16.25,0,0,1-3.34,7.73,19.24,19.24,0,0,1-8.71,5.66c-2.9.94-6.45-8.21-6.73-10.29-0.88-6.57,2.25-11,9.2-8.5A44.63,44.63,0,0,1,419.85,435.7Zm-238-62.53c-0.3.12-.62,0.23-0.94,0.33l1.19-2.46a49.46,49.46,0,0,0,2.6-8.57l1.1-.24a11.29,11.29,0,0,0,4.31,2.62c-0.28.22-.56,0.45-0.86,0.66A27,27,0,0,0,181.83,373.17Zm19-103.6s9.26-18.05,34.32-20.84c0,0-19.73-2.42-33.79,10.27a117.41,117.41,0,0,1,6-11.11c7.06-6.24,19.61-12.14,41.83-11.9,0,0-19-5.59-35.56,2.7a99.21,99.21,0,0,1,34.82-28.88l0.32-.15a136,136,0,0,1,54.92-11.8l1,0c19.78,0.84,60.41,7.63,86.15,46.69-10-5.6-23.28-8.24-31.86-9.65-12.62-2.07-24.49-.25-36.94-0.77,19.55,0.82,40.35,2.75,58,11.78,5.07,2.6,9.62,4.27,12.62,9.38,2.08,3.54,7.35,16.64,5.73,28.65-15.88-20.39-44.57-28.08-69.17-31.23-12.84-1.65-26.33-1.61-39.28-1.61-38.08,0-61.84,13.42-75.08,24.68a86.69,86.69,0,0,0-13.23,14C198.57,286.66,195,280.13,200.83,269.57ZM114,291.41c-16.53,0-28.49-14-34.84-28.17a17,17,0,0,0,7.78,1.89c8.78,0,17-6.54,23.95-12.93,11.69-10.81,22-15.75,33.51-16h0.29c8.7,0,30.07,8,36.65,17.81a11.94,11.94,0,0,0-1.83,2.76c-13.57-19.17-44.73-8-44.73-8,40-4.22,41.43,12,41.43,12h0c-0.37-.28-0.76-0.57-1.21-0.85-17.43-11.09-40.37-1.53-56.35,8.47-5.23,3.27-12.41,6.47-18.59,2.43,9.54,6.26,21,.61,30.08-3.83,11.51-5.63,25.22-9.82,37.63-4.45,1.05,0.46,6.85,5.19,10,7.91v1c-5.1-3.24-13.06-3.82-18.1-3.82-5.32,0-10.68.68-13.65,1.73-8.74,3.09-16.2,9.88-22.7,20.65A31.43,31.43,0,0,1,114,291.41Zm31.78-10.68c19.7-4.93,15.06,4.5,15.06,4.5-11.15,2.22-28.9,9.3-28.56,31.87,0,0,5.42-32.88,31.26-25.07a16.48,16.48,0,0,1,3.87,3.18,23.41,23.41,0,0,0,1.58,4.45c-0.32,1.76-1.89,3.64-5.77,5.4,0,0-8.7,1.18-12.08,5.78,0,0,8-3.77,15.36-2.08-10.05,1.51-17,8.92-23.76,16.12-5.71,6.09-11.1,11.85-18.17,14.19A36.85,36.85,0,0,1,113,340.75a51,51,0,0,1-5.86-.35c5.36-5.62,9.36-18.62,13.26-32.7a83.7,83.7,0,0,1,3-9.74c6.78-13.47,14.6-21.61,23.89-24.9a42.68,42.68,0,0,1,12.31-1.5c6.58,0,12,1,15.29,2.82a51.2,51.2,0,0,0-3.38,4.24C154,272.72,145.78,280.73,145.78,280.73Zm27.1,11c-1.69-6.15,4.75-14.68,8.19-17.89A75.7,75.7,0,0,0,185,286.45c-6.39-20.76,3-26.92,8.11-28.7a2.6,2.6,0,0,0,.4,2.15c-3.19,10-5.38,22.79-2.51,33.68a7.26,7.26,0,0,0-2.08-.29,10,10,0,0,0-2.5.33c-3.58.21-6.18,1.26-7.45,2.86C174.32,295.28,173.62,294.34,172.89,291.69Zm8.65,10.8c2.76-2.76,5.3-4.22,7.34-4.22s3.85,1.73,5.06,3.68a26.46,26.46,0,0,0-2.32,10.39l-0.17.23-0.19.29s-0.1.19-.2,0.44a9,9,0,0,0-3.61-.92C179.53,313.32,185,325,185,325c0.71-7.29,3.17-7.6,5.31-6.32,0.23,3.65,1.92,8.74,7.77,14.5a12.9,12.9,0,0,0-1.43,9.78,14.24,14.24,0,0,1-4.66-12c-1.38,10.57,2.62,16.66,5.69,19.68,2.47,2.44-3,9.6-5.74,9.62a6.37,6.37,0,0,0,2.74-3.64c0.93-4.17-3.38-6.57-7.07-7.32a6.54,6.54,0,0,1,.25-0.81l-0.2-.56c-0.63-1.77,0-4.59-.44-6.57-0.75-3.19-2.51-6-4.14-8.84C176.83,321.81,171.47,312.54,181.53,302.5ZM166.6,364.09c2.14-4.49,8.35-10.45,14.58-12.21,2.77-.44,6.08-0.78,8.53.91,2.24,1.54,2.58,3.85-.12,5.19-2,1-4.1.44-6.17,0.66-4.85.52-11.69,4.74-13.09,9.64-0.74,2.59-.51,4.71.69,6.3l0.08,0.1a15.25,15.25,0,0,0,8.87,2.13c-1.32.26-1.26,5.78-1.43,6.86a6.06,6.06,0,0,1-1.48.13c-0.49,0-6.87-.29-9.57-4.37A15.32,15.32,0,0,1,166.6,364.09Zm8.6,2q-1.11,2.61-2.26,5a6.79,6.79,0,0,1,.29-2A6.3,6.3,0,0,1,175.2,366Zm305,91.12q0,0.82-.07,1.59a67.65,67.65,0,0,0-36.57-18.86s28,21.91,27.16,57.46a19.26,19.26,0,0,0-11.9-4.35,15,15,0,0,0-9.22,3.35c6.28,11.25,16.32,23.8,10.37,37.33A83.32,83.32,0,0,0,453,573.43c-0.14-1.63-4.64-5.91-5.65-7.57-7.85-12.88-13.23-32.17-30.95-33.93-1.32-.13-5.54.69-6.49,0,16.34,11.8,20.92,30.73,15.53,53.42-0.87,3.64-3.84,8.74-6.71,13.67-1.29,2.21-2.55,4.38-3.69,6.48-2.82-27.75-13.27-34-22.12-34a21,21,0,0,0-10.18,2.81l-2.22,1.38,1.48,2.15c13,19,12.72,40.89-.9,65.19a134,134,0,0,1-18.61,25.12c3.09-14.44,1.75-25.79-4-33.84-7.8-10.9-20.69-11.38-21.24-11.39l-2.57-.07v2.57c0,26.12-8.57,46.93-25.41,61.85a74.82,74.82,0,0,1-21.16,13.18c8.32-30.12,5.19-45.48.95-53.12-2.13-3.84-5.64-8.63-10.67-7.48-5.75,1.31-9.33,9.3-11.8,14a62.81,62.81,0,0,0-7.07,29.5c-19.82-21.12-17.32-52.4-17.29-52.7,2.16-21.12.55-34.81-4.77-40.7-7.92-8.77-17.91,6-21.15,12.51a37,37,0,0,0-3.22,21.74c-30.88-26.56-30.87-92.52-30.87-93.22l0-5-4,3c-17.65,13.14-14.17,38.14-10.43,52.1-19-20.59-26.59-44.44-22.51-71a103.39,103.39,0,0,1,14.37-38.55l2.29-3.34c-7.21-1-13.22-1-18.73,4.32-3.08,3-9.13,11.77-8.29,16.44-3.59-19.86-2.75-38.53,2.52-54.59,4.4-13.38,13.27-22.72,22.67-32.61a189.56,189.56,0,0,0,13.48-15.26,35.82,35.82,0,0,0,5.31.24s7.87,17.21,7.58,17.31c-11.67,4-22,11.85-30.5,20.65a52.89,52.89,0,0,1,12.43-8,28.63,28.63,0,0,0-7.5,12.42,44.19,44.19,0,0,0-1.63,8.22,35.93,35.93,0,0,0-10.27,11.55,79.54,79.54,0,0,0-7.17,17.18c3.1-6.46,10.61-15.3,17.33-20.45,0.9,11.85,6.27,23.05,15.28,29a62.74,62.74,0,0,0,6.5,2.68l-3.72,3.07c-17.52,14.58-18,32.64-16,54,1.66-12.56,4.14-25.23,10.25-36.48,4.57-8.41,9.8-12.16,16.41-12.33a41.69,41.69,0,0,0,11.73,4.95c-3.27,3.67-6.47,7.27-7.94,12.15-2,6.76,1,11.35,2,17.8-2.7-12.56,9.93-27.92,17.75-21,2.19,1.93-1.51,6.35-2.48,8.45-3.6,7.84-5.95,16.28-8.21,24.58a118.42,118.42,0,0,0-4.25,25.91c0.77-5.62,4.19-9.81,6.82-14.65,2.92-5.38,4.05-11.17,5.86-17,2-6.43,5.53-14.59,12.09-17.72,6.15,17.2.12,36.47-10,50.79,12.12-3.32,20.24-23.68,19.42-35.68,10.16,3.56,3.8,22.33.49,28.6-4,7.65-10.45,13.46-15.72,20.21-6.2,7.95-8.07,15.45-7.78,25.46,6.26-11,7.75-20.88,23-35.55,6.7-6.45,7.93-19.95,17.64-23,7.08-2.24,6.93,3.92,6.41,9.33-0.88,9.06-1.44,17.3-.37,26.43a484.75,484.75,0,0,1,3.37,50.8,121.94,121.94,0,0,0,2.91-33.22c-0.58-10.18-2.79-21.71.72-31.61,1.69-4.77,6.4-17.4,11-11.68,4.83,6,1.2,26,.82,32.81a124.4,124.4,0,0,0,6,21.71c-1.19-16.46-6-32.71,2.49-48.06,3.51-6.32,5.67-7.5,9.18-.61,4.56,9,1.3,29.91-.06,39.23-3.62,24.87,5.15,36.25,10.26,49.37-3.75-11.08-9.4-30.6-6.63-42.1,2.83-11.75,4.89-22.57,4.35-34.74-0.2-4.49-2.38-21.1,3.89-13.9,5.65,6.48,4.41,22.93,7.23,30.68,5.14,14.12-2.63,16.82-2.84,29.9,8.08-8.8,8.54-13.51,7.69-24.77-0.44-5.85-1.41-11.63-2.4-17.41-0.4-2.33-1.95-21.55-3.12-22,13.15-7.86,13.38,21.42,14.58,34.53,0.62-4.44.06-33.15,3.66-34.77,3.39-1.53,9.59,11.29,11,14.13,5.67,11.17,8.11,23.39,15.68,33.68s13.78,15.84,15.67,29.13c0.15-11.56-5.66-23.8-11.69-33.83s-9.64-17.33-13-29c-1.73-6-4.91-22.1,4.39-23.78,7.56-1.36,8.35,8.69,8.91,13.71,1.29,11.43,5.74,19.08,12.46,28.46-6.76-9.61-7.69-19.38-7.39-30.86,0.13-5.21-1.69-18.07,2.11-22.47,4.77-5.53,5.46,1.67,7.11,6.26,3.69,10.26,10.18,16.16,20.94,19.68,8.9,2.91,13,6,19.42,13.55-4.35-12.7-14.88-14.89-25.44-20.63-10-5.45-12.79-19.72-7.6-32.49,7.41,3,10.27,11,10.25,18.54,6.9-4.46-1-15.93-2.24-21.52-2.86-12.47,4.63-12.59,15.93-8.05,16.42,6.58,36.85,14.42,42.23,37.77,1.78-13-4.26-22-12.16-29-6.55-5.83-16.62-8.13-23.9-13-2.64-1.78-7.88-5.5-6.71-9.4,1.45-4.82,9.91-3.24,13.35-2.58,7.1,1.35,13.08,4.68,19.76,7.12-3.63-1.91-13.12-8.35-18.74-14.83l0.12-.08H417.9c-0.68-.79-1.3-1.58-1.85-2.36a50,50,0,0,0,6.41-2.3,32.46,32.46,0,0,0,9.34-9.79c9.66,3,21.66,12.32,25.81,18.26-3.62-11-12.63-18.88-22.8-23.94,4.15-9.52,5.22-21,2.2-31a28.58,28.58,0,0,0-14.3-17.3c5.37,0.29,11.5,4.37,15.51,7.2,9.93,7,18.21,14.29,29.08,20.2-4.86-2.65-9.16-9.71-13.19-13.65a86,86,0,0,0-15.71-12.67c-8.72-5.22-18.17-8-19.3-19.07,6.46-13.23-.39-21.76-4.58-25.4a25.82,25.82,0,0,0-3.36-2.8,11.1,11.1,0,0,0,4.55-3.28c5.24,14.2,17.48,24,29.41,33.53,10.78,8.62,21.92,17.53,27.38,29.51a91.6,91.6,0,0,1,7.79,28.37C480.36,454.3,480.29,455.82,480.23,457.16Z" transform="translate(-70.16 -192.78)"/><polygon class="cls-13" points="71.73 273.3 71.73 273.3 71.73 273.31 71.73 273.3"/><path class="cls-13" d="M141.88,466.08h0Z" transform="translate(-70.16 -192.78)"/><path class="cls-13" d="M242.78,364.06c25.38,17.33,36.62-18,36.62-18C262.74,371.39,242.78,364.06,242.78,364.06Z" transform="translate(-70.16 -192.78)"/><path class="cls-13" d="M278.95,331.95c-5-.69-8.23-3.47-11-6.82a69.74,69.74,0,0,0-8.59-8.35c-8.09-7.12-22.17-7.87-31.6-3.06-6.54,3.34-12.33,11.3-15.67,20.49,2.09-3.62,5.82-6.93,10.26-9.51-0.54,5.82,3.92,15.11,5.17,17.56-1.94-1.37-4-2.88-6.1-4.56a26.85,26.85,0,0,0,22.26,16.46,30.53,30.53,0,0,0,7.5.93h0c11.61,0,21.09-6.2,24.78-16l0.71,0.12c11.15,1.71,16.44-11.29,16.45-11.31C291.24,332.51,283.25,332.54,278.95,331.95Zm-17.65-3.44A11.53,11.53,0,1,1,249.84,321,47.16,47.16,0,0,1,261.3,328.51ZM251.17,351.1h0c-8.49,0-15.94-3.86-19.93-10.32-2.37-3.84-6.23-14.91-4.64-16.75a24.53,24.53,0,0,1,2.44-2.46,35.1,35.1,0,0,1,13.46-2.32A15.52,15.52,0,1,0,266,333a25.89,25.89,0,0,0,6.16,4.79C268.47,347.55,258.74,351.1,251.17,351.1Z" transform="translate(-70.16 -192.78)"/><path class="cls-13" d="M191.95,331c0.07-.54.16-1.1,0.26-1.67A11.12,11.12,0,0,0,191.95,331Z" transform="translate(-70.16 -192.78)"/><path class="cls-13" d="M408.79,332a11.25,11.25,0,0,0-.26-1.67Q408.68,331.16,408.79,332Z" transform="translate(-70.16 -192.78)"/><path class="cls-13" d="M313.82,270.58c-17.71,13.63-29.41,0-29.41,0C299.07,301.25,313.82,270.58,313.82,270.58Z" transform="translate(-70.16 -192.78)"/><path class="cls-13" d="M371.23,313.9c-9.43-4.81-23.51-4.06-31.6,3.06a69.77,69.77,0,0,0-8.59,8.35c-2.79,3.35-6,6.13-11,6.82-4.3.59-12.29,0.56-14.15-4,0,0,3.56,8.75,11,11h0s2.9,29.79,38.56,26.66c0,0-32.11-3.16-32.08-25.71,3.76,9.06,12.58,14.87,23.42,15.23,8.65,1.73,21.27-.06,33.39-17.54a54.31,54.31,0,0,1-11.42,8.62,24.24,24.24,0,0,0,2.44-3.27c0.08-.13,6.12-11.46,5.49-18.17,4.44,2.58,8.18,5.88,10.27,9.51C383.57,325.21,377.77,317.24,371.23,313.9Zm-30.62,12.42a82.45,82.45,0,0,1,10.87-6A11.53,11.53,0,1,1,340.61,326.32ZM367.74,341c-4,6.46-11.45,10.32-19.93,10.32-7.58,0-17.31-3.55-21-13.33,3.34-1.72,5.8-4.48,8.48-7.07,0,0.3,0,.6,0,0.9a15.53,15.53,0,1,0,25-12.26,38.32,38.32,0,0,1,9.67,2.24,24.74,24.74,0,0,1,2.44,2.46C374,326.06,370.12,337.12,367.74,341Z" transform="translate(-70.16 -192.78)"/><path class="cls-13" d="M305.41,346.05s16.67,6,12,39.34C317.41,385.39,334.08,346,305.41,346.05Z" transform="translate(-70.16 -192.78)"/><path class="cls-13" d="M238.87,390.52a5.34,5.34,0,0,0-3.11,3,70,70,0,0,1-9.78-2.59c1.55-3.69,3.67-4.73,3.67-4.73a7.6,7.6,0,0,0-5.24,4.17,62.07,62.07,0,0,1-8-3.63,27.26,27.26,0,0,1,3.93-7.08,17.88,17.88,0,0,0-5.36,6.27,40.8,40.8,0,0,1-8.47-6.27,38.74,38.74,0,0,0,7.79,7.9,13.08,13.08,0,0,0,.33,9.33,25.47,25.47,0,0,1,1.13-8.29,38,38,0,0,0,7.9,4.1,17.51,17.51,0,0,0,.67,7.62,27.56,27.56,0,0,1,.83-7.08,44.11,44.11,0,0,0,10.23,2.09,10.61,10.61,0,0,0,1.44,5,12.54,12.54,0,0,1-.13-4.9,43.2,43.2,0,0,0,10.65-.6,78.93,78.93,0,0,1-10.23-1.06A10,10,0,0,1,238.87,390.52Z" transform="translate(-70.16 -192.78)"/><circle class="cls-12" cx="184.99" cy="137.02" r="3.49"/><circle class="cls-12" cx="285.25" cy="136.26" r="3.49"/></svg>