<svg id="Layer_1" data-name="Layer 1" xmlns="http://www.w3.org/2000/svg" viewBox="0 0 417.92 504.7"><defs><style>.cls-1,.cls-2,.cls-3,.cls-4,.cls-5,.cls-7{fill-rule:evenodd;}.cls-2{fill:#bf0000;}.cls-3{fill:#ffe9c7;}.cls-4{fill:#666;}.cls-5,.cls-6{fill:#fff;}.cls-7{fill:#ffd600;}</style></defs><title>pirate5</title><path class="cls-1" d="M228.6,172.73c-6.26,12.46-8.68,27.81-9.36,44.47-8.11,1.27-8.77-3-10.92-6.24a35.87,35.87,0,0,0,7,14.82c-3.12.49-6.24,1.71-9.36-.78q6.73,21.89,21.84,31.21c-4.11,13.33-4.69,28.82,2.34,49.15,3.44,10,.31,17.42-2.34,25.74-4.39,13.78-3.19,28.72,13.26,44.47-7.43,10.64-16.49,19.6-16.38,39,0.05,10.15-5.5,20.29-10.92,30.43,9.49-3.49,18.66-6.79,16.38-13.27q-0.39,6.24-.78,12.48c6.38-5.85,11.07-12.26,13.26-19.5L245,431c8.61-6.83,13.54-16.11,17.94-25.75a68.9,68.9,0,0,1-9.36,26.53c-2.18,3.58-2.09,9.35,0,17.17-11,62,35.61,71.33,63.19,70.21,15.08-.61,29.93,3.07,45.25,4.68,45.22,4.78,55.36-15.63,65.53-34.33,10.86-19.94,23.8-34.29,43.69-43.69,14.63-6.91,22.21-22.09,29.65-35.89-21.86,47.75-37,96.12-28.09,146.67,10.81-29.7,27.32-55,50.71-74.89,2.19,19.1,8.66,39.12,30.43,62.41-6.76-34.58,19.35-59.57,44.47-91.28,41.11-51.9,30.46-102.52-17.16-141.21,1.51-10.67-2.4-20.94-10.14-32-5.77-8.23-5.05-16.1-3.9-23.4,28.66-182-199.31-278.5-313.48-135.4-6.6,4.89-12.14,11-13.47,22.45Q228.15,155,228.6,172.73h0Z" transform="translate(-205.97 -51.86)"/><path class="cls-2" d="M233.39,202C351.07,180,444.61,197,509,261c7.18-4.84,15.37-8,25.81-7.37,14.57-11.94-25-46.86-58.07-76.51,22.92,15.26,42,30.89,58.07,44.24,16.35,13.63,18.1-4.12,10.14-23-14.39-34.21-49.55-61.64-99.55-85.73,42.05,10.79,72.89,31.3,98.63,56.23-13.25-20.58-32.28-41.17-67.29-61.76a249,249,0,0,1,26.73,9.22C479.76,82.51,440.34,69,393.78,64.61c23.78,6.18,45.18,12.84,58.07,21.2C354.18,49.72,306.15,77.71,268.42,119c40-5.87,68.76-.55,97.71,4.61-47.28-4.19-90.25-3.7-112.46,19.36,56.86-13.68,111.41-5.71,165,11.06-52.24-11.27-104.82-18.66-156.7-4.61-18.14,4.91-19.79,13.82-24,21.2,43.93-2.6,77.8,1.7,103.24,11.06-28.12-4.29-57.8-11.54-88.49-4.61C232.52,181.64,234.3,194,233.39,202h0Z" transform="translate(-205.97 -51.86)"/><path class="cls-3" d="M248.35,226.3q4.48,3.46,5.71,6.93a81.45,81.45,0,0,0-15.5-4.08c15.13-12,28.47-20.09,38-7.63,3.56,4.64,8.87,7.63,13.3,11.45-1.51-4.4-1.78-9.45-4.52-13.21-12.59-17.32,42-13.19,58.81-11.81-22.58,13.44-43.21,28.83-60.35,47.71-4.65-11.3-10-22.46-35.47-29.36h0Z" transform="translate(-205.97 -51.86)"/><path class="cls-3" d="M288.72,265.44c18.38-20.71,42.28-40.52,75-59.13,63.61,6.62,105.35,30.35,134.16,65.24-3.2,5-9.35,7.39-15.09,4.08-8.34-4.81-19.57-12.78-35.48-19.16,4.89-3.54,9.79-4.22,14.68-4.49q-5.92-4.69-21.61-7.75a33.74,33.74,0,0,1,13.87-4.08c-13.66-5.3-28.07-6.12-42.82-4.89l5.71-6.93c-11.76.2-23.17,2.79-33.85,10.6l1.63-6.12c-17.92,9.88-28.11,25.75-36.3,43.22-2.11,4.52-4.4,4.73-4.89.41-0.61-5.4,0-10.87,0-16.31-3.54,5.44-4,11.14-5.71,16.31-1.93,5.8-7.67,5.3-11.42-.82-2.88-4.69-2.24-10.06-1.22-15.09a10.73,10.73,0,0,0-5.3,9c-4.49-4.21-6.12-10.33-7.34-16.72-4.1,19.1,1.32,31.15,17.94,39.15,15.5,7.46,14.47,13.87,12.64,20.8,8.29-1.22,11.32,2,15.09,6.12,8.38,9.17,21,9.16,33.11,13.37-8.6-5.71-16-11.42-19.16-17.12,12.64,2.24,23.79.75,34.25-2.45q-3.06,6.52-11,9.79c6.56-1,12.88-2.68,18.35-6.93-1.91,5.1-6.8,9.45-13.05,13.46,18.32-4.89,34.08-16.63,43.55-39.47a53.18,53.18,0,0,1,3.26-7.34c3.16-5.27,9.44-6.32,19.17-4.49q14.27,6.93,20.39,13.87a6.76,6.76,0,0,0,7.75,0,95.63,95.63,0,0,1,17.53-22c8.17-7.37,17.72-11.22,28.14-6.93,9.89,4.07,12.21,10,13,15.9,1.58,11.15-3.11,21-8.56,29.77-3.22,5.2-7.89,9.42-11,14.68a16,16,0,0,0-2,7.34c-0.55,11.42-4.75,16.19-10.19,20q6.93-12.85-5.71-22.43c8.94-7.14,13-16.9,13-30.58,0-6.19,4.78-7.66,7.75-2,2.18,4.14,0,9.24-.41,13.86,4.69-9.77,11.92-20.59,3.67-31.4-3.17-4.16-10.72-3.7-13.86.82-8.72,12.52-16,20.12-27.32,19.58,9,7.88,12.43,15.45,9,22-6.4,12.15-8.93,8-9.79,3.27-1.74-9.58-3.78-18.91-15.9-25.28,11.69,28.1-1.36,48.69-50.57,58.31a48.48,48.48,0,0,0,23.65.41c5.48-1.21,5,.48-1.22,4.49-5.79,3.76-13,5.3-20.8,6.12a31.49,31.49,0,0,0,20-.82c-5.57,10.26-16.32,16.89-33.85,6.53-6.06-3.59-9.77-11.14-20.8-18.76l10.6-3.67c-15.6,1.71-30.35-1.7-44.86-6.52,17.69,9.11,33.47,16.58,35.89,22.43l-13-3.26c5.3,4.07,11,8.42,19.57,14.68a25.91,25.91,0,0,0-15.09-3.67q-7.14-8-29-15.9c1.93-8.83-2.8-19.91-12.64-26.5-7.11-4.77-10.1-6.91-10.6-12.23-0.58-6.1-.82-12.23-1.23-18.35-1.93,6.7-2.12,14-11,18.35q-8.15,1.63-9.79,8.16l7.34-2.45-4.48,6.12,9-2.45a22.64,22.64,0,0,0-7.75,11.83c3.26-5,6.92-9.26,13.46-7.75l-2.86,9q10.61-5.3,19.57-.82c3.13,4.35,5.51,8.64,6.12,13.05S357,360,354,358c-5.27-3.45-11.09-5.05-15.9-2-7.39,4.63-13.17,12.84-23.65,14.27-30.83,4.23-36.08-34,0-32.21-0.14-1.63-3.52-1.13-8.71-5.34-15-12.19,7.58-37.09,10.34-43.18-15-3.84-24.92-6-27.32-24.06h0Z" transform="translate(-205.97 -51.86)"/><path class="cls-1" d="M325.44,347c2.9,11.84-4.62,15.37-15,16.1,8.37-3,13.74-8,15-16.1h0Z" transform="translate(-205.97 -51.86)"/><path class="cls-1" d="M330.81,244.69c-2.19,3.28-.54,15.2,6.13,3.06,10-18.16,31.84-27.4,59.81-30.67-27.48-1.95-51.32,5.72-65.94,27.6h0Z" transform="translate(-205.97 -51.86)"/><path class="cls-1" d="M455.4,292.6c42.23,11.47,29.66,37.78-5.37,53.29a87.39,87.39,0,0,0,18.4-19.55c3.23-4.95,4.12-6.3-1.53-6.52-4.22-.16-8.43.51-12.65,0.77,4.6-2.56,9.63-4.46,13.8-7.67,4.73-3.63,3.69-5.59.38-8-4.1-3.06-7.92-8.18-13-12.27h0Z" transform="translate(-205.97 -51.86)"/><path class="cls-3" d="M233.43,236.25l5.75,5-13.42-.38c22.58,5.28,34.16,13.56,46.46,27.3a5.21,5.21,0,0,1,2.77-2.79c-10.2-14.55-24.68-26.73-41.56-29.11h0Z" transform="translate(-205.97 -51.86)"/><path class="cls-4" d="M242.25,258.1a51.86,51.86,0,0,0,12.65,19.17q-8.05-2.11-11.5-8.82c-1,6.77,1.6,13.54,5.75,20.32-12.08-9.65-12.21-20-6.9-30.67h0Z" transform="translate(-205.97 -51.86)"/><path class="cls-3" d="M243,327.11q14.18,9.2,28.37,7.67c-3.84,6.58-4.47,14.76,1.92,26.45a43.05,43.05,0,0,0-24.92,10Q232.47,357.59,236.5,344c6,7.35,13.29,13.1,23.38,15.33-16-11.31-19.3-21.92-16.87-32.2h0Z" transform="translate(-205.97 -51.86)"/><path class="cls-3" d="M281.35,335.93c6.62-3.62,10.67-2.27,7.67,1.54-4.28,5.42-7.55,10.6-5.37,17.63-7.45-6.29-9.51-15.22-2.3-19.17h0Z" transform="translate(-205.97 -51.86)"/><path class="cls-3" d="M353.81,280c10,0.89,17.21-5.43,26.83-10.35,18.71-9.58,31.79-.57,38.34,15a33,33,0,0,0-3.83-18.4q7.67,0.38,12.27,3.83c-3.06-5.81-10.35-9.52-19.55-12.27l7.67-3.45c-11.23-2.45-23.34-5.68-36,6.13A160,160,0,0,1,353.81,280h0Z" transform="translate(-205.97 -51.86)"/><path class="cls-3" d="M361.09,304.49c21,3.69,40.36,3.55,55.2-11.5l-1.92,6.52c6.39-4.6,11.89-9.2,17.25-13.8-19.73,30.43-51,30.81-70.54,18.79h0Z" transform="translate(-205.97 -51.86)"/><path class="cls-5" d="M366.29,284.19q-2.87,3.28-12.29,3.28c3.82,9.15,13.12,10.43,23.5,11.94-6.83-4.78-12-7.16-11.21-15.21h0Z" transform="translate(-205.97 -51.86)"/><path class="cls-5" d="M399.2,273.26c6.79,3.14,14.7,8.48,14.19,13.8-3.42,7.1-11.58,5.78-19.36,9.6,9.21-6.9,10.2-11.9,5.17-23.4h0Z" transform="translate(-205.97 -51.86)"/><circle class="cls-6" cx="171.78" cy="231.92" r="4.91"/><path class="cls-2" d="M515.8,423.46q-30.72,31.13-38.51,90.11C492,497,506.79,480.65,521.53,471.79c-0.83-7,.27-13,1.64-18.84-10.79,6.12-20.62,18-30.31,30.72,5.56-21.46,14.08-40.95,22.94-60.21h0Z" transform="translate(-205.97 -51.86)"/><path class="cls-2" d="M555.12,342.76c-1.62-5.11,2-8.21,7.37-4.1,18,13.85,19.39,46.42,7.78,93.39,15.05-24.42,23-54,18.43-92.57,25.06,36.83,23.36,76.55-4.91,112.24C570,469.08,553.61,485,540.38,504.15c-9.83-34-3.31-63.23,13.52-94.21,10.93-20.12,8.55-44.09,1.23-67.18h0Z" transform="translate(-205.97 -51.86)"/><path class="cls-1" d="M560.86,348.09q-0.82-11.26,4.91-1.23c9.18,20.9,6,38.92,2,56.53,1.4-18.43,1.47-36.87-7-55.3h0Z" transform="translate(-205.97 -51.86)"/><path class="cls-1" d="M557.17,414c-14.27,24.59-22.74,50.63-15.16,80.7,0.07-23.28,4.57-43.49,18.84-56.94q-7.78,2.87-13.93,10.65c1.12-13.77,5.78-24,10.24-34.41h0Z" transform="translate(-205.97 -51.86)"/><path class="cls-1" d="M596.49,373.48c-1,25.53-5.46,49.29-15.15,70.46a83,83,0,0,0,20.07-55.3q-2.25,6.76-4.5,11.88c0.55-8.33.14-17.61-.41-27h0Z" transform="translate(-205.97 -51.86)"/><path class="cls-2" d="M561,274.17c17.57,27.42,14.64,41.65,2.4,49.9a30.11,30.11,0,0,0,0-21.56q-11.38,31.74-24.35,26.75c14.67-17.7,19-36.33,22-55.09h0Z" transform="translate(-205.97 -51.86)"/><path class="cls-3" d="M472,356c2.13-3.89,5.47-3,8.78-.4,5.4,4.31,8.47,8.49,9.18,13.58,4.53,32.43-3.21,58-39.92,63.88,6.19-12.31,8.86-25.34,9.58-38.73,0.87-16.18,6.25-27.12,12.38-38.33h0Z" transform="translate(-205.97 -51.86)"/><path class="cls-7" d="M518.72,345.23c3-9.48-5.5-15.54-10.38-7.19-45.79,78.34,69.26,109.55,30.74,3.2a69.87,69.87,0,0,1-7.58,9.18c17.82,53.42-29,46.28-12.78-5.19h0Z" transform="translate(-205.97 -51.86)"/><path class="cls-5" d="M520.32,357.21c2.53,0.66,6.12-1.73,7.58-3.2,9.88,34.75-11.55,32.8-7.58,3.2h0Z" transform="translate(-205.97 -51.86)"/><path class="cls-1" d="M522.71,405.12c6.46,2.61,8.63-1.68,3.19-4-18.18-7.74-20.72-21.1-24-34.73,1.15,14.27.38,30.49,20.76,38.72h0Z" transform="translate(-205.97 -51.86)"/><path class="cls-4" d="M285.17,364.4c2.39,3.59,5.18,7.05,10.78,9.58a44.9,44.9,0,0,0-13.57,11.18c0.53-2.26,1.86-5.72,2.39-8-5.65,1.6-11.38,7.32-16,13.17a12.55,12.55,0,0,1,3.19-10c-10.25,3.05-18.23,11.44-26.35,18.77,4.39-6.39,9.31-14.38,14.77-17.57-4.66-.4-9.71,2.79-14.37,5.59a70.84,70.84,0,0,1,39.12-22.76h0Z" transform="translate(-205.97 -51.86)"/><path class="cls-4" d="M316.71,375.58c7.19,3.26,13,7.52,16,14,1.06-3.73,2.66-7.45-.53-11.18,10.38,0.4,17.43,3.46,25.68,12.37q0.4-5.79-5.59-10c12.91,2.26,22.49,7.85,31.14,14.37-6.7-8.22-8.25-20.8-47.9-30.08-1.46,3.42-9.85,9.59-18.77,10.52h0Z" transform="translate(-205.97 -51.86)"/><path class="cls-3" d="M396.76,379.4c8.65,13,15.51,26.72,17,43.5,1.46,16,8.56,27.25,17.32,36.39,26.74-40.46,2.45-69.7-34.36-79.89h0Z" transform="translate(-205.97 -51.86)"/><path class="cls-3" d="M392.21,420.62c3.6,9.57,9.08,20.09,18.74,32.7l2.27-6a40.33,40.33,0,0,0,15,16.78c-4.74,8.62-6.62,17.54-9.94,25.87C408.59,514.45,384,519.84,353,515c-13.79-2.14-28.14,0-43.44-1.42-48-4.39-49.42-27.18-49.69-47.48,13,11.75,29.34,14,48,11.37a124.57,124.57,0,0,1,40.32,1.14c32.73,6.15,42.47-.32,48-10.23,5.31-9.55,3.09-20.28,3.12-30.42-5.22,17.29-9.09,35.69-35.21,31.56-17.6-2.79-36.26-6.11-57.36-1.42-18.95,4.21-31.92,2.72-42-7.11-5.6-9.86-5.91-18.52-4-26.73,2.25-9.52,5.4-18.9,6.81-29,2.32,7.54,1.41,14.9,0,23.6-2.17,13.39,5.68,21,18.74,22.46-3.59,3.13-9.84,4.93-16.47,6.54a108.85,108.85,0,0,0,34.36-7.11c17-6.3,34.41-3.79,51.11-.28,11.57,2.43,23.1,3.17,34.64,1.14-4.83-.95-9.47-2.08-12.78-4.55,4.36-5.7,4.62-13.87,5.11-21.89q6.1,5,7.67,8.81c2.66-3.5,2.66-8.34,2.27-13.36h0Z" transform="translate(-205.97 -51.86)"/><path class="cls-5" d="M284.89,416.45c1,0.08,2.27,1.89,3.71,5.39,0.22-2.67,1.8-5,3.08-5.16,5.52-.83,10.62-1.22,15,0.52,4.88,1.94,4.68,14.52,2.7,18.84-3.79,8.28-13.95-2-17.58-7.76,1.15,3.67,2.72,8.63.62,8.5-9.94-.64-18.14-21.22-7.5-20.32h0Z" transform="translate(-205.97 -51.86)"/><path class="cls-5" d="M310.38,420.46c0.56-6.86,20.24-5.45,19.85,1.71-0.3,5.38.1,11.57-3.41,15.66-2.23,2.6-8,3.57-10.23.93-3.5-4.23-6.64-12.82-6.2-18.29h0Z" transform="translate(-205.97 -51.86)"/><path class="cls-5" d="M310.69,385.42c-6.07,7.33-14.86,13.29-25.89,18.14-1.24,1.86-2,4.6,0,6.2,5.19,4.07,17,7.45,22,1.71,2.59-3,2-7.13,2-10.7a49.34,49.34,0,0,0,2.87,8.32c2.19,5.78,11.78,7.43,14.54,3,1-1.64,1.69-4.56,2.27-6.86,0.23,9.45,7.68,12.25,16.75,9,2-.73,1.55-4,2.33-6-0.57,4.45-.73,8.89.78,13.34-1-1.19-1.76-2.74-3.1-3.57-3-1.82-6.54-1.86-10.08.16-0.73.42-1.93,0.71-2,1.55-2.06,20.35,14,29.62,16.74,7.29,4.83,9.75,7.84,14.32,15.2,6.82a20.15,20.15,0,0,0-.62-18.3q5-.46,4.5-4.65c-2.54-1-4.88-1.29-7.91-3.72-2.1,1.58-2,3.71-2.32,5.74a16.16,16.16,0,0,0-3.1-7.75c-7-1.4-12.45-4.79-18.14-7.91-1.14,3.05.25,6.1,2,9.15-12.69-5.7-21.13-13.16-28.84-20.93h0Z" transform="translate(-205.97 -51.86)"/><path class="cls-1" d="M305.21,480.45c-1.28-.12-2.09,1.53-2.9,2.78,1.25-.36,2.46-0.08,3.38-0.36,1.09-.33.9-2.29-0.48-2.42h0Z" transform="translate(-205.97 -51.86)"/><path class="cls-1" d="M258.64,476.11c-1.27-.11-2.09,1.53-2.9,2.78,1.25-.36,2.46-0.08,3.38-0.36,1.09-.33.9-2.29-0.48-2.42h0Z" transform="translate(-205.97 -51.86)"/><path class="cls-1" d="M308,496.39c-1.28.08-1.83,1.84-2.44,3.2,1.18-.55,2.41-0.46,3.29-0.88,1-.49.53-2.41-0.85-2.32h0Z" transform="translate(-205.97 -51.86)"/><path class="cls-1" d="M261.43,492.06c-1.27.08-1.83,1.84-2.43,3.2,1.18-.55,2.41-0.46,3.28-0.88,1-.49.53-2.41-0.85-2.31h0Z" transform="translate(-205.97 -51.86)"/><path class="cls-1" d="M314.5,480.34c-1.28.08-1.83,1.84-2.43,3.2,1.18-.55,2.41-0.46,3.29-0.88,1-.5.53-2.41-0.85-2.32h0Z" transform="translate(-205.97 -51.86)"/><path class="cls-1" d="M267.92,476c-1.28.08-1.83,1.84-2.43,3.2,1.18-.55,2.41-0.46,3.28-0.88,1-.49.53-2.41-0.85-2.32h0Z" transform="translate(-205.97 -51.86)"/><path class="cls-1" d="M402.76,486.24c-0.13,1.27,1.51,2.11,2.75,2.93-0.35-1.25-.05-2.46-0.32-3.39-0.32-1.1-2.29-.92-2.43.46h0Z" transform="translate(-205.97 -51.86)"/><path class="cls-1" d="M415.15,415.61c-0.13,1.27,1.51,2.11,2.75,2.93-0.35-1.25-.05-2.46-0.32-3.38-0.32-1.1-2.29-.93-2.42.45h0Z" transform="translate(-205.97 -51.86)"/><path class="cls-1" d="M473.08,394.34c0.75,1,2.53.58,4,.38-1.09-.71-1.67-1.8-2.49-2.32s-2.32.82-1.51,1.95h0Z" transform="translate(-205.97 -51.86)"/><path class="cls-1" d="M312.47,496.75c-0.79.79-.16,2.27,0.22,3.51,0.46-1,1.33-1.69,1.67-2.46a1.12,1.12,0,0,0-1.89-1h0Z" transform="translate(-205.97 -51.86)"/><path class="cls-1" d="M355.32,497.48c-0.8.79-.16,2.27,0.22,3.51,0.46-1,1.33-1.69,1.67-2.46a1.12,1.12,0,0,0-1.89-1h0Z" transform="translate(-205.97 -51.86)"/><path class="cls-1" d="M323.21,478.15c-1.23.37-1.38,2.2-1.66,3.66,1-.8,2.25-1,3-1.59s0-2.46-1.34-2.07h0Z" transform="translate(-205.97 -51.86)"/><path class="cls-1" d="M276.64,473.82c-1.22.37-1.38,2.2-1.66,3.66,1-.8,2.25-1,3-1.59s0-2.46-1.35-2.07h0Z" transform="translate(-205.97 -51.86)"/><path class="cls-1" d="M396.56,466c0.16,1.27,1.94,1.72,3.33,2.25-0.62-1.14-.6-2.38-1.07-3.23-0.55-1-2.43-.39-2.26,1h0Z" transform="translate(-205.97 -51.86)"/><path class="cls-1" d="M325,487.77c-1.12.63-.85,2.45-0.81,3.94,0.82-1,2-1.46,2.58-2.22s-0.57-2.4-1.77-1.72h0Z" transform="translate(-205.97 -51.86)"/><path class="cls-1" d="M278.38,483.43c-1.11.63-.85,2.45-0.81,3.94,0.82-1,2-1.46,2.58-2.22s-0.56-2.4-1.77-1.72h0Z" transform="translate(-205.97 -51.86)"/><path class="cls-1" d="M409.46,480.38c0.44,1.2,2.28,1.25,3.75,1.45-0.86-1-1.11-2.19-1.76-2.91s-2.46.16-2,1.46h0Z" transform="translate(-205.97 -51.86)"/><path class="cls-1" d="M476.78,391.37c1.12,0.61,2.53-.57,3.77-1.4-1.29-.16-2.29-0.9-3.25-1-1.13-.13-1.74,1.75-0.52,2.41h0Z" transform="translate(-205.97 -51.86)"/><path class="cls-1" d="M315.54,499.55c-0.38,1.05.84,2.11,1.72,3.07,0-1.14.47-2.1,0.44-2.95a1.12,1.12,0,0,0-2.16-.12h0Z" transform="translate(-205.97 -51.86)"/><path class="cls-1" d="M358.39,500.28c-0.37,1.05.84,2.11,1.72,3.07,0-1.14.47-2.1,0.44-2.95a1.12,1.12,0,0,0-2.16-.12h0Z" transform="translate(-205.97 -51.86)"/><path class="cls-1" d="M378.1,490.66c-1,.78-0.5,2.55-0.24,4,0.67-1.12,1.75-1.73,2.24-2.56s-0.9-2.29-2-1.45h0Z" transform="translate(-205.97 -51.86)"/><path class="cls-1" d="M419.06,421.86c-1,.78-0.5,2.55-0.24,4,0.67-1.12,1.75-1.73,2.24-2.56s-0.9-2.29-2-1.45h0Z" transform="translate(-205.97 -51.86)"/><path class="cls-1" d="M474.39,396.41c-0.24,1.26,1.31,2.24,2.48,3.16-0.24-1.28.16-2.45,0-3.4-0.22-1.12-2.19-1.12-2.45.24h0Z" transform="translate(-205.97 -51.86)"/><path class="cls-1" d="M310.86,498.17c-1.12,0-1.75,1.44-2.4,2.57,1.07-.38,2.14-0.19,2.94-0.48a1.12,1.12,0,0,0-.54-2.09h0Z" transform="translate(-205.97 -51.86)"/><path class="cls-1" d="M353.71,498.9c-1.12,0-1.75,1.44-2.4,2.57,1.07-.38,2.14-0.2,2.94-0.48a1.12,1.12,0,0,0-.54-2.09h0Z" transform="translate(-205.97 -51.86)"/><path class="cls-1" d="M468.88,379.21c0.35,1,1.81,1,3,1.16-0.68-.79-0.89-1.75-1.4-2.33a1,1,0,0,0-1.59,1.17h0Z" transform="translate(-205.97 -51.86)"/><path class="cls-1" d="M325,491.07c-0.78.43-.62,1.71-0.6,2.75,0.58-.7,1.39-1,1.82-1.53a0.9,0.9,0,0,0-1.22-1.22h0Z" transform="translate(-205.97 -51.86)"/><path class="cls-1" d="M367.83,491.81c-0.79.43-.62,1.7-0.6,2.74,0.58-.7,1.4-1,1.82-1.53a0.9,0.9,0,0,0-1.22-1.22h0Z" transform="translate(-205.97 -51.86)"/><path class="cls-1" d="M413.65,406c0.67,0.5,1.69-.14,2.57-0.56-0.82-.22-1.4-0.79-2-1a0.84,0.84,0,0,0-.56,1.52h0Z" transform="translate(-205.97 -51.86)"/><path class="cls-1" d="M337,491.24c-0.95.86-.29,2.58,0.09,4,0.58-1.17,1.6-1.87,2-2.74,0.49-1-1.08-2.21-2.11-1.28h0Z" transform="translate(-205.97 -51.86)"/><path class="cls-1" d="M290.39,486.91c-0.95.86-.29,2.58,0.09,4,0.58-1.17,1.6-1.87,2-2.74,0.5-1-1.09-2.21-2.11-1.28h0Z" transform="translate(-205.97 -51.86)"/><path class="cls-1" d="M412.94,456.64c0.69,1.08,2.49.71,4,.58-1.05-.76-1.57-1.89-2.36-2.45s-2.37.7-1.62,1.87h0Z" transform="translate(-205.97 -51.86)"/><path class="cls-1" d="M379.83,512.15c-0.81,1,.08,2.59.66,4,0.41-1.23,1.32-2.08,1.61-3,0.34-1.09-1.39-2-2.27-1h0Z" transform="translate(-205.97 -51.86)"/><path class="cls-1" d="M420.8,443.35c-0.81,1,.08,2.59.66,4,0.41-1.23,1.32-2.07,1.61-3,0.34-1.09-1.39-2-2.27-1h0Z" transform="translate(-205.97 -51.86)"/><path class="cls-1" d="M469.06,417.95c0,1.28,1.78,1.89,3.12,2.53-0.52-1.2-.39-2.43-0.78-3.31-0.46-1-2.39-.61-2.34.78h0Z" transform="translate(-205.97 -51.86)"/><path class="cls-1" d="M291.52,496.48c-1.1.21-1.39,1.79-1.77,3,1-.61,2-0.66,2.76-1.12a1.12,1.12,0,0,0-1-1.92h0Z" transform="translate(-205.97 -51.86)"/><path class="cls-1" d="M334.37,497.21c-1.1.21-1.39,1.79-1.77,3,1-.61,2-0.66,2.76-1.12a1.12,1.12,0,0,0-1-1.92h0Z" transform="translate(-205.97 -51.86)"/><path class="cls-1" d="M426.58,419.78c0,1.28,1.78,1.89,3.12,2.53-0.51-1.19-.39-2.43-0.78-3.31-0.46-1-2.39-.61-2.34.78h0Z" transform="translate(-205.97 -51.86)"/><path class="cls-1" d="M458.44,424.9c0,1.28,1.78,1.89,3.12,2.53-0.52-1.19-.39-2.43-0.78-3.31-0.46-1-2.39-.61-2.34.78h0Z" transform="translate(-205.97 -51.86)"/><path class="cls-1" d="M284.06,488.24c-1.1.21-1.39,1.79-1.77,3,1-.61,2-0.66,2.76-1.12a1.12,1.12,0,0,0-1-1.92h0Z" transform="translate(-205.97 -51.86)"/><path class="cls-1" d="M326.91,489c-1.1.21-1.39,1.79-1.77,3,1-.61,2-0.67,2.76-1.12a1.12,1.12,0,0,0-1-1.92h0Z" transform="translate(-205.97 -51.86)"/><path class="cls-1" d="M434.27,435.89c0,1.28,1.78,1.89,3.12,2.53-0.52-1.2-.39-2.43-0.78-3.31-0.46-1-2.39-.61-2.34.78h0Z" transform="translate(-205.97 -51.86)"/><path class="cls-1" d="M476.09,370.17c0.55,0.86,2,.57,3.18.47-0.84-.61-1.26-1.51-1.89-2a1,1,0,0,0-1.29,1.49h0Z" transform="translate(-205.97 -51.86)"/><path class="cls-1" d="M333.77,496.08c-0.67.6-.23,1.8,0,2.81,0.41-.81,1.13-1.29,1.44-1.9a0.9,0.9,0,0,0-1.46-.92h0Z" transform="translate(-205.97 -51.86)"/><path class="cls-1" d="M376.62,496.82c-0.67.59-.22,1.8,0,2.81,0.41-.81,1.14-1.29,1.44-1.89a0.9,0.9,0,0,0-1.46-.91h0Z" transform="translate(-205.97 -51.86)"/><path class="cls-1" d="M415.61,395.9c1.09,0.47,2.29-.73,3.37-1.59-1.21,0-2.18-.65-3.08-0.68-1.06,0-1.46,1.75-.29,2.27h0Z" transform="translate(-205.97 -51.86)"/><path class="cls-1" d="M374.31,489.5c-0.73,1.05.29,2.58,1,3.9,0.3-1.26,1.15-2.18,1.36-3.12,0.25-1.11-1.55-1.92-2.34-.78h0Z" transform="translate(-205.97 -51.86)"/><path class="cls-1" d="M415.27,420.7c-0.73,1.05.29,2.58,1,3.9,0.3-1.26,1.14-2.17,1.36-3.12,0.26-1.11-1.55-1.92-2.34-.78h0Z" transform="translate(-205.97 -51.86)"/><path class="cls-1" d="M470.78,398.05c0.15,1.27,1.93,1.73,3.32,2.27-0.61-1.15-.58-2.39-1.05-3.23-0.54-1-2.43-.41-2.27,1h0Z" transform="translate(-205.97 -51.86)"/><path class="cls-1" d="M308.95,495.27c-1.08.3-1.24,1.9-1.51,3.18,0.91-.69,2-0.83,2.66-1.35a1.12,1.12,0,0,0-1.15-1.83h0Z" transform="translate(-205.97 -51.86)"/><path class="cls-1" d="M351.8,496c-1.08.3-1.24,1.9-1.51,3.18,0.91-.69,2-0.83,2.66-1.35A1.12,1.12,0,0,0,351.8,496h0Z" transform="translate(-205.97 -51.86)"/><path class="cls-1" d="M466.35,380.76c0.62,0.81,2,.41,3.21.21-0.89-.54-1.38-1.4-2-1.8a1,1,0,0,0-1.16,1.59h0Z" transform="translate(-205.97 -51.86)"/><path class="cls-1" d="M323.3,489.1c-0.62.64-.08,1.81,0.25,2.8,0.35-.84,1-1.38,1.28-2a0.9,0.9,0,0,0-1.53-.79h0Z" transform="translate(-205.97 -51.86)"/><path class="cls-1" d="M366.15,489.83c-0.62.65-.08,1.81,0.26,2.8,0.35-.84,1-1.38,1.28-2a0.9,0.9,0,0,0-1.53-.79h0Z" transform="translate(-205.97 -51.86)"/><path class="cls-1" d="M476.81,384c1.26,0.43,2.5-1,3.63-2.09-1.35.05-2.51-.53-3.51-0.48-1.19.06-1.48,2.1-.12,2.57h0Z" transform="translate(-205.97 -51.86)"/><path class="cls-1" d="M321.92,498.58c-0.2,1.15,1.23,2,2.3,2.85-0.23-1.16.12-2.24-.06-3.1a1.17,1.17,0,0,0-2.24.25h0Z" transform="translate(-205.97 -51.86)"/><path class="cls-1" d="M364.77,499.31c-0.2,1.15,1.23,2,2.3,2.85-0.23-1.16.12-2.24-.06-3.1a1.17,1.17,0,0,0-2.24.25h0Z" transform="translate(-205.97 -51.86)"/><path class="cls-1" d="M397.57,475c-0.57,1.14.65,2.51,1.52,3.72,0.12-1.29.83-2.32,0.91-3.28,0.09-1.13-1.81-1.68-2.43-.44h0Z" transform="translate(-205.97 -51.86)"/><path class="cls-1" d="M428.62,400.21c-0.49,1,.55,2.12,1.28,3.14,0.1-1.1.7-2,.76-2.77a1.08,1.08,0,0,0-2-.37h0Z" transform="translate(-205.97 -51.86)"/><path class="cls-1" d="M474.64,366.33c0.73,0.72,2.07.12,3.2-.25-1-.41-1.56-1.19-2.27-1.49a1,1,0,0,0-.93,1.74h0Z" transform="translate(-205.97 -51.86)"/><path class="cls-1" d="M408.75,392.18c1.06,0.2,1.88-1.1,2.65-2.08-1.07.2-2.06-.13-2.86,0a1.08,1.08,0,0,0,.2,2.06h0Z" transform="translate(-205.97 -51.86)"/><path class="cls-1" d="M333.72,485.85c-0.73,1.05.29,2.58,1,3.9,0.3-1.26,1.14-2.17,1.36-3.12,0.25-1.11-1.55-1.92-2.34-.78h0Z" transform="translate(-205.97 -51.86)"/><path class="cls-1" d="M287.14,481.52c-0.73,1.05.29,2.58,1,3.9,0.3-1.27,1.15-2.18,1.36-3.12,0.25-1.11-1.55-1.92-2.34-.78h0Z" transform="translate(-205.97 -51.86)"/><path class="cls-1" d="M414,483.46c0.91,0.89,2.59.14,4-.31-1.2-.51-2-1.49-2.85-1.86-1.05-.44-2.15,1.21-1.16,2.18h0Z" transform="translate(-205.97 -51.86)"/><path class="cls-1" d="M479.64,384.82c1.28,0.06,2-1.61,2.79-2.89-1.23.41-2.45,0.18-3.37,0.49-1.08.37-.81,2.33,0.58,2.4h0Z" transform="translate(-205.97 -51.86)"/><path class="cls-1" d="M321.59,501.13c0.12,1.12,1.67,1.54,2.88,2-0.52-1-.49-2.1-0.88-2.84a1.12,1.12,0,0,0-2,.82h0Z" transform="translate(-205.97 -51.86)"/><path class="cls-1" d="M364.44,501.87c0.12,1.11,1.67,1.54,2.88,2-0.52-1-.49-2.1-0.88-2.85a1.12,1.12,0,0,0-2,.83h0Z" transform="translate(-205.97 -51.86)"/><path class="cls-1" d="M387.13,489.44c-0.57,1.14.66,2.51,1.52,3.72,0.12-1.29.82-2.31,0.9-3.28,0.1-1.13-1.8-1.68-2.43-.44h0Z" transform="translate(-205.97 -51.86)"/><path class="cls-1" d="M428.09,420.64c-0.57,1.14.65,2.51,1.52,3.72,0.12-1.3.82-2.32,0.91-3.28,0.1-1.13-1.81-1.68-2.43-.44h0Z" transform="translate(-205.97 -51.86)"/><path class="cls-1" d="M419.81,412.42c-0.49,1,.55,2.12,1.29,3.14,0.1-1.1.7-2,.76-2.77a1.08,1.08,0,0,0-2-.37h0Z" transform="translate(-205.97 -51.86)"/><path class="cls-1" d="M463.5,407.09c0.33,1.24,2.15,1.45,3.6,1.78-0.77-1.05-.92-2.28-1.5-3.06s-2.46-.06-2.11,1.28h0Z" transform="translate(-205.97 -51.86)"/><path class="cls-1" d="M300.14,490.2c-1,.45-1,2.06-1,3.36,0.8-.81,1.85-1.1,2.44-1.71a1.12,1.12,0,0,0-1.39-1.65h0Z" transform="translate(-205.97 -51.86)"/><path class="cls-1" d="M343,490.93c-1,.45-1,2.06-1,3.36,0.8-.81,1.85-1.1,2.44-1.71a1.12,1.12,0,0,0-1.39-1.65h0Z" transform="translate(-205.97 -51.86)"/><path class="cls-1" d="M421,408.92c0.33,1.24,2.15,1.45,3.61,1.78-0.77-1.05-.92-2.28-1.5-3.05s-2.46-.06-2.11,1.28h0Z" transform="translate(-205.97 -51.86)"/><path class="cls-1" d="M469.9,370.52c0.73,0.71,2.07.11,3.2-.25-1-.41-1.56-1.19-2.27-1.49a1,1,0,0,0-.93,1.74h0Z" transform="translate(-205.97 -51.86)"/><path class="cls-1" d="M332.63,490.78c-0.52.73,0.18,1.8,0.65,2.73,0.22-.88.82-1.51,1-2.17a0.9,0.9,0,0,0-1.63-.56h0Z" transform="translate(-205.97 -51.86)"/><path class="cls-1" d="M375.48,491.51c-0.52.73,0.18,1.81,0.65,2.73,0.22-.88.82-1.51,1-2.17a0.9,0.9,0,0,0-1.63-.57h0Z" transform="translate(-205.97 -51.86)"/><path class="cls-1" d="M409.41,400.54c1,0.2,1.87-1.1,2.65-2.08-1.07.2-2.05-.14-2.85,0a1.08,1.08,0,0,0,.2,2.06h0Z" transform="translate(-205.97 -51.86)"/><path class="cls-1" d="M323.13,489.49c-1,.8-0.46,2.56-0.18,4,0.65-1.12,1.72-1.76,2.2-2.6s-0.94-2.28-2-1.42h0Z" transform="translate(-205.97 -51.86)"/><path class="cls-1" d="M276.55,485.16c-1,.8-0.46,2.55-0.18,4,0.65-1.12,1.72-1.76,2.2-2.6,0.56-1-.94-2.28-2-1.42h0Z" transform="translate(-205.97 -51.86)"/><path class="cls-1" d="M420.56,476.21c0.62,1.12,2.44.88,3.93,0.84-1-.83-1.45-2-2.2-2.6s-2.41.54-1.73,1.76h0Z" transform="translate(-205.97 -51.86)"/><path class="cls-1" d="M318.51,488.08c-1.19.48-1.17,2.32-1.32,3.79,0.95-.89,2.15-1.19,2.85-1.86s-0.25-2.45-1.53-1.93h0Z" transform="translate(-205.97 -51.86)"/><path class="cls-1" d="M271.93,483.75c-1.18.48-1.17,2.32-1.32,3.8,0.95-.89,2.15-1.19,2.85-1.86s-0.25-2.46-1.53-1.94h0Z" transform="translate(-205.97 -51.86)"/><path class="cls-1" d="M403.19,469.64c0.27,1.25,2.09,1.54,3.52,1.93-0.72-1.08-.82-2.32-1.36-3.12s-2.46-.17-2.16,1.19h0Z" transform="translate(-205.97 -51.86)"/><path class="cls-1" d="M375.78,479.44c-0.84,1,0,2.59.55,4,0.44-1.22,1.38-2,1.7-3,0.38-1.08-1.33-2.07-2.24-1h0Z" transform="translate(-205.97 -51.86)"/><path class="cls-1" d="M465.22,389.54c0,1.28,1.72,1.94,3,2.62-0.48-1.21-.32-2.44-0.68-3.33-0.43-1.06-2.37-.67-2.36.71h0Z" transform="translate(-205.97 -51.86)"/><path class="cls-1" d="M315.55,489.31c-1.11.18-1.44,1.75-1.85,3,1-.58,2.06-0.61,2.79-1a1.12,1.12,0,0,0-.94-1.95h0Z" transform="translate(-205.97 -51.86)"/><path class="cls-1" d="M358.4,490c-1.1.18-1.44,1.76-1.85,3,1-.58,2.07-0.61,2.79-1a1.12,1.12,0,0,0-.94-1.94h0Z" transform="translate(-205.97 -51.86)"/><path class="cls-1" d="M471.31,380.19c0.53,0.88,2,.63,3.16.56-0.82-.63-1.21-1.54-1.83-2a1,1,0,0,0-1.33,1.45h0Z" transform="translate(-205.97 -51.86)"/><path class="cls-1" d="M324.46,493.31c-0.69.58-.28,1.79-0.05,2.81,0.44-.8,1.17-1.26,1.49-1.85a0.9,0.9,0,0,0-1.43-1h0Z" transform="translate(-205.97 -51.86)"/><path class="cls-1" d="M367.31,494c-0.68.57-.27,1.79-0.05,2.81,0.44-.8,1.17-1.26,1.49-1.85a0.9,0.9,0,0,0-1.44-1h0Z" transform="translate(-205.97 -51.86)"/><path class="cls-1" d="M464,383.77c0.53,0.88,2,.63,3.16.56-0.82-.63-1.21-1.54-1.83-2a1,1,0,0,0-1.33,1.45h0Z" transform="translate(-205.97 -51.86)"/><path class="cls-1" d="M320.37,487.45c-0.69.58-.27,1.79-0.05,2.81,0.44-.8,1.17-1.26,1.49-1.86a0.9,0.9,0,0,0-1.44-1h0Z" transform="translate(-205.97 -51.86)"/><path class="cls-1" d="M363.23,488.18c-0.69.57-.28,1.79-0.06,2.81,0.44-.8,1.17-1.26,1.49-1.85a0.9,0.9,0,0,0-1.43-1h0Z" transform="translate(-205.97 -51.86)"/><path class="cls-1" d="M469.38,361.92c0.53,0.88,2,.63,3.16.56-0.82-.63-1.21-1.54-1.83-2a1,1,0,0,0-1.33,1.45h0Z" transform="translate(-205.97 -51.86)"/><path class="cls-1" d="M472,361.15c0.53,0.88,2,.63,3.16.56-0.82-.63-1.21-1.55-1.83-2a1,1,0,0,0-1.33,1.45h0Z" transform="translate(-205.97 -51.86)"/><path class="cls-1" d="M419.85,410.48c0.67,0.32,1.45-.41,2.13-0.93-0.75-.05-1.35-0.45-1.92-0.48a0.75,0.75,0,0,0-.22,1.41h0Z" transform="translate(-205.97 -51.86)"/><path class="cls-1" d="M416.73,409.52c0.67,0.32,1.45-.42,2.14-0.94-0.75-.05-1.36-0.45-1.91-0.48a0.75,0.75,0,0,0-.22,1.41h0Z" transform="translate(-205.97 -51.86)"/><path class="cls-1" d="M394.7,489.77c-0.7,1.07.38,2.57,1.1,3.86,0.26-1.27,1.07-2.21,1.26-3.16,0.22-1.12-1.61-1.87-2.36-.7h0Z" transform="translate(-205.97 -51.86)"/><path class="cls-1" d="M479.61,363.1c-0.7,1.07.38,2.57,1.11,3.87,0.26-1.28,1.07-2.21,1.26-3.16,0.22-1.12-1.61-1.87-2.37-.7h0Z" transform="translate(-205.97 -51.86)"/><path class="cls-1" d="M426.2,412.7c-0.59.91,0.32,2.17,0.93,3.26,0.22-1.08.91-1.87,1.07-2.67a1.08,1.08,0,0,0-2-.59h0Z" transform="translate(-205.97 -51.86)"/><path class="cls-1" d="M469.38,402.32c0.19,1.27,2,1.67,3.39,2.16-0.65-1.13-.66-2.37-1.15-3.2s-2.44-.33-2.24,1h0Z" transform="translate(-205.97 -51.86)"/><path class="cls-1" d="M305.07,494.64c-1.07.34-1.18,1.94-1.41,3.22,0.88-.71,2-0.89,2.61-1.43a1.12,1.12,0,0,0-1.2-1.79h0Z" transform="translate(-205.97 -51.86)"/><path class="cls-1" d="M347.92,495.37c-1.07.34-1.18,1.94-1.41,3.22,0.89-.72,2-0.89,2.61-1.43a1.12,1.12,0,0,0-1.2-1.79h0Z" transform="translate(-205.97 -51.86)"/><path class="cls-1" d="M458.76,409.28c0.19,1.27,2,1.67,3.39,2.16-0.65-1.13-.66-2.37-1.15-3.2s-2.44-.33-2.24,1h0Z" transform="translate(-205.97 -51.86)"/><path class="cls-1" d="M297.61,486.4c-1.07.33-1.18,1.94-1.41,3.22,0.89-.71,2-0.89,2.61-1.43a1.12,1.12,0,0,0-1.2-1.79h0Z" transform="translate(-205.97 -51.86)"/><path class="cls-1" d="M340.46,487.13c-1.07.34-1.18,1.94-1.41,3.22,0.89-.71,2-0.89,2.61-1.43a1.12,1.12,0,0,0-1.2-1.79h0Z" transform="translate(-205.97 -51.86)"/><path class="cls-1" d="M434.58,420.27c0.19,1.27,2,1.67,3.39,2.16-0.65-1.13-.66-2.37-1.15-3.2s-2.44-.33-2.24,1h0Z" transform="translate(-205.97 -51.86)"/><path class="cls-1" d="M369.11,483c-0.84,1,0,2.59.55,4,0.44-1.22,1.37-2,1.69-2.95,0.37-1.08-1.33-2.08-2.24-1h0Z" transform="translate(-205.97 -51.86)"/><path class="cls-1" d="M462.57,396.61c0,1.28,1.72,1.94,3,2.62-0.48-1.21-.32-2.44-0.69-3.33-0.43-1.05-2.37-.67-2.36.71h0Z" transform="translate(-205.97 -51.86)"/><path class="cls-1" d="M309.08,488c-1.11.18-1.44,1.75-1.85,3,1-.58,2.06-0.61,2.79-1a1.12,1.12,0,0,0-.94-1.95h0Z" transform="translate(-205.97 -51.86)"/><path class="cls-1" d="M351.93,488.71c-1.1.18-1.44,1.76-1.85,3,1-.58,2.07-0.61,2.79-1a1.12,1.12,0,0,0-.94-1.95h0Z" transform="translate(-205.97 -51.86)"/><path class="cls-1" d="M391.57,477.51c-0.7,1.07.38,2.56,1.1,3.86,0.26-1.28,1.08-2.21,1.26-3.16,0.22-1.12-1.61-1.87-2.36-.7h0Z" transform="translate(-205.97 -51.86)"/><path class="cls-1" d="M423.55,402.35c-0.59.91,0.32,2.17,0.93,3.26,0.22-1.08.91-1.87,1.06-2.67a1.08,1.08,0,0,0-2-.6h0Z" transform="translate(-205.97 -51.86)"/><path class="cls-1" d="M467.67,366.39c0.65,0.79,2,.34,3.21.1-0.91-.51-1.42-1.36-2.1-1.73a1,1,0,0,0-1.11,1.63h0Z" transform="translate(-205.97 -51.86)"/><path class="cls-1" d="M405.1,395.63c0.9,0.28,1.74-.78,2.51-1.56-1,.07-1.78-0.31-2.48-0.25a0.94,0.94,0,0,0,0,1.81h0Z" transform="translate(-205.97 -51.86)"/><path class="cls-1" d="M403.7,390.69c1,0.32,2-.91,2.91-1.81-1.11.08-2.07-.37-2.89-0.3a1.1,1.1,0,0,0,0,2.11h0Z" transform="translate(-205.97 -51.86)"/><path class="cls-1" d="M405.41,383.24c1,0.31,1.93-.87,2.78-1.72-1.06.08-2-.35-2.75-0.29a1,1,0,0,0,0,2h0Z" transform="translate(-205.97 -51.86)"/><path class="cls-1" d="M411.75,387.31c1.12,0.34,2.16-1,3.12-1.94-1.18.09-2.21-.39-3.09-0.32a1.17,1.17,0,0,0,0,2.25h0Z" transform="translate(-205.97 -51.86)"/><path class="cls-1" d="M427.35,453.57c1.36,0.42,2.63-1.18,3.8-2.36-1.44.11-2.69-.48-3.76-0.39-1.26.1-1.51,2.29,0,2.74h0Z" transform="translate(-205.97 -51.86)"/><path class="cls-1" d="M427,442.95c1.36,0.42,2.63-1.18,3.8-2.36-1.44.11-2.69-.48-3.76-0.39-1.26.11-1.51,2.29,0,2.74h0Z" transform="translate(-205.97 -51.86)"/><path class="cls-1" d="M381.11,482.74c-0.59,1.13.62,2.52,1.48,3.74,0.14-1.29.86-2.3,0.95-3.27,0.11-1.13-1.79-1.7-2.42-.47h0Z" transform="translate(-205.97 -51.86)"/><path class="cls-1" d="M414.72,406.76c-0.5,1,.53,2.13,1.24,3.16,0.12-1.1.73-1.95,0.8-2.76a1.08,1.08,0,0,0-2-.4h0Z" transform="translate(-205.97 -51.86)"/><path class="cls-1" d="M471.39,388.48c0.31,1.24,2.14,1.47,3.58,1.82-0.75-1.06-.89-2.29-1.46-3.07s-2.46-.09-2.13,1.25h0Z" transform="translate(-205.97 -51.86)"/><path class="cls-1" d="M317.31,494.51c-1,.44-1,2-1.09,3.34,0.81-.79,1.86-1.08,2.46-1.68a1.12,1.12,0,0,0-1.37-1.67h0Z" transform="translate(-205.97 -51.86)"/><path class="cls-1" d="M360.16,495.24c-1,.44-1,2-1.09,3.34,0.81-.8,1.86-1.08,2.46-1.68a1.12,1.12,0,0,0-1.37-1.67h0Z" transform="translate(-205.97 -51.86)"/><path class="cls-1" d="M467.5,376.69c0.72,0.72,2.07.14,3.2-.21-1-.42-1.54-1.21-2.25-1.52a1,1,0,0,0-.95,1.73h0Z" transform="translate(-205.97 -51.86)"/><path class="cls-1" d="M327,489.54c-0.53.72,0.16,1.81,0.62,2.74,0.23-.88.84-1.5,1-2.16a0.9,0.9,0,0,0-1.62-.59h0Z" transform="translate(-205.97 -51.86)"/><path class="cls-1" d="M369.83,490.28c-0.53.72,0.16,1.81,0.61,2.74,0.23-.88.84-1.5,1-2.15a0.89,0.89,0,0,0-1.62-.59h0Z" transform="translate(-205.97 -51.86)"/><path class="cls-1" d="M420.9,438.51c1.36,0.28,2.44-1.39,3.46-2.64-1.39.24-2.65-.21-3.68,0-1.21.22-1.24,2.36,0.23,2.66h0Z" transform="translate(-205.97 -51.86)"/><path class="cls-1" d="M406.45,470.52c-0.42,1.21,1,2.4,2,3.49,0-1.3.52-2.4,0.47-3.37-0.05-1.14-2-1.43-2.46-.12h0Z" transform="translate(-205.97 -51.86)"/><path class="cls-1" d="M374.65,505.37c-0.48,1.19.86,2.45,1.82,3.58,0-1.3.63-2.38,0.63-3.34,0-1.14-1.94-1.53-2.46-.24h0Z" transform="translate(-205.97 -51.86)"/><path class="cls-1" d="M415.61,436.58c-0.48,1.19.86,2.45,1.82,3.58,0-1.3.63-2.37,0.63-3.34,0-1.14-1.94-1.53-2.45-.24h0Z" transform="translate(-205.97 -51.86)"/><path class="cls-1" d="M460.69,416.31c0.43,1.21,2.26,1.26,3.74,1.47-0.85-1-1.1-2.2-1.74-2.92s-2.46.14-2,1.45h0Z" transform="translate(-205.97 -51.86)"/><path class="cls-1" d="M291.8,489c-1,.53-0.79,2.13-0.77,3.43,0.73-.87,1.75-1.25,2.29-1.9A1.12,1.12,0,0,0,291.8,489h0Z" transform="translate(-205.97 -51.86)"/><path class="cls-1" d="M334.65,489.75c-1,.54-0.78,2.13-0.77,3.43,0.74-.87,1.75-1.25,2.29-1.9a1.12,1.12,0,0,0-1.52-1.53h0Z" transform="translate(-205.97 -51.86)"/><path class="cls-1" d="M389.56,485.06c-0.2,1.27,1.38,2.2,2.57,3.09-0.28-1.27.09-2.46-.12-3.4-0.25-1.11-2.23-1.05-2.45.31h0Z" transform="translate(-205.97 -51.86)"/><path class="cls-1" d="M421.86,408.72c-0.17,1.07,1.16,1.86,2.17,2.61-0.23-1.07.08-2.07-.11-2.87a1.08,1.08,0,0,0-2.06.26h0Z" transform="translate(-205.97 -51.86)"/><path class="cls-1" d="M462.42,402.2c0.69,1.08,2.49.73,4,.61-1-.77-1.56-1.9-2.35-2.46s-2.37.69-1.62,1.86h0Z" transform="translate(-205.97 -51.86)"/><path class="cls-1" d="M304.22,488.6c-0.84.74-.29,2.25,0,3.52,0.52-1,1.43-1.61,1.81-2.36a1.12,1.12,0,0,0-1.83-1.15h0Z" transform="translate(-205.97 -51.86)"/><path class="cls-1" d="M347.08,489.34c-0.84.74-.29,2.25,0,3.51,0.52-1,1.43-1.61,1.81-2.36a1.12,1.12,0,0,0-1.82-1.15h0Z" transform="translate(-205.97 -51.86)"/><path class="cls-1" d="M466.3,373.17c0.91,0.46,2-.52,3-1.2-1-.1-1.85-0.67-2.62-0.74a1,1,0,0,0-.36,1.94h0Z" transform="translate(-205.97 -51.86)"/><path class="cls-1" d="M329.85,488c-0.28.85,0.72,1.66,1.44,2.41-0.05-.91.33-1.69,0.28-2.36a0.9,0.9,0,0,0-1.72,0h0Z" transform="translate(-205.97 -51.86)"/><path class="cls-1" d="M372.71,488.75c-0.28.85,0.71,1.67,1.44,2.41-0.05-.91.33-1.69,0.28-2.36a0.9,0.9,0,0,0-1.72,0h0Z" transform="translate(-205.97 -51.86)"/><path class="cls-1" d="M408.79,405.26c0.86-.1,1.17-1.3,1.54-2.25-0.78.42-1.62,0.4-2.19,0.71a0.87,0.87,0,0,0,.65,1.54h0Z" transform="translate(-205.97 -51.86)"/><path class="cls-1" d="M313.08,492.25c-1.24.28-1.52,2.1-1.91,3.53,1.08-.72,2.31-0.83,3.11-1.37s0.15-2.46-1.2-2.16h0Z" transform="translate(-205.97 -51.86)"/><path class="cls-1" d="M266.51,487.91c-1.25.28-1.52,2.1-1.91,3.54,1.08-.73,2.31-0.83,3.11-1.38s0.15-2.46-1.2-2.16h0Z" transform="translate(-205.97 -51.86)"/><path class="cls-1" d="M315.6,487c-1.25.28-1.53,2.1-1.91,3.54,1.08-.73,2.31-0.83,3.11-1.38s0.15-2.46-1.2-2.16h0Z" transform="translate(-205.97 -51.86)"/><path class="cls-1" d="M269,482.71c-1.25.28-1.53,2.1-1.91,3.54,1.08-.73,2.31-0.83,3.11-1.38s0.15-2.46-1.2-2.16h0Z" transform="translate(-205.97 -51.86)"/><path class="cls-1" d="M398.78,493.08c0.07,1.28,1.81,1.86,3.17,2.47-0.54-1.19-.43-2.42-0.84-3.29-0.48-1-2.4-.56-2.32.82h0Z" transform="translate(-205.97 -51.86)"/><path class="cls-1" d="M483.7,366.42c0.07,1.28,1.81,1.85,3.17,2.47-0.54-1.18-.43-2.42-0.84-3.3-0.48-1-2.4-.56-2.32.83h0Z" transform="translate(-205.97 -51.86)"/><path class="cls-1" d="M429.65,415.5c0.06,1.08,1.53,1.57,2.67,2.09-0.45-1-.36-2-0.71-2.79a1.08,1.08,0,0,0-2,.7h0Z" transform="translate(-205.97 -51.86)"/><path class="cls-1" d="M411.17,422.46c0.07,1.28,1.82,1.86,3.17,2.47-0.54-1.19-.43-2.42-0.84-3.3-0.48-1-2.4-.56-2.33.82h0Z" transform="translate(-205.97 -51.86)"/><path class="cls-1" d="M474.64,402.1c0.9,0.91,2.59.19,4-.25-1.19-.53-1.93-1.53-2.82-1.91-1-.45-2.17,1.17-1.2,2.16h0Z" transform="translate(-205.97 -51.86)"/><path class="cls-1" d="M306,499.15c-0.67.9,0.19,2.26,0.76,3.43,0.3-1.1,1.06-1.87,1.27-2.69a1.12,1.12,0,0,0-2-.74h0Z" transform="translate(-205.97 -51.86)"/><path class="cls-1" d="M348.83,499.89c-0.66.9,0.19,2.26,0.76,3.43,0.3-1.1,1.05-1.87,1.27-2.69a1.12,1.12,0,0,0-2-.74h0Z" transform="translate(-205.97 -51.86)"/><path class="cls-1" d="M317.94,501.21c-1,.76-0.56,2.53-0.34,4,0.7-1.1,1.79-1.69,2.3-2.51,0.6-1-.84-2.32-2-1.5h0Z" transform="translate(-205.97 -51.86)"/><path class="cls-1" d="M279.78,488.09c-1,.76-0.56,2.53-0.34,4,0.7-1.1,1.79-1.69,2.3-2.51s-0.84-2.32-2-1.5h0Z" transform="translate(-205.97 -51.86)"/><path class="cls-1" d="M322.92,495.36c-0.86.95,0,2.59,0.47,4,0.46-1.21,1.42-2,1.75-2.91,0.4-1.07-1.29-2.1-2.22-1.08h0Z" transform="translate(-205.97 -51.86)"/><path class="cls-1" d="M276.34,491c-0.86.95,0,2.59,0.46,4,0.47-1.22,1.42-2,1.75-2.91,0.4-1.07-1.29-2.1-2.22-1.08h0Z" transform="translate(-205.97 -51.86)"/><path class="cls-1" d="M333.35,502.07c-0.86.95,0,2.59,0.46,4,0.46-1.21,1.42-2,1.75-2.91,0.4-1.07-1.29-2.1-2.22-1.08h0Z" transform="translate(-205.97 -51.86)"/><path class="cls-1" d="M286.77,497.74c-0.86.95,0,2.59,0.47,4,0.46-1.21,1.42-2,1.75-2.91,0.4-1.07-1.29-2.1-2.22-1.08h0Z" transform="translate(-205.97 -51.86)"/><path class="cls-1" d="M368.33,509.88c-0.86.95,0,2.59,0.46,4,0.46-1.22,1.42-2,1.75-2.92,0.4-1.07-1.29-2.1-2.22-1.08h0Z" transform="translate(-205.97 -51.86)"/><path class="cls-1" d="M475.79,406.29c0,1.28,1.68,2,3,2.68-0.46-1.22-.27-2.44-0.62-3.35-0.41-1.06-2.36-.72-2.37.66h0Z" transform="translate(-205.97 -51.86)"/><path class="cls-1" d="M302.5,500.72c-1.11.16-1.48,1.72-1.91,3,1-.56,2.08-0.56,2.81-1a1.12,1.12,0,0,0-.9-2h0Z" transform="translate(-205.97 -51.86)"/><path class="cls-1" d="M345.36,501.45c-1.11.16-1.48,1.72-1.91,3,1-.56,2.08-0.57,2.81-1a1.12,1.12,0,0,0-.9-2h0Z" transform="translate(-205.97 -51.86)"/><path class="cls-1" d="M433.31,408.12c0,1.28,1.69,2,3,2.68-0.46-1.21-.27-2.44-0.62-3.34-0.41-1.06-2.36-.72-2.38.66h0Z" transform="translate(-205.97 -51.86)"/><path class="cls-1" d="M379.5,499.74c-0.86.95,0,2.59,0.46,4,0.47-1.21,1.42-2,1.76-2.91,0.4-1.07-1.29-2.1-2.22-1.08h0Z" transform="translate(-205.97 -51.86)"/><path class="cls-1" d="M420.46,430.95c-0.86.95,0,2.59,0.46,4,0.47-1.21,1.42-2,1.75-2.91,0.4-1.07-1.29-2.1-2.22-1.08h0Z" transform="translate(-205.97 -51.86)"/><path class="cls-1" d="M460.58,408.88c0,1.28,1.68,2,3,2.68-0.46-1.22-.27-2.45-0.62-3.35-0.41-1.06-2.36-.72-2.38.67h0Z" transform="translate(-205.97 -51.86)"/><path class="cls-1" d="M298.21,487.92c-1.11.16-1.48,1.72-1.91,3,1-.56,2.08-0.56,2.81-1a1.12,1.12,0,0,0-.9-2h0Z" transform="translate(-205.97 -51.86)"/><path class="cls-1" d="M341.06,488.66c-1.11.16-1.48,1.72-1.91,2.95,1-.56,2.07-0.56,2.81-1a1.12,1.12,0,0,0-.9-2h0Z" transform="translate(-205.97 -51.86)"/><path class="cls-1" d="M385.16,494.91c-0.86.95,0,2.59,0.46,4,0.47-1.21,1.42-2,1.76-2.92,0.4-1.07-1.29-2.1-2.22-1.08h0Z" transform="translate(-205.97 -51.86)"/><path class="cls-1" d="M426.12,426.12c-0.86.95,0,2.59,0.46,4,0.47-1.22,1.42-2,1.76-2.92,0.4-1.07-1.29-2.1-2.22-1.08h0Z" transform="translate(-205.97 -51.86)"/><path class="cls-1" d="M418.14,417c-0.73.8,0,2.19,0.39,3.37,0.39-1,1.2-1.7,1.48-2.46a1.08,1.08,0,0,0-1.87-.91h0Z" transform="translate(-205.97 -51.86)"/><path class="cls-1" d="M465.65,412.49c0,1.28,1.69,2,3,2.68-0.46-1.22-.27-2.45-0.62-3.35-0.41-1.06-2.36-.72-2.38.66h0Z" transform="translate(-205.97 -51.86)"/><path class="cls-1" d="M295.76,492.79c-1.11.16-1.48,1.72-1.91,3,1-.56,2.08-0.56,2.81-1a1.12,1.12,0,0,0-.9-2h0Z" transform="translate(-205.97 -51.86)"/><path class="cls-1" d="M338.62,493.53c-1.11.16-1.48,1.72-1.91,2.95,1-.56,2.08-0.56,2.81-1a1.12,1.12,0,0,0-.9-2h0Z" transform="translate(-205.97 -51.86)"/><path class="cls-1" d="M423.17,414.32c0,1.28,1.68,2,3,2.68-0.46-1.22-.27-2.44-0.62-3.35-0.41-1.06-2.36-.72-2.37.66h0Z" transform="translate(-205.97 -51.86)"/><path class="cls-1" d="M473.68,374c0.51,0.89,2,.67,3.15.62-0.81-.65-1.18-1.57-1.79-2a1,1,0,0,0-1.36,1.42h0Z" transform="translate(-205.97 -51.86)"/><path class="cls-1" d="M330.13,494.52c-0.7.56-.31,1.79-0.11,2.81,0.45-.79,1.2-1.23,1.53-1.82a0.9,0.9,0,0,0-1.42-1h0Z" transform="translate(-205.97 -51.86)"/><path class="cls-1" d="M373,495.25c-0.7.56-.31,1.79-0.11,2.81,0.45-.79,1.2-1.23,1.53-1.82a0.9,0.9,0,0,0-1.42-1h0Z" transform="translate(-205.97 -51.86)"/><path class="cls-1" d="M419.9,400.6c0.9,0.45,2-.52,2.9-1.2-1-.09-1.81-0.64-2.56-0.7a1,1,0,0,0-.34,1.9h0Z" transform="translate(-205.97 -51.86)"/><path class="cls-1" d="M417.25,399.87c0.9,0.45,2-.52,2.9-1.2-1-.09-1.81-0.64-2.57-0.7a1,1,0,0,0-.34,1.9h0Z" transform="translate(-205.97 -51.86)"/><path class="cls-1" d="M327.69,483.08c-1.12.62-.89,2.44-0.87,3.92,0.84-1,2-1.43,2.61-2.18s-0.53-2.41-1.74-1.74h0Z" transform="translate(-205.97 -51.86)"/><path class="cls-1" d="M281.11,478.74c-1.12.62-.89,2.44-0.86,3.93,0.83-1,2-1.43,2.61-2.18s-0.53-2.41-1.75-1.75h0Z" transform="translate(-205.97 -51.86)"/><path class="cls-1" d="M409.5,493.82c0.42,1.21,2.25,1.28,3.73,1.5-0.84-1-1.08-2.21-1.72-2.94s-2.46.12-2,1.43h0Z" transform="translate(-205.97 -51.86)"/><path class="cls-1" d="M421.89,423.19c0.42,1.21,2.25,1.28,3.73,1.51-0.84-1-1.08-2.21-1.72-2.94s-2.46.12-2,1.43h0Z" transform="translate(-205.97 -51.86)"/><path class="cls-1" d="M483.15,395.54c1.11,0.63,2.54-.53,3.79-1.34-1.29-.18-2.27-0.94-3.23-1.06-1.13-.15-1.76,1.72-0.56,2.4h0Z" transform="translate(-205.97 -51.86)"/><path class="cls-1" d="M312.79,505.62c-0.39,1,.81,2.12,1.67,3.09,0-1.14.5-2.09,0.48-2.94a1.12,1.12,0,0,0-2.15-.15h0Z" transform="translate(-205.97 -51.86)"/><path class="cls-1" d="M355.65,506.36c-0.39,1,.8,2.13,1.67,3.09,0-1.14.5-2.09,0.48-2.94a1.12,1.12,0,0,0-2.15-.16h0Z" transform="translate(-205.97 -51.86)"/><path class="cls-1" d="M330.35,491.91c-1.12.61-.89,2.44-0.87,3.92,0.84-1,2-1.43,2.61-2.18s-0.53-2.41-1.75-1.74h0Z" transform="translate(-205.97 -51.86)"/><path class="cls-1" d="M283.77,487.58c-1.12.61-.89,2.44-0.86,3.92,0.83-1,2-1.44,2.61-2.18s-0.53-2.41-1.75-1.74h0Z" transform="translate(-205.97 -51.86)"/><path class="cls-1" d="M404.37,456.3c0.42,1.21,2.25,1.28,3.73,1.51-0.84-1-1.08-2.21-1.72-2.94s-2.46.12-2,1.43h0Z" transform="translate(-205.97 -51.86)"/><path class="cls-1" d="M386.82,501.44c-0.86.95,0,2.59,0.46,4,0.46-1.22,1.42-2,1.75-2.92,0.4-1.07-1.29-2.1-2.22-1.08h0Z" transform="translate(-205.97 -51.86)"/><path class="cls-1" d="M427.78,432.65c-0.86.94,0,2.59,0.46,4,0.47-1.21,1.42-2,1.76-2.92,0.4-1.07-1.29-2.1-2.22-1.07h0Z" transform="translate(-205.97 -51.86)"/><path class="cls-1" d="M419.54,422.56c-0.73.8,0,2.19,0.39,3.37,0.39-1,1.2-1.7,1.48-2.46a1.08,1.08,0,0,0-1.87-.91h0Z" transform="translate(-205.97 -51.86)"/><path class="cls-1" d="M471.22,416.29c0,1.28,1.69,2,3,2.68-0.46-1.22-.27-2.45-0.62-3.35-0.41-1.06-2.36-.72-2.37.66h0Z" transform="translate(-205.97 -51.86)"/><path class="cls-1" d="M293.24,498.12c-1.11.16-1.47,1.73-1.91,3,1-.56,2.08-0.56,2.81-1a1.12,1.12,0,0,0-.9-2h0Z" transform="translate(-205.97 -51.86)"/><path class="cls-1" d="M336.09,498.85c-1.11.16-1.48,1.72-1.91,3,1-.56,2.08-0.56,2.81-1a1.12,1.12,0,0,0-.89-2h0Z" transform="translate(-205.97 -51.86)"/><path class="cls-1" d="M428.73,418.12c0,1.28,1.69,2,3,2.68-0.46-1.22-.27-2.45-0.62-3.35-0.41-1.06-2.36-.72-2.38.67h0Z" transform="translate(-205.97 -51.86)"/><path class="cls-1" d="M460.6,423.25c0,1.28,1.69,2,3,2.68-0.46-1.22-.27-2.45-0.62-3.35-0.41-1.06-2.36-.72-2.38.67h0Z" transform="translate(-205.97 -51.86)"/><path class="cls-1" d="M285.78,489.88c-1.11.16-1.48,1.72-1.91,2.95,1-.56,2.07-0.56,2.81-1a1.12,1.12,0,0,0-.9-2h0Z" transform="translate(-205.97 -51.86)"/><path class="cls-1" d="M328.64,490.61c-1.11.16-1.48,1.73-1.91,3,1-.56,2.08-0.56,2.81-1a1.12,1.12,0,0,0-.9-2h0Z" transform="translate(-205.97 -51.86)"/><path class="cls-1" d="M436.42,434.23c0,1.28,1.69,2,3,2.68-0.46-1.22-.27-2.45-0.62-3.35-0.41-1.06-2.36-.72-2.38.66h0Z" transform="translate(-205.97 -51.86)"/><path class="cls-1" d="M393.22,506.32c-0.86.95,0,2.59,0.46,4,0.47-1.22,1.42-2,1.76-2.92,0.4-1.07-1.29-2.1-2.22-1.08h0Z" transform="translate(-205.97 -51.86)"/><path class="cls-1" d="M482.16,377.09c-0.86.95,0,2.6,0.47,4,0.46-1.21,1.42-2,1.75-2.91,0.4-1.07-1.29-2.11-2.22-1.08h0Z" transform="translate(-205.97 -51.86)"/><path class="cls-1" d="M328.61,502.27c-0.94-.62-2.25.31-3.39,0.94,1.11,0.24,1.93,1,2.76,1.12a1.12,1.12,0,0,0,.63-2.06h0Z" transform="translate(-205.97 -51.86)"/><path class="cls-1" d="M371.46,503c-0.94-.62-2.25.31-3.39,0.94,1.11,0.24,1.93,1,2.76,1.12a1.12,1.12,0,0,0,.63-2.06h0Z" transform="translate(-205.97 -51.86)"/><path class="cls-1" d="M424.95,426.68c-0.73.8,0,2.19,0.39,3.37,0.39-1,1.2-1.7,1.48-2.46a1.09,1.09,0,0,0-1.88-.91h0Z" transform="translate(-205.97 -51.86)"/><path class="cls-1" d="M479.25,415.7c0,1.28,1.69,2,3,2.68-0.46-1.22-.27-2.44-0.62-3.34-0.41-1.06-2.36-.72-2.37.67h0Z" transform="translate(-205.97 -51.86)"/><path class="cls-1" d="M294.84,505c-1.11.16-1.48,1.72-1.91,3,1-.56,2.08-0.56,2.81-1a1.12,1.12,0,0,0-.9-2h0Z" transform="translate(-205.97 -51.86)"/><path class="cls-1" d="M337.7,505.72c-1.11.16-1.48,1.72-1.91,2.95,1-.56,2.08-0.56,2.81-1a1.12,1.12,0,0,0-.9-2h0Z" transform="translate(-205.97 -51.86)"/><path class="cls-1" d="M436.76,417.53c0,1.28,1.68,2,3,2.68-0.46-1.22-.27-2.44-0.62-3.35-0.41-1.06-2.36-.72-2.37.67h0Z" transform="translate(-205.97 -51.86)"/><path class="cls-1" d="M396.22,497.32c-0.72,1.06.31,2.58,1,3.89,0.29-1.27,1.13-2.18,1.34-3.13,0.25-1.11-1.56-1.91-2.35-.77h0Z" transform="translate(-205.97 -51.86)"/><path class="cls-1" d="M481.14,370.65c-0.72,1.05.31,2.58,1,3.89,0.29-1.27,1.13-2.18,1.34-3.13,0.25-1.11-1.56-1.91-2.35-.76h0Z" transform="translate(-205.97 -51.86)"/><path class="cls-1" d="M334,500.51c-1-.48-2.19.62-3.23,1.4,1.14,0.08,2,.68,2.89.73a1.12,1.12,0,0,0,.35-2.13h0Z" transform="translate(-205.97 -51.86)"/><path class="cls-1" d="M376.89,501.25c-1-.48-2.19.62-3.23,1.39,1.13,0.08,2,.68,2.88.74a1.12,1.12,0,0,0,.34-2.13h0Z" transform="translate(-205.97 -51.86)"/><path class="cls-1" d="M427.49,419.08c-0.61.89,0.26,2.17,0.85,3.29,0.25-1.07,1-1.84,1.13-2.64a1.08,1.08,0,0,0-2-.65h0Z" transform="translate(-205.97 -51.86)"/><path class="cls-1" d="M475.53,407c0.16,1.27,1.94,1.72,3.33,2.25-0.62-1.14-.6-2.38-1.07-3.23-0.55-1-2.43-.39-2.26,1h0Z" transform="translate(-205.97 -51.86)"/><path class="cls-1" d="M301.89,500.59c-1.08.31-1.23,1.91-1.49,3.18,0.91-.69,2-0.84,2.65-1.36a1.12,1.12,0,0,0-1.16-1.82h0Z" transform="translate(-205.97 -51.86)"/><path class="cls-1" d="M344.74,501.32c-1.07.31-1.22,1.91-1.49,3.18,0.9-.69,2-0.84,2.65-1.36a1.12,1.12,0,0,0-1.16-1.82h0Z" transform="translate(-205.97 -51.86)"/><path class="cls-1" d="M433,408.79c0.16,1.27,1.94,1.72,3.33,2.25-0.62-1.14-.6-2.38-1.07-3.23s-2.44-.39-2.26,1h0Z" transform="translate(-205.97 -51.86)"/><path class="cls-1" d="M404.74,501.17c-0.57,1.14.66,2.51,1.53,3.72,0.12-1.3.82-2.32,0.9-3.28,0.09-1.13-1.81-1.68-2.43-.44h0Z" transform="translate(-205.97 -51.86)"/><path class="cls-1" d="M483.07,387c-0.57,1.14.66,2.51,1.52,3.72,0.12-1.29.82-2.32,0.9-3.28,0.09-1.14-1.81-1.68-2.43-.44h0Z" transform="translate(-205.97 -51.86)"/><path class="cls-1" d="M320.2,504.39c-1.07-.34-2.08.91-3,1.82,1.14-.07,2.11.4,3,0.33a1.12,1.12,0,0,0,.05-2.15h0Z" transform="translate(-205.97 -51.86)"/><path class="cls-1" d="M363.06,505.12c-1.07-.34-2.08.91-3,1.82,1.13-.07,2.12.4,3,0.34a1.12,1.12,0,0,0,0-2.16h0Z" transform="translate(-205.97 -51.86)"/><path class="cls-1" d="M484.46,404.2c0.33,1.24,2.15,1.44,3.61,1.77-0.77-1.05-.92-2.28-1.5-3.05s-2.46-.06-2.11,1.28h0Z" transform="translate(-205.97 -51.86)"/><path class="cls-1" d="M305.49,507.93c-1,.45-1,2.06-1,3.36,0.8-.81,1.85-1.11,2.44-1.71a1.12,1.12,0,0,0-1.4-1.65h0Z" transform="translate(-205.97 -51.86)"/><path class="cls-1" d="M348.34,508.66c-1,.45-1,2.06-1,3.36,0.8-.81,1.85-1.1,2.44-1.71a1.12,1.12,0,0,0-1.4-1.65h0Z" transform="translate(-205.97 -51.86)"/><path class="cls-1" d="M386.65,511.87c-0.11,1.27,1.54,2.08,2.8,2.88-0.37-1.25-.1-2.46-0.38-3.38-0.34-1.09-2.3-.88-2.42.5h0Z" transform="translate(-205.97 -51.86)"/><path class="cls-1" d="M427.61,443.07c-0.11,1.27,1.55,2.08,2.8,2.88-0.37-1.24-.1-2.46-0.38-3.38-0.34-1.09-2.3-.88-2.42.5h0Z" transform="translate(-205.97 -51.86)"/><path class="cls-1" d="M419.4,431.37c-0.09,1.08,1.3,1.76,2.37,2.43-0.31-1.05-.08-2.07-0.33-2.85a1.08,1.08,0,0,0-2,.42h0Z" transform="translate(-205.97 -51.86)"/><path class="cls-1" d="M474,413.21c0.77,1,2.54.54,4,.3-1.11-.69-1.7-1.77-2.53-2.27s-2.31.86-1.48,2h0Z" transform="translate(-205.97 -51.86)"/><path class="cls-1" d="M296.27,500.09c-0.78.8-.12,2.27,0.28,3.51,0.44-1,1.3-1.71,1.62-2.5a1.12,1.12,0,0,0-1.91-1h0Z" transform="translate(-205.97 -51.86)"/><path class="cls-1" d="M339.13,500.83c-0.78.8-.12,2.27,0.28,3.5,0.45-1,1.3-1.71,1.62-2.49a1.12,1.12,0,0,0-1.91-1h0Z" transform="translate(-205.97 -51.86)"/><path class="cls-1" d="M431.5,415c0.76,1,2.54.54,4,.3-1.1-.69-1.7-1.77-2.53-2.28s-2.31.87-1.48,2h0Z" transform="translate(-205.97 -51.86)"/><path class="cls-1" d="M327,517.64c0.38,1.22,2.21,1.36,3.67,1.63-0.81-1-1-2.24-1.61-3s-2.46,0-2.06,1.36h0Z" transform="translate(-205.97 -51.86)"/><path class="cls-1" d="M288.89,504.52c0.37,1.22,2.21,1.36,3.67,1.63-0.81-1-1-2.24-1.62-3s-2.46,0-2.06,1.36h0Z" transform="translate(-205.97 -51.86)"/><path class="cls-1" d="M414.47,471.17c0.38,1.22,2.21,1.36,3.67,1.63-0.81-1-1-2.24-1.62-3s-2.46,0-2.06,1.36h0Z" transform="translate(-205.97 -51.86)"/><path class="cls-1" d="M406.64,461.17c0.27,1.25,2.09,1.54,3.52,1.94-0.72-1.08-.81-2.32-1.35-3.12s-2.46-.17-2.17,1.18h0Z" transform="translate(-205.97 -51.86)"/><path class="cls-1" d="M344.41,498.62c0,0.89,1.26,1.31,2.2,1.76-0.37-.84-0.28-1.7-0.56-2.31a0.9,0.9,0,0,0-1.64.56h0Z" transform="translate(-205.97 -51.86)"/><path class="cls-1" d="M297.84,494.29c0,0.9,1.25,1.31,2.2,1.76-0.37-.83-0.28-1.7-0.56-2.31a0.9,0.9,0,0,0-1.63.55h0Z" transform="translate(-205.97 -51.86)"/><path class="cls-1" d="M348.64,492.9c-0.06,1.39,1.77,2.2,3.17,3-0.46-1.34-.21-2.67-0.56-3.66-0.41-1.17-2.54-.86-2.61.65h0Z" transform="translate(-205.97 -51.86)"/><path class="cls-1" d="M302.06,488.56c-0.06,1.39,1.77,2.2,3.17,3-0.46-1.34-.21-2.67-0.56-3.66-0.41-1.17-2.54-.86-2.61.64h0Z" transform="translate(-205.97 -51.86)"/><path class="cls-1" d="M354.8,489.12c-0.18,1.38,1.58,2.34,2.9,3.28-0.34-1.37,0-2.67-.25-3.69-0.31-1.2-2.46-1.07-2.65.42h0Z" transform="translate(-205.97 -51.86)"/><path class="cls-1" d="M308.22,484.79c-0.18,1.38,1.58,2.34,2.9,3.27-0.34-1.37,0-2.67-.25-3.7-0.31-1.2-2.46-1.07-2.65.42h0Z" transform="translate(-205.97 -51.86)"/><path class="cls-1" d="M363.16,484.71c-0.29,1.36,1.37,2.47,2.61,3.51-0.22-1.4.24-2.67,0.07-3.7-0.21-1.22-2.36-1.28-2.68.19h0Z" transform="translate(-205.97 -51.86)"/><path class="cls-1" d="M424.52,466.38c0.81,1,2.56.44,4,.15-1.13-.65-1.77-1.71-2.61-2.18-1-.56-2.27,1-1.4,2h0Z" transform="translate(-205.97 -51.86)"/><path class="cls-1" d="M301.55,395.44c3.9-.54,8.07.2,7.65,2.79,0.64-2.5,4.12-3.43,11-2.79-1.23-1-3.94-3.47-5.17-4.5-3.82,1-4.8,1-9,.37-0.37.88-3.35,3.25-4.5,4.13h0Z" transform="translate(-205.97 -51.86)"/></svg>