<svg id="Layer_1" data-name="Layer 1" xmlns="http://www.w3.org/2000/svg" viewBox="0 0 611.75 787.39"><defs><style>.cls-1{fill:#6d2b0d;}.cls-2{fill:#82330f;}.cls-3{fill:#3f1700;}.cls-4{fill:#e6511d;}.cls-5{fill:#cb381b;}.cls-6{fill:#10879e;}.cls-7{fill:#007685;}.cls-8{fill:#def0f5;}.cls-9{fill:#c1dadc;}.cls-10{fill:#868788;}.cls-11{fill:#fff;}.cls-12{fill:#553527;}.cls-13{fill:#41281b;fill-rule:evenodd;}.cls-14{fill:#2a1913;}.cls-15{fill:#ffeb00;}</style></defs><title>pirate3</title><path class="cls-1" d="M599.25,341.34c-13-30-2.55-70.37-2.55-70.37-16.34-69.88-97.83-80.5-140.3-81.19l-0.05-1.39s-144.53-4.61-159.89,92.19c0,0,13.37,39.48,2.55,70.37,0,0-44,47.83-24.43,94.57,4.63,11,8.45,21.19,15.49,31.24,16.21,23.08,33.3,41.76,44.32,68.15,11.49,27.49,21.44,56.85,23.57,86.76,0,0,9.88,69,90.06,40.84l0,0.86c7.87-2.22,21.49-1.75,21.49-1.75,86.21,26,91.23-46,91.23-46,0-25.91,6.06-51.45,13.37-76.14,4-13.35,6-27.71,12-40.37,6.12-12.92,17.09-22.57,25.36-34,9.41-13.12,14-26.3,19-41.16C646.65,385.87,599.25,341.34,599.25,341.34Z" transform="translate(-195.25 -115.01)"/><path class="cls-2" d="M429.38,455.06c-1,2.26-1.2,5.08-.41,8.7,4.85,21.88,27.31,20.37,41.44,8.74,0,0,12.94-10.61.84-20.13-9-7.07-19.26-8.74-30-5.36C435.48,448.82,431.17,451.05,429.38,455.06Z" transform="translate(-195.25 -115.01)"/><path class="cls-2" d="M465.76,409.1c11.45-12.82-3.64-36.63-13.08-46.25-9.18-9.35-21.32,26-22.16,29.93C425.9,415,449.64,427.16,465.76,409.1Z" transform="translate(-195.25 -115.01)"/><path class="cls-2" d="M482.94,231.31c-15.4-1.57-30.67-2.33-46.09-.58a117.89,117.89,0,0,0-20.23,4.37c-3.18,1-12.7,4.28-16.17,8.62a4.48,4.48,0,0,0-1.07,4.39c1.43,4.27,13.54,5.16,17.25,6.61,8.25,3.2,22.9,13,26.37,21.83,7.3,18.5,20.51,5.24,20.51,5.24,9.25-21,30.82-33.09,30.82-33.09,5.28-3,16.83-7.16,10.16-13.54C500.44,231.29,488.34,231.85,482.94,231.31Z" transform="translate(-195.25 -115.01)"/><path class="cls-2" d="M340.51,407.28c-7.52-1-19.27-5.36-28-3.78a12.51,12.51,0,0,0-9.29,6.45c-5.34,9.83-1.16,23.68,4.5,32.32s12.82,15.38,22.09,7.93c8.49-6.82,11.47-19.64,21.33-24.9,5.48-2.92,11.9-2,17.87-2.77,1.8-.22,16.54-6.31,16.7-6.05C377.44,404.31,352.68,408.84,340.51,407.28Z" transform="translate(-195.25 -115.01)"/><path class="cls-2" d="M574.34,402.26c-11.45-1.23-22.94-3.72-34.51-3.09-11.8.63-37.93,12.47-13.9,17.81,9.67,2.15,18.9-.91,27.22,5.8,7,5.65,10.37,14.77,17.89,20,14.61,10.09,25.71-12.3,27.87-23.23C602.54,401.12,587.29,403.66,574.34,402.26Z" transform="translate(-195.25 -115.01)"/><path class="cls-2" d="M478.52,639.1c-14-9.16-49.64-4.8-53.24-27.24-0.8-5-15-4.5-18-3.15a17,17,0,0,0-8,8.32,33.57,33.57,0,0,0-2.49,7.08c-5.13,21.46,9.46,34.8,30.13,32.11,21.56-2.82,46.37-16.66,67.36-2.41A63.12,63.12,0,0,0,478.52,639.1Z" transform="translate(-195.25 -115.01)"/><path class="cls-3" d="M630.25,306.66c17.95-27,6.59-37.28,6.59-37.28-17.61-22.07-34.24-4.61-41.62,5.84l0.74-5.5s-33.64-91-152.93-81.79c-119.59-.54-146.56,92.66-146.56,92.66l0.87,4.15c-7.21-9.4-26.41-29.58-43.46-4.72,0,0-10.57,11.13,9.27,36.7,0,0,15.75,12.47,9.13,31,0,0-35.06,46.16,1.86,46v0c-4.48,11.22-3.66,37.61-3.66,37.61,8.94,39.76,48.48,80.84,48.48,80.84l66.18-20.85,12.81-3.84c15.73,35.26,53,26.44,56.88,25.42,3.94,0.74,41.78,6.81,54.87-29.48l13.07,2.91,63.36,22.76s40.61-50.6,46.66-90.91c0,0-.91-22.21-5.14-34.27,32-4.49-4.26-45.72-4.26-45.72C615.45,320.23,630.25,306.66,630.25,306.66ZM304.5,319l0.69,3.32-0.8,2C304.47,322.63,304.51,320.86,304.5,319ZM613.22,424s1,28.59-34.44,46.55c0,0-8.71-49.56-58.71-43.18l-12.39.23s21.89,33.19-3.5,33.38c0,0-14.19-9.36-23.15,20,0,0-1.53,15.46-26.42,16h0a1.11,1.11,0,0,0-.26,0H453.9c-24.87,1.28-27.5-14-27.5-14-11.07-28.69-24.56-18.32-24.56-18.32-25.33,1.65-5.91-33-5.91-33l-12.38.66c-50.32-2.74-55.42,47.32-55.42,47.32-36.68-15.36-37.72-43.94-37.72-43.94-4.31-20.57,1.58-38,9.7-51.14,0,0.41.08,14.88,39.37,14.19,0,0-28-4.12-34-22a98.91,98.91,0,0,1,20.25-19.8c38.5,63.23,96.61,15.37,96.61,15.37-2-14,15.29-43.13,15.29-43.13,7.06-31.32-18-30.41-18-30.41l-68.16-33.58c4.36-36,53.91-43.52,82.57-44.82l0.06,0.71s3.83-.52,10-1c6.22,0,10.09.23,10.09,0.23v-0.72c28.68-.77,78.64,3.11,85.6,38.72l-65.56,38.42s-15.32.55-9.13,32c0,0,12.78,27.42,11.8,41.52a74.41,74.41,0,0,0,7.06,4.21l-2.86,1.74s4.09,3,4.65,13c0.06,1.06.15,2.27,0.26,3.59,0.92,10.91-3.19,30.76-3.19,30.76,7.48-7.28,9.35-31,9.35-31,7.95,13.29,40.71-.92,40.71-0.92-17.87,6.7-29.74-3.15-36.18-11.59,20.92,7.37,53.83,10,75.46-32.14a100,100,0,0,1,26.55,24.29c-10.42,11.82-34.46,20.35-34.46,20.35,30,5.72,39.6-1.84,42.66-7A66.34,66.34,0,0,1,613.22,424Z" transform="translate(-195.25 -115.01)"/><path class="cls-3" d="M421.71,372.83C410.22,397.23,379.33,398,379.33,398c9.41,7.52,26.05,6.39,26.05,6.39,7.12,4.47,2,30.93,2,30.93C424.11,426.41,421.71,372.83,421.71,372.83Z" transform="translate(-195.25 -115.01)"/><path class="cls-3" d="M451.95,423.52s-28.32,2.27-31.23,22.48c0,0,31.73-16.85,62.85-4.13C483.57,441.87,481,424.81,451.95,423.52Z" transform="translate(-195.25 -115.01)"/><path class="cls-3" d="M508.29,532.06s-23.29,5.22-31,1.12-59-4.4-59-4.4L386.9,529.9l-29.53-2.56S345.54,548.88,345,551.08s-5.37,10.47-5.37,10.47,19,43.2,16.89,56.92c0,0,2.94,35,20.88,48.56,0,0-12.31-36.62-3.61-53.29,0,0,4.29-24.07-6-31.94,0,0,6.89-13.86,19.84-20.69,0,0,30.2-14.3,53.57-10.68l15.38,2.35s40.34-7,66.17,10.51c0,0,25,3,32,11.75,0,0,.36,24-7.92,56.94l4.28,27.7s13.72-19.53,11.14-57L569,568l1.27-18.22,1.17-4.12-36-14.62Z" transform="translate(-195.25 -115.01)"/><path class="cls-3" d="M512.48,589.45l-8.16-2.14c24.34,1,19.14-11.37,19.14-11.37-43.18-21.34-92.42-4.5-92.42-4.5-28.42,18.71-45.38,1.65-45.38,1.65,2,22.7,23.88,20.05,23.88,20.05,54.37-15.07,65.77-10.56,65.77-10.56,3.49,0.87,6.74,1.57,9.75,2.17,2.23,3,3.87,7.4,4.17,13.69,0,0-19,33.38,10,44.12a38,38,0,0,0,7.23,31l34.09-1.24s-11.88-45.5-12.26-45.43S512.48,589.45,512.48,589.45Z" transform="translate(-195.25 -115.01)"/><path class="cls-4" d="M707.64,471.68c-16.35-89.84-63.14-101.32-63.14-101.32,0.19,6.25-13.94,81.78-34.78,113.86-4.82,7.41-26.05-2.73-37.35,86.68-3.27,26-6.64,72.49-18,89.71-19.06,29-90,13.08-92,11L430,682.16s-72,9.08-74.93-70.59c-0.44-11.89-35.74-97.72-42.1-98.47,0,0-23.19-44.19-29.49-54.21-2.27-3.62-12.6-12.74-14.67-57.59-0.49-10.45-5.27-7.32-12.61-16.85,0,0-56.73,23.51-57.24,109.43,0,0,15.28-20.21,38.44-24,0,0-44.4,40.54-16.13,97.22a47.79,47.79,0,0,1,7.3,40.78s18.39-14.58,17.24-46.57c0,0,19.16,46.62-1.26,85.94,0,0-19.72,38.59,15.33,81.71,0,0-10.33-44,23.1-65.62,0,0,19.53,16.76,2.78,76.33,0,0-15.3,49.34,35.31,75.16,0,0-22.07-31.22,2.84-67.08,0,0,28-5.37,24.86,66.08,0,0,.12,40.76,43.67,57.37,0,0-18-37.2,2-56.11,0,0,49.18.39,35.76,82.43,0,0,47.94-11.94,47.6-61.43,0,0-.19-29.78,11.18-37.46,0,0,14.35,16.87,14.64,35.79,0,0-1.43,32.08-10.56,41.16,0,0,44-6.45,52.14-74.69,0,0-1.05-29.08,17.61-23.06,0,0,11.09,8.72,7.11,35.75,0,0,44.82-22,27.73-85.2,0,0,6.66-37.37,10.16-41.14,0,0-.79,61.18,38.21,61.22,0,0-10-25.12,3.23-62.73,0,0,35.48-45.7,14.63-78.42,0,0-7.83-55.58,20.67-32.33,0,0,13.7,16.53,8.79,41.45,0,0,31.6-92.14-19.42-166.41C702.35,455,707.64,471.68,707.64,471.68Z" transform="translate(-195.25 -115.01)"/><path class="cls-5" d="M659.77,474.53a205.87,205.87,0,0,1-7.18-22.44c-1.94-15.25-3.73-29-4.33-29.13,3.26,0.73,26.51,4,27,6.2-3.95-17.9-15.39-39.88-24.22-56.14-0.12-.21-18.79,10.15-18.9,9.89l0.64,35.28-7,38.51-5.32,13.82-34.34,38.58-25.33,116.5L550.16,672l-31.41,5.37-49.2-5.74-23.35,5.27c-0.46-12.36-83.27,39.92-91.13-65.33-0.46-6-8.43-25.55-8.33-32.49,0,0-37.26-75.14-54.61-99.41-30.69-42.94-18-85.94-18-85.94-7.34,4.25-9.72-11.67-17.93-9.29-7.63,2.2-5.51,32.21-12.16,37.07-8.54,6.25-10.59,17.87-18.55,24.67,7.49-4.43,17.29-7.75,26.14-7.41,26,1,19.46,26,12.11,42.67-10.53,23.95-27.19,46-11.67,72.55,0,0,24.24-5.2,24.24-5.2,1.9,4.6,11.63,47.91-10.78,93.36,32-9.42,38.59-44.16,55.71-53.51,8,42.95-17.48,62,3.19,126.06,5.31-.1,13.41-5.78,21.79-11.73,0.05,0,13.59-7.4,14.31,52.12,0,0-2.46,31,12,51.25A115.35,115.35,0,0,1,389.52,773c5.26-5.88,12.25-10,17.55-15.88-1.63,7-10.63,38,3.62,41.31,35,8.2,39.36,59.73,39.36,59.73,10-1.81,13.68-35.44,13.68-35.44-2.65-13.75-2.75-33.89,3.43-47,18.74-39.82,51.18,18.94,51.36,38.46,0-.65,2.81-3.38,3.23-4a46.53,46.53,0,0,0,6.14-13.38c2.31-8,4-16.72,3.81-25.07-0.15-7.7-2.58-16.69,4.74-22,8.25-5.94,21.18-5.9,30.79-5.06-1.8-23.27,22.76-27,30.35-49.39,0.7-2.13-5.17-12.08-1.49-10.93,39,10.48,52.06-47.7,40.89-74.21-10.12-24-5.88-54.39,15.25-67.65,4.78-1.06,22.18-3.41,34.58,14.84C686.79,557.32,688.84,504.56,659.77,474.53Z" transform="translate(-195.25 -115.01)"/><path d="M634.67,434.11A90.7,90.7,0,0,0,636.8,419,41.88,41.88,0,0,0,634.67,434.11Z" transform="translate(-195.25 -115.01)"/><path d="M585.6,545.46c0-9.9-10.27-10.78-11.88-5.46-0.39,1.29-.75,2.56-1.12,3.85,4.53,0.66,8.55,3,13.07,3.7C585.64,546.86,585.6,546.17,585.6,545.46Z" transform="translate(-195.25 -115.01)"/><path d="M289,612l-0.07.36C289,612.21,289,612.09,289,612Z" transform="translate(-195.25 -115.01)"/><path d="M360.51,637.84s-0.09.94-.2,2.6c0.12,0.24.23,0.48,0.35,0.71C360.64,640,360.59,639,360.51,637.84Z" transform="translate(-195.25 -115.01)"/><path d="M360.31,640.44c-0.13,2.1-.28,5.37-0.3,9.54a50.11,50.11,0,0,0,.65-8.84C360.54,640.92,360.43,640.68,360.31,640.44Z" transform="translate(-195.25 -115.01)"/><path class="cls-6" d="M803.82,161.26a35.53,35.53,0,0,0,1.7-3.86S804.94,158.84,803.82,161.26Z" transform="translate(-195.25 -115.01)"/><path class="cls-6" d="M803.82,161.26c-17.59,33.78-82.54,2-82.54,2C659.18,97.07,615,187.43,615,187.43c-0.26.36-.48,0.7-0.73,1a10.79,10.79,0,0,0-1.32-1.4c-8.78-8.1-19.39-6.57-23.76,5.19a36.7,36.7,0,0,0-1.88,8.61c-33.37-82.53-139.18-82.23-139.18-82.23-38-.23-66.62,7.83-88.11,20.45-14.45,8.5-33.74,12.55-32.93,35,0.15,4.16-6.29,2.3-8.41,5.75a144.13,144.13,0,0,0-14.57,32.57,187.62,187.62,0,0,0-7.61,68.17c26-95,138.61-91.7,138.61-91.7,116.82-3.19,149.83,49.28,158.61,71.93,2.54,11.62,4.78,19.82,4.78,19.82,0.89,3.21-3.56-12.86,13.84-20.49,10.57-4.64,18.42,2.87,18.42,2.87,5-4.37,4.11-4.63,4.54-7.48,8.5,2.86,16.11,8.18,23,13.84,15,12.41,23,28.12,36.13,41.78,14.78,15.37,35.05,22.85,56.34,21.45-2.39.16-9-22.86-9.52-24.73-6.89-23.62-2.6-49.06-15-71.34a80.11,80.11,0,0,0-17.64-22C763.63,238.29,796.26,177.49,803.82,161.26Z" transform="translate(-195.25 -115.01)"/><path class="cls-7" d="M612.45,186.67c0.16,0.14.3,0.26,0.45,0.41A4.07,4.07,0,0,0,612.45,186.67Z" transform="translate(-195.25 -115.01)"/><path class="cls-7" d="M669.45,179.53s3-1.69,11.33,9.43c0,0,31.87,37.77,84.39.28,0,0-39.94,6.53-55.38-21.41,0,0-50.15-48.57-92.35,26.76l-0.26,25s26,15.38,18.7,36.18l0.94,2.36s39-4.36,60.23,40c0,0,28.72,33.26,13.09-9.86,0,0-2.67-24.1-20.57-35.79a49.22,49.22,0,0,1,24,19.64s14.58-42.16-40.21-57.59c0,0-47.15-3.38-17.71-14.65C655.63,199.84,642.52,179.62,669.45,179.53Z" transform="translate(-195.25 -115.01)"/><path class="cls-7" d="M627.47,236.23c-5,13.7-21.46-4.42-21.46-4.42,6.21-5.08-2.43-25.23-2.43-25.23-0.84-26.21,6.88-21.54,8.87-19.92-21-19.16-24,6.88-24,6.88l-6.23,2.32c20.13,28,14.62,77.17,14.62,77.17,14.9-21.93,35.22-12.57,35.22-12.57C644.42,249.18,627.47,236.23,627.47,236.23Z" transform="translate(-195.25 -115.01)"/><path class="cls-7" d="M426.29,123.42l1.62-.21Z" transform="translate(-195.25 -115.01)"/><path class="cls-7" d="M427.91,123.21l0.78-.1Z" transform="translate(-195.25 -115.01)"/><path class="cls-7" d="M331.31,173.28c-0.08.08-39.95,37-33.43,87.61,0,0,23.8-37.88,51.71-49.88,0,0,5.4-45.34,46.57-46.86,0,0-28,1.37-27.31-10.68,0,0-1.41-18.15,26.38-14.79-1.92-.23.42-5.1,0.79-5.75,4.13-7.17,22.89-12.64,30.12-13.41-17.89,2.92-40.75,7.39-57.48,14.53-8.62,3.68-18.43,12.21-25.32,18.7C337.46,158.26,336.29,168.68,331.31,173.28Z" transform="translate(-195.25 -115.01)"/><path class="cls-7" d="M422.78,123.89l3.51-.48C425.07,123.57,423.91,123.73,422.78,123.89Z" transform="translate(-195.25 -115.01)"/><path class="cls-7" d="M428.69,123.11l4-.43S431.22,122.81,428.69,123.11Z" transform="translate(-195.25 -115.01)"/><path class="cls-7" d="M463.79,118.06l-1.57-.15Z" transform="translate(-195.25 -115.01)"/><path class="cls-7" d="M572.74,180.25s-21.62-54.09-109-62.19c10,1,63.48,8.26,54.24,41.66,0,0-32.2.95-41.9,1.75,0,0,58.28,3.45,67.82,27.86,0,0,3.74,16.42.76,18.89,0,0,40.31,18.64,49.22,53.61,0,0,10.47-41.94-19.34-74.35Z" transform="translate(-195.25 -115.01)"/><path d="M483.55,353.36s6.09,34.12,48,38.43C531.53,391.78,479.74,409.43,483.55,353.36Z" transform="translate(-195.25 -115.01)"/><path class="cls-4" d="M416.68,278.34c-10-7.32-16.55-18.19-27.58-24.34a44,44,0,0,0-16.79-5.55c-4.24-.44-17.93,4.07-20.28,2.79l10.89,5.91s-29.18-1.85-40.29,13.11l14.53-.52s-25,12.78-31.66,37c0,0,26.51-18.44,40.08-18.91,0,0-8.1,6.12-11.42,14,2.54-6,25.92-4.77,31.07-3.53,21.64,5.25,33.77,20.08,57.88,17.8,0,0,6.3-7,14-.55-2.58-2.17-1.18-21.24-4.89-26.32C428.18,283.7,422.1,282.29,416.68,278.34Z" transform="translate(-195.25 -115.01)"/><path class="cls-4" d="M581.88,290.71s-1.27-32.77-28.12-30.69c0,0,13.74-11.74,24.79-3.41,0,0-18.39-16.81-44.46.88a18.4,18.4,0,0,1,7.2-12.33c-0.07.07-3.42-.71-3.69-0.73-4.06-.36-8.47.79-12.27,2.1-17.1,5.91-32.33,22-42.86,36.19-3.76,5.05-9.67,7-12.33,13.07s-2.84,13-2.4,19.34c0,0,1.18-6.69,12.56-3.37,0,0,27.34,12.2,59.14-19.52,0,0,14.37-10,25.61-.92,0,0-2.56-10.41-9.89-11.81C555.18,279.51,576.15,271.26,581.88,290.71Z" transform="translate(-195.25 -115.01)"/><path d="M409.56,593.15s42-23,78.85-18l-21,6.83S443.4,575.81,409.56,593.15Z" transform="translate(-195.25 -115.01)"/><path class="cls-8" d="M345.18,321.45c-4.51,6.41-2.06,22.23-.33,28.94,7.38,28.64,41,40.26,62.21,17.44,5.64-6.08,8.3-16.11,8.5-24.25,0,0-26.7,0-40-18.46C375.57,325.12,355.65,306.59,345.18,321.45Z" transform="translate(-195.25 -115.01)"/><path class="cls-9" d="M398.89,373.16s6.28-12-2.33-16.66c0,0-49.9-41.87-51.71-6.12,0,0-15-50.19,27-23.08,0,0,28.5,21.83,45.69,11.91C417.57,339.22,410.71,367,398.89,373.16Z" transform="translate(-195.25 -115.01)"/><path class="cls-10" d="M397.58,347.28a17.65,17.65,0,1,1-18.28-17A17.66,17.66,0,0,1,397.58,347.28Z" transform="translate(-195.25 -115.01)"/><path d="M389.24,346.68a9.67,9.67,0,1,1-10-9.31A9.66,9.66,0,0,1,389.24,346.68Z" transform="translate(-195.25 -115.01)"/><path class="cls-8" d="M556.9,314.4c5,6.05,3.67,22,2.44,28.83-5.3,29.11-38,43.12-60.8,21.88-6.06-5.64-9.44-15.46-10.23-23.57,0,0,26.63-1.94,38.55-21.29C526.86,320.26,545.38,300.33,556.9,314.4Z" transform="translate(-195.25 -115.01)"/><path d="M556.3,309.11a131.66,131.66,0,0,0,4,19.39c4.45,14.17,8.95,31.8-9.31,55.67C551,384.17,594.57,340.6,556.3,309.11Z" transform="translate(-195.25 -115.01)"/><path class="cls-9" d="M507.07,369.84s-7.13-11.47,1.13-16.77c0,0,46.74-45.38,51.14-9.85,0,0,11.34-51.15-28.65-21.06,0,0-26.84,23.84-44.7,15.18C486,337.35,494.84,364.58,507.07,369.84Z" transform="translate(-195.25 -115.01)"/><path class="cls-10" d="M506.51,343.94a17.65,17.65,0,1,0,17-18.28A17.64,17.64,0,0,0,506.51,343.94Z" transform="translate(-195.25 -115.01)"/><path d="M503.6,344.05a20.55,20.55,0,1,1,21.29,19.8A20.58,20.58,0,0,1,503.6,344.05Zm5.81-.22a14.74,14.74,0,1,0,14.2-15.25A14.76,14.76,0,0,0,509.42,343.84Z" transform="translate(-195.25 -115.01)"/><path d="M514.78,342.74a9.67,9.67,0,1,0,9.3-10A9.67,9.67,0,0,0,514.78,342.74Z" transform="translate(-195.25 -115.01)"/><path class="cls-11" d="M525.15,339.16a6.47,6.47,0,1,0,6.24-6.69A6.48,6.48,0,0,0,525.15,339.16Z" transform="translate(-195.25 -115.01)"/><path d="M489.56,334.4c-6.39-4.17-1.94-12.23-1.94-12.23,6.55,8.33,13,9.28,18,8,9.52-2.44,17.16-14.95,25.75-20,6.39-3.77,13.86-7,21.44-5.79,11.08,1.84,18.22,12.49,22.47,22a52.92,52.92,0,0,1,3.06,8.44c-9.85-17.9-22-28-40.81-14.45-13.46,9.7-23,23.57-42.82,24.47-26.62,1.2-20.09-8.89-29.52-16C474.12,333.4,482.29,334.83,489.56,334.4Z" transform="translate(-195.25 -115.01)"/><path d="M496.56,367.24c-7-6.54-10.37-17.42-11.14-25.41l-0.29-3,3-.22c0.26,0,25.27-2,36.28-19.92l0.34-.45c0.43-.47,10.74-11.41,21.58-11.8a15.45,15.45,0,0,1,12.84,6.08c7.06,8.61,3.09,31,3,31.19-3.57,19.63-19,33.82-37.65,34.49h0C514.36,378.6,504.68,374.81,496.56,367.24Zm32.6-45.2c-10.27,16.39-30,20.88-37.58,22,1.07,6.32,3.88,14.2,8.94,18.9,7,6.48,15.2,9.74,23.81,9.43h0c15.85-.58,29.06-12.79,32.14-29.71,1.5-8.24,1.92-21.9-1.82-26.47a9.64,9.64,0,0,0-8.13-3.95C538.74,312.57,530.48,320.71,529.16,322Z" transform="translate(-195.25 -115.01)"/><path d="M479.51,553.59c-2.23-.07-4.42-0.08-6.55,0a14.39,14.39,0,0,0,4.35.79C478.61,554.32,479.23,554,479.51,553.59Z" transform="translate(-195.25 -115.01)"/><path class="cls-12" d="M519.11,597.37s-7.77,18.87,11.81,18.32c0,0,7.55-5.06-3.48-12.1C527.44,603.58,524.62,597.16,519.11,597.37Z" transform="translate(-195.25 -115.01)"/><path class="cls-12" d="M558.34,715a17.87,17.87,0,0,0,2.84,2.83c7.41,5.71,21.44,3.62,28.26-2.08,5.59-4.67,5-11.39-1.79-14.71-11.57-5.71-20,23.27-36.62-12.52C552,696.77,552.74,708,558.34,715Z" transform="translate(-195.25 -115.01)"/><path class="cls-13" d="M633,711.35c3.38-4.62-4-15.78-16.52-24.91s-25.37-12.81-28.74-8.19a5.47,5.47,0,0,0-.6,4.59c-0.38-.67-0.77-1.37-1.15-2.08a41.67,41.67,0,0,0-14.25,15.67s-9.85,2.68-14.53-12.44c-12.6-40.78-16.6-107.42-59.3-130.44-3.64-2-9.52-2-12.68-4.13,0,0-4.35-3-4.29,4.92,0,3.67,9.7,13.34,11.7,16.51,20.22,32.15,20.65,70,26.1,106.51,3.17,21.31,6.55,46.37,20.82,63.45,14.08,16.82,37.58,20.12,57.56,11.45a65.29,65.29,0,0,0,17.72-11.8c2.87-2.66,17.33-26.44,18-26.45a34.17,34.17,0,0,1-6.36-.76C629.52,713.53,631.85,713,633,711.35Z" transform="translate(-195.25 -115.01)"/><path class="cls-14" d="M485.25,549.42s-4.35-3-4.29,4.92c0,2.66,7.38,10,8.85,12.67,6.51,12.14,12.84,23,17.6,36.2,5.16,14.27,7.15,37.88,8.57,52.91,5.56,58.44,17.13,104.27,65.94,99.78,0,0,32,.28,50.9-41.89-10.29,1.91-19-4.94-19-4.94-7,16.71-22.56,28.07-40.61,26.24-18.58-1.87-29.25-16-32.67-33-10-49.8-17.42-96.35-45.8-139.84C492.17,558.51,489.27,552.2,485.25,549.42Z" transform="translate(-195.25 -115.01)"/><path class="cls-4" d="M377.23,483.76S344,460.4,319,512.18c0,0-19,34.08-42.24,26.92,0,0-16.62-6-6.39-24.51-3.85,7-8.49,10.18-8.64,19.36-0.63,36.62,48.24,33.7,69.06,17.75l11.08-12.78S326.9,562.2,322.07,563c0,0,30.4,3.91,54.76-24.64,0,0-10.81,25.29-14.52,23.54,0,0,27.14,1.3,48.72-21.87,0,0-4.77,8.91-10.41,14.21,0,0,24.28-.15,32.74-14.3l-10.12,15.55s27.14-1,34-10c0,0,13.49,9.17,23.68,8.78,0,0-12.14-13.23-12.27-16.61,0,0,8.62,9.87,28.68,14.48,0,0-4.71-9.53-.57-15.5,0,0,21.79,17.59,51,15.12,0,0-12.9-7.78-12.13-13.14,0,0,35.13,18.63,56.61,8.63a39.1,39.1,0,0,1-25.74-14.12s37.45,15.63,57.09-5c0,0,13.5-15.53,7.22-28.4,0,0-7.22,28.4-32.77,19.63,0,0-13.86-7.27-20.48-15.77,0,0-30.53-45.72-61.34-18.64l-16.19-4.74s-24.44,61.06-94,16l-11.64-12.67S383.48,501,377.23,483.76Z" transform="translate(-195.25 -115.01)"/><path class="cls-5" d="M630.82,498.08s-3.73,14.62-15.26,19.65c-22.4,13.93-45.47-2.66-45.47-2.66-27.54-18-18.76,10.38-18.76,10.38-28.18-16.35-30.66,11.5-30.66,11.5-17-13-29-14.49-33.9-14.42a91.56,91.56,0,0,0,23.72-18.08s17.6,12.41,25.57-6.89c0,0,8.74-15.21,30.27-7,0,0-25.17-15.65-40.16-11.92,0,0-6,11.48-19.76,1.41,0,0-39.43,60.69-89,22.82l-14.82-19.07-17,7.43-10.88-13.35s-29.47-4.85-37.7,9.33c0,0,22.35-8.74,31.55,14.45,0,0,10,15.16,31.82,10.5,0,0,20.43,16.32,48,18.28a208.83,208.83,0,0,1-22.92-1.62c-15.63-10.17-33,10.8-33,10.8,1.53-40.11-42.59,1.81-42.59,1.81,10.56-30.05-17.83-14.72-17.83-14.72-33.42,34.39-55.26,10.6-55.26,10.6s-16.65-5.94-6.4-24.51c-3.85,7-8.48,10.19-8.64,19.37C261,568.84,309.87,565.93,330.68,550l8.37-4.52s-12.22,15-17.05,15.83c0,0,30.41,3.9,54.77-24.64,0,0-9.48,22.14-13.72,23.55,4.61,0,28.5-1,47.92-21.88,0,0-4.78,8.91-10.41,14.21,0,0,18.69,2.64,31.05-6.56l-8.45,7.83s27.17-1,34.08-10c0,0,13.47,9.16,23.64,8.8,0,0-12.13-13.24-12.25-16.64,0,0,8.61,9.87,28.68,14.49,0,0-4.72-9.53-.56-15.51,0,0,21.79,17.61,51,15.14,0,0-12.9-7.79-12.12-13.16,0,0,35.13,18.62,56.6,8.63a39.08,39.08,0,0,1-25.75-14.12s37.45,15.63,57.09-5C623.6,526.5,637.11,511,630.82,498.08ZM466.55,529.51a70.78,70.78,0,0,0,14.21-4.2C477,527.4,472,528.73,466.55,529.51Z" transform="translate(-195.25 -115.01)"/><path d="M372.73,495.71S352.36,482.88,335.09,515C335.09,515,357.21,495.42,372.73,495.71Z" transform="translate(-195.25 -115.01)"/><path d="M388.88,504.62s-9.79-7-36.43,34.42C352.45,539,368,524.07,388.88,504.62Z" transform="translate(-195.25 -115.01)"/><path d="M500.9,515.74s2.87,9.2,22.06,22.1c0,0-16.88-18.24-17.62-25.53C505.34,512.31,500,505.65,500.9,515.74Z" transform="translate(-195.25 -115.01)"/><path d="M529.48,501.76s18.18-9.49,35,12.79c0,0,19.32,18.41,29.89,15.72,0,0-20.89-7.29-27.31-20.19C567,510.08,548.71,481.34,529.48,501.76Z" transform="translate(-195.25 -115.01)"/><path d="M526.27,514a47.46,47.46,0,0,1,23.46,18.09S544.86,509.84,526.27,514Z" transform="translate(-195.25 -115.01)"/><path d="M441.27,540.8s13.84-6,13.52-17C454.79,523.8,443.41,534.89,441.27,540.8Z" transform="translate(-195.25 -115.01)"/><path d="M409.56,518.23s-13.88,5.29-19.37,22.47C390.19,540.7,394.94,514.79,409.56,518.23Z" transform="translate(-195.25 -115.01)"/><path class="cls-15" d="M271,371.45a7,7,0,0,0-.94,0c-3.11.2-7.7,3.28-10.88,4.19-6,1.71-19.2,5-19.56-4.94,0,0-.26-12,26.18-13.08l6.52-9.87c-2,2.93-10.53,3.34-13.58,3.95-10.66,2.11-20.14,5.53-27.7,13.67-7.39,7.94-10.37,21,2.23,23.47,13.88,2.77,28.88-4.45,40.87-10.5C280.14,375.24,274.87,371.77,271,371.45Z" transform="translate(-195.25 -115.01)"/><path class="cls-11" d="M241.11,379.49a6.55,6.55,0,1,1-6.78-6.31A6.53,6.53,0,0,1,241.11,379.49Z" transform="translate(-195.25 -115.01)"/><path class="cls-5" d="M389.8,287.42S381.63,266,337.69,274l-14.75,4.73c-6.62,6.17-13.61,14.94-16.67,26.13,0,0,26.52-18.43,40.09-18.92,0,0-8.11,6.12-11.42,14,2.52-6,25.92-4.77,31.07-3.52,21.63,5.25,33.76,20.07,57.87,17.81,0,0,5.4-6,12.3-1.79-0.77-1.2-1.6-2.45-2.5-3.77C433.68,308.67,402.58,305.21,389.8,287.42Z" transform="translate(-195.25 -115.01)"/><path class="cls-5" d="M580.84,291.34a48.13,48.13,0,0,0-3-13.75c-27.59-25.37-83.09,12.47-83.09,12.47-1.78,9.74-13.2,17.93-19.1,21.56a26.13,26.13,0,0,1,3.62.78s27.34,12.21,59.13-19.52c0,0,14.38-10,25.63-.93,0,0-2.55-10.39-9.88-11.8C554.16,280.15,575.12,271.9,580.84,291.34Z" transform="translate(-195.25 -115.01)"/><path d="M455.12,812.08c5.25,22.15-5.08,46.05-5.08,46.05C474.18,836.13,455.12,812.08,455.12,812.08Z" transform="translate(-195.25 -115.01)"/><path d="M587.44,340.84s20.7,35.54-23.08,51.8c0,0,23.36-2.24,33.72-13.84,10.66,10.71,12.11,32.45,12.11,32.45,5.3-19.54-2-32.46-8.11-39.31a18,18,0,0,0,.81-6.17S602.29,349.05,587.44,340.84Z" transform="translate(-195.25 -115.01)"/><path d="M318.25,350.59c-14.23,9.27-13.62,26-13.62,26-24.93,14.84-14.85,52.34-14.85,52.34-2.73-35.79,17.71-43.17,17.71-43.17h0C316.7,399.95,345,400.6,345,400.6,300.18,387.55,318.25,350.59,318.25,350.59Z" transform="translate(-195.25 -115.01)"/><path d="M471.13,363.88s10.19,15.83,11.79,59.76C482.92,423.63,497.55,369.71,471.13,363.88Z" transform="translate(-195.25 -115.01)"/><path d="M450.91,354.91c-13.09-.87-21.5,1.77-27.4,8.24-0.11-2.37-.35-4.9-0.74-7.59,0,0-3.6,34.47-45.06,41.8,0,0,22.21,5.8,35.72-5.24-0.46,15.17-.36,39.26-11,43.18C441.9,439.4,400.07,351.56,450.91,354.91Z" transform="translate(-195.25 -115.01)"/><path d="M420.81,448.21s30.77-19.58,65.82-2.39C486.63,445.83,448.47,408.39,420.81,448.21Z" transform="translate(-195.25 -115.01)"/><path d="M414.84,324.18c-5.93,8.78-12.32,10.2-17.38,9.29-8.68-1.56-14.64-8.57-21.15-13.85-7.46-6.05-18-10.86-27.79-8.5-10.91,2.65-17.27,13.77-20.82,23.58a51.12,51.12,0,0,0-2.43,8.64c3.53-7.69,7.55-14.06,12.46-18-20.33,31.81,18.37,65.3,18.37,65.3-15.7-17.72-17-32.6-15.24-45.18,0.58,3.34,1.14,5.6,1.16,5.67,5,19.32,21.45,32.34,40,31.67,10.2-.37,19.57-4.86,27.12-13,5.78-6.23,8.44-15.61,9.1-23.25,16.11-2.49,11.68-10.61,19.38-17.37-8.56,5.25-16.61,7.27-23.88,7.35C419.87,331.9,414.84,324.18,414.84,324.18Zm-20.51,20.58a14.72,14.72,0,0,1-13.85,17.88,14.73,14.73,0,0,1-4.52-28.9C381.74,338,387.5,342.21,394.33,344.77Zm10.6,21.06c-6.49,7-14.46,10.82-23.07,11.13h0c-15.83.58-29.9-10.65-34.21-27.3-2.08-8.1-3.51-21.7-.09-26.54a13.4,13.4,0,0,1,2-2.23c4.5,0,9.57,1.54,15.36,5.11,1.9,1.16,3.74,2.42,5.54,3.71a20.55,20.55,0,1,0,30,17.47c0-.22,0-0.44-0.06-0.67a39.47,39.47,0,0,0,9,.78c1.06,0,2-.07,3-0.13C411.64,353.4,409.44,361,404.93,365.83Z" transform="translate(-195.25 -115.01)"/><path d="M606.51,700.09c7.92,5.79,16.06,8.1,18.19,5.18s-2.54-10-10.44-15.76-16.05-8.1-18.18-5.17S598.62,694.32,606.51,700.09Z" transform="translate(-195.25 -115.01)"/><path d="M466.06,700s-10.69,53.12,14.86,62.23C480.91,762.28,469,751.83,466.06,700Z" transform="translate(-195.25 -115.01)"/><path d="M311.1,724.84c3.16-5.2,7-31.58,7-31.58,3.25-14.2,16.34-38.85,16.34-38.85C300.76,681.05,311.1,724.84,311.1,724.84Z" transform="translate(-195.25 -115.01)"/><path d="M256.33,662.59c5.47-17.62,24.42-26.26,35.09-40,3.32-4.26,6.64-14.51,10.71-17.41-7.45,5.29-19.21,15.9-19.21,15.9A65.85,65.85,0,0,0,256.33,662.59Z" transform="translate(-195.25 -115.01)"/><path d="M775.21,173.14c-19.39.71-39.89-6.07-55.77-17-14.09-9.7-27.18-21.39-45.41-20.74-32.73,1.19-54.68,36.42-60.7,47.3a19.42,19.42,0,0,0-12.3-4.32c-6.48.23-11.81,4.38-14.82,11.44a116.66,116.66,0,0,0-18.86-26.92C522.91,115.34,451.11,115,448.11,115c-35.66-.19-66,6.85-90,21-2.7,1.59-5.69,3.06-8.58,4.49-8.67,4.3-18.13,9-23,18.18-4.64,8.83-9.66,21.12-16.26,28.6-10.71,12.2-18.21,30.9-18.16,59.43-1.57,9.13-2.51,17-3,23a30.83,30.83,0,0,0-17.74-5.19c-7.61.28-14.49,4.77-20.42,13.37-6.29,9.12-3.36,20.81,1.89,29.67,3.85,6.53,9.19,11.82,13.3,18.1,3.49,5.31,7.21,14.56,2.86,20.39-0.33.46-.81,1.11-1.39,1.93-6.67,1.85-13.53,2.13-20.13,4.42a44.59,44.59,0,0,0-18.11,11.5c-4.67,5-8.45,13-6.39,19.35,0.92,2.83,3.36,6.46,9.79,7.74a32.89,32.89,0,0,0,5.55.63,103.19,103.19,0,0,0-13.34,13c-13.38,15.62-29.41,43.79-29.69,89.28l-0.07,10.91,6.61-8.7c0.12-.15,9.72-12.59,24.72-19.16C214.81,492.74,197,526.63,218,568.75l0.18,0.37,0.25,0.32c0.51,0.63,12.43,15.59,6.6,37.54l-2.81,10.59,8.58-6.8c0.63-.51,12.22-9.93,16.82-29.75,3.42,16.68,5.38,42.08-6.32,64.62-0.85,1.66-20.38,41.19,15.75,85.66l10,12.28-3.61-15.4c-0.1-.4-8.84-39.32,18.87-59.89,4,6,12.6,25.51,0,70.35-0.16.53-15.6,52.57,37.13,79.49l13,6.62-8.37-12c-0.83-1.18-19.66-28.84,1.83-61.43a12.93,12.93,0,0,1,8,4.12c6,6.07,12.86,21.11,11.24,58.23v0.16c0,0.44.66,43.47,46,60.78l8.58,3.28-4-8.25c-0.16-.36-16-33.54.12-50.79a33.62,33.62,0,0,1,21.37,11.88c11.08,13.16,14.34,36,9.39,66.21l-0.89,5.44,5.36-1.33c0.51-.13,50.72-13.22,50.37-65,0-6.4,1.26-24.27,7.11-32,3.87,5.46,11.21,17.47,11.44,30.31-0.4,8.62-2.84,32-9.47,38.62l-7.85,7.78,10.94-1.61c1.9-.26,46.82-7.65,55.22-77.85l0-.56c0-.2-0.41-19.77,8.94-20.11a10.37,10.37,0,0,1,3.16.41c1.78,1.92,8.51,10.78,5.4,32l-1,6.85,6.21-3.06c0.42-.21,35.21-17.94,33.55-64.62a73,73,0,0,0,12.23-9.11,25.29,25.29,0,0,0,2.48-3.06c0.58,0.65,1.15,1.31,1.76,1.93A33.09,33.09,0,0,0,646,752.1l5.37,0-2-5c-5.75-14.47-4.32-34.42-.27-49,3.33-11.92,11.46-21.67,16.43-32.85,5.27-11.85,8.89-23.93,8.48-37-0.29-9.69-5.21-18.29-6.89-27.68-1.21-6.69-1.91-16.05,1.09-22.36,6.79-14.26,19,7.21,21,13.22,2,5.8,2.18,5.76,3.75,11.67,0.45,1.69,1.51,13.47.9,15.24a174,174,0,0,0,12.49-57.1c1.32-28.09-2-68.43-24.51-105.59,18.2,5.69,29.48,19.74,29.48,19.74-5.54-36.52-18.41-71.15-45.91-96.5-4.54-4.18-9.91-8.33-15.7-10.66-6.57-2.64-5.88-3.5-8.81-10.1-3.51-7.94-11.29-14.24-14.47-21.89-6.28-15.07,5.69-26.45,6.2-26.93L633,309l0.26-.37c18.09-27.18,8.2-39.68,6.28-41.71a42,42,0,0,0-4.12-4.47c0.63-.82,1.18-1.63,1.66-2.38,7.32,3.06,13.74,7.87,18.82,12.07,8.5,7,14.62,15.06,21.08,23.59a192.94,192.94,0,0,0,14.76,17.91,74,74,0,0,0,56.84,22.68c0.78,0,1.56-.07,2.35-0.11a205.4,205.4,0,0,0-6.19-29.11l-0.09-.28c-2.66-9.13-3.62-18.85-4.56-28.26-1.45-14.66-3-29.81-10.77-43.83a91.78,91.78,0,0,0-8.3-12.41,59.67,59.67,0,0,0,14.24,1.25c40.88-1.49,65.16-46.6,71.69-60.54C807.71,161.67,787.68,172.69,775.21,173.14ZM592.55,193.54c1.84-5,4.94-7.75,8.75-7.89,2.92-.1,6.17,1.35,9.15,4.09,4.25,3.93,4.72,10.74,5.17,18-1.55,7.35-4.4,16.53-9.62,24.11a13.19,13.19,0,0,0,12.35-8c0.12,0.28.23,0.58,0.35,0.86a64.19,64.19,0,0,0,6.44,10.52c4.49,6.34,8,11.37,6.59,19.38a9.51,9.51,0,0,1-2,3.58,21.08,21.08,0,0,0-11.52-3c-6.71.24-12.68,3.85-17.5,8.24,0.82-23.52-2.46-44.56-9.74-63A32.82,32.82,0,0,1,592.55,193.54ZM382.71,166.79s-23.08-4.84-45.94,3.07c-0.38.12,1-6.84,1.19-7.47,3.26-11.82,15.41-17.31,26.45-20,8.38-2,22.45-5.91,30.83-3.77a89,89,0,0,0-22.55-2.08c18.43-8.49,40.19-13.25,64.93-14.15,3.41-.12,6.91-0.17,10.47-0.15,27.41,0.17,57.91,7.43,81.63,21,11.74,6.74,23.06,14.64,32.35,24.58,1.61,1.73,3.13,3.51,4.61,5.32-34.75-22.9-95.49-11.8-95.49-11.8,69.71,0.17,101,26.74,112.68,40.89q8.74,21.65,9.61,48.48c-10.42-22-29.07-38.67-55.76-49.71a181.43,181.43,0,0,0-33.25-9.92c-40.62-8.25-84.65-9.76-124.68,2.48-11.77,3.6-22.63,9.13-33.43,14.94C325,220,309.84,235.18,300.91,253.82,302,229.07,312.47,176,382.71,166.79ZM590.38,323.11c-2.67.73-6.27-1.27-9-3.2q-1.67-4.46-4-9.27a32.35,32.35,0,0,0-7.67-12.37l-1.89-7.64c-0.89-3.57-3-6.45-4.61-9.62,7-2.28,14,4.36,15.78,10.53l4.26,11.3,1.44-12.24c-0.4-10.38-5.59-28.6-21.64-32.72a18.34,18.34,0,0,1,6-1.33c2.91-.1,11.4-2.07,11.4-2.07a31.55,31.55,0,0,0-12.89-6.66c-7.26-1.92-20.79-2.75-27.17,2.42,1.28-1.21,2.92-2,4-3.34,0.05-.07,4.17-4.89,4.17-4.89-8.17-.34-16.4-0.93-24.27,1.8-10.55,3.64-19.75,10.53-27.72,18.2-7.81,7.51-13.7,17.12-21.93,24.1A31.49,31.49,0,0,0,466.8,296c-23.68-28.91-53.63-55.87-90.46-66-12.25-3.37-25.91-6-38.64-6.47a117.45,117.45,0,0,1,13-9,147.71,147.71,0,0,1,13.5-6.3c41.46-17,92.37-19.8,136.12-10.58,34.45,7.26,55.69,20.8,68.48,33a87.27,87.27,0,0,1,22,32.7c0.83,2.45,1.56,5,2.21,7.6C591.77,275.92,586.66,299.41,590.38,323.11Zm-54.64-63.2c7-4.77,14.1-7.32,21-7.58a30.42,30.42,0,0,1,4.25.15,35.09,35.09,0,0,0-9.13,5.34l-6.8,5.81,8.92-.69c12.93-1,19.18,7.16,22.19,14.92a21.06,21.06,0,0,0-12.25-3,32.31,32.31,0,0,0-9.8,1.93l-9.33,3.66,9.85,1.89a7.45,7.45,0,0,1,4.16,2.74,21.59,21.59,0,0,0-5.47-.49c-8.35.3-15.26,5-15.55,5.23l-0.39.34c-1.92,1.92-3.81,3.63-5.67,5.23a169.11,169.11,0,0,0-30,6.11c-7.92,2.46-17.9,10.67-26,6.14a7.8,7.8,0,0,1-3.91-8.52c1.34-5.73,7-8.48,10.85-12.3,4.18-4.15,7.38-9.33,11.33-13.73,8.87-9.89,19.5-19.39,32.27-23.81a33.38,33.38,0,0,1,8.83-2,21.15,21.15,0,0,0-3.94,10l-0.46,6Zm17.8,30.53a14.33,14.33,0,0,1,9.73,3.14l1.33,1.07c-3.71-1.75-8.34-2.35-14-.64,0,0-3.56,0-9.22.46A26.67,26.67,0,0,1,553.53,290.43Zm-253.26-9.91c5.89-20.91,16.14-36.84,28.44-49,26.22,2.65,99.69,16.85,138.53,92.94a29.47,29.47,0,0,0-2,4.36s0.67,79.91,86,61.71c0,0,43.26-9.81,34.49-55.67a7.72,7.72,0,0,0,6.78-1.78,74.55,74.55,0,0,0,3.41,9.73l0.29,0.69,0.55,0.51c0.44,0.42,45.51,43.44,30.26,88.75a231.34,231.34,0,0,1-8.89,23.54c-7.36,6.48-20,16.25-33.06,20.25,0,0,12.33,1.05,21.26-.68-2.31,3-4.79,5.89-7.22,8.73-5.59,6.55-11.32,13.34-15.42,21.32A33.74,33.74,0,0,1,580,502c-1.45-2.14-20.3-29.26-44.1-28.39-0.9,0-1.78.11-2.67,0.22,0.07-19.12-3.51-30.63-8.34-37.44,23.63,1.73,37.53,22.5,37.53,22.5-16.67-44.78-54.75-32-54.75-32l0.07,0a22.33,22.33,0,0,0-7.29,1c26.6,10.69,16.44,51.83,16.44,51.83-16.11-15.92-29.08,1.05-29.08,1.05-5.65,18.63-20,26.14-31.88,29.13-0.41,0-.81.06-1.24,0.08a55.54,55.54,0,0,1-12.49-1c-10.8-3-22.43-10-28.37-25.48,0,0-14.17-16-29.08,1,0,0-13.11-40.28,12.65-52.86,0,0-32.88-24.64-60,27,0,0,25.65-26.87,38.63-20.06-5.35,6.31-9.29,17.74-8.19,38.15a35.07,35.07,0,0,0-9.85-1c-11.05.39-26.84,6.46-40.29,32.62-3.84-5.46-7.83-10.81-11.93-16.28-3-4-6.11-8.21-9.18-12.45,13.57,9.3,26.6,6.19,26.6,6.19C286.35,470.65,265,436,277.1,396.57a112.92,112.92,0,0,1,17.7-34.43c4-5.23,7.81-10.11,9.76-16.51,2-6.57,2.25-13.58,2.23-20.41,0-5.12-.22-10.24-0.67-15.32l1.05-.74c5.35-3.71,18.36-11.93,28.95-16a32.54,32.54,0,0,0-4.63,7.57s8.45-.13,17.79-0.47a71.83,71.83,0,0,1,15.27.9c8,1.93,14.74,5.28,21.28,8.52,10,4.95,20.34,10.06,34.34,9.57,4.27-.16,6.77-2.5,11.05-2.56,3.67,0,6.74.66,7.78-3.85,0.49-2.14-.7-6-0.87-8.2-0.51-6.74-1-13.7-3.52-17.1-3-4.12-6.88-6.2-10.62-8.22a49.63,49.63,0,0,1-5.58-3.34A87.54,87.54,0,0,1,407,265.45c-4.86-5.07-9.89-10.31-16.52-14a44,44,0,0,0-37.45-2.92c-0.12,0-7,2.59-6.79,2.7l5.73,3.29c-10.16.93-24.35,4.08-31.71,14l-3.61,4.86,10-.37c-7.1,5.35-16.6,14.3-21.84,26.79q-0.78-4.75-1.94-9.44C302.4,288.26,299.68,282.64,300.27,280.52ZM564.32,535a41.37,41.37,0,0,0,16.3,12.2c-0.54,0-1.09.08-1.65,0.09-19.17.71-41.67-11.09-41.9-11.19l-3.65-1.94-0.59,4.09c-0.55,3.79,2.68,7.72,6.24,10.82-23.36-1.15-40.26-14.51-40.42-14.66l-2.44-2L494.42,535c-2.76,4-2.48,9-1.62,12.76l-0.64,0c-14.63-4.64-21.21-11.88-21.28-12l-5.4-6.19,0.3,8.21c0.1,2.59,3.6,7.52,7.7,12.44a63.53,63.53,0,0,1-14.57-7.13l-2.27-1.53L455,543.78c-3.94,5.14-17.22,7.53-26.1,8.42l6.06-9.31c0.23-.33-10.15,3.19-18.67,5.64a79.86,79.86,0,0,0-8.08,1.4,82.44,82.44,0,0,0,5.41-8.5l10.59-19.76-15.29,16.41A66,66,0,0,1,370,558.46c3.57-5.51,7.2-13.45,9.56-18.94L387,522l-12.41,14.54c-15.75,18.44-33.93,22.82-44.64,23.63,5-5.53,10.6-13.85,14.29-19.63l-15.53,9.08c-8,6-20.16,10-31.91,10.41-11,.41-20.13-2.38-25.7-7.83-5.36-5.27-7.59-13.64-6.26-21-0.55,3.06,6.49,8.59,8.74,9.75,18.92,9.8,40-12.25,47.89-27.36l0.08-.15c9.87-20.43,22.53-31.5,36.59-32a30.59,30.59,0,0,1,10.5,1.53c1.85,5.2,8.59,19.52,25.15,10.89,0,0,12.87,26,58.27,23.62,45.44-.94,56.42-27.79,56.42-27.79,14.55,6.29,20.86-3.42,23.32-9.74a23.79,23.79,0,0,1,4.27-.56c21-.76,38.92,25.65,39.11,25.92l0.12,0.16c6.93,8.91,20.83,16.25,21.41,16.55l0.41,0.18A31.39,31.39,0,0,0,608.33,524c10.69-.39,17.26-7.25,21-13.46-1.45,8.24-7.77,15.62-7.77,15.65-5.8,6.08-14,9.35-24.28,9.72-15.06.54-29.46-5.36-29.59-5.42l-10.59-4.4Zm4.42,157.81c-2.43-.49-5.76-2.62-8-9.91-1.56-5.07-3-10.52-4.38-16.28,4.42-2.31,8.31-1.12,11.08,6.19C570.82,681.88,567.42,683.8,568.73,692.84Zm-11.58-67.4a60.82,60.82,0,0,1-5.71,20.07c-5.19-22.6-11.2-46.38-22.37-65.49a21.56,21.56,0,0,0,.9-6.77c-0.07-5.06-2.19-9.59-6.29-13.48C518,554.37,509,549.84,499,548.4a16.55,16.55,0,0,1-.88-7.18c7.2,4.86,26.07,15.55,50,13.51L557,554l-7.69-4.63a48.82,48.82,0,0,1-5.2-3.64,106.34,106.34,0,0,0,25.32,7C563.18,574.32,557.16,599.51,557.15,625.45Zm-35.38-56.2c-1.58-2-3.23-3.92-5-5.75a20.64,20.64,0,0,1,1.88,1.56A13.72,13.72,0,0,1,521.77,569.25Zm-164.37-4c6.93,0.45,24.79-.3,30.31-5.62a19.16,19.16,0,0,0-4,5.42c-3.18,6.51-1.82,13.92,4,22,11.78,16.31,31.68,5.36,46.7,1.34,19-5.06,39.81-3.49,58.76,1l2.92,0.72,2.63,0.64c8.17,20.24,10.83,42.1,13.59,64.94,0.68,5.64,1.38,11.42,2.16,17.17a66.52,66.52,0,0,1-8,.77c-11.19.41-21.74-2-32.56-4.49-19.92-4.6-38.59,5.78-58.28,6.5-21.16.76-34.16-7.87-42.1-17.72a61.14,61.14,0,0,1-12-26.59c-1.77-24.8-8.82-48.7-16.4-69.07,3.61-1.17,7.29-2.54,10.65-4l15.59-10.13c-3.54,2.31-5.62,6.76-8.83,9.5-3.43,2.92-7.67,4.67-11.4,7.16C352.51,563.87,355.81,565.12,357.39,565.21Zm137.4,17.06a149.16,149.16,0,0,0-39.36-4.09,96.35,96.35,0,0,0-29.79,5.53c-9.92,3.6-24.26,9.87-32.06-.93-4.15-5.76-5.29-10.66-3.38-14.57,3.53-7.24,17.37-11.77,29.59-12.72a11.88,11.88,0,0,0-1.55,2.8c7.22,1.39,15.43-2.26,23-1.58,5.55,0.49,8.61,2.14,14.27.37,3.61-1.13,7.18-2.76,11-2.54s7.53,2.15,11.44,2.58c1.21,3,4.18,6.68,8.2,11.4,1.45,1.7,2.94,3.46,3.45,4.27q2.95,4.7,5.34,9.51Zm113.31-64.06-0.35,0c-1.57,0-17.65-4-16.72-6.53,1.75-4.92,3.67-11,10.22-11,7.49,0.1,14,6.9,17.09,13.69C619,515.91,610.22,517.9,608.11,518.21ZM269.77,389.8c-3.59-.5-6.12-1.67-7.48-3.55,3.54-1.46,7-3.13,10.47-4.82C271.69,384.09,270.67,386.89,269.77,389.8Zm60.42-122.73c8-5.46,19.67-6.77,26.78-7,3.46-.13,5.73,0,5.76,0l13.15,0.82c-4.38-2.37-9.73-4.46-13.45-7.62,8.06-4.18,17.89-.8,25.25,3.3,5.86,3.26,10.38,8,15.15,12.94a92,92,0,0,0,13.37,11.7c4.48,3.13,10.39,5.27,13.7,9.79,3.11,4.27,2.71,13.95,2.69,19-4.74-.39-7,3.06-10.75,3.34-13.52,1-23.17-3.77-33.44-8.87-6.81-3.37-13.88-6.87-22.48-9-3.83-.93-20.68-3.86-23.76-0.46a44.47,44.47,0,0,1,5.17-4.86l7.38-5.58-9.22.35c-9.71.35-25,8.86-34.09,14.51,8.72-17.56,26.88-27,27.09-27.16l11.64-6Zm-60.29,90.6c5-8.16,9.2-15,7-25a34,34,0,0,0-11.15-18.55c-17-22.11-9.3-31.59-9.26-31.62l0.37-.46c4.58-6.68,9.57-10.17,14.78-10.37,6-.22,12,3.87,16.82,8.5,0,0.5,0,.8,0,0.91l7,17c0.17,1.67.32,3.44,0.44,5.27-4.78-7.14-12.47-12.27-24.86-10.15,0,0,6.19.94,12.55,7.23-11.92-.16,3,40.25,3,40.25-4.39-21.53-1-30.15,2.22-33.61a54.81,54.81,0,0,1,7,19.5,96,96,0,0,1-4.39,22.6,115.62,115.62,0,0,0-14.3,22.36,10.48,10.48,0,0,0-4.75-2.11c-1.92-.36-8.68,0-9.46,2.16A79.62,79.62,0,0,1,269.9,357.67Zm-36.24,29c-3.5-.69-5.68-2.32-6.5-4.82-1.3-4,.93-10.19,5.43-15a40.32,40.32,0,0,1,15-9.85,54.74,54.74,0,0,1,8.61-2.58c1-.23,7.56-0.54,8-1.32-0.5.8-1,1.65-1.54,2.54-25.22,2-25.28,14.55-25.27,15.16,0.26,12,15.62,8.93,23,6.64,4.06-1.27,10.37-6.33,14.22-2.08-10.78,4.85-21.64,11.45-33.73,11.89A30.76,30.76,0,0,1,233.66,386.65Zm26.43-26.42a61.31,61.31,0,0,0-5.62,14.32,32.57,32.57,0,0,1-5.61.79c-6.09.22-7-2.28-7.1-4.72C241.76,370.54,242.14,362.45,260.09,360.23ZM574.32,806.48c1.26-22.93-8.77-31.13-9.24-31.5l-0.51-.41-0.63-.2a18.84,18.84,0,0,0-6.4-1c-13.24.49-16.27,17.28-16,27.36-5.64,46.59-28.06,62.95-40.55,68.51,5.12-12.9,6.14-32,6.26-34.65V834.4c-0.24-15-7.65-29.5-17.54-40.47-13.81,8.07-15.65,27.64-15.55,42.2,0.25,36.83-27.5,51.49-39.5,56.11,4-29.82,0-52.06-11.89-66.19-12.05-14.28-27.66-14.59-28.31-14.59H393l-1.06,1c-15.73,14.86-10.54,39-6.18,51.81-32.28-16.71-33.31-48.14-33.34-50.36,1.38-31.86-3.1-53.25-13.35-63.57-5.89-5.93-12-6.38-14.37-6.29a12.11,12.11,0,0,0-1.48.15l-1.44.28-0.85,1.22c-16.83,24.23-13.2,46.73-8.46,59.73-34.9-24.84-23.76-62.93-23.21-64.76,17.21-61.12-3-79.33-3.89-80.09l-2.06-1.76L281,660.3c-23,14.84-26.51,39.74-26.16,55.37-22.14-35.88-7.75-65.39-7.07-66.71,21-40.37,2.19-87,1.39-89l-7.73-18.83,0.73,20.34c0.58,16-3.91,27.29-8.25,34.35a50.63,50.63,0,0,0-9.55-30.64c-26.34-53.29,13.77-91,15.49-92.58l9-8.22-12,2c-15.15,2.45-27,11.34-33.91,17.92,2.23-37.43,15.84-61.08,27.36-74.63a93.85,93.85,0,0,1,14.35-13.72c9.81-2,19.46,1,18.47,20.8,0,0-10.29-2.54-41.13,30.37l14.24-7.85c10.75-5.89,20.39-13.19,31.48-3,1.53,1.42,2.38,7.78,3.21,9.88,1.44,3.65,5.69,9.74,5.78,13.69a70.23,70.23,0,0,1-.51,9.4s-43.49,1.54-47.3,69.64c0,0,24.85-81.78,61.57-52.26,0,0,12.53,13.81-4.79,33.66,0,0,13.06-3.88,15.92-12.49,0.28-.89,5.52,6,9.16,11.37,1.41,2.08-14.2,13.77-16.05,14.79-7.54,4.12-20.39,5.5-24.12-4.51-1.37-3.66-2.78-16.25-2.78-16.25a58.61,58.61,0,0,1-3.19,5c-2.93,4.25-5.69,8.27-5.81,15.73-0.16,9.33,2.62,16.87,8.29,22.41,6.71,6.59,17.35,10,30,9.51a67.78,67.78,0,0,0,9.17-1c-3,.53-4.36,6.91-5.37,9.31-4.91,11.66-9.52,25.42-11.8,37.82,0.69-3.27,6.77-28.75,32.66-46.06a45.14,45.14,0,0,0,6.26.17c3.19-.45,1.44,24.57,1.18,26-4.08,22.86-26.71,39-25.16,63.4,6-25.68,31.49-39.37,38.19-64.83,5.81,12.69,24,60.71-11.5,102.13,0,0,24.93-16.17,29.35-42.83v-0.54l0.06,0.11c0,0.14,0,.28-0.06.43-0.1,15.63,1.58,43.82,12.81,69,0,0,11.14,27.68,1.83,50.41,0,0,19-13.84,3-64.68,0,0-8-26,12.93-25.69,8.84,0.15,19.86,3,22,12.39a44.75,44.75,0,0,1,.81,13.47c-0.51,5.88-1.8,17.57-5.31,22.3a74.55,74.55,0,0,0,9.84-19.3c2.39-6.68-1.29-15.29,6.48-19.83,5.92-3.45,12.8.37,15.93,5.72,8.26,14.1-5.36,32.78-11,45.38-2.59,5.83-7.51,14.62-7.44,21.21,0.19,18.66,16.9,33.4,26.34,48.14-4.72-7.38-19.48-36.34-17.6-47.1,1.8-10.23,10.39-26.44,14.55-35.58,10.43-22.9,4.19-25.07,9.11-41.15,4.09-13.36,16.88-11.23,22.83-.41,4.29,7.79,6,16.53,9.5,24.66s9.52,14.12,14.64,21.33C511.8,745,520,763.19,519.46,781.6c0.22-7.19.9-13.71-.23-21-2.91-18.6-11.08-31.45-21.26-46.87-4.62-7-7.86-17.4-3.39-25.31,4-7.09,13.7-7.29,20.89-8.4,3.19,21.51,6.85,45.8,21.32,63.11,9.72,11.6,24.44,17.94,40.4,17.35a58.54,58.54,0,0,0,20.75-4.63C597.91,784.42,583,799.9,574.32,806.48Zm46.22-84.92c-3.61,5.61-9.65,15-11.05,16.33-16.62,15.92-48.44,19.34-64.21.48-19.29-23.06-22.34-54.92-25.79-83.6-2.08-17.27-4.2-34.61-8.89-51.41A133.69,133.69,0,0,0,501,578.31c-1.39-2.74-14.54-20.9-13.8-21.36-0.56.36-1.77-2.45-1.8-2.79,27.65,5.65,39.46,28.48,48.14,53.49,2.21,6.37,4,12.86,5.78,19.36,2.39,8.76,4.41,17.59,6.43,26.44,2.58,11.38,5,22.13,8,31.63,4,13,11.79,15,15.78,15.16-0.08,5.86,7.95,12.28,7.95,12.28-2.65-6.79-2.52-12.13-1.91-15.48a39.4,39.4,0,0,1,9.24-10.93c8.5,14.5,21.55,27.68,38.63,30.92C622.64,718.26,621.68,719.76,620.54,721.56Zm-30.61-41.22a2,2,0,0,1,.17-0.36,3.3,3.3,0,0,1,2.47-.8c4.29-.15,12.83,2.75,22.21,9.61,13.12,9.6,17.38,18.81,15.89,20.84a1.64,1.64,0,0,1-.83.52C622.49,709.26,603.13,704.57,589.93,680.34Zm52.42-300.56c0.55,0.91,5.48-1,5.76-4.1,10.85,5.21,38.62,23.8,52.77,81.69-5.53-4.4-13.88-8.75-26.32-10.91L666,445l4.89,7.14c33.41,48.61,30.44,105.7,24.94,137.85-3-10.3-18.34-35.81-31.32-20.31-8.41,10.05-6.66,26.21-3.25,37.84,4.42,15,7.34,26.94,2.54,42.56A99,99,0,0,1,653,673.38a89,89,0,0,0-13.94,42.25c-0.19,2.44-1.29,28.26,2,28.82a26,26,0,0,1-12.61-6.05c-5.89-5-1.32-9.24,2-14.4,11-16.9,2.65-29-12.23-39.89-7-5.1-18.59-13.51-27.64-10.74-3.7,1.13-7.58,3.89-11.08,7.2,2.43-11.36-4-23.69-4-23.69-8.71-20.76-4-45.68-4-45.68,0-10.3,1.2-21.67,5.56-31.12,0.92,13.5,2.21,27.16,7.86,39.65,5.28,11.65,14.12,20.56,23.29,29.24-8.17-14.88-16.71-30.11-19.46-47.09-2-12.56,0-25.36-2.09-37.87-0.52-3.15-2-8.23-4.46-11.08a35.12,35.12,0,0,0,11.4-3L604,545.1l-11.46-.69A35.35,35.35,0,0,1,579,539.94a76.67,76.67,0,0,0,18.53,1.8c9.26-.33,17.08-2.78,23.37-7.29a62.64,62.64,0,0,1-1.42,9.49c-6.32,77.73,10.7,85,10.7,85a180.12,180.12,0,0,1-6.09-55c0.46-8.72,2.69-17.2,4-25.81a79.23,79.23,0,0,0,1-13.38c-0.05-2.53-1.26-6.9.21-9.15,3.9-6,9.24-17.05,4.33-27.09L630,491.4l-2,7.7a34.89,34.89,0,0,1-2.55,6.33c-1.18-2.81-3.66-5-4.7-7.63-4-10.17-1.09-27.86,10.27-31.11C642,463.57,650.49,485,653.91,492a307.64,307.64,0,0,1,13.14,31.41c0.85,2.4,1.69,4.81,2.52,7.23-1.27-16.19-5-32.35-12.56-46.8-6.75-12.91-17.47-23.84-21.41-38.13-2.56-9.26.77-17.09,1.78-26.25,0.09-.78.13-1.54,0.19-2.32,7.35-15.49,44.79,13,44.79,13-14.81-24.91-41.06-35.9-46.8-38-0.46-2-1-4-1.54-5.92A15.55,15.55,0,0,0,642.35,379.78Zm-14.9-75.48c-5.79,5.54-14.36,19.59-7.4,35.4l0.23,0.52,0.38,0.41c8,9.09,19.38,26.49,15.93,34.51-0.78,1.82-2.41,3.19-4.89,4.12-8.11-21.54-21.78-37-25-40.18-3.81-9.1-5.85-19.23-6.86-28.8a48.06,48.06,0,0,1,4.13-11.34c3.46,3.21,7.47,11.57,4.65,33.35,0,0,12-41.37.11-40.36,5.88-6.75,12-8.12,12-8.12-10.5-1-17.32,2.81-21.76,8.49v-1.43l1.14-16.1c4.67-5.92,11.36-12.12,18.42-12.39,5.23-.19,10.44,2.93,15.5,9.26l0.34,0.37C634.42,272.1,642.81,281,627.45,304.29Zm95.55-66c7.08,12.69,8.44,26.44,9.88,41,1,9.74,2,19.8,4.83,29.59l0.07,0.28c1.51,5.18,2.94,9.76,4.24,13.62,0.87,2.52,1.64,4.62,2.33,6.33A66.64,66.64,0,0,1,697,308.63a191.58,191.58,0,0,1-14.21-17.27c-6.43-8.48-13.08-17.24-22.25-24.79-5.4-4.47-12.24-9.57-20.2-13,22.14-12.8,60.54,31.73,60.54,31.73-26.69-52.51-55.87-45.25-63-42.49a34,34,0,0,0-3.09-6.32C662.09,214.8,703.28,252,703.28,252c-31.86-46.35-64.37-29.09-73.48-22.81a49.26,49.26,0,0,1-4.48-7.49c-6.76-14.79,8-10.2,16.33-12.66,12.95-3.82,26.77-6.24,40.2-3.7C704,209.46,717.13,227.77,723,238.31Zm12-22a57.65,57.65,0,0,1-24.6-4.93,59.54,59.54,0,0,0-27.23-13.25A73.34,73.34,0,0,0,667,197.06a121.82,121.82,0,0,0-32.41,6.08,15.92,15.92,0,0,0-4.44-1.19c7.76-7.44,25.75-22.85,38.7-19.37,0,0-20.54-10-35.37,7,33.49-44.89,53.33-13.43,53.33-13.43,21.71,35.76,58.74,13.82,58.74,13.82-34.48,12.75-53.2-21.48-53.2-21.48-31.11-33.48-60.29,7.07-71.22,25.71a22.88,22.88,0,0,0-2.53-5.87c3-5.75,24.44-44.49,55.7-45.63,19.91-.72,32.27,14,47.89,23.44,16,9.69,34.76,15,53.26,14.29a47,47,0,0,0,15.12-2.84C779.55,194.48,760.79,215.39,735,216.33Z" transform="translate(-195.25 -115.01)"/><path d="M434.56,243.21s5.93,12.1,12.75,12.82c0,0,15.39,9.15,23.27-14.12C470.59,241.91,449.4,255.62,434.56,243.21Z" transform="translate(-195.25 -115.01)"/><path d="M642.22,643.26s18.88-22.78,1.66-56.1C643.88,587.15,651,621.18,642.22,643.26Z" transform="translate(-195.25 -115.01)"/><path d="M489.81,613.63s-26.83-33.23-53.71,2C436.1,615.58,457,600.12,489.81,613.63Z" transform="translate(-195.25 -115.01)"/><path class="cls-11" d="M378.63,343.86a6.47,6.47,0,1,1-6.7-6.22A6.47,6.47,0,0,1,378.63,343.86Z" transform="translate(-195.25 -115.01)"/></svg>