<svg id="Layer_1" data-name="Layer 1" xmlns="http://www.w3.org/2000/svg" viewBox="0 0 716.17 761.94"><defs><style>.cls-1,.cls-4{fill:#2b3549;}.cls-2{fill:none;stroke:#231f20;stroke-miterlimit:22.93;stroke-width:0.57px;}.cls-10,.cls-11,.cls-12,.cls-13,.cls-3,.cls-4,.cls-5,.cls-6,.cls-7,.cls-8,.cls-9{fill-rule:evenodd;}.cls-5{fill:#424e5c;}.cls-6{fill:#61768e;}.cls-7{fill:#524125;}.cls-8{fill:#d4b46a;}.cls-9{fill:#c2a365;}.cls-10{fill:#9e8049;}.cls-11{fill:#fff;}.cls-12{fill:#ebcf8a;}.cls-13{fill:#f8edd8;}</style></defs><title>pirate4</title><ellipse class="cls-1" cx="343.02" cy="306.11" rx="10.07" ry="10.26"/><ellipse class="cls-2" cx="343.02" cy="306.11" rx="10.07" ry="10.26"/><path class="cls-3" d="M257.86,593.11s11.62,21.31,1.55,48.44-29.84,30.61-29.84,30.61,12.4,6.2,20.54-1.16,8.52-13.17,8.52-13.17,5.42,14.72-5.42,24.41-10.08,28.29-10.08,28.29,7,19-3.49,36.81-32.55,12-32.55,12a24.68,24.68,0,0,0,34.49,3.87c0,6.39-4.65,14.34,0,35.65s23.64,30.22,23.64,30.22-9.3-12.79-10.46-22.86,1.16-14.73,1.16-14.73l88.74-92.22s-13.95-48.83-22.47-67.42-64.32-38.75-64.32-38.75" transform="translate(-54.35 -158.92)"/><path class="cls-4" d="M763.42,404.64a386.91,386.91,0,0,1-21.14,40.28c-11.54,19.45-24.38,38.1-39.69,54.86a225,225,0,0,1-50.35,41.81,351.28,351.28,0,0,1-33.16,17.91c-8.43,3.86-20.39,3.07-27.85,8.82a0.7,0.7,0,0,1-.18,0c0.11-1,.23-1.91.37-2.86,0.81-5.85,2.85-11.88,3-17.85a29.5,29.5,0,0,0,6.52-16.09c0.74-8.17-3.4-16-8.73-22a67.61,67.61,0,0,1-5.67-7.18,0,0,0,0,0,0,0,34.86,34.86,0,0,1-1.43-4.36,30,30,0,0,1-.54-7.3,2.21,2.21,0,0,0,1.65-2.1c-0.11-2.12,1.11-4.76.47-6.82a1.85,1.85,0,0,0-.15-1.27,11,11,0,0,0-.62-1.22,0,0,0,0,1,0,0c-3.77-14.5-6.63-29.2-16.49-41.12a123.31,123.31,0,0,0-36-29.51c-30.66-16.72-68.72-21.61-103.2-18.25-3.4.33-6.79,0.76-10.23,1.28-1.69.27-3.38,0.56-5.09,0.88s-3.15.58-4.7,0.92c-26.9,5.58-53.72,17.36-72.7,36.09-12.31,12.14-22.27,26.34-31.8,40.61-2.75,4.14-5.39,8.29-7.88,12.53-2.83,4-5.56,8-8.13,12.23-2.81,4.55-5.14,9.38-8,13.88a40.12,40.12,0,0,0-4,7.19l-0.75-.45C263.2,507.31,252.31,520,245.85,531c-4.07,6.93-5.67,15-6.63,22.89-0.81,6.59-1.55,13.41,2,19.34s10.63,10.19,16.46,14.29c-46.27-7.21-91.24-26.58-127.26-56.24-19-15.65-34.4-34.92-46.58-56A246.45,246.45,0,0,1,68.3,443.16c-1.39-3.47-3.3-7-5-10.71,16.53,15.87,44.86,14.43,66,8.91,28.14-7.33,54.24-21.67,77.14-39.06,55.33-42,86.46-105.87,133.9-155.13,22.84-23.71,49.7-42.77,79.29-57.56a288.79,288.79,0,0,1,43-16.92c3.19,4.84,6.2,9.75,9.13,14.72,4.8,8.13,8.93,16.59,13.3,24.92,2.33,4.44,4.81,8.84,6.84,13.45,0.95,2.13,2,4.59,3.09,6.85,0.14,0.66.3,1.32,0.49,2a1.78,1.78,0,0,0,1.33,1.21l0.29,0.41a0.42,0.42,0,0,0,.78-0.29c0-.08,0-0.16-0.07-0.25a1.21,1.21,0,0,0,.39-0.26c5.62-5.8,7.3-14,9.89-21.34,3.29-9.35,6.53-18.73,9.9-28.07,1.94-5.35,3.77-10.73,5.36-16.16l0.87,0.59C539.79,181,551,195.57,560.09,211.73a196,196,0,0,1,13.72,31.14c-0.08,20.23-5,41.18-9.13,59.92-6,27.41-13.66,56.26-8.62,84.4a0.24,0.24,0,0,0,.47-0.06c-2.26-32,6.64-61.67,14.74-92.25,3.29-12.46,6.06-24.78,7.33-37.56,6.63,21.21,12.17,42.84,21.63,63,15.65,33.36,42.39,58.67,75.22,75.79,25.65,13.38,60.77,22,88,8.48" transform="translate(-54.35 -158.92)"/><path class="cls-5" d="M532.6,190.5s9.3,7,22.47,26.35,13.17,34.1,13.17,34.1-12.4,48.82-18.6,79-7,62-7,62l-3.87,9.3s-9.3-10.85-27.12-16.27S469,379.6,469,379.6l-29.45,3.1s-16.28-79-19.37-110.82-7-54.25-7-54.25S397,209.1,423.32,199s33.33-13.17,33.33-13.17,13.17,22.47,22.47,41.85,12.4,27.9,12.4,27.9,18.6-20.15,29.45-38.75S532.6,190.5,532.6,190.5" transform="translate(-54.35 -158.92)"/><path class="cls-6" d="M533.76,199.8S545,210.65,548.1,218s3.49,10.46,3.1,14.34-11.62,86-17.83,111.21S522.13,378,522.13,378l-10.46-3.49S533.76,212.2,533.76,199.8m-93.39-2.71,15.5-3.87s17.44,28.29,23.25,46.5,8.14,29.45,8.91,36.81,2.33,39.14,2.33,39.14l4.26,50.76-0.78,5.43-12.4-.77S450.45,206.77,440.37,197.09Z" transform="translate(-54.35 -158.92)"/><path class="cls-3" d="M398.75,205.37A277.12,277.12,0,0,0,343,249.73q-4.26,4.42-8.35,9c-15,16.75-28.48,34.82-41.87,52.87-25.14,33.89-50.17,67.89-84.11,93.65-23.39,17.76-49.9,32.25-78.44,39.69C118,448.14,103.31,450,89.7,448.09c10.49,22.26,32.92,63.74,63.16,85.73,30.75,22.37,68,36.66,86.3,42.89q-0.55-.77-1-1.58c-4.11-6.79-3.47-14.18-2.54-21.69,1-8.42,2.76-16.91,7.11-24.3a70.23,70.23,0,0,1,5.06-7.53c7.28-9.35,17.14-15.59,28.32-10.66,0.78-1.4,1.65-2.75,2.52-4.11,2.87-4.48,5.2-9.29,8-13.81,2.57-4.2,5.32-8.29,8.17-12.31,2.51-4.26,5.17-8.44,7.91-12.57,9.7-14.53,19.79-28.88,32.27-41.19,19.82-19.56,47.49-31.46,74.51-37.07,1.6-.35,3.21-0.66,4.82-0.94s3.43-.61,5.15-0.89h0q5.15-.78,10.35-1.3c-15.89-62-20.81-120.77-31-181.38m332,209.73a109.87,109.87,0,0,1-22.55-2.86,144.87,144.87,0,0,1-34.42-12.82C640.4,382,613,356.2,596.89,321.93c-7.21-15.39-16.43-35.46-21.3-51.68-1.38,7.29-5.06,14.51-7,21.7-22.67,85.59-8.81,94.12-12.91,99l-2.44,26.36a123,123,0,0,1,19,18.48c10.2,12.33,13.2,27,17.09,42.06,0.2,0.37.39,0.75,0.56,1.14a5.59,5.59,0,0,1,.52,2.52,12.38,12.38,0,0,1-.2,4.63,11.77,11.77,0,0,0-.32,2.22,5.6,5.6,0,0,1-1.66,4.25,22.39,22.39,0,0,0,.47,4.57,26.46,26.46,0,0,0,1.14,3.49,65.61,65.61,0,0,0,5.1,6.4c6,6.71,10.5,15.53,9.66,24.76a33.28,33.28,0,0,1-6.56,17.1,73.91,73.91,0,0,1-1.84,10.94c18.07-10,71-41.37,101.46-82.67C719.28,448,727.81,427.88,730.71,415.1Z" transform="translate(-54.35 -158.92)"/><path class="cls-7" d="M687.95,676.92a26.28,26.28,0,0,0,5.18-5.57,59.13,59.13,0,0,1-6.83,16.16c-7.23,11.83-17.6,16.93-29.91,21.67-7.52-3.84-15.33-6.79-21.52-12.82-4.59-4.5-7-12.06-12.24-15.76-0.16-.14-0.34-0.26-0.52-0.39a0.25,0.25,0,0,0-.26.43c3.17,2.26,3.93,5.9,5.43,9.19,1.31,2.87,3.63,5.45,5.5,8,4.21,5.76,9.67,10.09,15.68,13.93,13.07,8.32,24.12,16.16,31.33,30.15,8.6,16.68,10.36,40,4.35,59.62,0.89-8.16-1.26-17.22-7.52-22.57a3.16,3.16,0,0,0-.47-0.33,66.53,66.53,0,0,0-4.36-29.76c-2.74-7.07-7.25-17.2-15.69-18.8a0.16,0.16,0,0,0-.14,0,0.27,0.27,0,0,0,0,.52c7.89,3.24,11.81,15.49,12.86,23,1.84,13.4,1.13,26.13-3.2,39-3.42,10.22-9.9,18.76-16.24,27.35-3.55,4.8-7,9.77-10.78,14.48a58.8,58.8,0,0,0,3.92-7.59c3.29-7.61,5.61-16,5.19-24.18,0.1-.28.18-0.54,0.25-0.81,3.4-12-1.33-21.69-10.88-29.06a0.29,0.29,0,0,0-.42.15,0.3,0.3,0,0,0,0,.32c7.33,7.29,8.47,15.84,6.34,24.15-1.58,6.16-5,12.2-9,17.51a82.82,82.82,0,0,1-19.23,17.87c-7.32,5-16,7.44-23.72,11.76-11.15,6.24-22.86,17-27,29.14-2.94,8.71-.85,19.12,5.91,24.84-4.47-2.37-8.71-5.38-11.57-9.5-4.84-7-5.43-15.45-5.13-23.61,0.29-7.83,3.11-15.23,3.29-23a0.6,0.6,0,0,0-.34-0.58c0.44-5.16.37-10.33,1.1-15.42a0.2,0.2,0,0,0-.38-0.07c-2.34,11-5,21-10.91,30.83-6,10-14.14,18.35-22.43,26.53a177.42,177.42,0,0,1-26.69,21.87,68.8,68.8,0,0,1-15.5,8,57.62,57.62,0,0,1-8,2,54.59,54.59,0,0,0,11.25-8.83c8.1-8.11,13.89-19.8,11.39-31.18,1.32-1.18,2.7-2.31,4.13-3.4,11.39-8.6,27.81-17.62,24.52-33.85v0c-0.05-.33-0.62-0.28-0.59.05,1.09,14.76-21.72,23.56-31.69,30.34-1.09.73-2.12,1.51-3.12,2.34-11,8.93-17.42,22.18-29.57,30.19-12.75,8.4-30.71,14.32-47.19,13.09l0.37-.1c8.29-2.36,13.62-12.69,16.85-19.69,10.07-21.84-2.47-41.36-17.54-57a0.52,0.52,0,0,0-.75.7,85.48,85.48,0,0,1,10.35,17.17,37,37,0,0,1-10.71,24,39.83,39.83,0,0,1-9.52,7.08c8.18-9,7.59-26.62,3.64-36.82a39.44,39.44,0,0,0-18.68-20.61c-11.44-6.12-24.18-6.21-33.82-15.79a0.37,0.37,0,0,0-.54.5c0.55,0.58,1.13,1.16,1.71,1.69,5,4.76,11.06,8.18,17.42,11,10.17,4.57,18.14,8.8,24.34,18.25a36.29,36.29,0,0,1,3,5.56,27.59,27.59,0,0,0-4.29-4.57C381,834.44,361.21,838,345.12,835a61.79,61.79,0,0,1-44.23-32.37,104.34,104.34,0,0,1-8.29-22.59c-0.16-.63-0.33-1.28-0.47-1.91-1.51-6.6-4.48-17.88.54-23.68a0.56,0.56,0,0,0-.77-0.81c-4.13,3.41-4,9-4.35,13.86a69.75,69.75,0,0,0,.71,14.22c-5.68,6.3-5.45,19.14-5.21,26.43a36.53,36.53,0,0,0,2.24,12c-0.48-.78-1-1.57-1.43-2.37-1.77-2.94-3.45-5.94-5.12-8.86a66,66,0,0,1-7.65-22.2c-2.61-15.69,1-32.13,8.47-46.07,11.33-21.14,38.51-37.68,34.19-64.76a0.43,0.43,0,0,0-.52-0.34,0.5,0.5,0,0,0-.37.19,0.27,0.27,0,0,0,0,.11,0.34,0.34,0,0,0,0,.12c1.2,15.11-12,29.24-21.19,40-3.67,4.28-7.21,8.32-10.47,12.5-0.6-.07-1.22-0.15-1.83-0.25-12.1-1.73-23.31-6.48-31.49-14.78,13.26,5.88,30-1.09,40.78-9.92,9.19-7.56,15.72-17.77,20.38-28.73a133.23,133.23,0,0,0,6.63-20.11c1-3.95,1.83-8,2.49-12,2.86-17.08,3.11-34.84,1.83-51.9a112,112,0,0,0-9.2-36.11,125.46,125.46,0,0,0-8.21-16.13,20.55,20.55,0,0,0-3.33-4,55.27,55.27,0,0,0-6.85-7.55,0.8,0.8,0,0,0-.06-0.47,11,11,0,0,1-.63-4,2.58,2.58,0,0,0,.37-1.66c0-.45,0-0.88-0.05-1.32,0.91-5,3.6-10.29,5.23-14.28,1.06-1.49,2-2.72,2.38-3.38a90.37,90.37,0,0,0,1.28,22.1c0.14,0.77,1.28.47,1.18-.27-1.57-11.29.27-22.69,3.62-33.52a30.09,30.09,0,0,1,2.13-4.92,110.26,110.26,0,0,0,2.09,46,0.51,0.51,0,0,0,1-.23c-3.44-14.45-2.91-29.16.13-43.61a145.13,145.13,0,0,1,5-17.62c0.08-.29.18-0.58,0.29-0.87,1.86-5.38,4.91-10.36,6.6-15.77h0c0.52-.67,1.06-1.36,1.61-2-2.21,15.62-3.42,32.76,6.68,46.06,3.15,4.13,9.87,9.6,15,8.77a83.23,83.23,0,0,0-6.08,16c-2.06,7.95-3.56,18.22-2.65,26.56a140.39,140.39,0,0,0-2.41,14.56,1.65,1.65,0,0,0,.18.95c-0.77,3.93-1,7.78.19,10.63a24.62,24.62,0,0,0,0,8.17,1.42,1.42,0,0,0,.25.56,21.13,21.13,0,0,0-1.6,2.31c-9.17,15.53-.47,35.54,14.08,44.12-0.15,2.85.66,6.26,0.82,8.43,0.45,5.82,1.25,11.81,3.47,17.27,2.85,7,9.15,22.72,17.95,25.93-1.94,22.17,3.07,43.66,24.34,56.29a0.84,0.84,0,0,0,.9-1.42c-35.14-21.83-15.28-64.24-9.82-96a81.61,81.61,0,0,0,8.47-1.5c-4.13,10.12-4,23.7-3.57,32.84,0.51,12.3,1.84,30.77,11.94,40.09,3,7.51,8.68,16.46,16.48,17a51.43,51.43,0,0,0,14.26,11.22c21.45,11,41.09-9.76,38.47-30.79,2.35-2.64,3.93-5.93,6.66-8.33,3.87-3.44,9.13-5.06,14.15-6a36.3,36.3,0,0,1,18.38,1.21,42.08,42.08,0,0,0,5.69,9.94,49,49,0,0,0,4.51,5.31c0.52,0.54,1.07,1.06,1.62,1.57-1.51-.74-3-1.53-4.46-2.41-2.23-1.34-3.71-3.41-6.23-4.06-1.9-1.88-3.88-3.77-5.89-5.71a0.49,0.49,0,0,0-.73.66,65.55,65.55,0,0,1,6.34,8.36,7.65,7.65,0,0,0,.77,1.24,84.36,84.36,0,0,1,11.17,32.59c0.08,0.66.18,1.33,0.25,2,0.07,0.52.11,1,.17,1.55a102.46,102.46,0,0,1,.47,11.4c-0.37,23.9-10.15,42.69-26,60.28a0.65,0.65,0,0,0-.19.55,0.68,0.68,0,0,0,1,.58c21.08-11.18,31.14-36.54,32.51-59a83.92,83.92,0,0,0-1.11-20c0.51-.43,1-0.87,1.51-1.28q2.31-1.87,4.72-3.58c8.76-6.16,20.57-10.58,27-19.43,7.4-10.14-.77-22-1.47-33.07-0.66-10,1.62-21.51-1.2-31.46,16,2.28,32.36-2.74,44.88-12.54a40.3,40.3,0,0,0,3.62-3.22,30,30,0,0,0,6.3,6.29c8.38,6.6,19.43,9.52,30,9a25.15,25.15,0,0,0,13.6-4.76,57.28,57.28,0,0,1-2.92,6.33c-4.07,7.55-11.74,16.38-20.79,18.59-6.27-3.59-12-8.45-17.78-13.57a0.8,0.8,0,0,0-1.29.89c8.94,18.28,25.15,27.58,45.67,26.42,9.08-.51,17.87-2.86,25-8.47" transform="translate(-54.35 -158.92)"/><path class="cls-8" d="M530.93,620.48c0.23,0.22.67,0,.48-0.34-5.9-9.59-15.64-16.71-22.65-25.53a0.3,0.3,0,0,0-.47.34c6.13,9.35,14.46,17.84,22.64,25.52m-44.26-56.39c2.52-6.34-11.85-16.1-16.26-17.82a31.88,31.88,0,0,0-13.3-1.32c-2.75.43-5,1.53-5.46,3.75-1.28,5.83,6.88,8.27,11.22,9.6a0.32,0.32,0,0,0,.19-0.62c-3.09-1.28-5.73-3.84-8.06-6.18-1.28-1.28-.87-2,0.17-2.35a3.49,3.49,0,0,0,1,1.44,21.07,21.07,0,0,0,4.24,2.59c4.24,4.36,11,6.93,16.74,8.1,1.32,0.91,2.45,1.94,4.21,1.93a1.69,1.69,0,0,0,.51-0.06c-0.84,1.84-2.12,2.49-3.86,2-2.5-.19-4.8-1.5-7.15-2.26a0.5,0.5,0,0,0-.42.89C474.79,566.87,483.88,571.12,486.67,564.09Zm-8,10.7a0.1,0.1,0,0,0-.19-0.05c-2.71,5.87-4.85,12.12-8.31,17.65-3.13,5-8.38,8.72-11.08,13.88a0.46,0.46,0,0,0,.37.7C472,607.3,476.88,583.5,478.71,574.79ZM454.6,514.64a0.34,0.34,0,0,0,.36-0.56A26.77,26.77,0,0,0,439,506.44c-7.34-.88-11.8,2.37-16.56,7.58-11.3,12.39-18.77,26-26.25,40.72-0.11.23,0.25,0.44,0.34,0.21,5.75-11.66,13.78-23.82,23.1-33,4-3.92,8.24-9.37,13.66-11.37C439.42,508.35,448.95,512.54,454.6,514.64Zm-35.77-.25c1.61-1.49-1-3.71-2.37-1.91-2.52,3.4-5.06,6.78-7.43,10.3-2.63,3.89-4.72,8.43-7.61,12.09-0.21.23,0.21,0.51,0.4,0.26,2.43-3.45,5.49-6.56,8-10A74.76,74.76,0,0,1,418.83,514.39Zm-31,50.73c1.21-5,2.94-10.44.71-15.25-2.57-5.6-9.71-7.19-15-9.12-8.18-3-14.92-6.34-18.5-14.77a0.33,0.33,0,0,0-.4-0.19,0.38,0.38,0,0,0-.33.48c3.86,11.17,11.69,16,22,21.37,7.71,4.07,9.2,9.9,7.33,17.92a59.09,59.09,0,0,0-1.48,20,0.51,0.51,0,0,0,.37.45,0.41,0.41,0,0,0,.59-0.29C384.7,578.83,386.15,572,387.85,565.12Zm-5.78-31.93a0.25,0.25,0,0,0,.23-0.37c-1.75-2.48-4.76-4-6.92-6.13-3-2.9-5.47-6.95-4.79-11.15,0.07-.39-0.59-0.5-0.67-0.11-0.89,4,.26,7.55,2.64,10.84C374.56,529,378.31,533.12,382.07,533.19Zm-2.64,2a0.55,0.55,0,0,0,.17-1c-8.39-6.27-19-17-12-28.36a0.23,0.23,0,0,0-.4-0.25c-4,5.35-3.81,12.46-1.43,18.47C367.62,528.87,373.58,536.38,379.43,535.22Zm205.21-2.76c0.25-.17-0.05-0.55-0.28-0.39-4.63,3.25-9.32,6-13.12,10.27-2.9,3.25-5.06,9.79-5.42,14a0.48,0.48,0,0,0,.89.26c2.85-3.73,4.73-8,7.66-11.73C577.83,540.48,579.95,536,584.64,532.46Zm-9.94,3.37a0.76,0.76,0,0,0-1.06-1.1c-4.24,3.81-10.48,8.64-10.42,14.87a0.61,0.61,0,0,0,1.12.33c1.59-2.3,2.76-4.85,4.37-7.14A45.19,45.19,0,0,1,574.69,535.83Zm-21.1,22.8a0.06,0.06,0,1,0,.11,0c-2.19-8.54-4.22-19.43-11.55-25.43-0.33-.26-1-0.07-0.83.45,1.17,3.53,3.59,6.62,5.42,9.86A81.84,81.84,0,0,1,553.6,558.63ZM371.52,493.92c-1.29-2.12-2.43-3.53-2.9-6.06a14,14,0,0,1,.84-7.47,0.45,0.45,0,0,0-.45-0.58h-0.16a0.49,0.49,0,0,0-.14.1l-0.08.1c-2.71,4.15-5.53,13.64,1.13,16A1.5,1.5,0,0,0,371.52,493.92Zm6.9,0.76c-0.07-.12-0.14-0.25-0.21-0.36-0.88-1.42-2.34-2.61-2.93-4.25a15.88,15.88,0,0,1-1-7.19c0.05-.43-0.58-0.47-0.73-0.12-1.32,3-2.2,5.52-1.28,8.8a9.8,9.8,0,0,0,.65,1.76c0.08,0.19.19,0.4,0.29,0.61,0.92,1.79,2.38,3.44,4.29,3.49a1.33,1.33,0,0,0,1.34-1.6,3.65,3.65,0,0,0-.25-0.78A2,2,0,0,0,378.42,494.68Zm7.58-.85-3.12.55c-0.29-.25-0.58-0.51-0.87-0.78a10.84,10.84,0,0,1-3.49-6c0-.28-0.48-0.22-0.48.05-0.08,1.91-.43,3.44.32,5.29a10,10,0,0,0,.66,1.35l0.17,0.25a1.29,1.29,0,0,0,.15.23,8.5,8.5,0,0,0,2.87,2.67,1.42,1.42,0,0,0,1.54-2.39,9.78,9.78,0,0,1-.86-0.7ZM424.8,472a3.29,3.29,0,0,0,.64.76c-1.59.4-3.11,1.06-4.84,1.59A63.6,63.6,0,0,1,407,476.58c-6.62.52-13.22,0.26-19.82,0.88a0.06,0.06,0,0,0,0,.1s0,0,0,0a122.72,122.72,0,0,0,23.87,1.58c4.26-.11,10.3-0.4,14.5-2.65-4,5.43-7.51,10.36-14.1,14s-20.35,8.27-26.62,1.43a0.22,0.22,0,0,0-.31.3c0.14,0.18.29,0.34,0.44,0.51l0.15,0.16q0.43,0.45.87,0.87c0.3,0.27.61,0.54,0.92,0.77,6.59,5,16.46,3,24.1.34,5.36-1.9,10-6,13.66-10.09l1.6-1.77c-3.21,4.85-6,10-8.57,14.87a0.43,0.43,0,0,0,.73.45,133.9,133.9,0,0,1,9.24-13.89,36.8,36.8,0,0,1,2.89-3.29,11,11,0,0,1,1.51.06c-2.5,4.14-4.81,8.39-7.3,12.53-0.14.25,0.21,0.56,0.41,0.33,3.62-3.93,6.52-8.39,10-12.42a14.71,14.71,0,0,1,1.88.52c-3,4.07-5.17,8.64-8,12.82-0.22.3,0.26,0.59,0.48,0.3,2.79-3.67,5.69-7.25,8.55-10.88a17.9,17.9,0,0,1,1.27-1.43c0.76,0.32,1.53.66,2.25,1-2.5,3.16-4.39,6.94-6.63,10.4a0.53,0.53,0,0,0,.81.66c2.87-3,5.71-6.62,9.13-9.3,0.89,0.51,1.79,1,2.67,1.57,3.54,2.61,7.28,5,10.93,7.45,1,0.77,2.05,1.53,3.11,2.23q0.58,0.39,1.2.74c1,0.72,2,1.43,3,2.17a0.89,0.89,0,0,0,1.17,0c0.14,0.07.3,0.15,0.48,0.22a42.53,42.53,0,0,1,7,10.41,0.14,0.14,0,0,0,.26-0.1,63.33,63.33,0,0,0-3.82-8.42,18.6,18.6,0,0,1,2.34,1.72,1.61,1.61,0,0,0,.95.39,3.41,3.41,0,0,1,.23.26c4.77,5.8,5.82,14,7.47,21.06a0.09,0.09,0,0,0,.08.08,0.11,0.11,0,0,0,.17-0.1c0.28-10.77-2.93-23.93-11.72-31-0.38-.32-0.8-0.63-1.18-1-3.16-4-6.82-7.66-8.94-12.1-1.31-2.72-2.24-5.67-3.41-8.47,0.21,0.06.4,0.14,0.59,0.21,5.83,2.16,13.7,6.48,16.46,12.29a0.16,0.16,0,0,0,.29-0.11c-1.5-6-5.68-10.84-10.48-14.77a45.74,45.74,0,0,0-6.79-4.68,1.79,1.79,0,0,0,0-.29A13.1,13.1,0,0,0,459.5,464c3.73,0.69,9.16,1.48,11.6,4.29,0.6,0.7,1.87-.18,1.35-0.94a22.42,22.42,0,0,0-5.39-5.17c4.59,0.34,9.66,0,13.07-2.45l3.6,1.65a0.22,0.22,0,0,0,.21.3,40.93,40.93,0,0,0,8.37.16,37.05,37.05,0,0,0,6.85,14.52c0.19,4.88,1,9.74.91,14.69a1.13,1.13,0,0,0,2.25.08c0.1-2.43.25-4.88,0.45-7.33,1.28,3.2,2.43,6.46,3.55,9.78,3.33,9.83,1.54,19.2,1,29.25-0.21,4.25,1.13,9,2.12,13.68,0.88,4.18,1.47,8.31.44,12a1.7,1.7,0,0,1-.14.19,32.28,32.28,0,0,1-6.48,6.13,17.06,17.06,0,0,1-3.34,2c-2,1-2.81-.65-4.25-1.84-2.35-2-5.06-3.42-7.47-5.28h0a0.08,0.08,0,0,0-.08.12c3.11,3.11,6.06,6.35,9.09,9.53,1.33,1.42,4.68-.21,6-0.88l0.08,0c-1.11,1.22-2.23,2.41-3.26,3.53-3.95,4.32-7.85,9.09-14.15,9.67a0.76,0.76,0,0,0-.44,1.4c4.8,3,9.45.61,13.42-3h0a14.77,14.77,0,0,0,6.08-2.27h0l0.81-.26c0.28-.11.55-0.21,0.81-0.33s0.36-.16.54-0.25A56.08,56.08,0,0,0,512,564a33.13,33.13,0,0,0,5.65-4.17c1.61-1.47,2-3.05,2.93-4.81,3.36-1.64.14,4.79-1.09,6.51-0.18.25,0.19,0.51,0.41,0.33,2-1.68,5.49-3.84,5.58-6.82a3.51,3.51,0,0,0-4.37-3.36c-3.52.77-6.38,2.9-9.23,5-1.1.81-2.2,1.61-3.3,2.43,2.16-2.48,4.36-5.2,5.39-8.1,1.84-5.14.71-9.79-.47-15-0.18-.77-0.33-1.54-0.45-2.32h0c-1.68-10.12.59-20.22-.21-30.24,1.25,1.8,2.56,3.44,3.69,4.81,5.72,7.08,13.7,13.18,22.86,14.89a0.43,0.43,0,0,0,.25-0.83c-7.46-1.9-13.6-7.15-18.57-12.83a42.52,42.52,0,0,0,12.62,5.68,0,0,0,0,0,0,0c8.69,5.87,19,8.42,28.65,2.71a0.45,0.45,0,0,0-.42-0.8c-6.05,2.64-12.81,1.9-18.93-.56h0.7c15.72,0.14,25-13.46,31.67-25.51a38.89,38.89,0,0,0,1.87-3.85c0.44,0.37.88,0.7,1.32,1A23.28,23.28,0,0,0,580,501.83c4,9.19,12.62,15,14.61,25.14,2.08,10.75-5.84,17.37-12.64,24.14a0,0,0,0,0,0,0,34.43,34.43,0,0,0-6.37,6.2,2.69,2.69,0,0,0-1.69,1c2.63-5.94,6-11.81,10.69-15.91a0.08,0.08,0,0,0,0-.12,0.1,0.1,0,0,0-.17,0,70.61,70.61,0,0,0-17.48,22.51c-1.36,2.67-4.16,8.51-4.81,13.46a39.67,39.67,0,0,0-17.76-12.5,42.35,42.35,0,0,0-14.18-2.6l1.17-1c5.64-5,5.2-11.7,3.14-18.29C533,539,530,533.2,526.06,530.7c4,0,7.18,1.77,10.27,5,6.38,6.67,8.58,15.21,11.32,23.61a0.09,0.09,0,0,0,.07.05,0.08,0.08,0,0,0,.1-0.05c0.2-5.12-2.15-10.08-4.24-14.65-2.46-5.36-5-10.56-9-15-2.72-3-7.81-3-11.39-2.1-1.65.4-5.68,2.08-6.69,4.06a18.3,18.3,0,0,0-1.82,1.68,0.32,0.32,0,0,0-.07.15,0.19,0.19,0,0,0,.25.19c0.76-.19,1.52-0.41,2.27-0.63h0a6.09,6.09,0,0,0,2-.54c3-.69,5.87-0.62,7.95,3,2,3.4,2.67,7.65,3.76,11.39,3.05,10.42-5,14.61-13.08,17.87a67,67,0,0,0-10,3.62l-0.51.23h0l-0.8.38c-3,1.36-5.91,3-8.84,4.66a0.13,0.13,0,0,0,.1.23,86.62,86.62,0,0,1,20.63-5.29,62.27,62.27,0,0,1,14.5,0c10.88,1.29,20.89,6.93,26.76,16,3.73,5.75,5.12,13.11,6.86,20.23-1.14-1.73-2.27-3.45-3.4-5.06-7.55-10.84-18.3-15.72-29.36-22.32a0.14,0.14,0,0,0-.12,0c-0.12,0-.23.18-0.11,0.28,5.21,4.52,11.42,7.63,16.46,12.39,6.12,5.76,10.11,14.06,14.19,21.23a45.79,45.79,0,0,0,12.29,14.19,14.1,14.1,0,0,0,7.22,2.85c10.52,3.29,22.21-2.48,26.49-13.12,3.74-9.3-5.06-19.54-13.33-19.38,4.37-2.6,9.23-.23,12.62,3.54,4.15,4.61,5.57,11.21,5,17.15-0.78,8.71-7.27,15.65-14.67,20.64-8.64,2.09-16.07,4.59-25.09.19-8.35-4.08-14.66-11.52-20.62-18.35-11.61-13.29-21.77-26.38-39.11-32.2a0.11,0.11,0,0,0-.15.15,0.09,0.09,0,0,0,.07.08c20.45,7.83,29.4,31.16,43.6,45.91a48.15,48.15,0,0,0,9.06,7.44,58.78,58.78,0,0,1-14.22-7.74c-13.87-10-21.73-26-36.31-35.41-0.12-.1-0.3.11-0.17,0.2h0c14.89,12.75,22.57,31.93,39.25,42.8A40,40,0,0,0,574,646.58c-0.87.06-1.72,0.11-2.59,0.12-4.52-1.06-9.27-1.68-13.68-3-8.23-2.54-15.47-7.05-22.21-12.23-14.83-11.4-25.18-25.62-36.49-40.14a0.23,0.23,0,0,0-.41.11,0.26,0.26,0,0,0,0,.22c5.69,7.77,9.81,16.46,15.64,24.11,0.77,1,1.57,2,2.36,3a141.42,141.42,0,0,0,19.25,18.8,0.82,0.82,0,0,0-.32,0l-0.37,0c-1.65-.78-3.3-1.61-4.91-2.45-4.72-2.46-9.27-5.13-13.56-7.8-0.15-.1-0.34.12-0.19,0.23,2.52,2.16,5,4.28,7.56,6.29a2.91,2.91,0,0,0-1.07.54,53.2,53.2,0,0,1-19-13.82,55.75,55.75,0,0,1-5.93-11.79c-0.33-.87-0.6-1.76-0.87-2.67,5.35,5.93,11.83,11.21,15.72,15.35a0.65,0.65,0,0,0,.95-0.88A177.08,177.08,0,0,1,499,602.76c-3.93-5.61-5.82-12.16-9.19-18,0.07-.74.1-1.51,0.1-2.27a0.35,0.35,0,0,0-.69,0c-0.08.55-.17,1.1-0.28,1.64a0.4,0.4,0,0,0-.19.25,12.88,12.88,0,0,0-.47,2.32c-2.28,7.69-7.5,14.43-13.93,20.08,5.71-7.3,9.12-16.93,12.12-25,0.15-.37-0.42-0.54-0.56-0.18-3.18,7.89-7.8,14.45-13,20.67a90.17,90.17,0,0,0,9.78-23.9,0.51,0.51,0,0,0-1-.3c-4.8,14.66-12,25.64-24.4,35.12a77.88,77.88,0,0,1-11.06,7.06,58.31,58.31,0,0,0,9.34-11.54,0.71,0.71,0,0,0-1.21-.74c-4.86,8.21-13,13-21.26,17.51a32.69,32.69,0,0,1-10.78,3.16c17.1-8.5,32.4-21.32,39.86-38.27a0.41,0.41,0,0,0-.39-0.59,0.46,0.46,0,0,0-.49.18c-13.42,19-35.94,32.77-57.75,40.53l-2.1.74-1.49.48c-0.74.25-1.49,0.48-2.24,0.7a72.13,72.13,0,0,1-11.92,2.64c-1.25.19-2.52,0.3-3.81,0.38a45.08,45.08,0,0,1-7.34-.12,87.27,87.27,0,0,0,25.84-6c0.39-.14.78-0.29,1.17-0.45,18.88-7.51,34.78-20.4,45-37.6a0.28,0.28,0,0,0,.06-0.25,0.38,0.38,0,0,0-.63-0.22c-10.54,10.29-20.12,19.8-33.28,27.09-13.46,7.47-29,12.09-44.55,11.39a40.38,40.38,0,0,1-12.45-2.5,42.21,42.21,0,0,0,7.84,1.65c9.81,1.13,19.79-1.76,28.59-5.73S411.17,611,417.65,604a0.27,0.27,0,0,0,.05-0.26,0.27,0.27,0,0,0-.41-0.22c-6.62,3.84-12.42,8.77-19.24,12.42a75.59,75.59,0,0,1-25,8.64c-15.07,2.1-35.41-4.8-35.18-22.49a0.34,0.34,0,0,0-.69,0,23.9,23.9,0,0,0,1.18,9.32,28.9,28.9,0,0,1-2.68-9.78c-0.7-7.41,1.75-15.11,7.41-20.18a19.18,19.18,0,0,1,3.6-2.49c3.66-2,8.46-3.48,12.43-2.89a13.09,13.09,0,0,1,4.3,4,13.22,13.22,0,0,1,1.8,3.58,8.27,8.27,0,0,0-7.89-3c-7,1-10.76,8.2-11.31,14.63a20,20,0,0,0,1.17,9.06c-4.1-6-5.07-14.1-.75-20.2a0.17,0.17,0,0,0-.13-0.25,0.2,0.2,0,0,0-.15,0c-8.76,8.1-3.7,22.86,4.66,29.25a15.86,15.86,0,0,0,9.67,3.51c11.88,4.37,28.54-9.49,36.09-16.52,6.79-6.33,12.83-13.26,20.46-18.63,8.87-6.24,18.55-8.78,29.31-9.59a0.18,0.18,0,0,0,.18-0.22,0.15,0.15,0,0,0-.17-0.15c-15.64-1.62-28.55,6-40.46,14.95-2.72,2-5.53,4.36-8.43,6.74,4.27-5.64,8.53-11.35,14.07-15.79,8.33-6.66,19.31-10.62,29.77-12.64,9.49-1.84,22.11-2.68,29.8,4.24a0.18,0.18,0,0,0,.18,0,0.2,0.2,0,0,0,.17-0.29c-3.7-7.67-13-9.26-21.69-9.1-3.73-4-8.14-7-11.3-11.54-4.62-6.63,1.94-14.7,6.86-18.87,3.74-3.16,7.16-4.48,10.37-4.55,7.94-.14,14.48,7.45,20.77,14a0.36,0.36,0,0,0,.52-0.5c-4.94-5.69-8.55-12.5-15.11-16.63a9.82,9.82,0,0,0-6-1.46c-9.69-3.44-21.66,5.57-27.37,12.69-6.31,7.88-12.15,16.09-18,24.29-5.31,7.41-11.54,14.12-16.48,21.8a0.75,0.75,0,0,0,1.27.78c0.51-.71,1-1.42,1.54-2.13l2.83,2.56c-0.32.39-.64,0.76-1,1.13-6.58,8-11.4,16.79-19,22.5A29.22,29.22,0,0,1,366,609.42c-6.93,1-12.81-2.2-14.91-8.82a16.45,16.45,0,0,1,.52-10.56c2.57-7.37,11.41-6.41,14.39-.77a11,11,0,0,1-2.82,6.88c-0.07.08,0,.25,0.14,0.18a16.27,16.27,0,0,0,3.69-3.47s0,0.1,0,.15a0.43,0.43,0,0,0,.87,0,9.68,9.68,0,0,0,.07-1.68c2.23-3.95,2-8.71-.76-13.37-3.44-5.79-11.28-8.57-16.86-4.61a25.89,25.89,0,0,0-5,2c0.87-4.76,0-10.84-.8-16.06,0.08-.34.17-0.67,0.26-1a128,128,0,0,1,7.08-19.42,0.59,0.59,0,0,0-1.06-.5c-2,3.91-4.28,7.65-6.37,11.48l0.21-1.09a135.59,135.59,0,0,1,11.24-34.56c0.43-.89-0.88-1.76-1.36-0.85-2.78,5.27-5.52,10.54-8,15.9A165.82,165.82,0,0,1,355,502.93a0.47,0.47,0,0,0-.85-0.39c-3.44,7.06-6.64,14.29-9.42,21.67A118.83,118.83,0,0,1,349.63,504v0a9.3,9.3,0,0,0,1.84-3.09,0.61,0.61,0,0,0-.47-0.78q1-2.66,2.1-5.24a0.35,0.35,0,0,0-.63-0.29q-2.08,3.4-4,7c-6,2-15.38-9.49-17.63-13.29-6.67-11.17-3.42-25.07-4.63-37.41-0.05-.55-0.13-1.1-0.19-1.65a218,218,0,0,1,14.61-16.32l0.44-.43a31.33,31.33,0,0,0-4.87,12.91,27,27,0,0,0,2.23,13.41c-3.44-2.81-5.45-8.39-5.85-12v0c0-.36-0.56-0.25-0.59.06-1,10.14,4,20,15.76,17.75,5.91-1.11,9.15-7.37,11.91-11.91,4.31-7.06,12.76-11.55,21.15-12a33.62,33.62,0,0,0-8.58,7.26c-3.44,4.13-13.4,17.26-7.74,22.58,0.37,0.34,1-.06.74-0.52-3.62-6,4.91-15.32,8.88-19.35a45.72,45.72,0,0,1,12-8.21,16,16,0,0,1,2.43-1,14.62,14.62,0,0,1,1.51.45,42.28,42.28,0,0,0-8.22,4.52c-8.69,6.22-15.27,17.29-13.75,28a71.59,71.59,0,0,0-9.54,4.74,0.17,0.17,0,0,0,.12.32,82.21,82.21,0,0,1,9.61-2.08l0.17,0a0.38,0.38,0,0,1,.18,0h0c12.13-1.93,24.26-1.55,36.75-2.45A105.67,105.67,0,0,0,424.8,472Zm-68.86,3.92a0.12,0.12,0,1,0,0-.23c-0.55,0-1.33-.87-1.84-1.1a11.34,11.34,0,0,1-2.68-1.94c-1.46-1.33-2.52-3.07-3.93-4.43a0.19,0.19,0,0,0-.3.07c-0.58,2.32.89,4.35,2.57,5.89a9.4,9.4,0,0,0,3.12,1.88,4.76,4.76,0,0,0,1.64.32C355.06,476.37,355.44,475.92,355.94,475.92Z" transform="translate(-54.35 -158.92)"/><path class="cls-9" d="M313.36,588.09a218.58,218.58,0,0,1-2.36,56.5c-5.89,3.89-12.63,6.63-19.59,3.18S281,636,279.56,629.07c-1.64-7.76.63-16,1.58-23.65,1-8.46-.25-15.47-5-22.57a0.21,0.21,0,0,0-.09-0.07,0.16,0.16,0,0,0-.18.22c2.81,5.84,2.82,11.61,1.83,17.37-1.86-5.85-5.93-11.13-10.89-15.27-5.69-4.75-12.1-8.65-17.47-13.77-4.63-4.44-3.38-11.51-2.86-17.2a49.4,49.4,0,0,1,8-23c3.49-5.17,8.8-12.35,15.93-10.82,6,1.31,12.52,5.79,17.61,9a49.67,49.67,0,0,1,4.66,3.25c1.64,2.08,3.33,4.14,4.81,6.34,2.86,4.21,4.74,9.37,6.74,14a115.49,115.49,0,0,1,9.19,35.24m-4.48,37.46a2.49,2.49,0,0,0,2.59-2.38c-0.45-7.08-1.14-16-4.43-22.36-1.14-2.24-3.49-3.79-5.58-5.07A37.21,37.21,0,0,0,298,594a45.78,45.78,0,0,0,.78-4.7c0.15-1.2.33-2.53,0.5-3.95,0.18,0.5.34,1,.51,1.5a0.61,0.61,0,0,0,1.2-.12c1.89-11.06-1.91-22.38-7.69-31.77-3.7-6-8.54-13.13-14.94-17a23.55,23.55,0,0,0-8.07-5.21c-10.54-3.82-16.17,6.62-17.18,15a0.29,0.29,0,0,0,.55.1c1.22-4.22,3.25-8.57,7.16-10.95a7.1,7.1,0,0,1,6-.5c-3.44,1.62-5.94,5.27-7.38,9.5a28.43,28.43,0,0,0-.73,16.24c1.44,5.34,6.7,9.12,10.09,13.13a0.34,0.34,0,0,0,.4.13,0.43,0.43,0,0,0,.32-0.63c-2-3-4.14-5.75-6.22-8.7-3.48-5-1.65-11.75.21-16.87,3.2-8.84,8.64-8.11,14.26-2.24a65.07,65.07,0,0,1,4.43,5.13,13.73,13.73,0,0,0-3.32,5.13c-2.27,6.55.39,11.9,1.89,18.24a0.25,0.25,0,0,0,.49,0v-0.07c-1.11-5.86-.3-13.93,5-17.71a103.8,103.8,0,0,1,9.34,17.78c-0.18,6.06-2,12.56-2.78,17.78-0.67,4.26,2.43,5.47,5.68,7.23,6,3.25,5.89,12.28,7.08,19.17-3-2.26-4.13-7.65-5.45-10.71-2.09-4.94-8.18-7.59-11.6-11.59a0.47,0.47,0,0,0-.54-0.15,0.56,0.56,0,0,0-.45.66c0.85,4.15.25,7,3.47,10.25,2.83,2.85,5.17,4.47,7,8.13C300.45,621,302.69,625.55,308.88,625.55Z" transform="translate(-54.35 -158.92)"/><path class="cls-8" d="M560.89,707c0.14,3.88-3.71,7-6.34,9.31-3.6,3.21-7.84,5.71-11.76,8.51-4.77,3.42-8.54,7.67-12.65,11.8a69.42,69.42,0,0,0-3.26-10.25,47.28,47.28,0,0,0-5.29-9.52c5.43,2.46,11.39,3.33,16.86,5.6a0.51,0.51,0,0,0,.52-0.82,47.78,47.78,0,0,0-9.75-6,48.94,48.94,0,0,1-4.41-5.34c-1.35-1.86-2.6-3.75-3.75-5.51a34.12,34.12,0,0,1-2.38-4.28,16.19,16.19,0,0,1,3.54,5.36,0.32,0.32,0,0,0,.59-0.22,26.1,26.1,0,0,0-6-10h0c-0.15-.4-0.28-0.78-0.4-1.2,3.55,1.54,6.83,3.66,8.64,6.44,0.55,0.83,1.91.13,1.39-.73a32.44,32.44,0,0,0-5.19-6.44,26,26,0,0,1,13,12.82,0.07,0.07,0,0,0,.11,0,0.09,0.09,0,0,0,.1-0.11C530.71,690.34,513.26,683,497.84,685c-11.36,1.5-22.17,7.29-31.34,13.71-2.7,1.88-5.28,4-7.88,6-6.6,5.08-13.37,9.59-22.46,8.62a0.19,0.19,0,0,0-.1.34,14.51,14.51,0,0,0,11.4,2.16c3.11,1.32,6.28,2.34,9.27,3.74a3.23,3.23,0,0,0,2.71,1.66c0.89,0.62,1.8,1.24,2.72,1.82a22.62,22.62,0,0,1-8.73,10.33c-6.15,3.78-13.57,1.16-19.2-2.21-13.24-7.92-24.51-24.33-25.62-39.61a0.62,0.62,0,0,0-1.2-.21,30.07,30.07,0,0,0-.56,13.23c-3.82-8.86-6.3-19.34-4-28.79a0.47,0.47,0,0,0-.91-0.27A41.35,41.35,0,0,0,399,688.14a123.92,123.92,0,0,1-1.84-16.49c-0.69-12,.77-23.12,3.08-34.56l0.22-.07c1-.29,2.06-0.58,3.11-0.91,1.81,0.19,3.63.33,5.46,0.39,0,4.8.91,9.76,1.51,14.37a96.1,96.1,0,0,0,3.41,17.4,64.78,64.78,0,0,0,12.63,23c6.26,7.19,13.66,9.45,22.88,10.26a0.57,0.57,0,1,0,0-1.14c-6.6.34-12.23-2.7-16.82-7.37,3.62,1.57,7.37,1.55,11.5,1.1,12.51-1.37,25.41-7.85,37.17-12.06,12.23-4.39,25.25-7.69,38.32-5.32,9.7,1.74,21.21,6.16,20.17,17.6a0.63,0.63,0,0,0,.73.67,0.73,0.73,0,0,0,.6-0.46c3.51-9.83-2.83-16.19-11.58-20,0.26-3.77.33-7.55,0.29-11.33,0.19-2.81.4-5.61,0.43-8.4a37.18,37.18,0,0,0-.9-8,69.17,69.17,0,0,0-.89-9.28c0.14,0,.27,0,0.41,0,1.2,0.85,2.38,1.69,3.59,2.5a2.75,2.75,0,0,0,.33,1.65c5.51,9.06,3.89,21.43,7.76,31.29a0.72,0.72,0,0,0,1.34-.5c-3.15-9-1.71-19-2.9-28.43a66.7,66.7,0,0,0,15.68,6.39c0.62,10.12.92,20.15,1.25,30.31a64.51,64.51,0,0,0,2.7,17c1,3.11,2.09,5.89,2.19,9.19" transform="translate(-54.35 -158.92)"/><path class="cls-10" d="M364.07,478.08l-3.9,1.49s-3.1,3.87-11.62,3.49-12-3.1-12-3.1,1.22,2.69,6.64,4.62,8.33,1.16,8.33,1.16-3.1,2.71-9.49,2.13a16.36,16.36,0,0,1-10.26-5.23s0.77,5.42,7.55,6.78,8.52,1,8.52,1a17.89,17.89,0,0,1-9.29,1.94,16.91,16.91,0,0,1-5.6-1.13,31.88,31.88,0,0,1-2.08-3c-6.67-11.17-3.42-25.07-4.63-37.41-0.05-.55-0.13-1.1-0.19-1.65a218,218,0,0,1,14.61-16.32l0.44-.43a31.33,31.33,0,0,0-4.87,12.91,27,27,0,0,0,2.23,13.41c-3.44-2.81-5.45-8.39-5.85-12v0c0-.36-0.56-0.25-0.59.06-1,10.14,4,20,15.76,17.75,5.91-1.11,9.15-7.37,11.91-11.91,4.31-7.06,12.76-11.55,21.15-12a33.62,33.62,0,0,0-8.58,7.26c-3.44,4.13-13.4,17.26-7.74,22.58,0.37,0.34,1-.06.74-0.52-3.62-6,4.91-15.32,8.88-19.35a45.72,45.72,0,0,1,12-8.21,16,16,0,0,1,2.43-1,14.62,14.62,0,0,1,1.51.45,42.28,42.28,0,0,0-8.22,4.52c-8.69,6.22-15.27,17.29-13.75,28a71.59,71.59,0,0,0-9.54,4.74,0.17,0.17,0,0,0,.12.32q2.7-.76,5.4-1.32m28.67,19.12c-3.34-.16-6.68-0.82-8.94-2.52l-0.5-.38,2.7-.48c0.3,0.27.61,0.54,0.92,0.77A14.78,14.78,0,0,0,392.74,497.21ZM482.12,525l0.49,3s-16.27-22.47-26-25.19-5.42,1.16-22.47-.39-20.15-5-20.15-5l-2-2.84c4.93-2,9.22-5.83,12.64-9.71l1.6-1.77c-3.21,4.85-6,10-8.57,14.87a0.43,0.43,0,0,0,.73.45,133.9,133.9,0,0,1,9.24-13.89,36.8,36.8,0,0,1,2.89-3.29,11,11,0,0,1,1.51.06c-2.5,4.14-4.81,8.39-7.3,12.53-0.14.25,0.21,0.56,0.41,0.33,3.62-3.93,6.52-8.39,10-12.42a14.71,14.71,0,0,1,1.88.52c-3,4.07-5.17,8.64-8,12.82-0.22.3,0.26,0.59,0.48,0.3,2.79-3.67,5.69-7.25,8.55-10.88a17.9,17.9,0,0,1,1.27-1.43c0.76,0.32,1.53.66,2.25,1-2.5,3.16-4.39,6.94-6.63,10.4a0.53,0.53,0,0,0,.81.66c2.87-3,5.71-6.62,9.13-9.3,0.89,0.51,1.79,1,2.67,1.57,3.54,2.61,7.28,5,10.93,7.45,1,0.77,2.05,1.53,3.11,2.23q0.58,0.39,1.2.74c1,0.72,2,1.43,3,2.17a0.89,0.89,0,0,0,1.17,0c0.14,0.07.3,0.15,0.48,0.22a42.53,42.53,0,0,1,7,10.41,0.14,0.14,0,0,0,.26-0.1,63.33,63.33,0,0,0-3.82-8.42,18.6,18.6,0,0,1,2.34,1.72,1.61,1.61,0,0,0,.95.39,3.41,3.41,0,0,1,.23.26c4.77,5.8,5.82,14,7.47,21.06a0.09,0.09,0,0,0,.08.08,0.11,0.11,0,0,0,.17-0.1C482.11,525.31,482.12,525.14,482.12,525ZM459.3,464.12a38.66,38.66,0,0,1,9.74,7.7c4.65,5.42,6.2,14.72,6.2,14.72s-0.45-.75-1.23-1.88c-1.63-5.67-5.68-10.31-10.3-14.1a45.74,45.74,0,0,0-6.79-4.68,1.79,1.79,0,0,0,0-.29A12.88,12.88,0,0,0,459.3,464.12Zm15.5-2.27,3.54,13.46a92.65,92.65,0,0,0-6-7.06,0.68,0.68,0,0,0,.14-0.92,22.42,22.42,0,0,0-5.39-5.17A29.94,29.94,0,0,0,474.81,461.85Zm23.42,13.28-4.76,9.09L489.2,466.4l-12.62-5a11.94,11.94,0,0,0,3.54-1.71l3.6,1.65a0.22,0.22,0,0,0,.21.3,40.93,40.93,0,0,0,8.37.16A37.85,37.85,0,0,0,498.22,475.13Zm43.47,198.12,1.37,6.65L533,656.66l-2.77-4.8a43.77,43.77,0,0,0-.77-5,69.17,69.17,0,0,0-.89-9.28c0.14,0,.27,0,0.41,0,1.2,0.85,2.38,1.69,3.59,2.5a2.75,2.75,0,0,0,.33,1.65c5.51,9.06,3.89,21.43,7.76,31.29A0.69,0.69,0,0,0,541.69,673.26Zm-9.26,47.19a20,20,0,0,0,4.43,2.86s0.42-.35,1.15-1l0.43,0.17a0.51,0.51,0,0,0,.52-0.82l-0.12-.1A106.46,106.46,0,0,0,550,709.74c6.2-7.75,4.65-22.09,3.1-24.41S545.38,664,545.38,664l-5.69-8.7a111.54,111.54,0,0,0-.63-11.22,66.7,66.7,0,0,0,15.68,6.39c0.62,10.12.92,20.15,1.25,30.31a64.51,64.51,0,0,0,2.7,17c1,3.11,2.09,5.89,2.19,9.19,0.14,3.88-3.71,7-6.34,9.31-3.6,3.21-7.84,5.71-11.76,8.51-4.77,3.42-8.54,7.67-12.65,11.8a69.42,69.42,0,0,0-3.26-10.25,47.28,47.28,0,0,0-5.29-9.52A79.68,79.68,0,0,0,532.43,720.45Zm0.73-16c-1.5,1.7-3.6,3.19-4.44,7.19a7.42,7.42,0,0,0,.12,3.62,50.51,50.51,0,0,1-4-5c-1.35-1.86-2.6-3.75-3.75-5.51a34.12,34.12,0,0,1-2.38-4.28,16.19,16.19,0,0,1,3.54,5.36,0.32,0.32,0,0,0,.59-0.22,26.1,26.1,0,0,0-6-10h0c-0.15-.4-0.28-0.78-0.4-1.2,3.55,1.54,6.83,3.66,8.64,6.44,0.55,0.83,1.91.13,1.39-.73a32.44,32.44,0,0,0-5.19-6.44A25.81,25.81,0,0,1,533.17,704.49ZM410.42,649.8a18.49,18.49,0,0,0-6.08,17.71c2.33,12.79,10.46,16.27,15.11,29.45s8.52,20.54,21.7,12.79,41.46-29.84,63.55-27.9,28.29,8.91,29.84,16.28c0.6,2.85.1,4.42-.84,5.71-5-14.29-21.31-20.74-35.86-18.81-11.36,1.5-22.17,7.29-31.34,13.71-2.7,1.88-5.28,4-7.88,6-6.6,5.08-13.37,9.59-22.46,8.62a0.19,0.19,0,0,0-.1.34,14.51,14.51,0,0,0,11.4,2.16c3.11,1.32,6.28,2.34,9.27,3.74a3.23,3.23,0,0,0,2.71,1.66c0.89,0.62,1.8,1.24,2.72,1.82a22.62,22.62,0,0,1-8.73,10.33c-6.15,3.78-13.57,1.16-19.2-2.21-13.24-7.92-24.51-24.33-25.62-39.61a0.62,0.62,0,0,0-1.2-.21,30.07,30.07,0,0,0-.56,13.23c-3.82-8.86-6.3-19.34-4-28.79a0.47,0.47,0,0,0-.91-0.27A41.35,41.35,0,0,0,399,688.14a123.92,123.92,0,0,1-1.84-16.49c-0.69-12,.77-23.12,3.08-34.56l0.22-.07c1-.29,2.06-0.58,3.11-0.91,1.81,0.19,3.63.33,5.46,0.39A92.36,92.36,0,0,0,410.42,649.8ZM257.92,553c-1,.57-2,2-2.39,5.21a20.27,20.27,0,0,0,1.94,11.62,23.1,23.1,0,0,1-4.3-22.87c0,0.26-.07.52-0.11,0.78a0.29,0.29,0,0,0,.55.1c1.22-4.22,3.25-8.57,7.16-10.95a7.1,7.1,0,0,1,6-.5c-3.44,1.62-5.94,5.27-7.38,9.5A29.37,29.37,0,0,0,257.92,553Zm35.18,38.16c-1.81-1.6-4.78-5.13-6.57-12-2.71-10.46-1.16-12.79-1.16-12.79s-3.87,6.2-1.55,13.17l2.33,7S281.89,585,278,573s-3.1-14.73-3.1-14.73-5.42.39-3.87,9.3,5.81,12.4,5.81,12.4a56.3,56.3,0,0,1-7.68-5.63c-1.88-2.83-3.93-5.42-5.9-8.22-3.48-5-1.65-11.75.21-16.87,3.2-8.84,8.64-8.11,14.26-2.24a65.07,65.07,0,0,1,4.43,5.13,13.73,13.73,0,0,0-3.32,5.13c-2.27,6.55.39,11.9,1.89,18.24a0.25,0.25,0,0,0,.49,0v-0.07c-1.11-5.86-.3-13.93,5-17.71a103.8,103.8,0,0,1,9.34,17.78C295.38,580.73,294,586.36,293.11,591.19Zm238.71-34.12s1.55-8.91-5.42-8.91S510.12,552,510.12,552L502,556.68l-3.1,1.16-15.5-11.24s-10.85-7.36-24-9.3-12.79-.39-15.89,2.32S438,549.71,438,549.71l-3.1-4.65,5-12.79,3.87-5.42-10.46,5.42-7,6.59-14,17.82-12,13.56-7.75,10.07-8.14,7.75L383,576.83l3.1-22.86s1.94-13.17-7.36-18.6-6.59.39-15.11-7.36a27.16,27.16,0,0,1-8.91-17.44l-5.43,16.66L348.54,502l-6.2,19-1.94,34.49L341.17,578l11.62-3.49,7.36-.39-17.82,13.95,3.49,25.58,60.45-.39,62.39-28.67s41.08,0.39,45-2.71,39.91,7.36,39.91,7.36l12-.77s-1.16-7-7.75-14.34S545,543.51,538.41,537.31s-8.14-8.91-8.14-8.91l-7.36,1.55h-3.1s7-.39,10.46,9.69S536.09,551.65,531.82,557.07Z" transform="translate(-54.35 -158.92)"/><path class="cls-7" d="M341,581.19l13-6.78,7.36,0.58,3.87,5.23,2.13,6.39s-16.26-10.46-18.39,7.16,12.78,19.75,12.78,19.75,25.36-5.81,25.94-8.71,17-27.88,17-27.88l30.59-12.78,19.94-2.9s9.49,0,13.36,4.26,19.75,7.94,19.75,7.94l11.81-.58,8.52-4.26,11-1.55s30.69-7.27,42.31,15.59,13.56,34.1,13.56,34.1l10.08,8.52,10.46-2.71s11.24-9.69,3.49-17.83-5-4.65-5-4.65,1.16-7,3.49-7,9.69,1.16,9.69,1.16l7.75,8.91,3.1,12s-7.36,28.29-31.39,31-36.81.78-36.81,0.78l-16.27-7.36-6.59-3.49-4.26-.39s-15.5-5-24-19.37-12.4-20.54-12.4-20.54-11.62,17.05-30.61,24-21.7,10.07-21.7,10.07L409,632.25l-29.06,6.59-18.6-4.65-16.66-9.69-10.07-15.89s-7-16.27,6.45-27.42" transform="translate(-54.35 -158.92)"/><path class="cls-7" d="M593.82,617.63a3.82,3.82,0,0,0,1.72,1.53,17,17,0,0,1-6.28,2.23,18,18,0,0,1-2.45.3l-0.26,0a24.69,24.69,0,0,1-2.86,0c-0.14-.28-0.29-0.55-0.41-0.82a0.45,0.45,0,0,1-.07-0.17h0a0.11,0.11,0,0,1-.05-0.05,42.57,42.57,0,0,1-2.9-7.89,0,0,0,0,0,0,0,67.73,67.73,0,0,1-2-15.14c-0.28-2.65-.39-5.29-0.45-7.87-0.08-4.14,0-8.35.3-12.58,0.44-2.23,1-4.41,1.61-6.62a55.09,55.09,0,0,1,6.66-14.19c-1.87,8.49-1.81,17.56-1.49,26a96.68,96.68,0,0,0,2.49,19.24c-1.81,3.18-1.13,7.58,2.82,8.83h0a48.94,48.94,0,0,0,3.62,7.25" transform="translate(-54.35 -158.92)"/><path class="cls-10" d="M562.73,438.36c9,9.86,12.43,21.26,15.76,33.31-2.75-2-5.7-3.74-8.33-5.72a292.41,292.41,0,0,0-25.44-17.51c-12.49-7.51-24.89-15.17-37.64-22.21-6.45-3.56-13-7-19.68-10.12-17.75-8.36-36.8-15-55.64-20.86,32.55-3.52,67.9,2.13,97.08,16.74,13,6.52,24.18,15.77,33.9,26.38" transform="translate(-54.35 -158.92)"/><path class="cls-10" d="M525,668.76c0,1.36,0,2.71,0,4.06a66,66,0,0,0-20.12-3c-14.6.45-28.4,7-42,11.48-6.73,2.21-13.19,4.87-20.22,6.09-7.8,1.35-12.13-2.93-18.22-6.49a65.32,65.32,0,0,1-3.09-7.06c3,2.64,7,3.67,11,1.24,3.42,1.91,7.16,1.46,9.68-2.12a8.32,8.32,0,0,0,6.92,0,5.79,5.79,0,0,0,3.19,1.8,4,4,0,0,0,1.42,0,14,14,0,0,1-4,4,0.15,0.15,0,0,0,.07.29c4,0.19,6.18-4,7.62-7.08,0.55-1.18,1.36-2.79,2-4.48,1.2,1.94,2.81,3.41,4.94,3.51,5.86,0.22,8.43-6.83,9.53-13.9,0.4,3.58,1.11,8,4.33,10.15,3.48,2.38,7.47-1.42,9.07-4.13a22.59,22.59,0,0,0,2.79-8.86c0.32,1.71.67,3.22,0.87,4.07a22.37,22.37,0,0,0,3.08,7.44c1.5,2.2,2.5,2.16,4.81,2.5a0.07,0.07,0,0,0,0-.12,9,9,0,0,1-2.26-2.35c3.56-1.13,5.48-4.33,6.77-7.63a6.51,6.51,0,0,0,.22-0.65c0.07,0.29.14,0.55,0.18,0.78,1,4.52,3.11,8.57,7.52,10.36,0.45,0.18.63-.44,0.33-0.67a8.61,8.61,0,0,1-2-2.2,1.86,1.86,0,0,0,.19-0.15,19.35,19.35,0,0,0,2.13-2.42c1,2.17,3.09,3.73,5.52,2.64a6,6,0,0,0,.83-0.45c0.89,3.36,4.18,5,6.88,3.33" transform="translate(-54.35 -158.92)"/><path class="cls-10" d="M492.86,614.27a73.49,73.49,0,0,0,4.62,6,27.67,27.67,0,0,0-5.34,10.09,14.93,14.93,0,0,0-6-8.87,8.7,8.7,0,0,0-3.16-1.47c0.78-1.11,1.59-2.2,2.42-3.29a0.1,0.1,0,0,0-.14-0.14,25.19,25.19,0,0,0-4.52,3.74,3.64,3.64,0,0,0-1.28,1.46,27.67,27.67,0,0,0-3.85,6.31,17.67,17.67,0,0,0-6.78-10.51c1.87-1.42,3.68-2.93,5.42-4.54,4.7,1.94,11.35,1.44,16.52,1.22a0.23,0.23,0,0,0,.09,0,2,2,0,0,1,.29,0,16.61,16.61,0,0,0,1.66,0h0Z" transform="translate(-54.35 -158.92)"/><path class="cls-10" d="M494.54,425.56a14,14,0,0,0-1.14,4.21c-1,6.7-2.21,13.48-2.36,20.24a44.59,44.59,0,0,0,.59,8.38c-0.45.22-.92,0.43-1.38,0.6-1.9.78-4.21,2.15-6.31,2.24a0.25,0.25,0,0,0-.22.12l-3.6-1.65a9.3,9.3,0,0,0,3.65-5.93,0.49,0.49,0,0,0-.36-0.59,0.47,0.47,0,0,0-.54.19c-3.7,4.87-12.18,5-17.54,3,7-5.45,10.54-15.32,2.63-21.08a0.27,0.27,0,0,0-.41.14,0.34,0.34,0,0,0,0,.17c1,4.41,1.54,8-1.16,12A15.39,15.39,0,0,1,455.5,454a5.93,5.93,0,0,1-.69,0,30.3,30.3,0,0,1-9.09-6.16l0-.06a82.08,82.08,0,0,1-4.7-6.92c-7.6-11.88-13.79-24.38-27.37-30.6a0.09,0.09,0,0,0-.08,0c-0.07,0-.09.1,0,0.15,5.76,3.7,9.61,9,12.84,14.88a62.4,62.4,0,0,0-23.81-14.21,54.19,54.19,0,0,0-26.85-1.42,188.17,188.17,0,0,1,46-13.08,428.16,428.16,0,0,1,62.84,24q5.07,2.37,10,5m-9.74,24.62c4.48-9.44-.7-20.05-7-27.26a0.07,0.07,0,0,0-.1.1c6.7,8.32,4.77,17.38,6.08,27A0.56,0.56,0,0,0,484.8,450.18Zm-22.17-21.84a0.39,0.39,0,0,0,.59-0.3c-0.27-3-3.07-6.05-4.94-8.36a19.9,19.9,0,0,0-8.28-6.11c-0.23-.11-0.41.28-0.19,0.43a28.6,28.6,0,0,1,7.33,6.71C459,423,460.2,426.56,462.63,428.34Z" transform="translate(-54.35 -158.92)"/><path class="cls-10" d="M489.78,609.45c-1.21-.1-2.42-0.19-3.65-0.32a34.91,34.91,0,0,0-6.95-1.07,50.59,50.59,0,0,0,5.84-8.2c0,0.1.07,0.18,0.11,0.26a69.83,69.83,0,0,0,4.64,9.32" transform="translate(-54.35 -158.92)"/><path class="cls-3" d="M401,463.25c0.67,2-.55,4.66-2.42,5.17a3.07,3.07,0,0,1-1.45,0h0a3.37,3.37,0,0,1-.78,0h0a2.13,2.13,0,0,1-.37-0.06,4.43,4.43,0,0,1-3.32-5.21,4,4,0,0,1,4.29-3.28,5,5,0,0,1,4.12,3.4" transform="translate(-54.35 -158.92)"/><path class="cls-10" d="M367.31,638.48a38.73,38.73,0,0,0,12.79,2,184,184,0,0,0-8.94,34.67,74.81,74.81,0,0,1-5.6-7.07,93.65,93.65,0,0,1-8.31-16.6c-1.84-5.08-2.78-10.51-3.85-15.78-0.22-1-.34-2.35-0.56-3.73a36.91,36.91,0,0,0,4.21,1.53,41.16,41.16,0,0,0,10.26,5" transform="translate(-54.35 -158.92)"/><path class="cls-10" d="M400.34,476.91l8.17-2.32A95.77,95.77,0,0,0,424.8,472a3.29,3.29,0,0,0,.64.76c-1.59.4-3.11,1.06-4.84,1.59A63.6,63.6,0,0,1,407,476.58c-2.24.18-4.47,0.26-6.71,0.33m-17,17.4a32.51,32.51,0,0,1-3-2.61,9,9,0,0,1-1.81-4.07c0-.28-0.48-0.22-0.48.05,0,0.47-.06.91-0.09,1.34a17.83,17.83,0,0,1-2.29-3.64l9.3,5s11.62,1.94,20.15-3.87c6-4.07,8.14-6.43,8.9-7.48,3.82-.21,8.27-0.77,11.57-2.54-4,5.43-7.51,10.36-14.1,14s-20.35,8.27-26.62,1.43a0.22,0.22,0,0,0-.31.3c0.14,0.18.29,0.34,0.44,0.51l0.15,0.16q0.43,0.45.87,0.87Z" transform="translate(-54.35 -158.92)"/><path class="cls-10" d="M527,512.77a24.49,24.49,0,0,0,9.2,6.66,39.45,39.45,0,0,0,13,3.48,26.47,26.47,0,0,1-9.29.09,0.4,0.4,0,0,0-.2-0.67c-7.46-1.9-13.6-7.15-18.57-12.83a43.66,43.66,0,0,0,5.88,3.27M578.19,493c-2.36,4.13-6.56,10.84-11,14.79-6.78,6-11.81,9.1-15.1,9.87a30.19,30.19,0,0,1-3.3.58,32.07,32.07,0,0,1-5.72-1.72h0.7c15.72,0.14,25-13.46,31.67-25.51a38.89,38.89,0,0,0,1.87-3.85c0.44,0.37.88,0.7,1.32,1A28.86,28.86,0,0,0,578.19,493Z" transform="translate(-54.35 -158.92)"/><path class="cls-11" d="M394.27,466.2a3,3,0,0,1-1.69,3.6,2.14,2.14,0,0,1-1,0h0a2.37,2.37,0,0,1-.54,0h0a1.4,1.4,0,0,1-.26,0,3.09,3.09,0,0,1-2.31-3.62,2.77,2.77,0,0,1,3-2.28,3.48,3.48,0,0,1,2.87,2.37" transform="translate(-54.35 -158.92)"/><path class="cls-10" d="M342.74,784.72c-0.12,18.32,7.76,29.72,7.76,29.72s-9.82-30.67-2-60.17C348.53,754.28,342.85,766.4,342.74,784.72Zm139.87,69.7a86.93,86.93,0,0,1-16.46-33.62c-4.84-20.22-1.54-43.91-1.54-43.91a74.41,74.41,0,0,0-3.55,31.83C462.8,826.64,470.15,845.61,482.61,854.42Zm-7-96.75c-1.29-5.16-2.53-6.42-2.53-6.42s-2.25,28.08-8.51,41.41C470.18,784.86,474.88,765.59,475.58,757.67Zm3.18,84A56.2,56.2,0,0,1,475,827.11l-2.2,2.53s0.94,3.06,3.26,10.48,8.51,13.52,8.51,13.52A117.55,117.55,0,0,1,478.76,841.63Zm10.59,11s-4.34-3.85-6.66-12.55-1.58-19.82-1.58-19.82l-4.3,4.95S478.56,845.93,489.35,852.66Zm8.51-20.22a51.37,51.37,0,0,0,6.2-12.33,32.37,32.37,0,0,1-4.05,1.74c-0.29.84-.68,1.9-1.18,3.23-2.13,5.61-9.29,16.26-9.29,16.26S492.05,840.57,497.86,832.43ZM478.81,758.1s-6.81,26.12-13.9,39.71A71.73,71.73,0,0,0,475.5,780a91.13,91.13,0,0,0,5-16Zm17.89,62.72a74.82,74.82,0,0,1-10.84,11l1,6L490.7,834C494.57,830.11,496.7,820.82,496.7,820.82Zm11,10.46c5.81-9.29,8.33-14.13,8.91-21.88l0-.54c-2,2.29-4.35,4.8-6.35,6.71A67.23,67.23,0,0,1,492.25,846S501.93,840.57,507.73,831.27Zm-63.87-51.81c2.21-4.42.67-17.3,0.36-22.88a22.13,22.13,0,0,0-3.62-10.26c4.25,13.55-.33,38.47-0.33,38.47S441.65,783.88,443.86,779.46Zm-7.06,11.2a106.44,106.44,0,0,1,4-27.83s-6.37,12.4-7.55,31.65C434.46,793.15,435.66,791.85,436.81,790.66Zm-0.71-29.47a107.46,107.46,0,0,0-1.74-15.1l-4.45-4.26a47.73,47.73,0,0,1,3.68,16.07c0.39,8.91-5.42,16.26-5.42,16.26S436.29,768.35,436.1,761.19Zm-19.36,10.65a37,37,0,0,0,4.07-11.42,37.56,37.56,0,0,0-.58-16.26c-1.16-5.23-6.58-14.13-6.58-14.13l-5.23-4.45C421,744.54,416.74,771.83,416.74,771.83Zm60.4,48.85c22.17-12.52,34.86-38.78,37.47-63.4a79.33,79.33,0,0,0-7.27-43.48s6.58,32.33-1.55,60.21S477.14,820.68,477.14,820.68Zm-43.95-3.49a91,91,0,0,1,7.55-26.72c-23.43,26.14-2.71,58.66-2.71,58.66S431.26,832.69,433.19,817.2Zm36.59-.58s14.33-6.39,25.94-29.62,8.71-54.21,8.71-54.21C501,794,469.79,816.62,469.79,816.62Zm12.14-51s-6.75,26.44-16.68,36.63c0,0,3.67-2.32,8.06-8.79S482.88,776,482.88,776s0.39-5.44-.27-7.74A22,22,0,0,1,481.92,765.61ZM539.69,740c6,12.47,3.52,31.14,3.52,31.14a21.36,21.36,0,0,1,1.47-2.27c1.32-1.92,2.64-7.07,2.64-7.07s-0.59-3.49-2.64-10.82S539.69,740,539.69,740Zm-50.13,11.45s10.13-22.33-4.68-40.14a64.13,64.13,0,0,1,5.45,22C491.22,746.11,489.56,751.42,489.56,751.42Zm54.15,38.32A41.65,41.65,0,0,0,533.47,779l-0.17.53A59.41,59.41,0,0,1,549.36,807,36,36,0,0,0,543.71,789.74Zm-126-58.51c11.39,19.71,8.48,28.61,2.68,38.28a32.44,32.44,0,0,0-4.65,19,76.1,76.1,0,0,1,2.52-8.91c1.94-5.81,11.23-14.13,11.23-23a54,54,0,0,0-3.09-17c-0.17-.11-0.83-0.54-2.91-2A21,21,0,0,1,417.74,731.23Zm123.72,40.93s0.15-3.31-.44-13.87a77,77,0,0,0-2.49-16.75c2.35,14.74-.44,34.54-0.44,34.54Zm-46.62-25.84a26.52,26.52,0,0,0,3.38-17.63,36.38,36.38,0,0,0-8.14-17C500.52,730.39,494.84,746.32,494.84,746.32Zm-27.23-3.87a18.42,18.42,0,0,0,4.69-7.76c1.2-4.5,4.64-14.74,3.59-18.72s-2-5-2-5S473.37,732.13,467.61,742.46Zm51,3.49c1.94,50.34-34.07,77.83-34.07,77.83a83.71,83.71,0,0,0,29.62-32.91C524.77,769,518.57,745.95,518.57,745.95ZM476.1,731.25c3-7.86,3.7-10.41,3.7-10.41l-1.41-4.57s-2.89,16.46-8.25,27.06A61.38,61.38,0,0,0,476.1,731.25Zm7,30.41s6.25-11.53,4.28-28.76-8.55-28.05-8.55-28.05C489.24,731.81,483.13,761.67,483.13,761.67Zm30.28,90.48a36.82,36.82,0,0,0,7.6-17.46c-7.38,20.35-23.34,26.54-23.34,26.54A26.84,26.84,0,0,0,513.41,852.14Zm8.4,8.51-11.29,9a138,138,0,0,1-11.31,21.11c-4.52,6.76-6.68,8.83-7.62,9.46C505.4,894.42,522.66,860,521.8,860.66Zm-31.53-.1s23.8-7,27.63-30.15a64.91,64.91,0,0,1-13.24,18.73C495.44,858.32,490.27,860.56,490.27,860.56Zm57.94-46.94s-2.73-19.4-15.93-31.15c-0.16.43-.31,0.85-0.48,1.26a88.35,88.35,0,0,1,8.84,13.08C546.93,808.18,548.22,813.63,548.22,813.63Zm-13.07-42.69c2.79-4.36,2.35-12.39,2.64-18.23a23.15,23.15,0,0,0-2.64-11.08c2.93,14.57-2.79,33.67-2.79,33.67ZM491.58,900.21c-0.21.09-.43,0.19-0.64,0.27A1,1,0,0,0,491.58,900.21Zm47-102.64a110.41,110.41,0,0,0-7.82-11.43,14.46,14.46,0,0,1-.7,1.28,167.51,167.51,0,0,1,18.53,37.92S547.53,812.53,538.6,797.56Zm-57.71-75.5s-2.64,14.75-10.23,22.75a26.35,26.35,0,0,0,6.45-7.12c3.34-5.06,4.63-7.56,4.63-7.56s0.25-4.22-.29-6A17,17,0,0,1,480.88,722.07Zm126.56,65.34a56.21,56.21,0,0,1-.74,15c-1.52,7.83-2.62,10.05-2.62,10.05a21.27,21.27,0,0,0,5-12.08c0.75-7.73,1-10.92,1-10.92Zm-10.38,42.81c5.77-3.39,15.41-13.14,11.35-20.53,1.74,12.83-19.36,18.44-28.37,23.94-9.44,5.76-18.2,14.16-18.57,24.24C566,843.23,574.52,843.47,597.06,830.22ZM582,815.75c3.77-14.45-2.73-27.56-2.73-27.56a59.91,59.91,0,0,1-11.13,50.93A51.37,51.37,0,0,0,582,815.75Zm7.32-28c-5.48-12.38-18.89-21.5-18.89-21.5C593.81,787.95,592.57,808,592.57,808S594.76,800.11,589.28,787.73Zm5.7-40.27s7.92-13.54,4.6-29.9S584.25,693,577.35,677.2a134.13,134.13,0,0,0,14.56,28.36C601.88,720.38,595,747.46,595,747.46Zm-7.58,31.92c8.5,12.52,9.24,27,9.24,27,2.33-13.07-4-26.88-13-36.11-5.26-5.38-7.57-7.12-15.51-9A59.3,59.3,0,0,1,587.41,779.38Zm11.16-35.82s13.66-21.45-1.79-38.68a60,60,0,0,1,5,17.62C603,732.71,598.57,743.56,598.57,743.56Zm2.62,21.63a19.39,19.39,0,0,1-.05,2.42c-0.11,2.09,1.31,6.64,1.31,6.64s2.09,2.39,7.11,7a29.74,29.74,0,0,0,9,6C608.08,780.62,601.19,765.19,601.19,765.19Zm15.18,45.38c9.3-11.76,14.27-30.9,12.42-47.71-2.79-25.43-23.27-41.2-22.53-74.51-4.35,32.25,10.28,46.83,17.31,71.79C630.94,786.37,616.36,810.57,616.36,810.57Zm-16-6.11a43.63,43.63,0,0,0-3.39-22.83c-5.26-11.54-16.57-16.7-16.57-16.7A50.89,50.89,0,0,1,600.33,804.46Zm-37,33.69c11.83-10.21,16.3-27.53,14.91-42.66a48.67,48.67,0,0,0-9.61-25.28s7.86,18.66,6.32,36.42S563.3,838.14,563.3,838.14Zm26.36-125a38.44,38.44,0,0,0-10.37-17C592.26,714.66,588,732,588,732A28,28,0,0,0,589.66,713.11Zm8.43,105.51c9.18-8.8,7.15-32.67,7.15-32.67L600,782s3,10.73,2.51,19.72A48.53,48.53,0,0,1,598.09,818.63ZM583,737.93s8.27-24.55-9.19-41.7a67.76,67.76,0,0,1,8.07,22.55C584.16,732.17,583,737.93,583,737.93Zm12.27,27.21a23.34,23.34,0,0,0,6.89,16.6c1.91,1.92,7.28,3.58,7.28,3.58s-14.68-10.09-10.34-24.38,13.15-27.45,6.89-37.4c0,0,3.32,5.36-2.68,17.23S595.12,755.82,595.25,765.14Zm6.79-1.58s1.45,2.6,6.87,10.39a69.11,69.11,0,0,0,9.79,11.62c-8.74-10.15-16.36-27.39-16.36-27.39Zm3.84-12.35s-0.8,1.32-.87,6,6.47,14.91,9,19.52a20.77,20.77,0,0,0,7.24,7.22C612.13,774.16,605.88,751.21,605.88,751.21Zm-45.63,7.22A41.69,41.69,0,0,0,551,742.34a62,62,0,0,1,10,35A37.4,37.4,0,0,0,560.25,758.43ZM422,823s-13.55-22.65-8.33-46.66a64.15,64.15,0,0,0-2.13,28.27c2.32,15.88,9.68,31,9.68,31a52.33,52.33,0,0,1,.19-9.29Zm-4.66-27.06a32.15,32.15,0,0,0,6.33,20.68l0.17-.72c-2.26-5.67-7.19-22.35,2.35-42.75C426.14,773.16,418.14,782.95,417.3,795.95Zm8.77,9.76a18.53,18.53,0,0,1,3-5.83,75.53,75.53,0,0,1,4.33-28C424.75,783.68,424.24,796,426.07,805.7Zm10.43,4c-5,24.8,7,45.34,7,45.34S433,814,448.12,791.51a203.47,203.47,0,0,0,22.09-43C459.75,772.52,441.54,784.92,436.5,809.72Zm13.16-35s-0.19-3.16-1.81-13.14a73.62,73.62,0,0,0-4-15.67c3.71,13.78,3.08,33.83,3.08,33.83Zm-5,46.82c2.08,16.41,10.91,33.77,25.89,41.84,0,0-14-12.27-19.77-30.78s-1.85-40.2-1.85-40.2A53,53,0,0,0,444.62,821.52Zm-32.91-62.66c1.36-3.68,3.1-5.61,1.74-14.91s-5.61-14.33-5.61-14.33,2.71,12.78,4.07,17.62S408,765.06,408,765.06A20.55,20.55,0,0,0,411.71,758.86Zm40.69,12.36c1.06-2,1.8-7,1.8-7s-0.91-3.26-3.59-10-5.84-9.95-5.84-9.95c7,11.25,6.46,29.24,6.46,29.24A20.4,20.4,0,0,1,452.39,771.22Zm84.43,39.5a41.53,41.53,0,0,0-8.4-19.42l-0.59,1.19a60,60,0,0,1,5,45.1A51.37,51.37,0,0,0,536.82,810.72Zm30.74-50.82a77,77,0,0,0-2.25-16.78c-2.37-10.3-3.43-13.45-3.43-13.45l-4.33-2.84S565.72,745.08,567.56,759.9ZM426.42,739.5v0C426.56,739.61,426.42,739.5,426.42,739.5Zm142.7,21.58s1.8-4.33,1.74-11.94S570.4,738,570.4,738s-2.7-4.58-4.5-6.05a21.61,21.61,0,0,1-2-1.77S571.44,747.43,569.12,761.08Zm8.18-11.69s5.35-12.79,1.44-30.69-12-28.58-12-28.58C580.55,717.35,577.31,749.39,577.31,749.39ZM526.52,795c-0.65,1.21-1.33,2.43-2,3.64a57.32,57.32,0,0,1,2.37,6.26c5.29,17,1.15,33.58,1.15,33.58C534.82,825.14,532.88,808.28,526.52,795ZM526.1,815a50.24,50.24,0,0,0-3.63-13.07c-0.37.55-.74,1.1-1.11,1.62l-0.29.41c6.86,21.44,1.8,35,1.8,35S528,830.79,526.1,815Zm37.66-65.6c-1.9-5.53-3.71-13.36-7.6-16.78l-3.89-3.42s10.8,16.76,12,31.57A23.15,23.15,0,0,0,563.76,749.37ZM330.9,781.52a28,28,0,0,0,5.56,18.14s-7.78-16.09,1.06-36.88A38.44,38.44,0,0,0,330.9,781.52ZM455.18,859.8c-2.36-8.54-3.74-11.65-10.84-18.14a69.81,69.81,0,0,1,9.57,29.68c1.63,17.75-5.85,33.09-5.85,33.09C457.9,892.28,459.23,874.44,455.18,859.8Zm-11.32-11.7c11.79,35.71-.91,55.66-0.91,55.66s6.74-6.87,8.14-22.75S443.86,848.1,443.86,848.1Zm11,4.33a59.91,59.91,0,0,1-1.93,52.1,51.37,51.37,0,0,0,9.5-25.46C463.61,864.19,454.89,852.44,454.89,852.44Zm-47.07-57.05c0.39-22.09,4.65-33.71,4.65-33.71-5,7.75-11.24,22.86-8.52,46.5a57.36,57.36,0,0,0,19,36.42S407.44,817.47,407.82,795.38Zm23,49.5c-8.72-17.25-4.47-25.43-4.09-26.09-9.43,15.09,3.91,35,10.48,56.68s-15.68,37-15.68,37,8.13-2.52,11-5.42a35.41,35.41,0,0,0,10.46-25.17C443.26,867.73,440,862.89,430.87,844.88ZM315.68,684.17c-7,32.58-30.56,43.18-39.17,67.27-5.69,15.92-5.29,35.69,1,49.29,0,0-8.58-26.92,4.67-50.72C294.84,727.34,312.45,716.54,315.68,684.17ZM460.1,779.84a74.43,74.43,0,0,0-3.55,31.83c1.73,17.93,9.08,36.89,21.55,45.7a87,87,0,0,1-16.45-33.62C456.81,803.54,460.1,779.84,460.1,779.84Zm-3.94,50c-5.81-18.51-1.85-40.2-1.85-40.2A53,53,0,0,0,450,818.81c2.08,16.41,10.91,33.77,25.89,41.83C475.93,860.64,462,848.38,456.16,829.87ZM503,846.66c11.88-12.92,15.82-25.12,15.82-25.12-13.76,25.8-40.67,40.88-40.67,40.88S491.14,859.58,503,846.66ZM469.92,881c-1.52,7.83-2.62,10.05-2.62,10.05a21.27,21.27,0,0,0,5-12.08c0.75-7.73,1-10.92,1-10.92l-2.67-2A56.21,56.21,0,0,1,469.92,881Zm-151-127.68a49.13,49.13,0,0,0-7,20.57c-1.29,12.22,1.3,24.82,1.3,24.82a40.08,40.08,0,0,1,1.91-6.86l1.06-2.33S310.46,770.18,318.9,753.37Zm-7.93,13c4.48-16.31,9.85-24.13,9.85-24.13-5.21,4.79-12.68,14.83-15.16,32.88a43.92,43.92,0,0,0,7.17,30.63S306.48,782.7,311,766.38ZM399.7,782c-7.36,18-.19,40.66-0.19,40.66l10.07,11.23s-2.71-2.9-7.55-19S399.7,782,399.7,782ZM317.12,801.1a48.5,48.5,0,0,0,11.65,22.22,35.35,35.35,0,0,0,21.54,10.43S328.76,827.13,317.12,801.1Zm-9.64-46.21c-8.88,12-7.87,30.13-7.87,30.13L305,795.24c-0.09-.17-1.47-3.07-2-15.5C302.42,766.9,307.49,754.88,307.49,754.88Zm13.29,40.31c7.24,30,39.19,37,39.19,37s-7-2.46-20-13.62A85.47,85.47,0,0,1,320.78,795.19Zm76.1,32.07c-4.3-3.47-10.3-6.06-24.79-12-23.18-9.55-21-22.8-21-22.8-5.24,9,6.4,21,13.44,25.27,7.68,4.61,16,5.92,25.76,10.77,19.32,9.62,18,31.8,18,31.8C410.18,847.83,406.85,835.29,396.88,827.27Zm-78.17-43.64s6.34,15.65,23.18,31.49S376,833.45,376,833.45,339.26,816.2,318.72,783.62Zm149.74,81-5.22-4s3,10.73,2.51,19.72a48.52,48.52,0,0,1-4.45,16.92C470.49,888.49,468.46,864.62,468.46,864.62ZM631.79,725.77C650,752,644.48,771.33,644.48,771.33s3.83-7.22,1.14-20.49S631.79,725.77,631.79,725.77Zm-1.16-5.37a59.31,59.31,0,0,1,15,21.87c5.61,14.06,3.21,28.36,3.21,28.36,5.08-12.26,1.87-27.12-5-38.07C639.86,726.18,638,724,630.63,720.41Zm23.78,26.11c-2.65-12.4-12.59-19.87-12.59-19.87a50.89,50.89,0,0,1,11,42.9A43.63,43.63,0,0,0,654.42,746.52Zm-30.65,72.83A43.63,43.63,0,0,0,638,801.17c4.75-11.76.7-23.52,0.7-23.52A50.89,50.89,0,0,1,623.76,819.35ZM485.65,910c5.63-1.91,30.27-17,32.84-27l4.68-18.35s-12.37,21.68-19.57,29.78S485.65,910,485.65,910ZM670.44,731.41c-16.19-19.8-42-21.88-59.48-50.22,13.92,29.41,34.13,33.67,53.62,50.78,20.47,18,21.43,46.21,21.43,46.21C687.4,763.25,681.14,744.5,670.44,731.41ZM659.26,737s6.17,16.66,5.3,33.06a76.75,76.75,0,0,1-8.17,29.67c8.67-10.1,11.74-26.29,10.45-40.1A48.49,48.49,0,0,0,659.26,737Zm3.53,21.72a48.5,48.5,0,0,0-7.58-22.63s6.17,16.66,5.3,33.06a76.76,76.76,0,0,1-8.17,29.67C661,788.73,664.07,772.55,662.79,758.74Zm-25.75,25c0.28-7.52,0-10.39-4.12-17.47a59.3,59.3,0,0,1,.14,26.49C629.82,807.5,619.83,818,619.83,818,630.91,810.7,636.56,796.59,637,783.69Zm-8.75,16.13c5.21-12.5,2.59-28.5,2.59-28.5,0.38,31.94-15,44.84-15,44.84S623.08,812.32,628.28,799.82Zm-85.06,21.94a64.9,64.9,0,0,1-2.36,22.82c-3.56,12.52-7,17-7,17S551.2,843.79,543.22,821.76Zm-2.55,36.78a26.84,26.84,0,0,0,9.27-15.63A36.81,36.81,0,0,0,548,824C551.54,845.32,540.67,858.54,540.67,858.54Zm-1-45c0.64,29.23-15.43,55.56-15.43,55.56s9.91-8.83,13.94-25.91S539.68,813.57,539.68,813.57Zm1.57-76.27c12.83,26,13.81,58.15,13.81,58.15s2.55-13.12-2.15-30.63S541.25,737.29,541.25,737.29Zm13.93,27.36c3.06,13.14,2.8,19,2.8,19s3.44-25-11-40.77A84.3,84.3,0,0,1,555.18,764.65Zm37.73,69.73c-13.88,7.26-19.62,10.38-23.59,14.23-9.19,8.9-11.37,21.68-8.32,33.91,0,0-3.34-22,15-33.3,9.27-5.72,17.44-7.78,24.67-13.07,6.63-4.84,17.13-17.9,11.09-26.38C611.8,809.76,615.13,822.77,592.91,834.38Zm-22.49-18.75c4.19-15.38-1.29-33.67-1.29-33.67,5.27,37.23-10.75,54.61-10.75,54.61S566.24,831,570.43,815.64Zm-270-66.58c5.74-12.49,12-20.24,16.13-31,3.82-9.85,9.23-31.95.77-38.68,0,0,7.88,13.85-6.68,41.24C301.54,737.73,297.82,745,295.9,752a62.08,62.08,0,0,0,6,46.25S289,773.81,300.42,749.05Zm88-39.69c-4.11-13.75-3.76-21.79-3.76-21.79-1.59,5.79-2.46,16.37,3.88,30.47a37.27,37.27,0,0,0,18.93,18.82S392.51,723.12,388.4,709.37Zm-9.22,58.85C373.76,748.47,377,738,377,738c-12.2,29.82,17.42,76.67,17.42,76.67L393.7,795.9S384.6,788,379.18,768.21Zm2.68-15.08a17.46,17.46,0,0,0-1.69,5.52,67.82,67.82,0,0,0,2.67,14.82,76.25,76.25,0,0,0,6.28,13.67c-6.23-11.73-5.94-36.23-5.94-36.23A20.45,20.45,0,0,1,381.86,753.13Zm10.64-38.78a78.89,78.89,0,0,0,12.1,17.28,34,34,0,0,1-1.71-5.79l-0.29-2.15s-12.85-11.36-14.35-27.25A41.69,41.69,0,0,0,392.5,714.35Zm-1.55,31.1c-1.45,7.28-2.28,25.78.73,34.25-2.12-13.58,3.22-39.35,3.22-39.35S393.45,741.17,390.94,745.45Zm-2.3-22.87c-6.16-9-7.92-19.92-7.92-19.92-1,12.6,7.89,25.21,7.89,25.21l8.45,5S394.81,731.57,388.64,722.58Zm17.64,34.7-2.67-2a56.2,56.2,0,0,1-.74,15c-1.52,7.83-2.62,10.05-2.62,10.05a21.27,21.27,0,0,0,5-12.08C406,760.46,406.29,757.27,406.29,757.27Zm-4.86-3.48-5.22-4s3,10.73,2.51,19.72a48.53,48.53,0,0,1-4.45,16.92C403.45,777.67,401.42,753.79,401.42,753.79ZM387.94,745l-3.11,4.85a85.11,85.11,0,0,0,.34,15.64A67,67,0,0,0,390,784.22C387.2,770.18,387.94,745,387.94,745Zm-35.19-24.35c14.43-20.53-3-41.89-3-41.89s6.2,11.12,6.13,22.28A65.08,65.08,0,0,1,352.75,720.64Zm-13.86-24c6.92-14.49-3.85-27.25-11.3-50a111.89,111.89,0,0,1-4.23-17.09c-0.17-1.07-.5-2.14-0.67-3.27A35.91,35.91,0,0,0,321.27,637c0.22,13.56,3.51,18.11,12.76,35.12C342,686.79,339.68,694.71,338.89,696.62Zm3.69,107.79s-2.35-5.39-2.87-19a67.74,67.74,0,0,1,3.22-23.73C329.4,782.11,342.57,804.41,342.57,804.41Zm2.8-129.4s10.89,28.29,2,45.52a145.52,145.52,0,0,0-12.06,32.4c5.41-17.94,17.3-28.28,18.78-46.32S345.38,675,345.38,675Zm46.39,140.25c-3.48-3.68-13.36-14.52-24-23.81S354,766.86,354,766.86c-0.58,13.94,10.45,27.1,19.55,32.91s23,24,23,24A23,23,0,0,0,391.76,815.26Zm-25.56-4.65L377,815.45l-9.68-9.29s-3.48-2.71-8.32-10.46-7.55-18.59-7.55-18.59c-1.36,3.49,1.94,15.29,5,21.49S366.21,810.61,366.21,810.61Zm15.88,5.81,9.68,5.81a29.94,29.94,0,0,0-5-7.16C383,811,379,809.26,368.92,800.93s-12.78-15.49-12.78-15.49c-0.19,3.49,6,14.52,15.1,21.49S382.08,816.42,382.08,816.42Zm-14.18-54c-0.12,18.32,7.76,29.72,7.76,29.72s-9.82-30.66-2-60.16C373.7,732,368,744.14,367.9,762.46Zm-32.22-41c-14.29,13.53-8,33.4-8,33.4s-0.86-4.65,1.18-15.39A54.49,54.49,0,0,1,335.69,721.49Zm-3.61,42.7s-2.14-25.81,9.35-47.51c0,0-6.64,8.47-10.05,22.81S332.07,764.19,332.07,764.19Zm23.11-83c7.39,11.13,5.46,17.26,5.13,18.11,5.52-12.71-4.51-20.1-11.59-36.62a83.33,83.33,0,0,1-4.27-12.41c-0.2-.78-0.51-1.56-0.71-2.38a26.75,26.75,0,0,0-.34,8.07C344.46,666,347.2,669.16,355.18,681.18ZM319,723.82a195.25,195.25,0,0,0-20,41.89c9.35-23.34,26.46-35.76,30.59-59.69s-8-43.29-8-43.29S332.85,701.83,319,723.82Zm19.89-27.2c-0.07.15-.14,0.31-0.22,0.46A4.58,4.58,0,0,0,338.89,696.62Zm-12.78,28c21.72-25.74.92-56.34,0.92-56.34s7,15.59,5.56,30.5A87.33,87.33,0,0,1,326.11,724.6Zm34.21-25.31,0,0.11Zm-37.64,35.55a22.54,22.54,0,0,0,1.07,15.22s-3.18-14,7.52-28.72A30.92,30.92,0,0,0,322.67,734.84Zm45.07,47.31s-2.35-5.39-2.87-19a67.74,67.74,0,0,1,3.22-23.73C354.56,759.84,367.74,782.15,367.74,782.15Zm-6.12-4.75s-7.78-16.09,1.06-36.88a38.44,38.44,0,0,0-6.62,18.75A28,28,0,0,0,361.62,777.4ZM428,603.22a86.18,86.18,0,0,1-15.79,11.35c11-2.69,29.41-17.63,30.1-27.92A126.18,126.18,0,0,1,428,603.22Zm40.1-32.51c-7.46-9-30.79-5.53-40.51,2.32a67.09,67.09,0,0,1,19-4.3C456.59,568.15,468.14,570.71,468.14,570.71Zm90.63,19.15c-6.37-10.75-27-22.11-37.16-16.32,0,0,11.71,1.63,20.83,5.64A67.11,67.11,0,0,1,558.77,589.86Zm-119.12-9.72c-16.52,5.35-33,16.51-38.92,30.74a85,85,0,0,1,28.52-23.22c18.09-8.91,41-10.4,41-10.4A67.2,67.2,0,0,0,439.65,580.14Zm20-.4s-4.61,10.89-10.84,18.66a67.09,67.09,0,0,1-14.54,13C446.35,608,462.68,591,459.7,579.74Zm-2.11,30.37c9.85-4.72,21.32-21.86,17-31.1,0,0-2.32,10.08-6.51,17.71A58.63,58.63,0,0,1,457.59,610.11Zm-62.37-1.68,0.22-5.24s-5.69,6.87-11.82,10.65-10.77,3.63-10.77,3.63C382.82,619.5,395.21,608.43,395.21,608.43Zm30.42-24.67c18.09-8.91,41-10.4,41-10.4A67.19,67.19,0,0,0,436,576.23c-16.52,5.35-33,16.51-38.92,30.74A85,85,0,0,1,425.63,583.75Zm-50.54,36.94s7-.14,12.39-3.18l7.66-4.3,0.12-2.68a45,45,0,0,1-10.19,6.35A93.93,93.93,0,0,1,375.09,620.69Zm152-7a67.11,67.11,0,0,1-14.54-13c-6.23-7.77-10.84-18.66-10.84-18.66C498.73,593.34,515,610.37,527.08,613.73Zm28.21-6C552,594.32,540.14,583.92,527.69,579a42.9,42.9,0,0,0-23.7-2.5s17.8,1.25,31.14,9.52S555.3,607.69,555.3,607.69Zm-6.46-2.86c-4.77-11.55-23.61-25.75-34.45-21.46,0,0,11.36,3.29,19.81,8.56A67.11,67.11,0,0,1,548.84,604.83Z" transform="translate(-54.35 -158.92)"/><path class="cls-3" d="M606.94,612.94c1-3.75.52-7.8-2.48-10.6a10.66,10.66,0,0,0-6.67-3.27c3.79,2.49,6.39,8.1,6.94,12.12a11.16,11.16,0,0,1-3.27,9.75,15,15,0,0,0,5.47-8m-7.63-.14c0.19-3.84-1.37-8.61-4.59-9.89A61.11,61.11,0,0,0,599.31,612.8Zm-3.77,6.35a3.83,3.83,0,0,1-1.72-1.53,49.13,49.13,0,0,1-3.62-7.25h0c-3.95-1.25-4.64-5.65-2.82-8.83a96.67,96.67,0,0,1-2.49-19.24c-0.33-8.4-.38-17.48,1.49-26a55.09,55.09,0,0,0-6.66,14.19c-0.63,2.2-1.17,4.39-1.61,6.62-0.3,4.24-.39,8.44-0.3,12.58,0.07,2.57.18,5.21,0.45,7.87a67.72,67.72,0,0,0,2,15.14,0,0,0,0,1,0,0,42.57,42.57,0,0,0,2.9,7.89,0.11,0.11,0,0,0,.05.05h0a0.47,0.47,0,0,0,.07.17c0.13,0.27.27,0.55,0.41,0.82a24.69,24.69,0,0,0,2.86,0l0.26,0a18,18,0,0,0,2.45-.3A17,17,0,0,0,595.54,619.16Zm-5.76-9.81c-0.3-.8-0.61-1.61-0.87-2.42A4.72,4.72,0,0,0,589.78,609.35ZM578.49,471.67c-3.33-12-6.71-23.45-15.76-33.31-9.72-10.6-20.92-19.86-33.9-26.38-29.18-14.61-64.53-20.26-97.08-16.74,18.84,5.87,37.89,12.5,55.64,20.86,6.69,3.15,13.23,6.56,19.68,10.12,12.75,7,25.15,14.7,37.64,22.21a292.41,292.41,0,0,1,25.44,17.51C572.79,467.93,575.74,469.7,578.49,471.67Zm-35.17-8.91,0.12-.05a0.5,0.5,0,0,0-.15-0.07A0.44,0.44,0,0,1,543.32,462.76ZM426.09,466a2.41,2.41,0,0,0,.22-0.7c-8.93-3.49-13.87-8.95-21.65-14.78-0.38-.14-0.77-0.27-1.14-0.37a27.89,27.89,0,0,0-8.46-1c-12.51,2.24-18.35,11.32-19.68,23.92,0.67-.15,1.39-0.29,2.15-0.38a84.48,84.48,0,0,1,10.89-.81c-6.45-7.48-1.51-20.52,9.82-19.3,8.87,0.95,14.07,10.29,10.56,17.48l0.7-.1C412.86,469.44,424.32,469.51,426.09,466Zm-23.19,4c5-4.46,1.48-11.94-4.7-13.19-9-1.86-11,8.79-7.59,14.92,4-.15,7.81-0.45,11.68-0.87A2.34,2.34,0,0,1,402.91,470ZM311,644.59a218.56,218.56,0,0,0,2.36-56.5,115.48,115.48,0,0,0-9.19-35.24c-2-4.66-3.88-9.82-6.74-14-1.48-2.2-3.18-4.26-4.81-6.34a49.77,49.77,0,0,0-4.66-3.25c-5.09-3.18-11.62-7.66-17.61-9-7.12-1.53-12.43,5.65-15.93,10.82a49.4,49.4,0,0,0-8,23c-0.52,5.69-1.77,12.76,2.86,17.2,5.37,5.12,11.77,9,17.47,13.77,5,4.14,9,9.42,10.89,15.27,1-5.76,1-11.53-1.83-17.37a0.16,0.16,0,0,1,.18-0.22,0.21,0.21,0,0,1,.09.07c4.79,7.1,6.07,14.11,5,22.57-0.95,7.7-3.22,15.9-1.58,23.65,1.49,7,4.94,15.27,11.85,18.69S305.11,648.48,311,644.59Zm180.89-418.8h0c-2-4.61-4.51-9-6.84-13.45-4.37-8.33-8.5-16.79-13.3-24.92-2.93-5-5.94-9.87-9.13-14.72a288.84,288.84,0,0,0-43,16.92c-29.58,14.78-56.44,33.85-79.29,57.56-47.43,49.26-78.57,113.15-133.9,155.13-22.9,17.38-49,31.73-77.14,39.06-21.14,5.51-49.47,7-66-8.91,1.66,3.67,3.58,7.25,5,10.71a246.45,246.45,0,0,0,15.58,32.07c12.18,21.12,27.57,40.39,46.58,56,36,29.65,81,49,127.26,56.24-5.83-4.1-12.9-8.4-16.46-14.29s-2.85-12.75-2-19.34c1-7.85,2.56-16,6.63-22.89,6.47-11,17.36-23.7,31.11-15.44l0.75,0.45a40.15,40.15,0,0,1,4-7.19c2.89-4.5,5.23-9.32,8-13.88,2.57-4.19,5.29-8.25,8.13-12.23,2.49-4.24,5.13-8.39,7.88-12.53,9.53-14.28,19.49-28.47,31.8-40.61,19-18.73,45.8-30.5,72.7-36.09,1.56-.34,3.14-0.65,4.7-0.92s3.4-.6,5.09-0.88c3.44-.52,6.84-0.95,10.23-1.28,34.48-3.36,72.55,1.53,103.2,18.25a123.31,123.31,0,0,1,36,29.51c9.86,11.92,12.72,26.63,16.49,41.12a0,0,0,0,0,0,0,11,11,0,0,1,.62,1.22,1.85,1.85,0,0,1,.15,1.27c0.65,2.06-.58,4.7-0.47,6.82a2.21,2.21,0,0,1-1.65,2.1,30,30,0,0,0,.54,7.3,34.88,34.88,0,0,0,1.43,4.36h0a67.74,67.74,0,0,0,5.67,7.18c5.34,5.94,9.48,13.79,8.73,22a29.5,29.5,0,0,1-6.52,16.09c-0.15,6-2.19,12-3,17.85-0.14.95-.26,1.9-0.37,2.86a0.7,0.7,0,0,0,.18,0c7.45-5.75,19.42-5,27.85-8.82a351.49,351.49,0,0,0,33.16-17.91,225,225,0,0,0,50.35-41.81c15.31-16.77,28.15-35.41,39.69-54.86a386.91,386.91,0,0,0,21.14-40.28c-27.2,13.48-62.33,4.9-88-8.48-32.83-17.12-59.56-42.43-75.22-75.79-9.46-20.2-15-41.84-21.63-63-1.27,12.78-4,25.1-7.33,37.56-8.1,30.59-17,60.26-14.74,92.25a0.24,0.24,0,0,1-.47.06c-5-28.14,2.61-57,8.62-84.4,4.14-18.75,9-39.69,9.13-59.92a196,196,0,0,0-13.72-31.14c-9.08-16.16-20.3-30.71-35.87-41.29l-0.87-.59c-1.59,5.43-3.42,10.81-5.36,16.16-3.37,9.34-6.61,18.72-9.9,28.07-2.58,7.39-4.26,15.54-9.89,21.34a1.2,1.2,0,0,1-.39.26c0,0.08,0,.16.07,0.25a0.42,0.42,0,0,1-.78.29l-0.29-.41a1.78,1.78,0,0,1-1.33-1.21c-0.19-.65-0.36-1.31-0.49-2C493.84,230.38,492.84,227.92,491.89,225.78ZM455,514.07a0.34,0.34,0,0,1-.36.56c-5.65-2.09-15.18-6.29-21.26-4-5.42,2-9.67,7.45-13.66,11.37-9.32,9.16-17.36,21.32-23.1,33-0.1.23-.46,0-0.34-0.21,7.48-14.73,14.95-28.33,26.25-40.72,4.76-5.21,9.22-8.46,16.56-7.58A26.77,26.77,0,0,1,455,514.07Zm-38.49-1.6c1.35-1.8,4,.43,2.37,1.91a74.76,74.76,0,0,0-9,10.75c-2.52,3.42-5.57,6.53-8,10-0.19.25-.6,0-0.4-0.26,2.89-3.66,5-8.2,7.61-12.09C411.4,519.26,413.95,515.87,416.47,512.48Zm-36.87,21.74a0.55,0.55,0,0,1-.17,1c-5.84,1.15-11.81-6.35-13.7-11.14-2.38-6-2.6-13.12,1.43-18.47a0.23,0.23,0,0,1,.4.25C360.55,517.19,371.21,527.95,379.59,534.22Zm2.71-1.4a0.26,0.26,0,0,1-.23.37c-3.75-.07-7.51-4.17-9.5-6.93-2.38-3.29-3.54-6.85-2.64-10.84,0.08-.38.74-0.27,0.67,0.11-0.69,4.21,1.81,8.25,4.79,11.15C377.54,528.8,380.56,530.34,382.3,532.82Zm1.44-37.74a1.42,1.42,0,0,1-1.54,2.39,8.51,8.51,0,0,1-2.87-2.67,1.28,1.28,0,0,1-.15-0.23l-0.17-.25a10,10,0,0,1-.66-1.35c-0.74-1.86-.4-3.38-0.32-5.29,0-.27.45-0.33,0.48-0.05a10.84,10.84,0,0,0,3.49,6q0.43,0.41.87,0.78A9.62,9.62,0,0,0,383.75,495.08Zm-4.91.74a1.33,1.33,0,0,1-1.34,1.6c-1.91-.05-3.37-1.71-4.29-3.49-0.1-.21-0.21-0.41-0.29-0.61a9.8,9.8,0,0,1-.65-1.76c-0.92-3.29,0-5.83,1.28-8.8,0.15-.34.79-0.3,0.73,0.12a15.88,15.88,0,0,0,1,7.19c0.59,1.64,2,2.83,2.93,4.25,0.07,0.11.14,0.23,0.21,0.36a2,2,0,0,1,.17.36A3.68,3.68,0,0,1,378.84,495.82Zm-7.32-1.9a1.5,1.5,0,0,1-1.77,2.12c-6.66-2.38-3.84-11.87-1.13-16l0.08-.1a0.49,0.49,0,0,1,.14-0.1H369a0.45,0.45,0,0,1,.45.58,14,14,0,0,0-.84,7.47C369.09,490.39,370.23,491.81,371.52,493.92Zm17,55.95c2.23,4.81.49,10.3-.72,15.25-1.69,6.83-3.15,13.71-4.69,20.56a0.41,0.41,0,0,1-.59.29,0.51,0.51,0,0,1-.37-0.45,59.1,59.1,0,0,1,1.48-20c1.87-8,.38-13.85-7.33-17.92-10.29-5.4-18.11-10.2-22-21.37a0.38,0.38,0,0,1,.33-0.48,0.33,0.33,0,0,1,.4.19c3.58,8.43,10.31,11.77,18.5,14.77C378.85,542.68,386,544.27,388.56,549.87Zm81.86-3.6c4.4,1.72,18.77,11.48,16.26,17.82-2.79,7-11.88,2.78-16.21-.3a0.5,0.5,0,0,1,.42-0.89c2.35,0.76,4.65,2.06,7.15,2.26,1.75,0.49,3-.15,3.86-2a1.7,1.7,0,0,1-.51.06c-1.76,0-2.89-1-4.21-1.93-5.78-1.17-12.5-3.74-16.74-8.1a21,21,0,0,1-4.24-2.59,3.49,3.49,0,0,1-1-1.44c-1,.36-1.44,1.07-0.17,2.35,2.33,2.34,5,4.9,8.06,6.18a0.32,0.32,0,0,1-.19.62c-4.34-1.33-12.5-3.77-11.22-9.6,0.49-2.23,2.71-3.33,5.46-3.75A31.89,31.89,0,0,1,470.42,546.27Zm54.5,126.55c0-1.35,0-2.7,0-4.06-2.7,1.68-6,0-6.88-3.33a6,6,0,0,1-.83.45c-2.42,1.09-4.47-.47-5.52-2.64a19.35,19.35,0,0,1-2.13,2.42,1.86,1.86,0,0,1-.19.15,8.61,8.61,0,0,0,2,2.2c0.3,0.23.13,0.85-.33,0.67-4.41-1.79-6.53-5.83-7.52-10.36,0-.23-0.11-0.5-0.18-0.78a6.51,6.51,0,0,1-.22.65c-1.29,3.3-3.2,6.51-6.77,7.63a9,9,0,0,0,2.26,2.35,0.07,0.07,0,0,1,0,.13c-2.31-.34-3.31-0.3-4.81-2.5a22.37,22.37,0,0,1-3.08-7.44c-0.19-.85-0.55-2.37-0.87-4.07a22.59,22.59,0,0,1-2.79,8.86c-1.6,2.71-5.59,6.51-9.07,4.13-3.22-2.19-3.93-6.57-4.33-10.15-1.1,7.07-3.67,14.12-9.53,13.9-2.13-.1-3.74-1.57-4.94-3.51-0.6,1.69-1.41,3.3-2,4.48-1.44,3.08-3.57,7.28-7.62,7.08a0.15,0.15,0,0,1-.07-0.29,14,14,0,0,0,4-4,4,4,0,0,1-1.42,0,5.79,5.79,0,0,1-3.19-1.8,8.32,8.32,0,0,1-6.92,0c-2.52,3.58-6.26,4-9.68,2.12-4,2.43-8,1.4-11-1.24a65.32,65.32,0,0,0,3.09,7.06c6.09,3.56,10.43,7.84,18.22,6.49,7-1.22,13.49-3.88,20.22-6.09,13.61-4.48,27.41-11,42-11.48A66,66,0,0,1,524.92,672.82ZM523.75,657a62.29,62.29,0,0,0-.07-6.42,4.78,4.78,0,0,1-1.69,1.84,18.72,18.72,0,0,1-.52,7.4c-0.1.36-.21,0.73-0.34,1.09a1.91,1.91,0,0,1,1.28,1.21l0.22-.19A9.37,9.37,0,0,0,523.75,657Zm-1.93-11.47c0.36-.63.72-1.27,1.06-1.9a25.2,25.2,0,0,1-.37-5c-0.11-.55-0.21-1.09-0.29-1.64a28,28,0,0,1-2.82-.74c0.12,1.14.19,2.21,0.26,2.57a38.32,38.32,0,0,1,.95,7.91,0.35,0.35,0,0,1,.12.18,1,1,0,0,1,.05.21C521.14,646.57,521.53,646,521.83,645.52Zm-2.2,7a0.61,0.61,0,0,1-.18-0.29,3.4,3.4,0,0,1-.3-1.37,2,2,0,0,1-.59.12,12.79,12.79,0,0,1-3.27-.18,18.52,18.52,0,0,1-.61,6.6h0c0.81,1.33.15,3,.73,4.58,0.37,1,.85.45,1.43-0.46A20.73,20.73,0,0,0,519.63,652.51Zm-2.49-5.36c0.32-3.92-1.13-8.09-.48-11.94a41.11,41.11,0,0,1-7-3.75c1.18,4.19,1.39,8.71.26,12a1.59,1.59,0,0,1-.17.4C512.27,644.48,514.61,646.35,517.14,647.14ZM507.65,662c3.21-3.42,4.62-7.27,5.91-11.61a19.41,19.41,0,0,1-6.77-3.19,2.38,2.38,0,0,1-.23.12c-0.07.88-.32,1.76-0.37,2.67a28.43,28.43,0,0,0,.21,6.57A40.36,40.36,0,0,0,507.65,662Zm-13.91-17.56c5.38,0.81,13.11,2,12.93-4.9a40.19,40.19,0,0,0-2.54-12.39,61.73,61.73,0,0,1-4.67-4.62C496.3,629.68,494.11,636.35,493.74,644.45Zm8.35,4.06a41.29,41.29,0,0,1-8.87-.51,7.93,7.93,0,0,0-.18,1.17,33.85,33.85,0,0,0,.12,7.55,27.29,27.29,0,0,0,1.35,5.46,1.52,1.52,0,0,1,.29-0.08C500.34,661,500.65,653.31,502.09,648.51Zm-4.61-28.19a73.49,73.49,0,0,1-4.62-6h0a16.61,16.61,0,0,1-1.66,0,2,2,0,0,0-.29,0,0.23,0.23,0,0,1-.09,0c-5.17.22-11.81,0.71-16.52-1.22a70.58,70.58,0,0,1-5.42,4.54,17.67,17.67,0,0,1,6.78,10.51,27.67,27.67,0,0,1,3.85-6.31,3.64,3.64,0,0,1,1.28-1.46,25.19,25.19,0,0,1,4.52-3.74,0.1,0.1,0,0,1,.14.14c-0.82,1.09-1.64,2.17-2.42,3.29a8.68,8.68,0,0,1,3.16,1.47,14.93,14.93,0,0,1,6,8.87A27.68,27.68,0,0,1,497.48,620.31Zm-8,22.69a23.05,23.05,0,0,0,.37-6.08c-0.18-3.44-.29-7-2.39-9.92-1.2-1.65-3.79-4.41-6-4.58a27.17,27.17,0,0,0-3.58,8.17,73.5,73.5,0,0,0-1.64,12,1.71,1.71,0,0,1,.83,1.21,57.67,57.67,0,0,0,7.18,1.07C486.12,645,488.92,645.66,489.47,643Zm-3.33-33.87c1.23,0.12,2.44.22,3.65,0.32a69.94,69.94,0,0,1-4.64-9.32c0-.08-0.07-0.16-0.11-0.26a50.59,50.59,0,0,1-5.84,8.2A34.91,34.91,0,0,1,486.14,609.13Zm-0.45,48.05c0.89-3,1.59-6,2.5-8.93-3.52.65-7.43-.16-11.07-0.87-0.11,5.18-.57,11,1.84,15.39S485.08,659.21,485.68,657.18ZM472.37,639c0.92-7.22-.23-14.54-4.88-20.3A79,79,0,0,1,459.1,624a22.66,22.66,0,0,0-2.17,7.21,30.76,30.76,0,0,1,.74,8.77c1,2.6,2.27,3,5,3.08,1,0,8.82.66,9-.4C472,641.46,472.22,640.21,472.37,639Zm-6.71,27.93c4.36-4.39,5-13.53,5-20-3.82.5-9,1-12.5-.44A46.42,46.42,0,0,0,459,656C459.38,657.61,462.5,670.07,465.66,666.91Zm-8.59-4.35a33.31,33.31,0,0,1-.8-3.42c-0.59-3.21-1.83-8.84-1.1-13a12.73,12.73,0,0,1-10,3.18c1,5,.72,10.18,2.86,14.92a28.61,28.61,0,0,0,2.48,4.66c1.4,2,2,1.94,4.17,1.46a1.08,1.08,0,0,1,.91.18c0.21-.58.39-1.17,0.54-1.76C456.58,666.92,456.54,664.58,457.06,662.56Zm-3.55-23.63a27.47,27.47,0,0,1-.55-6.29c-0.25-1.7-.54-3.38-0.84-5.07-3,1.35-6,2.58-9.17,3.66a16,16,0,0,0-.73,3.81c-0.18,2.68-.81,10.45,3.63,10.41C451.21,645.41,453.27,642.88,453.52,638.93Zm-9.72,10.15a6.85,6.85,0,0,1-1.44-.6,1.4,1.4,0,0,1-1.28.62,15,15,0,0,0-8.09.56,21.26,21.26,0,0,0,4.46,13.57c2.49,3.4,5.3,4.59,8.61,5.68A27.36,27.36,0,0,1,443.79,649.08Zm-4.26-3c0-.36,0-0.69-0.07-1a17.36,17.36,0,0,1-1.32-6.53c0-.48,0-1,0-1.61-0.33-1.29-.71-2.57-1.17-3.85-2,.56-4.08,1.06-6.15,1.5a16.65,16.65,0,0,0-.28,2.87,45.48,45.48,0,0,1,1.54,9.86A20.1,20.1,0,0,1,439.53,646.09Zm-4.65,25.65c1.4,0.7,2.46.07,3.3-.92a17.83,17.83,0,0,1-3.58-3.64,20.08,20.08,0,0,1-3.51-16.56,2.47,2.47,0,0,1-.44.19c-3.26.89-5.58,0.59-7.23-.47,0.45,5.06,3.2,10.77,5.58,14.73C430.44,667.44,432.28,670.41,434.88,671.73Zm-6.82-.36-0.22-.29c-3.82-5.23-7.36-12.86-6.66-19.68a2.89,2.89,0,0,1-.69.33c-0.45.15-.89,0.3-1.33,0.47a2.12,2.12,0,0,1-1.61-.15,48.22,48.22,0,0,0,2.27,10.26c0.87,2.7,2,5.93,4.24,7.89A4.46,4.46,0,0,0,428.06,671.38Zm-4.84-29.31c0.3,3.71,1.66,5.57,4.92,5.21a75.78,75.78,0,0,0-1.16-12c-1.22.21-2.46,0.38-3.69,0.54A41.25,41.25,0,0,0,423.22,642.07Zm-43.11-1.62a38.73,38.73,0,0,1-12.79-2,41.16,41.16,0,0,1-10.26-5,36.91,36.91,0,0,1-4.21-1.53c0.22,1.38.34,2.7,0.56,3.73,1.07,5.27,2,10.7,3.85,15.78a93.65,93.65,0,0,0,8.31,16.6,74.89,74.89,0,0,0,5.6,7.07A184,184,0,0,1,380.1,640.45Zm-68.64-17.27a2.49,2.49,0,0,1-2.59,2.38c-6.19,0-8.43-4.54-10.89-9.37-1.86-3.66-4.2-5.28-7-8.13-3.22-3.23-2.61-6.09-3.47-10.25a0.56,0.56,0,0,1,.45-0.66,0.47,0.47,0,0,1,.54.15c3.41,4,9.5,6.66,11.6,11.59,1.32,3.07,2.49,8.46,5.45,10.71-1.2-6.89-1.13-15.93-7.08-19.17-3.25-1.76-6.35-3-5.68-7.23,0.83-5.23,2.6-11.72,2.78-17.78a103.8,103.8,0,0,0-9.34-17.78c-5.27,3.78-6.08,11.86-5,17.71v0.07a0.25,0.25,0,0,1-.49,0c-1.5-6.34-4.15-11.69-1.89-18.24a13.72,13.72,0,0,1,3.32-5.13,65.07,65.07,0,0,0-4.43-5.13c-5.62-5.87-11.06-6.6-14.26,2.24-1.86,5.13-3.68,11.92-.21,16.87,2.08,3,4.25,5.68,6.22,8.7a0.43,0.43,0,0,1-.32.63,0.34,0.34,0,0,1-.4-0.12c-3.4-4-8.65-7.8-10.09-13.13a28.43,28.43,0,0,1,.73-16.24c1.45-4.24,3.95-7.88,7.38-9.5a7.1,7.1,0,0,0-6,.5c-3.92,2.38-5.94,6.73-7.16,10.95a0.29,0.29,0,0,1-.55-0.1c1-8.38,6.64-18.81,17.18-15a23.55,23.55,0,0,1,8.07,5.21c6.39,3.88,11.24,11,14.94,17,5.78,9.39,9.57,20.71,7.69,31.77a0.61,0.61,0,0,1-1.2.12c-0.16-.51-0.33-1-0.51-1.5-0.16,1.42-.34,2.75-0.5,3.95A45.62,45.62,0,0,1,298,594a37.21,37.21,0,0,1,3.49,1.69c2.09,1.28,4.44,2.83,5.58,5.07C310.32,607.21,311,616.09,311.46,623.17Zm160.06-54.43a0.2,0.2,0,0,1-.17.29,0.18,0.18,0,0,1-.18,0c-7.69-6.92-20.31-6.08-29.8-4.24-10.47,2-21.44,6-29.77,12.64-5.54,4.44-9.8,10.15-14.07,15.79,2.9-2.38,5.71-4.69,8.43-6.74,11.91-9,24.82-16.57,40.46-14.95a0.15,0.15,0,0,1,.17.15,0.18,0.18,0,0,1-.18.22c-10.75.81-20.44,3.34-29.31,9.59-7.63,5.38-13.67,12.31-20.46,18.63-7.55,7-24.21,20.89-36.09,16.52a15.86,15.86,0,0,1-9.67-3.51c-8.36-6.39-13.42-21.15-4.66-29.25a0.2,0.2,0,0,1,.15,0,0.17,0.17,0,0,1,.13.25c-4.32,6.11-3.34,14.18.75,20.2a20,20,0,0,1-1.17-9.06c0.55-6.44,4.29-13.62,11.31-14.63a8.27,8.27,0,0,1,7.89,3,13.76,13.76,0,0,0-6.11-7.54c-4-.59-8.77.88-12.43,2.89a19.18,19.18,0,0,0-3.6,2.49c-5.67,5.06-8.11,12.76-7.41,20.18a28.9,28.9,0,0,0,2.68,9.78,23.91,23.91,0,0,1-1.18-9.32,0.34,0.34,0,0,1,.69,0c-0.23,17.69,20.11,24.59,35.18,22.49a75.59,75.59,0,0,0,25-8.64c6.82-3.64,12.63-8.58,19.24-12.42a0.27,0.27,0,0,1,.41.22,0.27,0.27,0,0,1-.05.26c-6.48,7-16.46,14.7-25.32,18.69s-18.78,6.86-28.59,5.73a42.21,42.21,0,0,1-7.84-1.65,40.35,40.35,0,0,0,12.45,2.5c15.55,0.7,31.08-3.92,44.55-11.39,13.16-7.29,22.75-16.81,33.28-27.09a0.38,0.38,0,0,1,.63.22,0.28,0.28,0,0,1-.06.25c-10.26,17.21-26.16,30.09-45,37.6-0.38.17-.78,0.32-1.17,0.45a87.27,87.27,0,0,1-25.84,6,45.08,45.08,0,0,0,7.34.12c1.29-.08,2.56-0.19,3.81-0.38a72.13,72.13,0,0,0,11.92-2.64c0.76-.22,1.5-0.45,2.24-0.7l1.49-.48,2.1-.74c21.81-7.76,44.33-21.58,57.75-40.53a0.46,0.46,0,0,1,.49-0.18,0.41,0.41,0,0,1,.39.59c-7.45,17-22.76,29.77-39.86,38.27a32.69,32.69,0,0,0,10.78-3.16c8.25-4.48,16.41-9.3,21.26-17.51a0.71,0.71,0,0,1,1.21.74,58.31,58.31,0,0,1-9.34,11.54,77.88,77.88,0,0,0,11.06-7.06c12.35-9.49,19.6-20.46,24.4-35.12a0.51,0.51,0,0,1,1,.3,90.16,90.16,0,0,1-9.78,23.9c5.17-6.22,9.79-12.78,13-20.67,0.14-.36.71-0.19,0.56,0.18-3,8-6.41,17.66-12.12,25,6.44-5.65,11.65-12.39,13.93-20.08a13,13,0,0,1,.47-2.32,0.4,0.4,0,0,1,.19-0.25c0.11-.54.19-1.09,0.28-1.64a0.35,0.35,0,0,1,.69,0c0,0.76,0,1.53-.1,2.27,3.37,5.84,5.25,12.39,9.19,18a177.08,177.08,0,0,0,14.91,17.81,0.65,0.65,0,0,1-.95.88c-3.89-4.14-10.37-9.42-15.72-15.35,0.26,0.91.54,1.8,0.87,2.67A55.72,55.72,0,0,0,504,620.56a53.2,53.2,0,0,0,19,13.82,2.91,2.91,0,0,1,1.07-.54c-2.53-2-5-4.13-7.56-6.29-0.15-.11,0-0.33.19-0.23,4.29,2.67,8.84,5.34,13.56,7.8,1.61,0.84,3.26,1.66,4.91,2.45l0.37,0a0.82,0.82,0,0,1,.32,0,141.42,141.42,0,0,1-19.25-18.8c-0.8-1-1.6-2-2.36-3-5.83-7.65-9.95-16.34-15.64-24.11a0.26,0.26,0,0,1,0-.22,0.23,0.23,0,0,1,.41-0.11c11.31,14.52,21.66,28.74,36.49,40.14,6.74,5.17,14,9.68,22.21,12.23,4.42,1.35,9.16,2,13.68,3,0.87,0,1.72-.07,2.59-0.12a40,40,0,0,1-17.82-6.24c-16.68-10.86-24.36-30-39.25-42.8h0c-0.14-.1,0-0.3.17-0.2,14.58,9.38,22.43,25.37,36.31,35.41a58.78,58.78,0,0,0,14.22,7.74,48.15,48.15,0,0,1-9.06-7.44c-14.19-14.74-23.15-38.08-43.6-45.91a0.09,0.09,0,0,1-.07-0.08,0.11,0.11,0,0,1,.15-0.15c17.34,5.82,27.51,18.91,39.11,32.2,6,6.82,12.27,14.26,20.62,18.35,9,4.4,16.45,1.9,25.09-.19,7.4-5,13.89-11.94,14.67-20.64,0.55-5.94-.87-12.54-5-17.15-3.4-3.77-8.25-6.13-12.62-3.54,8.26-.16,17.07,10.08,13.33,19.38-4.28,10.64-16,16.41-26.49,13.12a14.1,14.1,0,0,1-7.22-2.85,45.79,45.79,0,0,1-12.29-14.19c-4.08-7.18-8.07-15.47-14.19-21.23-5-4.76-11.25-7.87-16.46-12.39-0.12-.1,0-0.25.11-0.28a0.14,0.14,0,0,1,.13,0c11.06,6.6,21.81,11.48,29.36,22.32,1.13,1.61,2.26,3.33,3.4,5.06-1.75-7.12-3.13-14.48-6.86-20.23-5.87-9.1-15.89-14.74-26.76-16a62.27,62.27,0,0,0-14.5,0,86.61,86.61,0,0,0-20.63,5.29,0.13,0.13,0,0,1-.1-0.23c2.93-1.71,5.87-3.3,8.84-4.66l0.8-.38,0.51-.23a67,67,0,0,1,10-3.62c8-3.26,16.13-7.44,13.08-17.87-1.09-3.74-1.79-8-3.76-11.39-2.08-3.59-4.92-3.66-7.95-3a6.11,6.11,0,0,1-2,.54h0c-0.74.22-1.51,0.44-2.27,0.63a0.19,0.19,0,0,1-.25-0.19,0.32,0.32,0,0,1,.07-0.15,18.3,18.3,0,0,1,1.82-1.68c1-2,5-3.66,6.69-4.06,3.57-.89,8.66-0.89,11.39,2.1,4,4.4,6.55,9.6,9,15,2.09,4.57,4.44,9.53,4.24,14.65a0.08,0.08,0,0,1-.1.05,0.09,0.09,0,0,1-.07-0.05c-2.74-8.4-4.94-16.94-11.32-23.61-3.09-3.23-6.31-5-10.27-5,4,2.5,6.89,8.29,8.4,13.12,2.06,6.59,2.5,13.27-3.14,18.29l-1.17,1a42.34,42.34,0,0,1,14.18,2.6,39.66,39.66,0,0,1,17.76,12.5c0.66-5,3.45-10.8,4.81-13.46a70.61,70.61,0,0,1,17.48-22.51,0.1,0.1,0,0,1,.17,0,0.08,0.08,0,0,1,0,.12c-4.66,4.1-8.06,10-10.69,15.91a2.69,2.69,0,0,1,1.69-1,34.43,34.43,0,0,1,6.37-6.2,0,0,0,0,1,0,0c6.79-6.77,14.72-13.38,12.64-24.14-2-10.18-10.58-16-14.61-25.14a23.27,23.27,0,0,1-1.37-13.62c-0.44-.33-0.88-0.66-1.32-1a39,39,0,0,1-1.87,3.85c-6.63,12-16,25.65-31.67,25.51H543c6.12,2.46,12.87,3.2,18.93.56a0.45,0.45,0,0,1,.42.8c-9.67,5.71-20,3.16-28.65-2.71a0,0,0,0,1,0,0,42.53,42.53,0,0,1-12.62-5.68c5,5.68,11.11,10.93,18.57,12.83a0.43,0.43,0,0,1-.25.83c-9.16-1.72-17.14-7.81-22.86-14.89-1.13-1.38-2.43-3-3.69-4.81,0.8,10-1.47,20.12.21,30.24h0c0.12,0.78.27,1.55,0.45,2.32l-4.07.47,4.07-.47c1.18,5.18,2.31,9.83.47,15-1,2.9-3.23,5.62-5.39,8.1,1.1-.83,2.2-1.62,3.3-2.43,2.85-2.06,5.71-4.19,9.23-5a3.51,3.51,0,0,1,4.37,3.36c-0.1,3-3.54,5.14-5.58,6.82-0.22.18-.59-0.08-0.41-0.33,1.22-1.72,4.44-8.14,1.09-6.51-0.92,1.76-1.32,3.34-2.93,4.81A33.14,33.14,0,0,1,512,564a56.08,56.08,0,0,1-4.92,2.86c-0.18.08-.36,0.15-0.54,0.25s-0.54.22-.81,0.33l-0.81.26h0a14.76,14.76,0,0,1-6.08,2.27h0c-4,3.59-8.62,5.94-13.42,3a0.76,0.76,0,0,1,.44-1.4c6.3-.58,10.21-5.35,14.15-9.67,1-1.13,2.15-2.31,3.26-3.53l-0.08,0c-1.28.67-4.62,2.3-6,.88-3-3.18-6-6.42-9.09-9.53a0.08,0.08,0,0,1,.08-0.12h0c2.41,1.86,5.12,3.31,7.47,5.28,1.44,1.2,2.28,2.81,4.25,1.84a17,17,0,0,0,3.34-2,32.3,32.3,0,0,0,6.48-6.13,1.63,1.63,0,0,0,.14-0.19c1-3.66.44-7.78-.44-12-1-4.69-2.33-9.43-2.12-13.68,0.49-10.05,2.28-19.42-1-29.25-1.11-3.31-2.27-6.57-3.55-9.78-0.2,2.45-.36,4.9-0.45,7.33a1.13,1.13,0,0,1-2.25-.08c0-5-.71-9.81-0.91-14.69a37.05,37.05,0,0,1-6.85-14.52,40.93,40.93,0,0,1-8.37-.16,0.22,0.22,0,0,1-.21-0.3,0.25,0.25,0,0,1,.22-0.12c2.1-.1,4.41-1.46,6.31-2.24,0.45-.18.92-0.39,1.38-0.6A44.59,44.59,0,0,1,491,450c0.15-6.77,1.35-13.55,2.36-20.24a14,14,0,0,1,1.14-4.21q-5-2.6-10-5a428.16,428.16,0,0,0-62.84-24,188.17,188.17,0,0,0-46,13.08,54.19,54.19,0,0,1,26.85,1.42,62.4,62.4,0,0,1,23.81,14.21c-3.23-5.86-7.08-11.18-12.84-14.88-0.08-.06-0.05-0.14,0-0.15a0.09,0.09,0,0,1,.08,0c13.58,6.22,19.76,18.72,27.37,30.6a82.17,82.17,0,0,0,4.7,6.92l0,0.06a30.3,30.3,0,0,0,9.09,6.16,5.93,5.93,0,0,0,.69,0,15.39,15.39,0,0,0,10.86-6.41c2.7-4,2.11-7.54,1.16-12a0.34,0.34,0,0,1,0-.17,0.27,0.27,0,0,1,.41-0.14c7.91,5.76,4.33,15.64-2.63,21.08,5.35,2,13.84,1.87,17.54-3a0.47,0.47,0,0,1,.54-0.19,0.49,0.49,0,0,1,.36.59,9.3,9.3,0,0,1-3.65,5.93c-3.41,2.48-8.47,2.79-13.07,2.45a22.43,22.43,0,0,1,5.39,5.17c0.52,0.76-.74,1.64-1.35.94-2.44-2.81-7.87-3.6-11.6-4.29a13.1,13.1,0,0,1-2.56,1.64,1.79,1.79,0,0,1,0,.29,45.74,45.74,0,0,1,6.79,4.68c4.8,3.93,9,8.79,10.48,14.77a0.16,0.16,0,0,1-.29.11c-2.76-5.82-10.63-10.14-16.46-12.29-0.19-.07-0.39-0.15-0.59-0.21,1.17,2.81,2.1,5.75,3.41,8.47,2.12,4.44,5.78,8.14,8.94,12.1,0.39,0.34.8,0.66,1.18,1,8.79,7.06,12,20.22,11.72,31a0.11,0.11,0,0,1-.17.1,0.09,0.09,0,0,1-.08-0.08c-1.65-7.06-2.7-15.25-7.47-21.06-0.08-.1-0.15-0.18-0.23-0.26a1.61,1.61,0,0,1-.95-0.39,18.6,18.6,0,0,0-2.34-1.72,63.3,63.3,0,0,1,3.82,8.42,0.14,0.14,0,0,1-.26.1,42.55,42.55,0,0,0-7-10.41c-0.18-.07-0.34-0.15-0.48-0.22a0.89,0.89,0,0,1-1.17,0c-1-.74-1.94-1.46-3-2.17q-0.62-.35-1.2-0.74c-1.06-.7-2.09-1.46-3.11-2.23-3.66-2.45-7.4-4.84-10.93-7.45-0.88-.54-1.77-1.06-2.67-1.57-3.43,2.68-6.26,6.3-9.13,9.3a0.53,0.53,0,0,1-.81-0.66c2.24-3.45,4.13-7.23,6.63-10.4-0.73-.37-1.5-0.72-2.25-1a17.9,17.9,0,0,0-1.27,1.43c-2.86,3.63-5.76,7.21-8.55,10.88-0.22.29-.7,0-0.48-0.3,2.83-4.18,5-8.75,8-12.82a14.79,14.79,0,0,0-1.88-.52c-3.45,4-6.35,8.49-10,12.42-0.21.23-.55-0.08-0.41-0.33,2.49-4.14,4.8-8.39,7.3-12.53a11,11,0,0,0-1.51-.06,36.8,36.8,0,0,0-2.89,3.29,133.9,133.9,0,0,0-9.24,13.89,0.43,0.43,0,0,1-.73-0.45c2.61-4.86,5.36-10,8.57-14.87l-1.6,1.77C421,489,416.38,493,411,494.94c-7.63,2.67-17.51,4.64-24.1-.34a12,12,0,0,1-.92-0.77c-0.29-.27-0.58-0.56-0.87-0.87L385,492.8c-0.15-.17-0.3-0.33-0.44-0.51a0.22,0.22,0,0,1,.31-0.3c6.27,6.84,20,2.28,26.62-1.43s10.14-8.6,14.1-14c-4.19,2.26-10.23,2.54-14.5,2.65a122.75,122.75,0,0,1-23.87-1.58s0,0,0,0a0.06,0.06,0,0,1,0-.1c6.6-.62,13.2-0.36,19.82-0.88a63.6,63.6,0,0,0,13.56-2.23c1.73-.54,3.25-1.2,4.84-1.59a3.3,3.3,0,0,1-.64-0.76,105.71,105.71,0,0,1-19.42,2.83c-12.49.89-24.62,0.52-36.75,2.45h0a0.38,0.38,0,0,0-.18,0l-0.17,0a82.2,82.2,0,0,0-9.61,2.08,0.17,0.17,0,0,1-.12-0.32,71.53,71.53,0,0,1,9.54-4.74c-1.51-10.71,5.06-21.78,13.75-28a42.28,42.28,0,0,1,8.22-4.52,14.66,14.66,0,0,0-1.51-.45,16.05,16.05,0,0,0-2.43,1,45.71,45.71,0,0,0-12,8.21c-4,4-12.5,13.33-8.88,19.35,0.29,0.47-.37.87-0.74,0.52-5.65-5.32,4.31-18.46,7.74-22.58a33.6,33.6,0,0,1,8.58-7.26c-8.39.45-16.85,5-21.15,12-2.76,4.54-6,10.8-11.91,11.91C336,466.72,331,456.86,332,446.72c0-.3.56-0.41,0.59-0.06v0c0.4,3.64,2.41,9.23,5.85,12a27,27,0,0,1-2.23-13.41,31.32,31.32,0,0,1,4.87-12.91l-0.44.43A217.87,217.87,0,0,0,326,449.16c0.07,0.55.14,1.1,0.19,1.65h0c1.21,12.34-2,26.24,4.63,37.41,2.26,3.8,11.59,15.31,17.63,13.29q1.92-3.55,4-7a0.35,0.35,0,0,1,.63.29q-1.11,2.58-2.1,5.24a0.61,0.61,0,0,1,.47.78,9.29,9.29,0,0,1-1.84,3.09v0a118.83,118.83,0,0,0-4.91,20.24c2.78-7.38,6-14.62,9.42-21.67a0.47,0.47,0,0,1,.85.39,165.9,165.9,0,0,0-8.47,26.38c2.46-5.36,5.2-10.63,8-15.9,0.48-.91,1.79,0,1.36.85a135.59,135.59,0,0,0-11.24,34.56l-0.21,1.09c2.09-3.84,4.35-7.58,6.37-11.48a0.59,0.59,0,0,1,1.06.5,128.1,128.1,0,0,0-7.08,19.42c-0.09.33-.18,0.66-0.26,1,0.81,5.23,1.66,11.3.8,16.06l1.44,3.49-1.44-3.49a25.87,25.87,0,0,1,5-2c5.58-4,13.42-1.18,16.86,4.61,2.78,4.66,3,9.42.76,13.37a9.68,9.68,0,0,1-.07,1.68,0.43,0.43,0,0,1-.87,0c0-.06,0-0.11,0-0.15a16.27,16.27,0,0,1-3.69,3.47c-0.11.07-.21-0.1-0.14-0.18a11.05,11.05,0,0,0,2.82-6.88c-3-5.64-11.81-6.6-14.39.77a16.45,16.45,0,0,0-.52,10.56c2.1,6.62,8,9.85,14.91,8.82a29.23,29.23,0,0,0,13.74-5.71c7.58-5.71,12.41-14.54,19-22.5,0.32-.37.65-0.74,1-1.13,10.1-11.51,25.33-18.07,40.59-19.78,2.13-.23,4.54-0.47,7.05-0.59h0c-6.17-3.41-12.87-7.45-14.26-14.66-1.13-5.74,2.27-12,6.52-16.34a19.42,19.42,0,0,0-1.83,1.38c-5.82,4.85-10.55,10.93-15.32,16.75-8.37,10.18-17.74,20.09-25.58,30.68-0.51.71-1,1.42-1.54,2.13a0.75,0.75,0,0,1-1.27-.78c4.94-7.67,11.17-14.39,16.48-21.8,5.89-8.2,11.72-16.41,18-24.29,5.71-7.12,17.67-16.13,27.37-12.69a9.83,9.83,0,0,1,6,1.46c6.56,4.13,10.18,10.93,15.11,16.63a0.36,0.36,0,0,1-.52.5c-6.28-6.55-12.83-14.14-20.77-14-3.21.07-6.63,1.39-10.37,4.55-4.92,4.17-11.48,12.24-6.86,18.87,3.16,4.55,7.58,7.54,11.3,11.54h0C458.5,559.48,467.82,561.07,471.52,568.74ZM539,721.66a0.51,0.51,0,0,1-.52.82c-5.47-2.27-11.43-3.14-16.86-5.6a47.28,47.28,0,0,1,5.29,9.52,69.42,69.42,0,0,1,3.26,10.25c4.11-4.13,7.88-8.38,12.65-11.8,3.92-2.81,8.15-5.31,11.76-8.51,2.63-2.31,6.48-5.43,6.34-9.31-0.1-3.3-1.23-6.08-2.19-9.19a64.51,64.51,0,0,1-2.7-17c-0.33-10.16-.63-20.19-1.25-30.31a66.7,66.7,0,0,1-15.68-6.39c1.2,9.43-.25,19.38,2.9,28.43a0.72,0.72,0,0,1-1.34.5c-3.87-9.86-2.24-22.22-7.76-31.29a2.76,2.76,0,0,1-.33-1.65c-1.21-.81-2.39-1.65-3.59-2.5-0.14,0-.28,0-0.41,0a69.17,69.17,0,0,1,.89,9.28,37.18,37.18,0,0,1,.9,8c0,2.79-.23,5.6-0.43,8.4,0,3.78,0,7.56-.29,11.33,8.75,3.81,15.09,10.16,11.58,20a0.73,0.73,0,0,1-.6.46,0.63,0.63,0,0,1-.73-0.67c1-11.44-10.48-15.86-20.17-17.6-13.06-2.37-26.09.93-38.32,5.32-11.76,4.21-24.66,10.68-37.17,12.06-4.13.45-7.88,0.47-11.5-1.1,4.59,4.68,10.22,7.72,16.82,7.37a0.57,0.57,0,1,1,0,1.14c-9.23-.81-16.63-3.07-22.88-10.26a64.78,64.78,0,0,1-12.63-23,96.1,96.1,0,0,1-3.41-17.4c-0.61-4.61-1.55-9.57-1.51-14.37-1.83-.06-3.64-0.19-5.46-0.39-1,.33-2.08.62-3.11,0.91l-0.22.07c-2.31,11.44-3.77,22.55-3.08,34.56A123.92,123.92,0,0,0,399,688.14,41.33,41.33,0,0,1,402,675.53a0.47,0.47,0,0,1,.91.27c-2.31,9.45.17,19.93,4,28.79a30.07,30.07,0,0,1,.56-13.23,0.62,0.62,0,0,1,1.2.21c1.11,15.28,12.38,31.69,25.62,39.61,5.63,3.37,13.05,6,19.2,2.21a22.63,22.63,0,0,0,8.73-10.33c-0.92-.58-1.83-1.2-2.72-1.82a3.23,3.23,0,0,1-2.71-1.66c-3-1.4-6.16-2.42-9.27-3.74a14.51,14.51,0,0,1-11.4-2.16,0.19,0.19,0,0,1,.1-0.34c9.09,1,15.86-3.55,22.46-8.62,2.6-2,5.18-4.1,7.88-6,9.17-6.42,20-12.21,31.34-13.71,15.42-2,32.87,5.32,36.63,21.47a0.09,0.09,0,0,1-.1.11,0.07,0.07,0,0,1-.11,0,26,26,0,0,0-13-12.82,32.41,32.41,0,0,1,5.19,6.44c0.52,0.85-.84,1.55-1.39.73-1.8-2.78-5.09-4.9-8.64-6.44,0.12,0.41.25,0.8,0.4,1.2h0a26.12,26.12,0,0,1,6,10,0.32,0.32,0,0,1-.59.22,16.2,16.2,0,0,0-3.54-5.36,34.19,34.19,0,0,0,2.38,4.28c1.16,1.76,2.41,3.66,3.75,5.51a48.94,48.94,0,0,0,4.41,5.34A47.79,47.79,0,0,1,539,721.66ZM281,819.52h0Zm0,0a45.68,45.68,0,0,1-5.45-6.67A65.38,65.38,0,0,1,266,792.27a73.46,73.46,0,0,1,12.88-60.87c-15.5,3.52-33.67-9-39.06-23.7a0.57,0.57,0,0,0,0-.07,25.24,25.24,0,0,1-1.53-7.15,0.36,0.36,0,0,1,.66-0.15,43.5,43.5,0,0,0,5.75,9.54,28.75,28.75,0,0,0,3.78,1.54c8,2.65,16,1.32,24.44-3.37a60.21,60.21,0,0,0,19.28-16.69c8.33-11.37,13.71-24.36,17-37.92-9.34,5.43-24.07,1.14-30.35-8.58-4.73-7.33-7.08-16.48-5.64-25.11,0.36-2.23.88-4.46,1.43-6.67a33.28,33.28,0,0,0-5.31-14.41,6,6,0,0,1-2.72.7c-27.62,1-54.61-7.5-79.59-18.73-24.08-10.84-48-24.58-67.91-41.93-20.19-17.6-35.3-38.74-47.42-62.3-5.83-11.37-9-22.94-12.85-35-1.73-5.52-4.44-12.44-4.46-18.82a68.58,68.58,0,0,0,11,7.59h0c17.78,10.44,38.12,8.8,58.27,3.19,21.23-5.9,41.74-15.87,60.06-27.93,58.75-38.74,91.26-101.22,136.41-152.74C344.36,225,373,201.34,405.9,184.14a304.21,304.21,0,0,1,50.25-20.91c0.81-.25,1.62-0.51,2.44-0.74,0.16-.06.33-0.11,0.49-0.15,0.69-.21,1.36-0.41,2-0.59,1.37,1.46,2.74,2.94,4.06,4.46s2.63,3,3.88,4.54A128.11,128.11,0,0,1,477.35,182a133.8,133.8,0,0,1,14.4,27.82,92.91,92.91,0,0,1,3.49,13.63,88.36,88.36,0,0,1,3.91-12.12c3.18-8.62,7.17-16.93,10.67-25.43,2.72-6.57,5.36-13.19,7.78-19.87,0.44-1.18.85-2.38,1.26-3.58,0.29-.8.56-1.58,0.84-2.38,0.12-.37.25-0.76,0.4-1.16,0.91,0.44,1.79.91,2.67,1.4,0.62,0.33,1.24.66,1.83,1,0.3,0.17.59,0.34,0.88,0.51,14.43,8.38,26.42,18.44,36.14,32a162.61,162.61,0,0,1,15.88,27.78c11,24,17.19,49.77,26.2,74.9,6.64,18.54,15.75,36.75,28.8,51.78,11.24,13,25,23.86,39.74,32.83s31,16.37,48.08,19.64c15.64,3,31.54,1.14,46.42-3.93,0.65-.22,1.31-0.44,2-0.67l1.82-.67c-0.3,1-.61,1.91-0.91,2.86-0.37,1.17-.73,2.31-1.11,3.47l-1,3.18h0c-5.19,15.86-10.92,31.38-18.53,46.54a263.68,263.68,0,0,1-38.42,56.58,229.86,229.86,0,0,1-54.3,45.12c-11.46,6.82-23,14.14-35.48,19.09-5.36,2.13-10.95,2.7-16.5,4.1-4.72,1.22-7.8,4-12.79,4a8,8,0,0,1-1-.07c0,1.14.07,2.3,0.14,3.45,0.11,1.65.23,3.31,0.43,5,0.47,2.74,1.07,5.45,1.8,8.09l0.83-.36c0.27-.41.56-0.82,0.85-1.21,2.68-3.59,6.08-5.75,11.15-4a20.2,20.2,0,0,1,12,10.7c4.63,11,2.3,22.27-4.74,31,2.3,2.06,4.44,4.3,7.21,5.9,6.6,3.85,14.5,6.68,22.28,6.74s16.19-4,20.71-10.34a59.73,59.73,0,0,0-2-26.6c-0.15-.51.56-0.7,0.83-0.32a43.27,43.27,0,0,1,5.87,13.27,16.35,16.35,0,0,1,1.42,9.56,47.26,47.26,0,0,1-7.7,28.17c-4.09,6.15-10.25,13.22-17.37,15.82a41.36,41.36,0,0,0,15.36,2.39c14.46-.45,29.2-5.49,35.51-18.24a55.87,55.87,0,0,0-2.24-18.9c-0.14-.43.54-0.56,0.69-0.17A136.75,136.75,0,0,1,698,653.8a41.34,41.34,0,0,1,1.46,13.77c-0.69,8.91-3.05,17.84-8.06,25.41-6,9.1-16.46,19.31-28,20.22a63.73,63.73,0,0,1,25.73,31.1A81.18,81.18,0,0,1,693.88,764c2.66,23.32-1.36,47.5-28.28,65,6.74-14.75,17.67-23.76,9.09-41.43-0.08.34-.16,0.68-0.26,1-6.77,26.22-28.83,48.28-51.25,62.29a74.39,74.39,0,0,0,15.48-29c0.23-.92.44-1.83,0.62-2.75a80.32,80.32,0,0,1-15.17,15.67C603.73,851,578.42,852.18,571.47,881c-2.29,9.58,1.15,22.6,15.26,17.94a0.41,0.41,0,0,1,.66.19h0c1.36,5.34-5.65,7.34-9.75,6.7a48.46,48.46,0,0,1-20.22-8.65c-9.19-6.63-12.2-18.58-11.15-30.3-5.38,8.61-12.2,16.26-19.39,23.48-14.77,14.78-32.22,27.88-53.24,28.76a53.5,53.5,0,0,1-8-.25,22.07,22.07,0,0,1-11.4.23,0.36,0.36,0,0,1,.11-0.7c11.14-.6,21-7.51,27.37-16.23,4.06-5.57,8.29-13.24,8.22-20.57-8.87,9.53-16.27,20.33-27.9,27.24-22,13.11-53.32,18.62-72.46,0-0.22-.15-0.44-0.29-0.66-0.45a0.24,0.24,0,0,1-.1-0.32,42.19,42.19,0,0,1-4.62-5.58c-0.22-.31.29-0.63,0.54-0.37a38.8,38.8,0,0,0,14.65,9.39h0a14.32,14.32,0,0,0,7-.34c3.25-1.17,6.48-4.24,8.6-6.88a54.67,54.67,0,0,0,9.81-18.08,39.44,39.44,0,0,0,.29-21.4c-1,8.18-7,16.05-13.53,20.95-6.84,5.09-20.19,10.89-26.85,2.49a0.34,0.34,0,0,1,.44-0.52c3.16,1.86,6.82,2,10.45,1.07a17.54,17.54,0,0,0,2.83-3.23c0.28-.39.52-0.8,0.77-1.21a0.4,0.4,0,0,1,0-.33c3.95-8.93,3.3-20.3-2.62-28.39-7-9.52-17.82-10.53-28.92-10.7-17.07-.26-35.7-2.41-50.12-12.24-15.58-10.64-23.85-25.33-27.82-42.95a28.13,28.13,0,0,0-.66,3.7,92.59,92.59,0,0,0-.4,14.87c0.56,10.09,2.79,20.54,10.81,27.57,0.7,0.6-.34,1.51-1,0.95A50.12,50.12,0,0,1,289,827c-2.75-2.52-5.49-4.9-8-7.5l2.89-1.75h0m29.9-141.89c4.32,27.08-22.86,43.62-34.19,64.76-7.47,13.95-11.08,30.38-8.47,46.07a66,66,0,0,0,7.65,22.2c1.66,2.92,3.34,5.92,5.12,8.86h0c0.47,0.8.95,1.58,1.43,2.37a36.53,36.53,0,0,1-2.24-12c-0.23-7.29-.47-20.13,5.21-26.43a69.71,69.71,0,0,1-.71-14.22c0.32-4.86.22-10.45,4.35-13.86a0.56,0.56,0,0,1,.77.81c-5,5.8-2,17.08-.54,23.68,0.14,0.63.3,1.28,0.47,1.91a104.34,104.34,0,0,0,8.29,22.59A61.79,61.79,0,0,0,345.12,835c16.09,3,35.91-.58,49.26,10.71a27.56,27.56,0,0,1,4.29,4.57,36.34,36.34,0,0,0-3-5.56c-6.2-9.45-14.18-13.69-24.34-18.25-6.37-2.86-12.39-6.29-17.42-11-0.58-.54-1.16-1.11-1.71-1.69a0.37,0.37,0,0,1,.54-0.5c9.64,9.58,22.38,9.67,33.82,15.79a39.44,39.44,0,0,1,18.68,20.61c3.95,10.19,4.54,27.8-3.64,36.82a39.83,39.83,0,0,0,9.52-7.08,37,37,0,0,0,10.71-24,85.48,85.48,0,0,0-10.35-17.17,0.52,0.52,0,0,1,.75-0.7c15.06,15.62,27.6,35.14,17.54,57-3.23,7-8.55,17.33-16.85,19.69l-0.37.1c16.48,1.22,34.44-4.69,47.19-13.09,12.15-8,18.59-21.26,29.57-30.19,1-.83,2-1.61,3.12-2.34,10-6.78,32.77-15.58,31.69-30.34,0-.33.54-0.39,0.59-0.05v0c3.29,16.23-13.14,25.25-24.52,33.85-1.43,1.09-2.81,2.21-4.13,3.4,2.5,11.37-3.29,23.06-11.39,31.18a54.59,54.59,0,0,1-11.25,8.83l0.19,3.56-0.19-3.56a57.62,57.62,0,0,0,8-2,68.8,68.8,0,0,0,15.5-8,177.42,177.42,0,0,0,26.69-21.87c8.29-8.18,16.41-16.54,22.43-26.53,5.93-9.82,8.57-19.79,10.91-30.83a0.2,0.2,0,0,1,.38.07c-0.73,5.09-.66,10.26-1.1,15.42a0.6,0.6,0,0,1,.34.58c-0.18,7.74-3,15.14-3.29,23-0.3,8.17.29,16.64,5.13,23.61,2.86,4.13,7.1,7.14,11.57,9.5-6.77-5.72-8.86-16.13-5.91-24.84,4.11-12.18,15.82-22.9,27-29.14,7.72-4.32,16.41-6.72,23.72-11.76A82.82,82.82,0,0,0,634,814.94c4-5.31,7.37-11.35,9-17.51,2.13-8.31,1-16.86-6.34-24.15a0.3,0.3,0,0,1,0-.32,0.29,0.29,0,0,1,.42-0.15c9.55,7.37,14.28,17,10.88,29.06-0.07.28-.15,0.54-0.25,0.81,0.43,8.22-1.9,16.57-5.19,24.18a58.69,58.69,0,0,1-3.92,7.59c3.74-4.72,7.23-9.68,10.78-14.48,6.34-8.6,12.82-17.14,16.24-27.35,4.33-12.84,5-25.58,3.2-39-1-7.56-5-19.8-12.86-23a0.27,0.27,0,0,1,0-.52,0.16,0.16,0,0,1,.14,0c8.44,1.59,13,11.73,15.69,18.8a66.53,66.53,0,0,1,4.36,29.76,3.16,3.16,0,0,1,.47.33c6.26,5.35,8.42,14.41,7.52,22.57,6-19.58,4.25-42.94-4.35-59.62-7.21-14-18.26-21.83-31.33-30.15-6-3.84-11.47-8.17-15.68-13.93-1.87-2.55-4.2-5.12-5.5-8-1.5-3.29-2.27-6.93-5.43-9.19a0.25,0.25,0,0,1,.26-0.43c0.18,0.13.36,0.25,0.52,0.39,5.24,3.7,7.65,11.26,12.24,15.76,6.19,6,14,9,21.52,12.82,12.31-4.75,22.68-9.85,29.91-21.67a59.13,59.13,0,0,0,6.83-16.16,26.28,26.28,0,0,1-5.18,5.57c-7.18,5.61-16,8-25,8.47-20.52,1.15-36.73-8.14-45.67-26.42a0.8,0.8,0,0,1,1.29-.89c5.81,5.13,11.51,10,17.78,13.57,9-2.21,16.72-11,20.79-18.59a57.46,57.46,0,0,0,2.92-6.33,25.15,25.15,0,0,1-13.6,4.76c-10.6.48-21.66-2.43-30-9a30,30,0,0,1-6.3-6.29,40.44,40.44,0,0,1-3.62,3.22c-12.51,9.81-28.91,14.83-44.88,12.54,2.82,9.94.54,21.43,1.2,31.46,0.7,11,8.87,22.94,1.47,33.07-6.46,8.86-18.28,13.27-27,19.43q-2.41,1.69-4.72,3.58c-0.51.42-1,.85-1.51,1.28a83.92,83.92,0,0,1,1.11,20c-1.37,22.45-11.43,47.81-32.51,59a0.68,0.68,0,0,1-1-.58,0.65,0.65,0,0,1,.19-0.55c15.86-17.59,25.63-36.38,26-60.28a102.46,102.46,0,0,0-.47-11.4c-0.05-.51-0.09-1-0.17-1.55-0.07-.67-0.16-1.35-0.25-2a84.36,84.36,0,0,0-11.17-32.59,7.72,7.72,0,0,1-.77-1.24,65.48,65.48,0,0,0-6.34-8.36,0.49,0.49,0,0,1,.73-0.66c2,1.94,4,3.82,5.89,5.71,2.51,0.65,4,2.72,6.23,4.06,1.47,0.88,2.94,1.66,4.46,2.41-0.55-.51-1.1-1-1.62-1.57a49.06,49.06,0,0,1-4.51-5.31,42.06,42.06,0,0,1-5.69-9.94,36.3,36.3,0,0,0-18.38-1.21c-5,.91-10.29,2.53-14.15,6-2.72,2.41-4.3,5.69-6.66,8.33,2.63,21-17,41.82-38.47,30.79a51.43,51.43,0,0,1-14.26-11.22c-7.8-.58-13.46-9.53-16.48-17-10.09-9.33-11.43-27.79-11.94-40.09-0.39-9.15-.55-22.72,3.57-32.84a81.61,81.61,0,0,1-8.47,1.5c-5.46,31.81-25.32,74.22,9.82,96a0.84,0.84,0,0,1-.9,1.42c-21.28-12.62-26.28-34.12-24.34-56.29-8.8-3.21-15.1-18.94-17.95-25.93-2.21-5.46-3-11.46-3.47-17.27-0.16-2.17-1-5.58-.82-8.43C333.66,621.05,325,601,334.13,585.52a21.06,21.06,0,0,1,1.6-2.31,1.42,1.42,0,0,1-.25-0.56,24.62,24.62,0,0,1,0-8.17c-1.21-2.85-1-6.7-.19-10.63a1.65,1.65,0,0,1-.18-0.95,140.41,140.41,0,0,1,2.41-14.56c-0.91-8.33.59-18.61,2.65-26.56a83.23,83.23,0,0,1,6.08-16c-5.13.83-11.85-4.65-15-8.77-10.11-13.3-8.9-30.43-6.68-46.06-0.55.67-1.09,1.36-1.61,2h0c-1.69,5.42-4.74,10.4-6.6,15.77-0.11.29-.21,0.58-0.29,0.87a145.13,145.13,0,0,0-5,17.62c-3,14.45-3.56,29.16-.13,43.61a0.51,0.51,0,0,1-1,.23,110.26,110.26,0,0,1-2.09-46,30.11,30.11,0,0,0-2.13,4.92c-3.34,10.82-5.19,22.22-3.62,33.52,0.1,0.74-1,1-1.18.27a90.37,90.37,0,0,1-1.28-22.1c-0.43.66-1.32,1.9-2.38,3.38-1.62,4-4.32,9.31-5.23,14.28,0,0.44,0,.87.05,1.32a2.58,2.58,0,0,1-.37,1.66,11,11,0,0,0,.63,4,0.79,0.79,0,0,1,.06.47,55.27,55.27,0,0,1,6.85,7.55,20.55,20.55,0,0,1,3.33,4,125.43,125.43,0,0,1,8.21,16.13,112,112,0,0,1,9.2,36.11c1.28,17.07,1,34.82-1.83,51.9-0.66,4.06-1.5,8.09-2.49,12A133.22,133.22,0,0,1,309,674.76c-4.66,11-11.2,21.17-20.38,28.73-10.74,8.83-27.52,15.8-40.78,9.92,8.18,8.31,19.39,13,31.49,14.78,0.61,0.09,1.22.18,1.83,0.25,3.26-4.18,6.79-8.22,10.47-12.5,9.19-10.73,22.39-24.85,21.19-40a0.35,0.35,0,0,1,0-.12,0.27,0.27,0,0,1,0-.11,0.5,0.5,0,0,1,.37-0.19A0.43,0.43,0,0,1,313.76,675.89Z" transform="translate(-54.35 -158.92)"/><path class="cls-3" d="M463.23,428a0.39,0.39,0,0,1-.59.3c-2.43-1.77-3.6-5.31-5.49-7.63a28.61,28.61,0,0,0-7.33-6.71c-0.22-.15,0-0.54.19-0.43a19.9,19.9,0,0,1,8.28,6.11C460.16,422,463,425,463.23,428m121.14,104c0.22-.16.52,0.22,0.27,0.39-4.69,3.53-6.81,8-10.26,12.43-2.93,3.74-4.81,8-7.66,11.73a0.48,0.48,0,0,1-.89-0.26c0.36-4.22,2.52-10.77,5.42-14C575,538.11,579.73,535.32,584.36,532.07Zm-10.73,2.65a0.76,0.76,0,0,1,1.06,1.1,45.19,45.19,0,0,0-6,7c-1.61,2.28-2.78,4.84-4.37,7.14a0.61,0.61,0,0,1-1.12-.33C563.15,543.36,569.4,538.54,573.63,534.73ZM553.71,558.6a0.06,0.06,0,1,1-.11,0,81.77,81.77,0,0,0-6.85-15.14c-1.83-3.25-4.25-6.33-5.42-9.86-0.18-.52.5-0.71,0.83-0.45C549.48,539.17,551.52,550.06,553.71,558.6ZM477.8,422.92c6.3,7.21,11.48,17.82,7,27.26a0.56,0.56,0,0,1-1-.17c-1.31-9.61.62-18.68-6.08-27A0.07,0.07,0,0,1,477.8,422.92Z" transform="translate(-54.35 -158.92)"/><path class="cls-12" d="M446.75,505a18.8,18.8,0,0,1,10.84,1c5.42,2.32,10.65,10.26,13.75,13s4.07,8.71,4.07,8.71l2.32,4.84s-7.94-7.16-9.87-9.49-5.81-6.2-7.16-8.13-3.49-6-13.94-9.87m-3.49,29.43s7.55-8.91,13.36-7.94a24.3,24.3,0,0,1,10.26,4.65l3.68,5.81S456.82,528.86,443.26,534.47Zm-47.24,30s7.36-22.27,16.26-32.14,18-21.88,27.88-20.33,13.17,5.42,13.17,5.42S428,511,396,564.48Zm34.07-60.41s-6.2,1.16-7.55,3.29l-1.35,2.13s-3.1-1.55-7,1.16-13,16.26-15.49,21.3-14.13-1.16-14.13-1.16-7.74-2.71-8.52-8.52a109.6,109.6,0,0,0-2.9-13.17s-4.45-5.81.77-6.78A135.43,135.43,0,0,1,388.28,501s14.33,0.58,18-.39,4.84-2.32,4.84-2.32S417.71,503.11,430.1,504.08Zm-68.54-19.94s-1.74,5.42.77,9.49,5,4.84,5.23,5.81-3.48,4.45-3.48,4.45-2.13,1.16-2.52,5.61-0.77,9.1-.77,9.1-6.58-8.91-4.26-13.36a43.1,43.1,0,0,1,3.1-5.42S353.43,486.85,361.56,484.14Zm41.43-2.9s-9.87,1.16-13.55-.39-10.07-2.13-10.07-2.13l-2.32,3.68S386.92,493.24,403,481.23Zm114,53.63s4.84-1.74,6.78,0a24.25,24.25,0,0,1,3.87,5.42l0.39,3.48a3.73,3.73,0,0,0-3.68-1.35c-2.52.39-7,2.71-7,2.71S518.38,537.57,517,534.86Zm-0.77-24.2a34.23,34.23,0,0,0,12.39,10.65,41,41,0,0,0,16.07,3.87s-8.33,1.35-12.78-.19-13.16.77-13.16,0.77l-2.9,2.13Zm33.11,16.26,7.55-3.87,10.84-4.65-1-4.07s5.81-4.26,6.58-7a24.4,24.4,0,0,1,2.9-5.81s2.52,7,6.78,11S590.4,520,592,524s-1.16,10.45-1.16,10.45-3.29-6.39-6.78-5.81-7,.77-7,0.77-7.94-2.13-11,3.68-1.16,5-4.65,9.87-2.52,6.58-1.55,10.65-2.52,6.78-2.52,6.78-1-11.23-4.26-17.23a49.24,49.24,0,0,0-8.52-10.84l-5.81-3.68Zm-283.75-2s10.46-4.26,20.15,7,12.79,14,12.79,14,3.49,10.85,4.26,19l0.77,8.14S286.15,526.46,265.61,524.91Zm238.64-28.77a28.84,28.84,0,0,1,.77,14.13c-1.55,7.74-1.94,15.68.39,23.23a30.2,30.2,0,0,1,1.36,13l-7.36,6.2-14.33-12.2a10.79,10.79,0,0,1-4.07-7s6.39-1.36,5-11.62-2.13-15.29-4.84-20.33-5.42-6.2-9.87-12.2-3.1-4.84-3.1-4.84,5.81,1.36,7.36,4.65,7,6,7,6a96.48,96.48,0,0,0-3.1-10.26c-1.55-3.87-2.32-6-2.32-6s7.36,6.78,7.74,7.74-4.26-13.75-4.26-13.75l8.91,3.29,2.52,14.33,5-8.13,1.36,17.81Z" transform="translate(-54.35 -158.92)"/><path class="cls-13" d="M454.49,526.92s2.71-1,6.2,2.32,3.49,3.49,3.49,3.49-6.39-2.13-9.49-2.13-5.61.19-5.61,0.19,4.07-3.87,5.42-3.87M457,507.56c1.16,0.19,5.23,3.48,7.74,6.39s5.23,6.78,5.23,6.78l2.52,5.81S460.11,511,457,507.56Zm-46.66,31.56s12.39-19.36,20.52-23a19.15,19.15,0,0,1,14.91-.58S434.74,512.6,410.35,539.12Zm-31-35.24s7.74-2.52,13.17-.77,9.49-1.55,13.36,0,1.35,4.84-1,7.36-5.81,3.1-9.1,7-10.45,9.68-12.78,4.26,1.16-4.45-2.52-9.68S378.79,503.69,379.37,503.88Zm1.16-21.68,2.32-1.94a39.48,39.48,0,0,0,9.49,1.94l5.23,0.39S384.6,487,380.53,482.2Zm196.32,27.3s1,2.52,6.39,7.55A23.75,23.75,0,0,1,590,527.31s-4.07-3.29-8.33-2.52-8.52,2.71-10.84,1-8.52,1-8.52,1,6-2.71,7.74-6.2,1.16-5,1.16-5Zm-88.09,3.68s3.1,14.13.39,17.23-5.42,4.26-3.49,6.78,7.55,3.87,9.68,6.78,3.29,4.45,3.29,4.45,7.74-2.32,6.78-6.2,0.19-4.84-1.74-10.07a40.76,40.76,0,0,1-2.32-9.1s-1.94,4.84-4.65,1.36S492.83,514.53,488.76,513.18Z" transform="translate(-54.35 -158.92)"/><path class="cls-13" d="M526.22,337.66c2.72-2.29,4.26-7.54,3.25-8.82-1.22-1.55-1.3-1.1-2-1.41l0-.4a4.82,4.82,0,0,1-1.91-2.4c-1.18-4-.26-8.13.26-12.1,0.27-2.06-1.56-9-1.56-9s2.5,4.41,2.76,7.58-1,8.41-.37,12.75a2.38,2.38,0,0,0,1,1.85c6.46-19.9,3.67-49.05-29.65-51.26-9.16-.61-16.41,1.06-22,4.23,6,4.88,20.38,16.91,30.65,28.34,1.39,1.55,2.71,3.13,4,4.72,8.15,0.84,8.91,5.42,8.5,10.79q-0.05.69-.13,1.35a134.55,134.55,0,0,1,7.27,13.75M481.3,309.79c9.25,0.73,9.24,5.2,8.81,10.83s-8,9.6-13.73,9.22-6.75-4.93-6.32-10.55S472,309.06,481.3,309.79Zm11.57,32s-7.83.78-5.94-5.4,5.91-10.06,7.12-10.19c1.18,0.3,4.57,4.66,5.51,11S492.87,341.8,492.87,341.8Zm0.38-80q1.36,0,2.74,0l2.57,7.91-0.21,0c-0.57,0-1.14-.06-1.71-0.08Zm-4.57.34q1-.12,2-0.2L494,269.6l-1.3,0Zm-4.65.74q1-.21,2.09-0.38l3.93,7.32-1.39.16Zm-5.16,1.3q1.31-.4,2.64-0.73l4.54,7q-1,.18-1.89.4Zm-4.34,1.51q0.94-.37,1.89-0.7l5.19,6.49-1.24.38Zm-4.29,1.92q1-.47,1.92-0.91l5.71,6-1.3.52Zm-4.65,2.59q1.16-.72,2.36-1.39l6.2,5.53c-0.58.28-1.15,0.57-1.72,0.88Zm-3.8,2.57q0.81-.6,1.64-1.17l6.71,4.91-1.1.69Zm-3.66,2.95q0.8-.7,1.63-1.37l7.1,4.35-1.12.83Zm-3.83,3.68q0.94-1,1.93-1.94l7.45,3.74q-0.73.63-1.44,1.28Zm-3,3.46q0.63-.78,1.28-1.54l7.78,3-0.89.94Zm-2.79,3.78q0.59-.88,1.22-1.74l8,2.36q-0.44.54-.87,1.09Zm-2.75,4.54q0.65-1.2,1.36-2.37l8.19,1.69q-0.55.79-1.06,1.6Zm-2,4.11c0.27-.61.55-1.22,0.84-1.82l8.32,0.9c-0.21.38-.42,0.76-0.62,1.14ZM442,299.68c0.23-.67.47-1.33,0.73-2l8.36,0.22c-0.19.42-.37,0.85-0.55,1.28Zm-1.47,5.08q0.32-1.33.7-2.63l8.36-.48c-0.21.6-.42,1.21-0.61,1.82Zm-0.88,4.47c0.1-.66.22-1.31,0.34-2L448.3,306q-0.16.62-.3,1.25Zm-0.51,4.64c0-.13,0-0.27,0-0.4,0-.57.1-1.13,0.16-1.69l8.15-1.94c-0.08.45-.14,0.91-0.21,1.37Zm-0.12,5.28q0-1.35,0-2.72l8-2.62,0,0.18c0,0.58-.07,1.15-0.1,1.73Zm0.31,4.54q-0.11-1-.18-2l7.69-3.36q0,0.64,0,1.28Zm0.7,4.61q-0.2-1-.37-2.07l7.39-4c0,0.46.09,0.92,0.15,1.38Zm1.27,5.11q-0.39-1.29-.71-2.61l7-4.57q0.17,0.94.38,1.87Zm1.48,4.29c-0.24-.62-0.47-1.24-0.69-1.86l6.57-5.21q0.18,0.62.37,1.23Zm1.89,4.25q-0.47-.94-0.9-1.9l6.12-5.73q0.25,0.64.51,1.28Zm2.56,4.59q-0.71-1.15-1.37-2.33l5.62-6.21c0.27,0.57.56,1.13,0.86,1.69Zm2.55,3.75q-0.59-.8-1.15-1.61l5-6.71q0.33,0.55.68,1.09Zm2.93,3.61q-0.69-.79-1.36-1.6l4.43-7.1q0.4,0.56.82,1.1Zm3.67,3.77q-1-.93-1.93-1.9l3.82-7.44q0.62,0.72,1.27,1.41Zm3.44,3q-0.78-.62-1.54-1.26l3.1-7.76,0.94,0.87Zm3.77,2.74q-0.88-.58-1.73-1.2l2.45-8,1.08,0.85Zm4.53,2.7q-1.2-.64-2.36-1.33l1.76-8.16q0.79,0.53,1.6,1Zm4.11,2c-0.61-.26-1.22-0.53-1.82-0.82l1-8.28,1.13,0.6Zm4.37,1.66q-1-.33-2-0.71l0.29-8.32,1.27,0.54Zm5.09,1.42q-1.33-.3-2.63-0.67l-0.42-8.31c0.6,0.21,1.2.41,1.82,0.59ZM486.2,372c-0.66-.1-1.32-0.21-2-0.32L483,363.42l1.25,0.28Zm4.66,0.48-0.33,0c-0.6,0-1.19-.09-1.78-0.15l-1.89-8.1,1.37,0.19Zm5.3,0.08q-1.36,0-2.73,0l-2.57-7.91,0.26,0c0.55,0,1.1.06,1.65,0.08Zm4.56-.34q-1,.11-2,0.19l-3.32-7.62,1.29,0Zm4.64-.73q-1,.21-2.08.38l-3.94-7.32,1.38-.16Zm5.15-1.29q-1.31.39-2.63,0.73l-4.54-7q0.94-.18,1.88-0.39Zm4.33-1.5c-0.62.25-1.25,0.48-1.88,0.7l-5.19-6.49,1.24-.38Zm4.29-1.91q-1,.47-1.92.9l-5.71-6,1.29-.51Zm4.65-2.58q-1.16.72-2.36,1.38L515.22,360c0.58-.28,1.15-0.57,1.71-0.87Zm3.8-2.56q-0.81.59-1.63,1.16l-6.71-4.92,1.1-.68Zm3.67-2.94q-0.8.7-1.62,1.36l-7.1-4.35,1.12-.83Zm3.83-3.67q-0.94,1-1.93,1.94l-7.45-3.74q0.73-.62,1.44-1.27Zm3-3.45q-0.63.78-1.28,1.54l-7.79-3,0.89-.94Zm2.79-3.77q-0.59.88-1.22,1.73l-8-2.37q0.44-.54.87-1.09Zm2.76-4.53q-0.65,1.2-1.37,2.36l-8.2-1.69q0.55-.79,1.06-1.6Zm2-4.1q-0.4.91-.84,1.81l-8.33-.9q0.32-.56.62-1.14Zm1.72-4.36c-0.23.67-.47,1.33-0.73,2l-8.37-.22q0.29-.63.56-1.27Zm1.48-5.08q-0.32,1.33-.7,2.63l-8.37.48c0.21-.6.42-1.2,0.61-1.82Zm0.89-4.47c-0.1.66-.22,1.31-0.35,2l-8.28,1.27c0.11-.42.2-0.83,0.3-1.25Zm0.52-4.64c0,0.1,0,.2,0,0.29q-0.07.91-.17,1.81l-8.16,1.94q0.11-.68.21-1.37Zm0.13-5.28q0,1.35,0,2.72l-8,2.62c0-.1,0-0.19,0-0.29,0-.54.07-1.08,0.09-1.62Zm-0.3-4.54q0.11,1,.18,2l-7.7,3.36q0-.65,0-1.29Zm-0.7-4.61q0.2,1,.37,2.07l-7.4,4q-0.07-.69-0.15-1.38ZM548.15,301q0.39,1.3.71,2.62l-7,4.58q-0.17-.94-0.38-1.87Zm-1.48-4.3q0.36,0.93.69,1.87l-6.57,5.22c-0.12-.41-0.24-0.82-0.37-1.23Zm-1.88-4.26q0.47,0.94.9,1.9l-6.12,5.73q-0.25-.65-0.51-1.29Zm-2.56-4.6q0.71,1.15,1.37,2.34L538,296.43c-0.28-.57-0.56-1.14-0.86-1.7Zm-2.55-3.76q0.59,0.8,1.16,1.62l-5,6.72q-0.33-.55-0.68-1.09Zm-2.93-3.62q0.7,0.79,1.36,1.61l-4.44,7.1q-0.41-.56-0.83-1.11Zm-3.67-3.79q1,0.93,1.94,1.91l-3.82,7.44q-0.62-.72-1.28-1.42Zm-3.45-3q0.78,0.62,1.54,1.27l-3.1,7.77-0.94-.88ZM525.85,271q0.88,0.59,1.74,1.2l-2.45,8-1.09-.86Zm-4.54-2.71q1.21,0.64,2.37,1.34l-1.77,8.16q-0.79-.54-1.61-1Zm-4.11-2c0.61,0.26,1.22.53,1.82,0.82l-1,8.28-1.14-.61Zm-4.37-1.67q1,0.34,2,.71l-0.29,8.32-1.28-.54Zm-5.1-1.42q1.34,0.31,2.65.67l0.42,8.31c-0.6-.21-1.21-0.41-1.83-0.59Zm-4.5-.84c0.66,0.1,1.32.21,2,.33l1.21,8.22-1.26-.29Zm-4.29-.45,1.74,0.15,1.89,8.09-1.38-.19-2.62-8.07Zm-7.08,93.23,0.45-.06a25.69,25.69,0,0,0-.31,4.43c0.53,0.57,3.89.91,4-.37s0.52-3.38.12-4.65l1-.17a22.89,22.89,0,0,0-.35,4.6c0.53,0.57,3.89.91,4-.37,0.13-1.55.6-3.73,0-5l1-.23a36.45,36.45,0,0,0-.22,4c0.53,0.57,3.89.91,4-.37,0.13-1.47.55-3.5,0.08-4.76l0.3-.11,0.09,0c-0.13,1.13-.06,2.38-0.12,3.23,0.53,0.53,3.9.86,4-.33,0-.38.09-0.8,0.14-1.24,1,0.06,2.16-.12,2.22-0.8a13.49,13.49,0,0,0,.15-4.16l0.11-.1s-0.63-5.12,1.52-6.6c1.72-1.18,4.86-2.14,8-2.92-1-2.19-2.63-5.56-4.86-9.52-1.19,1.7-3,2.66-5.88,2.47-5.78-.39-12.62-5.32-12.2-10.95,0.34-4.53.84-8.28,5.85-9.31q-0.8-.94-1.64-1.88c-10.71-11.91-26.08-24.58-31.18-28.69-11.79,9.47-14.09,26.73-11,40.09,0.68,0,1.33-.47,1.74-1.8,1.3-4.21.84-9.56,1.56-12.67s3.87-7.13,3.87-7.13-2.85,6.6-2.9,8.67c-0.08,4,.21,8.21-1.57,12a5.33,5.33,0,0,1-2.69,2.32l-0.07,0v0.11a3.07,3.07,0,0,0-2.46,1.19c-1.48,1.4-.07,9,3.6,10.39s7.84,3.06,9.75,4.81,0.51,6.73.51,6.73l0.12,0.14a13.82,13.82,0,0,0-.47,4.11c0,0.68,1,1,2.08,1.08,0,0.44,0,.87,0,1.25-0.08,1.19,3.3,1.31,3.91.85,0.06-.85.33-2.07,0.37-3.2l0,0,0.31,0.17c-0.64,1.19-.53,3.25-0.63,4.71-0.08,1.28,3.3,1.39,3.91.9a37.23,37.23,0,0,0,.39-4l0.91,0.35c-0.77,1.15-.64,3.36-0.75,4.91-0.08,1.28,3.3,1.39,3.91.9a23.15,23.15,0,0,0,.35-4.59l0.92,0.29c-0.58,1.2-.49,3.19-0.58,4.61s3.3,1.39,3.91.9a25.88,25.88,0,0,0,.37-4.42Z" transform="translate(-54.35 -158.92)"/></svg>